<?xml version="1.0" encoding="UTF-8"?>
<svg version="1.1" xmlns="http://www.w3.org/2000/svg" width="500" height="571">
<path d="M0 0 C0.72587059 -0.00282738 1.45174118 -0.00565475 2.19960785 -0.00856781 C6.05901934 -0.0234333 9.91839484 -0.03273607 13.77783203 -0.03710938 C16.87984307 -0.0414428 19.98156791 -0.05515081 23.08349609 -0.078125 C83.8240698 -0.51837105 174.60539808 1.53120368 221.234375 46.203125 C222.04390625 46.97269531 222.8534375 47.74226563 223.6875 48.53515625 C234.21274176 59.31504096 234.82153488 70.70197881 234.73558044 85.05557251 C234.73947761 86.86119409 234.74512138 88.6668126 234.75235134 90.47242391 C234.76706387 95.41279344 234.75694977 100.35284286 234.74261463 105.29320192 C234.73148498 110.62930628 234.74345397 115.96536646 234.75245667 121.3014679 C234.76637696 131.7458992 234.75884211 142.19020946 234.74378108 152.63463499 C234.72690759 164.79962634 234.73013289 176.96458766 234.73387516 189.1295871 C234.7397514 210.83478824 234.72559074 232.53993134 234.70092773 254.24511719 C234.67700175 275.30405858 234.6699261 296.36292245 234.68041992 317.421875 C234.6918297 340.36002904 234.69375889 363.29814723 234.67932183 386.23630083 C234.677796 388.68220607 234.67627564 391.12811132 234.67476082 393.57401657 C234.674003 394.77742148 234.67324519 395.9808264 234.67246441 397.22069813 C234.66772252 405.6995222 234.66957231 414.17833026 234.67382622 422.65715408 C234.67875324 432.98895159 234.67276665 443.32067581 234.65293192 453.65245654 C234.643062 458.92342672 234.63795168 464.19428532 234.64582443 469.46526146 C234.65288514 474.29128136 234.64606736 479.11707616 234.6282208 483.9430664 C234.62417891 485.6878348 234.62517183 487.43262374 234.63173967 489.17738445 C234.67975605 503.12817048 233.20099837 512.68833734 223.234375 523.203125 C185.18617282 559.83069626 117.16575063 566.53915891 67.234375 570.203125 C66.13125977 570.28997559 65.02814453 570.37682617 63.89160156 570.46630859 C49.43904787 571.47231614 34.96581242 571.44884645 20.484375 571.453125 C19.79812923 571.45356686 19.11188347 571.45400871 18.40484238 571.45446396 C-4.10435984 571.46204749 -26.40024171 570.9228281 -48.765625 568.203125 C-49.86182159 568.0723053 -49.86182159 568.0723053 -50.98016357 567.93884277 C-158.90809019 554.98760789 -158.90809019 554.98760789 -188.765625 518.203125 C-192.95845638 512.2696665 -194.19466088 507.36243441 -194.765625 500.203125 C-195.64710205 500.21883545 -196.5285791 500.2345459 -197.43676758 500.25073242 C-200.75990886 500.30237392 -204.08261347 500.33972053 -207.40600586 500.36791992 C-208.83446045 500.3828515 -210.26287048 500.40320438 -211.69116211 500.42944336 C-227.16075964 500.70617064 -241.25344138 498.04612668 -252.953125 487.1484375 C-260.73818158 478.79292418 -265.86925661 468.36753724 -265.91279602 456.91845703 C-265.91995132 455.62610641 -265.92710663 454.3337558 -265.93447876 453.00224304 C-265.9373189 451.5718081 -265.94003065 450.1413729 -265.94262695 448.7109375 C-265.94889442 447.20274195 -265.95554148 445.69454793 -265.96253967 444.18635559 C-265.98355694 439.23362295 -265.99394308 434.28089009 -266.00390625 429.328125 C-266.00795533 427.61963892 -266.0120723 425.91115299 -266.01625633 424.20266724 C-266.03530656 416.17119425 -266.04953532 408.13973041 -266.0578683 400.10823917 C-266.06762636 390.85724814 -266.09390905 381.60649729 -266.13436919 372.35559082 C-266.16461057 365.19359645 -266.17934494 358.03167059 -266.18264931 350.86961365 C-266.18499157 346.59796483 -266.19384317 342.32657262 -266.21911049 338.05499268 C-266.24253572 334.02969351 -266.24656705 330.00481727 -266.23634911 325.97946739 C-266.23585705 324.51061273 -266.24207896 323.04173622 -266.25590515 321.57294655 C-266.38890594 306.59269151 -263.0799748 294.99655443 -252.6640625 283.98046875 C-243.62868363 275.43996045 -233.15161064 270.82535214 -220.64453125 271.0078125 C-219.52738991 271.01205734 -219.52738991 271.01205734 -218.38768005 271.01638794 C-216.03432399 271.02748583 -213.68136391 271.0525699 -211.328125 271.078125 C-209.72201075 271.08816828 -208.11589046 271.09729176 -206.50976562 271.10546875 C-202.59490204 271.12739093 -198.6803304 271.16184739 -194.765625 271.203125 C-194.76931217 270.15582781 -194.77299934 269.10853062 -194.77679825 268.02949715 C-194.86564684 242.53143343 -194.93135195 217.03338982 -194.97287369 191.53520393 C-194.99348766 179.20440286 -195.02158614 166.87370413 -195.06738281 154.54296875 C-195.10728606 143.79390038 -195.13306628 133.04490614 -195.14197898 122.29576576 C-195.14718777 116.60561372 -195.15940637 110.91567374 -195.18854523 105.22558975 C-195.21576925 99.86581371 -195.2240558 94.50633635 -195.21805573 89.14649773 C-195.21915283 87.18336169 -195.22706486 85.22021529 -195.2424469 83.25713921 C-195.34820078 69.05990332 -194.49036116 59.24695613 -184.23828125 48.578125 C-140.22929191 6.3072474 -57.45239513 0.15587851 0 0 Z " fill="#C82A46" transform="translate(265.765625,-0.203125)"/>
<path d="M0 0 C1.08880589 -0.00424107 1.08880589 -0.00424107 2.19960785 -0.00856781 C6.05901934 -0.0234333 9.91839484 -0.03273607 13.77783203 -0.03710938 C16.87984307 -0.0414428 19.98156791 -0.05515081 23.08349609 -0.078125 C83.8240698 -0.51837105 174.60539808 1.53120368 221.234375 46.203125 C222.04390625 46.97269531 222.8534375 47.74226563 223.6875 48.53515625 C233.38866864 58.47103059 234.83697754 68.59615725 234.76782227 82.12280273 C234.77489548 83.59262959 234.78364634 85.06244918 234.79393005 86.53225708 C234.81627686 90.49315009 234.81351917 94.45364075 234.80460858 98.41457248 C234.79946886 101.73441895 234.8068153 105.05419178 234.81408066 108.37403065 C234.83103293 116.2120668 234.82756115 124.04990804 234.81079102 131.88793945 C234.79387247 139.94573869 234.80971094 148.00299604 234.8420139 156.06073612 C234.86879268 163.00635139 234.87596359 169.95179885 234.86749882 176.89746052 C234.86259388 181.03376206 234.86465208 185.16973783 234.88528633 189.30599785 C234.90377472 193.19775053 234.89752667 197.08872977 234.87308693 200.98044205 C234.86812044 202.39929516 234.87145918 203.81820858 234.88423538 205.23701286 C234.99195313 218.23886052 232.02341331 228.38872906 222.8671875 237.83203125 C205.16024825 253.77878515 182.00393319 262.43622511 159.35449219 268.61474609 C157.29739252 269.18563626 155.25481409 269.79381986 153.2109375 270.41015625 C128.11346186 277.74692557 101.2036053 280.88105171 75.234375 283.203125 C73.62103271 283.3575708 73.62103271 283.3575708 71.97509766 283.51513672 C36.32135847 286.83945796 -0.11864716 286.3872899 -35.765625 283.203125 C-37.72654661 283.04537524 -39.68748329 282.88781278 -41.6484375 282.73046875 C-43.37525856 282.5784295 -45.10184722 282.42371339 -46.828125 282.265625 C-47.56667725 282.2032666 -48.30522949 282.1409082 -49.06616211 282.07666016 C-53.56563042 281.6076637 -56.8356964 280.40194962 -60.765625 278.203125 C-62.63535672 277.31692339 -64.51024805 276.44150935 -66.390625 275.578125 C-67.31101562 275.15273438 -68.23140625 274.72734375 -69.1796875 274.2890625 C-73.84539588 272.3297469 -77.6708366 272.10074873 -82.75 272.1328125 C-100.84536345 272.09897296 -116.67263284 270.73068137 -133.765625 264.203125 C-134.73483887 263.84089844 -135.70405273 263.47867187 -136.70263672 263.10546875 C-152.74142274 257.04173539 -167.40861346 250.14408887 -180.765625 239.203125 C-181.4565625 238.63980469 -182.1475 238.07648438 -182.859375 237.49609375 C-189.56598065 231.45132418 -193.55809376 223.07540102 -194.765625 214.203125 C-194.85843689 212.11364715 -194.90446513 210.02175835 -194.91279602 207.93023682 C-194.91995132 206.69114563 -194.92710663 205.45205444 -194.93447876 204.17541504 C-194.93731846 202.8151858 -194.94003026 201.45495629 -194.94262695 200.09472656 C-194.9488984 198.65195556 -194.9555458 197.20918614 -194.96253967 195.76641846 C-194.98349864 191.0422069 -194.99393331 186.31799532 -195.00390625 181.59375 C-195.00795664 179.96260309 -195.01207364 178.33145633 -195.01625633 176.70030975 C-195.03528881 169.03619584 -195.04952479 161.37209144 -195.0578683 153.70795846 C-195.06763852 144.8808864 -195.0939605 136.05406523 -195.13436919 127.22708154 C-195.16458602 120.3903407 -195.17934237 113.55367159 -195.18264931 106.7168653 C-195.18499309 102.63980684 -195.19386574 98.56301701 -195.21911049 94.48603058 C-195.2424947 90.64784189 -195.24658335 86.8100968 -195.23634911 82.97185516 C-195.23585617 81.56988544 -195.2421047 80.16789309 -195.25590515 78.76599121 C-195.37342914 66.11099308 -193.07020309 57.76906805 -184.23828125 48.578125 C-140.22929191 6.3072474 -57.45239513 0.15587851 0 0 Z " fill="#FA7597" transform="translate(265.765625,-0.203125)"/>
<path d="M0 0 C0.33 0 0.66 0 1 0 C1.07016615 18.61980604 1.1230254 37.23958515 1.15543652 55.85949612 C1.17088739 64.50557825 1.19194279 73.15157811 1.22631836 81.79760742 C1.25627531 89.33589153 1.27558793 96.87411602 1.28226548 104.412458 C1.2861671 108.40178596 1.29529911 112.39094343 1.31719017 116.3802166 C1.33765497 120.14028181 1.34381377 123.90010739 1.33932304 127.66022301 C1.34053315 129.68744346 1.35662272 131.71463823 1.3732605 133.74179077 C1.33115841 146.23778385 -1.37034126 153.89571003 -10 163 C-48.04820218 199.62757126 -116.06862437 206.33603391 -166 210 C-167.10311523 210.08685059 -168.20623047 210.17370117 -169.34277344 210.26318359 C-183.79532713 211.26919114 -198.26856258 211.24572145 -212.75 211.25 C-213.43624577 211.25044186 -214.12249153 211.25088371 -214.82953262 211.25133896 C-237.33873484 211.25892249 -259.63461671 210.7197031 -282 208 C-282.73079773 207.91278687 -283.46159546 207.82557373 -284.21453857 207.73571777 C-392.07069234 194.79309556 -392.07069234 194.79309556 -422 158 C-425.36182754 153.32152982 -427.03379235 149.58708928 -427.55908203 143.83129883 C-427.68550583 142.47564568 -427.68550583 142.47564568 -427.81448364 141.09260559 C-427.87570404 140.40204575 -427.93692444 139.7114859 -428 139 C-427.39776737 138.99853344 -426.79553474 138.99706688 -426.17505264 138.99555588 C-411.4748132 138.95839313 -396.7747735 138.8992538 -382.0747261 138.81609726 C-374.96566677 138.77640392 -367.85671657 138.74396246 -360.74755859 138.72900391 C-354.54624127 138.71593671 -348.34516507 138.68884425 -342.1439836 138.64538693 C-338.86492395 138.62288473 -335.58622203 138.60917567 -332.3070755 138.60811615 C-328.63306509 138.60573612 -324.95998219 138.57857065 -321.28613281 138.54589844 C-320.21653824 138.5509288 -319.14694366 138.55595917 -318.04493713 138.56114197 C-305.75292306 138.3931131 -293.99055908 134.2902746 -284.77734375 126 C-272.78120608 113.44329515 -271.71278295 98.39914094 -271.375 81.9375 C-271.33674483 80.38865172 -271.29768894 78.83982301 -271.2578125 77.29101562 C-271.16263921 73.52750579 -271.07831503 69.76389683 -271 66 C-262.95681349 65.95040173 -254.95040677 65.98852905 -246.91430664 66.35644531 C-213.84887521 67.85652044 -180.91614909 67.61537452 -148 64 C-147.23856689 63.9175 -146.47713379 63.835 -145.69262695 63.75 C-102.47263971 59.02700045 -47.59103754 51.83414518 -14 22 C-12.8553125 21.01773437 -12.8553125 21.01773437 -11.6875 20.015625 C-5.72820217 14.5383292 -1.73295876 7.95336861 0 0 Z " fill="#991232" transform="translate(499,360)"/>
<path d="M0 0 C0.33 0 0.66 0 1 0 C1.09362121 18.32448118 1.16406609 36.64889991 1.20724869 54.97356892 C1.22783593 63.48286772 1.25588271 71.99201755 1.30175781 80.5012207 C1.34174358 87.92159718 1.36746068 95.3418657 1.37635398 102.76234692 C1.38154897 106.68808342 1.39367794 110.6135112 1.42292023 114.53914833 C1.4502755 118.24181621 1.45840495 121.94405119 1.45243073 125.64681053 C1.45403844 127.63788785 1.47545519 129.62891913 1.49768066 131.61987305 C1.44310183 143.62946528 -1.24766204 152.08228158 -9.66015625 160.7265625 C-10.43230469 161.47679687 -11.20445312 162.22703125 -12 163 C-12.61746094 163.62648438 -13.23492187 164.25296875 -13.87109375 164.8984375 C-19.76862205 170.5042601 -26.85133536 174.24704607 -34 178 C-35.08539063 178.57621094 -36.17078125 179.15242187 -37.2890625 179.74609375 C-71.32126195 196.68395853 -110.5670982 202.94420787 -148 207 C-148.75112061 207.0825 -149.50224121 207.165 -150.27612305 207.25 C-176.18793967 210.07033378 -201.95517164 210.47395268 -228 210 C-228.74258057 209.98690796 -229.48516113 209.97381592 -230.25024414 209.96032715 C-234.77200134 209.87725767 -239.29203476 209.76344841 -243.8125 209.625 C-245.39140015 209.57907715 -245.39140015 209.57907715 -247.00219727 209.53222656 C-252.5215914 209.31607746 -257.90719597 208.77776383 -263.3737793 207.97412109 C-264.61918991 207.79223236 -265.86460052 207.61034363 -267.14775085 207.42294312 C-268.08899307 207.28337189 -269.03023529 207.14380066 -270 207 C-270.13162159 195.20246297 -270.26209087 183.40491378 -270.39115143 171.60734844 C-270.45113575 166.12730481 -270.51149404 160.64726586 -270.57275391 155.16723633 C-270.63202999 149.86336548 -270.6902625 144.55948404 -270.74781799 139.25559425 C-270.76978063 137.2477561 -270.79209831 135.23992179 -270.81480408 133.2320919 C-270.84692309 130.38610177 -270.87761852 127.54009877 -270.90820312 124.6940918 C-270.91884544 123.79286433 -270.92948776 122.89163687 -270.94045258 121.96309948 C-270.98753235 117.53265061 -270.99962612 113.10659666 -270.94311523 108.67617798 C-270.93453239 107.82276982 -270.92594955 106.96936167 -270.91710663 106.09009266 C-270.89888753 104.50264703 -270.87241 102.91526174 -270.83539581 101.32814312 C-270.79525778 97.54225849 -271.08757327 94.25465922 -272.06945801 90.5867157 C-273 87 -273 87 -272 85 C-272.66 84.67 -273.32 84.34 -274 84 C-275.0703125 82.2578125 -275.0703125 82.2578125 -276.125 80.125 C-276.65480469 79.07699219 -276.65480469 79.07699219 -277.1953125 78.0078125 C-278 76 -278 76 -278 73 C-278.99 72.67 -279.98 72.34 -281 72 C-282.0625 70.1875 -282.0625 70.1875 -283 68 C-283.37125 67.2575 -283.7425 66.515 -284.125 65.75 C-284.558125 64.88375 -284.558125 64.88375 -285 64 C-279.93541408 62.49859875 -275.09445624 63.31690354 -269.9375 63.875 C-251.20247354 65.87077926 -232.45171168 66.20681018 -213.625 66.1875 C-211.97975342 66.18659363 -211.97975342 66.18659363 -210.30126953 66.18566895 C-192.78364164 66.15957453 -175.44199382 65.75195974 -158 64 C-157.34183289 63.93447937 -156.68366577 63.86895874 -156.0055542 63.80145264 C-75.51387411 56.25490471 -75.51387411 56.25490471 -8 16 C-4.41654173 11.03710296 -1.5669458 5.95439402 0 0 Z " fill="#DF345F" transform="translate(499,218)"/>
<path d="M0 0 C11.55 0 23.1 0 35 0 C38.25985535 7.82365283 41.32980992 15.51604997 44.046875 23.515625 C44.41572311 24.59013412 44.78457123 25.66464325 45.16459656 26.77171326 C45.95392866 29.07173848 46.74162444 31.37232583 47.52780151 33.6734314 C49.62038443 39.79704097 51.72590935 45.91619229 53.83203125 52.03515625 C54.26036758 53.28009354 54.68870392 54.52503082 55.13002014 55.80769348 C60.18002943 70.46138056 65.36600236 85.06648811 70.56738281 99.66699219 C80 126.15440307 80 126.15440307 80 130 C70.1 130 60.2 130 50 130 C44.3324937 116.39798489 44.3324937 116.39798489 42.6875 111.375 C42.36136719 110.39273438 42.03523438 109.41046875 41.69921875 108.3984375 C41 106 41 106 41 104 C25.16 104.33 9.32 104.66 -7 105 C-9.59104964 112.85231359 -9.59104964 112.85231359 -12.17553711 120.70678711 C-12.4978833 121.6788208 -12.82022949 122.65085449 -13.15234375 123.65234375 C-13.6472229 125.15269165 -13.6472229 125.15269165 -14.15209961 126.68334961 C-15 129 -15 129 -16 130 C-18.21855264 130.08783542 -20.43988496 130.10694609 -22.66015625 130.09765625 C-23.65685585 130.09553383 -23.65685585 130.09553383 -24.6736908 130.09336853 C-26.80333899 130.08775518 -28.93288339 130.07520054 -31.0625 130.0625 C-32.50325369 130.05748671 -33.94400903 130.05292351 -35.38476562 130.04882812 C-38.92321102 130.03778145 -42.46159539 130.02050792 -46 130 C-45.38669641 126.63494818 -44.56444432 123.49349941 -43.42797852 120.26879883 C-43.10509354 119.34760254 -42.78220856 118.42640625 -42.44953918 117.47729492 C-41.91957588 115.9822644 -41.91957588 115.9822644 -41.37890625 114.45703125 C-41.00726852 113.40064453 -40.6356308 112.34425781 -40.25273132 111.25585938 C-39.0262641 107.7734547 -37.79458772 104.29291974 -36.5625 100.8125 C-35.70726472 98.38959955 -34.85212265 95.96666619 -33.99707031 93.54370117 C-28.13382714 76.94785636 -22.2124527 60.37296442 -16.25 43.8125 C-15.88294952 42.79298248 -15.51589905 41.77346497 -15.13772583 40.72305298 C-11.4684343 30.53833017 -7.77891916 20.36113016 -4.046875 10.19921875 C-3.75306946 9.3973262 -3.45926392 8.59543365 -3.15655518 7.76924133 C-1.11881598 2.23763196 -1.11881598 2.23763196 0 0 Z " fill="#FEFCFD" transform="translate(97,320)"/>
<path d="M0 0 C0.33 0 0.66 0 1 0 C1.20625 1.27875 1.4125 2.5575 1.625 3.875 C4.76636415 17.8463818 15.35875185 26.20294549 26.85546875 33.515625 C40.33098594 41.77594203 55.56552815 47.61076184 70.78564453 51.75927734 C71.6929834 52.00758301 72.60032227 52.25588867 73.53515625 52.51171875 C74.36539307 52.72658936 75.19562988 52.94145996 76.05102539 53.1628418 C77.01576782 53.57723511 77.01576782 53.57723511 78 54 C78.33 54.99 78.66 55.98 79 57 C52.93 57 26.86 57 0 57 C0 38.19 0 19.38 0 0 Z " fill="#B81E30" transform="translate(71,214)"/>
<path d="M0 0 C2 1 2 1 3.2265625 4.33984375 C3.70078718 5.86991524 4.16620008 7.40273277 4.625 8.9375 C4.87789795 9.76419189 5.1307959 10.59088379 5.39135742 11.44262695 C5.95314103 13.27931128 6.51214277 15.11684805 7.06884766 16.95507812 C8.0709398 20.23197725 9.10166831 23.49899285 10.13671875 26.765625 C10.8622104 29.07284397 11.58747297 31.38013499 12.3125 33.6875 C12.66199707 34.78505615 13.01149414 35.8826123 13.37158203 37.01342773 C13.69884277 38.06473877 14.02610352 39.1160498 14.36328125 40.19921875 C14.65501221 41.12565186 14.94674316 42.05208496 15.24731445 43.0065918 C16.15220582 46.60531804 16.53973822 50.31790575 17 54 C6.11 54 -4.78 54 -16 54 C-14.79927546 48.59673957 -13.65248271 43.56462062 -12.01171875 38.33984375 C-11.63716553 37.14061279 -11.2626123 35.94138184 -10.87670898 34.70581055 C-10.48427002 33.46226807 -10.09183105 32.21872559 -9.6875 30.9375 C-9.28229137 29.64439426 -8.87742665 28.3511807 -8.47290039 27.05786133 C-7.67985569 24.52427612 -6.88449043 21.99145838 -6.08789062 19.45898438 C-4.91415442 15.72705113 -3.74772269 11.99288837 -2.58325195 8.25805664 C-1.72453104 5.50463053 -0.86251308 2.75224023 0 0 Z " fill="#C82845" transform="translate(113,346)"/>
</svg>
