<?xml version="1.0" encoding="UTF-8"?>
<!DOCTYPE svg PUBLIC "-//W3C//DTD SVG 1.1//EN" "http://www.w3.org/Graphics/SVG/1.1/DTD/svg11.dtd">
<svg xmlns="http://www.w3.org/2000/svg" version="1.1" width="200px" height="195px" style="shape-rendering:geometricPrecision; text-rendering:geometricPrecision; image-rendering:optimizeQuality; fill-rule:evenodd; clip-rule:evenodd" xmlns:xlink="http://www.w3.org/1999/xlink">
<g><path style="opacity:1" fill="#ae0600" d="M 24.5,-0.5 C 74.5,-0.5 124.5,-0.5 174.5,-0.5C 186.925,4.25795 195.258,12.9246 199.5,25.5C 199.5,73.1667 199.5,120.833 199.5,168.5C 195.258,181.075 186.925,189.742 174.5,194.5C 124.5,194.5 74.5,194.5 24.5,194.5C 12.0749,189.742 3.74159,181.075 -0.5,168.5C -0.5,120.833 -0.5,73.1667 -0.5,25.5C 3.74159,12.9246 12.0749,4.25795 24.5,-0.5 Z"/></g>
<g><path style="opacity:1" fill="#b2372a" d="M 101.5,38.5 C 98.2356,37.6758 94.9023,37.3424 91.5,37.5C 93.9217,35.1854 96.755,34.852 100,36.5C 101.03,36.8361 101.53,37.5028 101.5,38.5 Z"/></g>
<g><path style="opacity:1" fill="#f9f1ef" d="M 91.5,37.5 C 94.9023,37.3424 98.2356,37.6758 101.5,38.5C 105.86,43.0634 108.193,48.5634 108.5,55C 107.867,61.9032 106.867,68.7366 105.5,75.5C 104.072,78.4128 103.072,81.5795 102.5,85C 102.639,86.301 103.305,87.1344 104.5,87.5C 108.402,94.4012 113.069,100.734 118.5,106.5C 129.663,106.213 140.997,106.546 152.5,107.5C 156.304,108.782 159.471,111.115 162,114.5C 164.216,121.388 162.049,126.221 155.5,129C 146.268,130.558 137.601,129.058 129.5,124.5C 124.963,121.641 120.463,118.641 116,115.5C 110.893,116.364 106.06,117.698 101.5,119.5C 95.9414,120.352 90.608,122.019 85.5,124.5C 79.794,134.042 73.1273,142.875 65.5,151C 59.7296,156.128 53.0629,158.128 45.5,157C 37.8532,150.64 37.5199,143.806 44.5,136.5C 53.4128,129.544 63.0794,123.877 73.5,119.5C 79.6698,107.991 84.6698,95.9915 88.5,83.5C 89.5251,82.6261 90.1918,81.4595 90.5,80C 85.753,69.6859 83.753,58.8526 84.5,47.5C 84.8784,42.7266 87.2118,39.3933 91.5,37.5 Z"/></g>
<g><path style="opacity:1" fill="#a22316" d="M 91.5,59.5 C 90.3516,55.0189 90.1849,50.3522 91,45.5C 96.3543,42.32 98.8543,43.9866 98.5,50.5C 97.7479,57.3517 96.2479,64.0184 94,70.5C 92.4383,66.9855 91.605,63.3189 91.5,59.5 Z"/></g>
<g><path style="opacity:1" fill="#af0800" d="M 91.5,59.5 C 91.3531,54.7858 91.6864,50.1191 92.5,45.5C 93.8221,45.33 94.9887,45.6634 96,46.5C 96.9513,52.3733 96.2847,58.04 94,63.5C 93.0656,62.1416 92.2323,60.8083 91.5,59.5 Z"/></g>
<g><path style="opacity:1" fill="#af3b2b" d="M 84.5,47.5 C 83.753,58.8526 85.753,69.6859 90.5,80C 90.1918,81.4595 89.5251,82.6261 88.5,83.5C 88.6633,81.1432 88.4966,78.8098 88,76.5C 86.6667,73.1667 85.3333,69.8333 84,66.5C 83.18,59.9863 83.3467,53.6529 84.5,47.5 Z"/></g>
<g><path style="opacity:1" fill="#ab3d31" d="M 105.5,75.5 C 104.838,79.4659 104.505,83.4659 104.5,87.5C 103.305,87.1344 102.639,86.301 102.5,85C 103.072,81.5795 104.072,78.4128 105.5,75.5 Z"/></g>
<g><path style="opacity:1" fill="#aa1c0e" d="M 97.5,111.5 C 96.5,111.5 95.5,111.5 94.5,111.5C 94.5,109.833 94.5,108.167 94.5,106.5C 95.3848,102.402 97.0515,98.7357 99.5,95.5C 102.833,99.8333 106.167,104.167 109.5,108.5C 105.795,110.686 101.795,111.686 97.5,111.5 Z"/></g>
<g><path style="opacity:1" fill="#aa3829" d="M 152.5,107.5 C 140.997,106.546 129.663,106.213 118.5,106.5C 127.723,104.561 137.056,104.061 146.5,105C 148.974,105.037 150.974,105.87 152.5,107.5 Z"/></g>
<g><path style="opacity:1" fill="#a8352a" d="M 94.5,106.5 C 94.5,108.167 94.5,109.833 94.5,111.5C 95.5,111.5 96.5,111.5 97.5,111.5C 95.7986,113.423 93.7986,113.757 91.5,112.5C 92.5195,110.396 93.5195,108.396 94.5,106.5 Z"/></g>
<g><path style="opacity:1" fill="#ad0a01" d="M 136.5,120.5 C 134.25,119.87 132.25,118.87 130.5,117.5C 129.859,116.518 129.193,115.518 128.5,114.5C 135.189,113.287 141.855,113.453 148.5,115C 149.406,116.699 149.739,118.533 149.5,120.5C 145.167,121.833 140.833,121.833 136.5,120.5 Z"/></g>
<g><path style="opacity:1" fill="#a63225" d="M 136.5,120.5 C 140.833,121.833 145.167,121.833 149.5,120.5C 149.739,118.533 149.406,116.699 148.5,115C 141.855,113.453 135.189,113.287 128.5,114.5C 129.193,115.518 129.859,116.518 130.5,117.5C 128.264,116.611 126.264,115.278 124.5,113.5C 132.145,112.335 139.812,112.169 147.5,113C 151.354,114.608 152.354,117.274 150.5,121C 145.649,123.065 140.982,122.899 136.5,120.5 Z"/></g>
<g><path style="opacity:1" fill="#a81d0f" d="M 73.5,119.5 C 63.0794,123.877 53.4128,129.544 44.5,136.5C 44.33,135.178 44.6634,134.011 45.5,133C 47.5,132 49.5,131 51.5,130C 51.1667,129.667 50.8333,129.333 50.5,129C 51.7932,128.51 53.1266,128.343 54.5,128.5C 54.4208,127.07 54.7542,125.736 55.5,124.5C 61.309,122.073 67.309,120.406 73.5,119.5 Z"/></g>
<g><path style="opacity:1" fill="#ab2316" d="M 129.5,124.5 C 126.421,124.26 123.421,124.593 120.5,125.5C 119.574,122.956 118.574,120.456 117.5,118C 112.139,117.947 106.805,118.447 101.5,119.5C 106.06,117.698 110.893,116.364 116,115.5C 120.463,118.641 124.963,121.641 129.5,124.5 Z"/></g>
<g><path style="opacity:1" fill="#a91c0e" d="M 66.5,129.5 C 67.3764,129.369 68.0431,129.702 68.5,130.5C 64.3468,138.297 58.6802,144.797 51.5,150C 46.3333,151.5 44.5,149.667 46,144.5C 51.9252,138.134 58.7585,133.134 66.5,129.5 Z"/></g>
</svg>
