<?xml version="1.0" encoding="UTF-8"?>
<svg version="1.1" xmlns="http://www.w3.org/2000/svg" width="500" height="515">
<path d="M0 0 C1.31977044 -0.00453111 2.63954087 -0.00906223 3.99930435 -0.01373065 C7.63820798 -0.02589259 11.27701921 -0.02570829 14.9159385 -0.02334189 C18.84990277 -0.02293201 22.78383809 -0.03398899 26.7177887 -0.04345703 C34.41507635 -0.06002921 42.11233336 -0.06556481 49.80963736 -0.06668179 C56.06789033 -0.0676338 62.32613323 -0.07175171 68.58438301 -0.07808304 C86.34360602 -0.09568299 104.10280491 -0.10492354 121.8620367 -0.10342209 C122.81829228 -0.10334218 123.77454786 -0.10326227 124.75978088 -0.10317993 C125.71720903 -0.10309817 126.67463717 -0.10301641 127.66107828 -0.10293217 C143.18241628 -0.10211901 158.70365729 -0.12126745 174.22496723 -0.14945666 C190.17772891 -0.17820007 206.13044329 -0.19199624 222.08323151 -0.19026911 C231.03335773 -0.18960585 239.98338219 -0.19507065 248.93348503 -0.21662521 C256.5519037 -0.2348559 264.17017444 -0.23916866 271.7886055 -0.22560637 C275.67257739 -0.21908699 279.55626563 -0.21892207 283.44021034 -0.23631287 C287.00139057 -0.25209407 290.56206343 -0.2491293 294.12323166 -0.2317446 C296.0094886 -0.22724592 297.89576159 -0.24229212 299.78195661 -0.25822389 C312.93656208 -0.15217276 322.2749884 4.02040633 331.58180237 13.21664429 C338.92175944 21.14878474 342.93035972 30.08491608 342.86641502 40.97156811 C342.8699211 41.73158702 342.87342717 42.49160594 342.87703949 43.27465573 C342.88635125 45.82409175 342.88143076 48.37329924 342.87657166 50.92274475 C342.88030804 52.76799592 342.88490951 54.61324551 342.8903023 56.45849258 C342.90254938 61.53162292 342.90226981 66.60468739 342.89991355 71.67782915 C342.89950581 77.1483432 342.91054048 82.61883602 342.92002869 88.08934021 C342.9366494 98.80847687 342.94213873 109.52759154 342.94325344 120.24674001 C342.94420348 128.95979796 342.94831155 137.67284865 342.95465469 146.38590431 C342.96940357 167.06597573 342.98170409 187.74604233 342.98065758 208.4261198 C342.98061084 209.41814165 342.98061084 209.41814165 342.98056316 210.43020434 C342.98039695 213.78214587 342.98019887 217.1340874 342.97999375 220.48602893 C342.97995386 221.15172869 342.97991396 221.81742845 342.97987287 222.50330093 C342.97979199 223.84950875 342.9797084 225.19571657 342.97962208 226.54192439 C342.97839687 247.48162117 342.99340423 268.42125315 343.02076721 289.3609314 C343.05150195 312.89052746 343.0686735 336.42009124 343.06684077 359.94971019 C343.06617668 372.40650774 343.07167715 384.86323223 343.09319687 397.32001305 C343.11140292 407.92672648 343.11576073 418.53333374 343.10217802 429.14005604 C343.09564532 434.5510218 343.09554224 439.96178383 343.11288452 445.37273026 C343.12860679 450.32924062 343.12576003 455.28538555 343.10831626 460.24188695 C343.10524451 462.03193348 343.10888533 463.82200722 343.12003641 465.61202165 C343.20737347 480.6301782 340.75400583 491.67858944 330.60914612 503.26742554 C319.56579407 513.58311486 307.34020169 515.57478439 292.71386719 515.52812195 C291.43523098 515.5319475 290.15659476 515.53577304 288.839212 515.53971452 C285.31031057 515.54995676 281.78151116 515.54782234 278.2526015 515.54353392 C274.43850107 515.54105969 270.62442476 515.5500897 266.81033325 515.55757141 C259.3445084 515.57030287 251.87871954 515.5721139 244.41288566 515.56977115 C238.33962542 515.56798544 232.26637608 515.56974306 226.19311714 515.57399559 C225.32749269 515.57459078 224.46186823 515.57518597 223.57001274 515.57579919 C221.81122024 515.577011 220.05242775 515.57822514 218.29363526 515.57944157 C201.80786688 515.59031194 185.32211896 515.58815749 168.83634944 515.58205672 C153.78069814 515.57689276 138.72511165 515.58813015 123.66947316 515.60715494 C108.18793497 515.62656689 92.70642738 515.63478316 77.22487694 515.63103169 C68.54231609 515.62912413 59.85981032 515.63156333 51.17725945 515.64574623 C43.78222206 515.65770416 36.38727364 515.65901606 28.99223494 515.64695606 C25.22516173 515.64109704 21.45825088 515.63988437 17.69118881 515.65195847 C-13.82773535 515.74592832 -39.46752474 511.54443928 -63.07835388 488.89242554 C-74.39085388 477.31824849 -74.39085388 477.31824849 -74.39085388 472.26742554 C-75.63060974 472.28313599 -76.8703656 472.29884644 -78.14768982 472.31503296 C-82.79947776 472.36981987 -87.45123788 472.40395102 -92.10325623 472.43222046 C-94.10688594 472.44719695 -96.11048349 472.46758534 -98.11399841 472.4937439 C-116.64956763 472.72948306 -131.35082348 471.31632446 -145.57835388 458.23617554 C-155.63850691 447.30876794 -157.99527397 434.25056088 -157.92430115 419.90463257 C-157.93137368 418.38716804 -157.94012426 416.86971056 -157.95040894 415.3522644 C-157.97276519 411.26114704 -157.96999548 407.17041906 -157.96108747 403.07926416 C-157.95594878 399.65015836 -157.96329348 396.22112389 -157.97055954 392.79202545 C-157.98751537 384.69505664 -157.98403703 376.59827648 -157.9672699 368.50131226 C-157.95035737 360.17883385 -157.9661808 351.85688032 -157.99849278 343.53445923 C-158.02527968 336.36038141 -158.0324401 329.18646605 -158.0239777 322.01234329 C-158.01907434 317.74019776 -158.02112207 313.46836764 -158.04176521 309.19626236 C-158.06026594 305.17565363 -158.05399066 301.15579314 -158.02956581 297.13522339 C-158.02460287 295.67002602 -158.02792847 294.20477019 -158.04071426 292.73962021 C-158.16402869 277.37925795 -153.9087617 266.15637859 -143.32835388 255.11508179 C-130.5029348 242.81642099 -115.77874427 242.14202901 -98.92601013 242.22445679 C-97.11622681 242.2291095 -97.11622681 242.2291095 -95.2698822 242.2338562 C-92.31018153 242.2419128 -89.35053022 242.25319259 -86.39085388 242.26742554 C-86.39361926 241.42573287 -86.39638464 240.5840402 -86.39923382 239.7168417 C-86.46565222 219.18240693 -86.51521136 198.64799082 -86.5462904 178.11347103 C-86.56172167 168.1828976 -86.58273921 158.25239613 -86.61717224 148.3218689 C-86.64718961 139.66065325 -86.66645603 130.99948974 -86.67311937 122.33822352 C-86.67701083 117.75738315 -86.68607724 113.17669189 -86.70804405 108.59589958 C-86.72860472 104.2727717 -86.7346487 99.94985251 -86.73017693 95.62668037 C-86.73099346 94.05105068 -86.73684139 92.47541304 -86.74847031 90.89982605 C-86.93256015 64.64065075 -78.59113857 41.92748458 -60.05101013 22.86117554 C-43.22299178 6.93319706 -22.84413344 -0.05798734 0 0 Z " fill="#237128" transform="translate(157.39085388183594,-0.267425537109375)"/>
<path d="M0 0 C1.31977044 -0.00453111 2.63954087 -0.00906223 3.99930435 -0.01373065 C7.63820798 -0.02589259 11.27701921 -0.02570829 14.9159385 -0.02334189 C18.84990277 -0.02293201 22.78383809 -0.03398899 26.7177887 -0.04345703 C34.41507635 -0.06002921 42.11233336 -0.06556481 49.80963736 -0.06668179 C56.06789033 -0.0676338 62.32613323 -0.07175171 68.58438301 -0.07808304 C86.34360602 -0.09568299 104.10280491 -0.10492354 121.8620367 -0.10342209 C122.81829228 -0.10334218 123.77454786 -0.10326227 124.75978088 -0.10317993 C125.71720903 -0.10309817 126.67463717 -0.10301641 127.66107828 -0.10293217 C143.18241628 -0.10211901 158.70365729 -0.12126745 174.22496723 -0.14945666 C190.17772891 -0.17820007 206.13044329 -0.19199624 222.08323151 -0.19026911 C231.03335773 -0.18960585 239.98338219 -0.19507065 248.93348503 -0.21662521 C256.5519037 -0.2348559 264.17017444 -0.23916866 271.7886055 -0.22560637 C275.67257739 -0.21908699 279.55626563 -0.21892207 283.44021034 -0.23631287 C287.00139057 -0.25209407 290.56206343 -0.2491293 294.12323166 -0.2317446 C296.0094886 -0.22724592 297.89576159 -0.24229212 299.78195661 -0.25822389 C312.93656208 -0.15217276 322.2749884 4.02040633 331.58180237 13.21664429 C335.53072792 17.4841668 338.44340789 21.86847621 340.60914612 27.26742554 C340.95080811 28.09714874 341.29247009 28.92687195 341.64448547 29.78173828 C342.89264273 34.29180703 342.88864665 38.43619741 342.86793518 43.09310913 C342.87319214 44.5528138 342.87319214 44.5528138 342.8785553 46.04200745 C342.88733753 49.25003248 342.88153485 52.45783586 342.87477112 55.66586304 C342.87611899 57.90256797 342.87806055 60.13927263 342.88056946 62.37597656 C342.88351616 67.06150098 342.87923843 71.74694907 342.86988831 76.4324646 C342.85850732 82.42668947 342.86504763 88.42073497 342.87703323 94.41495323 C342.88427531 99.0338678 342.88195288 103.65274016 342.87677765 108.27165604 C342.87544696 110.48116706 342.87706844 112.69068196 342.88173676 114.90018845 C342.88683907 117.99454581 342.87903909 121.08861674 342.86793518 124.18295288 C342.87198364 125.089189 342.8760321 125.99542511 342.88020325 126.92912292 C342.80121299 138.86462131 338.69857541 150.82399863 330.42945862 159.67758179 C319.23593514 169.4538995 308.64411762 171.72679523 294.15675354 171.62387085 C292.71365739 171.62466302 291.27056146 171.62676425 289.82746887 171.63006592 C285.93312601 171.63517047 282.03905039 171.62172616 278.14475036 171.60453892 C274.06138143 171.5894357 269.97801499 171.59067545 265.8946228 171.58987427 C259.04461641 171.58619038 252.19471076 171.57126343 245.34474182 171.54867554 C236.55335579 171.51974475 227.76205053 171.50944521 218.97062206 171.50499344 C211.40355704 171.50101403 203.83650955 171.48851748 196.2694571 171.47464657 C193.83989836 171.47055101 191.41034023 171.46762379 188.98077965 171.46485138 C185.1664783 171.45995566 181.3522258 171.44974768 177.53794861 171.43541336 C176.13831333 171.43089486 174.73867149 171.42805275 173.33902931 171.42700577 C171.42943986 171.42525679 169.51986018 171.41673693 167.61029053 171.40786743 C166.54163852 171.40489277 165.47298651 171.40191811 164.3719511 171.3988533 C161.94939673 171.2836114 159.92089923 170.96627776 157.60914612 170.26742554 C157.60914612 170.59742554 157.60914612 170.92742554 157.60914612 171.26742554 C140.36045942 172.20368662 123.14857501 172.37320409 105.87956619 172.28145981 C101.37805318 172.25783932 96.87654366 172.24493498 92.37498474 172.23376465 C79.59523124 172.20077286 66.81554848 172.15871043 54.03590393 172.09603882 C46.93135563 172.06128755 39.82685613 172.03763454 32.72223175 172.02583039 C28.98837502 172.01913832 25.25472907 172.00700041 21.52095413 171.98080063 C-9.51023459 171.76885174 -36.57893807 174.5272886 -60.09007263 196.84555054 C-72.71502761 210.13497683 -79.57239521 225.84684418 -84.39085388 243.26742554 C-85.05085388 243.26742554 -85.71085388 243.26742554 -86.39085388 243.26742554 C-86.4611112 221.75241443 -86.5139237 200.23742239 -86.5462904 178.7223196 C-86.56172205 168.73121225 -86.58274033 158.74017642 -86.61717224 148.74911499 C-86.64718843 140.03516163 -86.66645575 131.3212601 -86.67311937 122.60725647 C-86.67701103 117.99847083 -86.68607873 113.38983338 -86.70804405 108.7810955 C-86.72860284 104.43170313 -86.73464906 100.08251817 -86.73017693 95.73308182 C-86.73099355 94.14777685 -86.73684261 92.562464 -86.74847031 90.97720146 C-86.93165325 64.68446304 -78.62037959 41.95755548 -60.05101013 22.86117554 C-43.22299178 6.93319706 -22.84413344 -0.05798734 0 0 Z " fill="#82D765" transform="translate(157.39085388183594,-0.267425537109375)"/>
<path d="M0 0 C0.70141208 0.16173675 1.40282415 0.32347349 2.12549114 0.49011135 C5.14011947 1.02485479 7.93128361 1.13927408 10.99214172 1.15821838 C12.79466652 1.17290161 12.79466652 1.17290161 14.63360596 1.18788147 C15.94343445 1.19363693 17.25326294 1.1993924 18.6027832 1.20532227 C20.0025206 1.21490729 21.40225514 1.22491774 22.80198669 1.23532104 C26.59493976 1.26230852 30.38790519 1.28335133 34.18090081 1.30332303 C38.14741269 1.32522065 42.11388672 1.35259084 46.08036804 1.37937927 C53.58836587 1.42925515 61.09638476 1.47421288 68.6044237 1.51740164 C77.15337415 1.56681768 85.70228662 1.62171959 94.25120032 1.67708123 C111.83409842 1.7908229 129.41703181 1.8976789 147 2 C147 2.33 147 2.66 147 3 C145.9174646 3.00219984 145.9174646 3.00219984 144.81305981 3.00444412 C127.21739454 3.04156611 109.62193862 3.10065202 92.02643108 3.18390274 C83.51721079 3.22363846 75.00808224 3.25605863 66.4987793 3.27099609 C59.07829845 3.28404106 51.65801994 3.31107789 44.23765308 3.35461307 C40.31199312 3.37716428 36.38658214 3.39291452 32.46085167 3.39188385 C28.75806719 3.39113345 25.05583174 3.40923454 21.35318947 3.44116783 C19.36220737 3.45361233 17.37113276 3.44663248 15.38012695 3.43885803 C2.72932794 3.58432761 -6.77618634 7.0024018 -15.87109375 15.8125 C-22.15264932 22.51282594 -27.11485068 30.80992866 -27.13130188 40.18992615 C-27.13531006 41.01805313 -27.13931824 41.84618011 -27.14344788 42.69940186 C-27.14291916 43.59967102 -27.14239044 44.49994019 -27.1418457 45.42749023 C-27.14532013 46.38254959 -27.14879456 47.33760895 -27.15237427 48.3216095 C-27.15972465 50.39612179 -27.16507386 52.47064191 -27.16866493 54.54516411 C-27.17584582 57.83820283 -27.1915273 61.13109387 -27.21000671 64.42408752 C-27.26238089 73.78750511 -27.31038575 83.15084357 -27.32592773 92.5144043 C-27.33606146 98.24449135 -27.36552695 103.97420881 -27.40724754 109.70414925 C-27.41949085 111.87879694 -27.42469111 114.05349702 -27.42244911 116.22817802 C-27.40955624 132.82457198 -28.1842856 148.29879889 -40.03515625 161.21875 C-50.67909471 171.28074473 -62.2354581 174.39829647 -76.5625 174.125 C-77.47580078 174.11597656 -78.38910156 174.10695313 -79.33007812 174.09765625 C-81.55367319 174.07437253 -83.77668677 174.0416771 -86 174 C-85.98889694 175.10896637 -85.97779388 176.21793274 -85.96635437 177.36050415 C-85.86454865 187.86337866 -85.78982966 198.36615173 -85.74093914 208.86940956 C-85.71495806 214.26796827 -85.67977202 219.66612543 -85.62280273 225.06445312 C-85.56807059 230.28406031 -85.5384933 235.50328374 -85.52561378 240.72315598 C-85.51644733 242.70448209 -85.49854937 244.68578962 -85.47134972 246.66695023 C-85.2446563 263.87921483 -87.3960522 277.10886195 -99.875 289.92578125 C-109.6553501 299.13429636 -120.90969544 302.28745966 -134.0480957 302.31884766 C-135.02382538 302.32889328 -135.99955505 302.3389389 -137.00485229 302.34928894 C-140.22848998 302.3801227 -143.4520426 302.39720279 -146.67578125 302.4140625 C-148.96030835 302.43283379 -151.24482895 302.45241129 -153.52934265 302.4727478 C-159.56753445 302.52410906 -165.60575013 302.56360906 -171.64404297 302.60089111 C-177.62148378 302.64017451 -183.59881497 302.6919545 -189.57617188 302.7421875 C-200.0524577 302.82838429 -210.52871878 302.89280682 -221.00523567 302.94313431 C-227.52882915 302.97592128 -234.05187223 303.02714848 -240.57517338 303.09687996 C-244.53553792 303.13687316 -248.4959259 303.16456855 -252.45641136 303.18943405 C-254.27325543 303.20351754 -256.09006832 303.22281365 -257.90679359 303.24791336 C-275.20957521 303.48203599 -288.98476228 301.10675081 -302.1875 288.96875 C-312.24765303 278.0413424 -314.60442009 264.98313535 -314.53344727 250.63720703 C-314.5405198 249.1197425 -314.54927038 247.60228502 -314.55955505 246.08483887 C-314.58191131 241.99372151 -314.5791416 237.90299353 -314.57023358 233.81183863 C-314.5650949 230.38273282 -314.5724396 226.95369836 -314.57970566 223.52459991 C-314.59666149 215.4276311 -314.59318315 207.33085095 -314.57641602 199.23388672 C-314.55950349 190.91140831 -314.57532692 182.58945479 -314.6076389 174.2670337 C-314.6344258 167.09295587 -314.64158622 159.91904052 -314.63312382 152.74491775 C-314.62822046 148.47277222 -314.63026818 144.20094211 -314.65091133 139.92883682 C-314.66941206 135.90822809 -314.66313677 131.8883676 -314.63871193 127.86779785 C-314.63374899 126.40260048 -314.63707459 124.93734466 -314.64986038 123.47219467 C-314.77317481 108.11183241 -310.51790782 96.88895305 -299.9375 85.84765625 C-284.61847802 71.15780838 -265.21253281 72.70575382 -245.4074707 72.85473633 C-243 73 -243 73 -241 74 C-240.91363281 73.42894531 -240.82726562 72.85789062 -240.73828125 72.26953125 C-236.84875029 49.82443975 -223.49247031 29.98814061 -205.00390625 16.875 C-181.73106226 1.83453289 -157.94163532 1.55220903 -131.22016668 1.72874975 C-127.22656589 1.75155701 -123.23294325 1.75596192 -119.23928833 1.76223755 C-111.6869462 1.77663037 -104.13474018 1.80547086 -96.58246815 1.84048474 C-83.07242648 1.90266883 -69.56230499 1.94026696 -56.05216134 1.97207749 C-51.32817951 1.98377615 -46.60428035 2.00185075 -41.88034415 2.02559257 C-38.92525511 2.03959634 -35.97016121 2.04934639 -33.0150528 2.05822754 C-31.02872581 2.06556476 -29.04242048 2.07819601 -27.05612183 2.09109497 C-17.99885047 2.11299619 -9.02825982 1.65680814 0 1 C0 0.67 0 0.34 0 0 Z " fill="#187746" transform="translate(314,169)"/>
<path d="M0 0 C1.41174167 -0.00599127 2.82348008 -0.01279819 4.23521423 -0.02035522 C8.05568206 -0.03796332 11.87606019 -0.04270845 15.69656467 -0.0439868 C18.08823379 -0.04541211 20.47988038 -0.04968892 22.87154388 -0.05498123 C31.2289931 -0.07346561 39.58637868 -0.081654 47.94384766 -0.08007812 C55.71180021 -0.07887774 63.47947447 -0.09996389 71.24735665 -0.13156545 C77.9346764 -0.15779326 84.62190562 -0.16844268 91.30927634 -0.16716731 C95.29523502 -0.1666595 99.28094628 -0.17224115 103.26685333 -0.19352341 C107.01972175 -0.21301555 110.77210954 -0.21295632 114.5249958 -0.19849014 C116.54221577 -0.19543208 118.55943635 -0.21200205 120.57658386 -0.22937012 C134.06406103 -0.13701026 143.47553651 3.78695128 153.04199219 13.23974609 C156.99091774 17.50726861 159.90359771 21.89157802 162.06933594 27.29052734 C162.41099792 28.12025055 162.75265991 28.94997375 163.10467529 29.80484009 C164.35283255 34.31490884 164.34883647 38.45929922 164.328125 43.11621094 C164.33338196 44.5759156 164.33338196 44.5759156 164.33874512 46.06510925 C164.34752735 49.27313429 164.34172467 52.48093766 164.33496094 55.68896484 C164.33630881 57.92566978 164.33825037 60.16237443 164.34075928 62.39907837 C164.34370598 67.08460278 164.33942824 71.77005087 164.33007812 76.45556641 C164.31869714 82.44979128 164.32523745 88.44383678 164.33722305 94.43805504 C164.34446513 99.05696961 164.3421427 103.67584197 164.33696747 108.29475784 C164.33563678 110.50426886 164.33725826 112.71378376 164.34192657 114.92329025 C164.34702889 118.01764762 164.33922891 121.11171854 164.328125 124.20605469 C164.33217346 125.1122908 164.33622192 126.01852692 164.34039307 126.95222473 C164.26140281 138.88772312 160.15876523 150.84710043 151.88964844 159.70068359 C140.75547627 169.42516444 130.15706117 171.74567701 115.74389648 171.71044922 C114.31377505 171.7178014 112.88365952 171.72639095 111.45355225 171.7361145 C107.59177923 171.75822006 103.73022029 171.76126668 99.86839271 171.75936699 C96.63315585 171.75924676 93.39796348 171.76783215 90.1627391 171.7761445 C82.52325707 171.79533966 74.88388429 171.79827683 67.24438477 171.79150391 C59.38999644 171.78486799 51.5360783 171.80771809 43.68178529 171.84481764 C36.91456597 171.87561058 30.14749715 171.88686426 23.38020927 171.88298082 C19.34893182 171.88092297 15.31802036 171.88624188 11.28680992 171.91087341 C7.49195518 171.93329731 3.69785951 171.93113498 -0.09700012 171.91094589 C-2.13428941 171.90596407 -4.17159389 171.92544151 -6.20878601 171.94595337 C-18.66203777 171.83341759 -28.87637471 167.94433851 -37.93066406 159.29052734 C-47.15177964 149.46564825 -50.07531263 138.94790806 -50.09179688 125.79370117 C-50.09676178 124.84343048 -50.10172668 123.89315979 -50.10684204 122.91409302 C-50.1214273 119.77524079 -50.12826022 116.63643912 -50.13378906 113.49755859 C-50.13954424 111.30905659 -50.14530193 109.1205546 -50.15106201 106.93205261 C-50.16156217 102.34312709 -50.16741104 97.75421904 -50.17089844 93.1652832 C-50.17637592 87.30234404 -50.20039236 81.43963794 -50.22887039 75.57677174 C-50.24755115 71.05471638 -50.25270531 66.53271651 -50.25423431 62.01062584 C-50.25724994 59.85020361 -50.26524138 57.68978211 -50.27841949 55.52939796 C-50.29559096 52.49753032 -50.29357248 49.46622353 -50.28710938 46.43432617 C-50.29632416 45.55241104 -50.30553894 44.67049591 -50.31503296 43.76185608 C-50.23587844 31.82970629 -45.95667122 21.34973129 -37.86816406 12.60302734 C-26.86962966 2.10025325 -14.55873885 -0.01004686 0 0 Z " fill="#94E96F" transform="translate(335.9306640625,-0.29052734375)"/>
<path d="M0 0 C0.70141208 0.16173675 1.40282415 0.32347349 2.12549114 0.49011135 C5.14011947 1.02485479 7.93128361 1.13927408 10.99214172 1.15821838 C12.79466652 1.17290161 12.79466652 1.17290161 14.63360596 1.18788147 C15.94343445 1.19363693 17.25326294 1.1993924 18.6027832 1.20532227 C20.0025206 1.21490729 21.40225514 1.22491774 22.80198669 1.23532104 C26.59493976 1.26230852 30.38790519 1.28335133 34.18090081 1.30332303 C38.14741269 1.32522065 42.11388672 1.35259084 46.08036804 1.37937927 C53.58836587 1.42925515 61.09638476 1.47421288 68.6044237 1.51740164 C77.15337415 1.56681768 85.70228662 1.62171959 94.25120032 1.67708123 C111.83409842 1.7908229 129.41703181 1.8976789 147 2 C147 2.33 147 2.66 147 3 C145.9174646 3.00219984 145.9174646 3.00219984 144.81305981 3.00444412 C127.21739454 3.04156611 109.62193862 3.10065202 92.02643108 3.18390274 C83.51721079 3.22363846 75.00808224 3.25605863 66.4987793 3.27099609 C59.07829845 3.28404106 51.65801994 3.31107789 44.23765308 3.35461307 C40.31199312 3.37716428 36.38658214 3.39291452 32.46085167 3.39188385 C28.75806719 3.39113345 25.05583174 3.40923454 21.35318947 3.44116783 C19.36220737 3.45361233 17.37113276 3.44663248 15.38012695 3.43885803 C2.72932794 3.58432761 -6.77618634 7.0024018 -15.87109375 15.8125 C-22.15264932 22.51282594 -27.11485068 30.80992866 -27.13130188 40.18992615 C-27.13531006 41.01805313 -27.13931824 41.84618011 -27.14344788 42.69940186 C-27.14291916 43.59967102 -27.14239044 44.49994019 -27.1418457 45.42749023 C-27.14532013 46.38254959 -27.14879456 47.33760895 -27.15237427 48.3216095 C-27.15972465 50.39612179 -27.16507386 52.47064191 -27.16866493 54.54516411 C-27.17584582 57.83820283 -27.1915273 61.13109387 -27.21000671 64.42408752 C-27.26238089 73.78750511 -27.31038575 83.15084357 -27.32592773 92.5144043 C-27.33606146 98.24449135 -27.36552695 103.97420881 -27.40724754 109.70414925 C-27.41949085 111.87879694 -27.42469111 114.05349702 -27.42244911 116.22817802 C-27.40955624 132.82457198 -28.1842856 148.29879889 -40.03515625 161.21875 C-50.49129972 171.1032172 -61.95423011 174.40957333 -76.0625 174.125 C-76.92810547 174.11597656 -77.79371094 174.10695313 -78.68554688 174.09765625 C-80.79048779 174.07439723 -82.89528342 174.03854008 -85 174 C-85.00546844 172.93456718 -85.00546844 172.93456718 -85.01104736 171.84761047 C-85.04918789 165.09670371 -85.10633039 158.34618485 -85.18390274 151.59562397 C-85.22312192 148.12647648 -85.25543343 144.65757309 -85.27099609 141.18823242 C-85.28928178 137.18368436 -85.33934176 133.1800438 -85.390625 129.17578125 C-85.39246796 127.34059685 -85.39246796 127.34059685 -85.39434814 125.46833801 C-85.62635981 111.58146817 -89.68873766 98.14773215 -99.14453125 87.6953125 C-110.57163976 77.25454388 -123.22100801 74.87692513 -138.14599609 74.79467773 C-139.8151709 74.77982834 -139.8151709 74.77982834 -141.51806641 74.76467896 C-145.18650199 74.7331583 -148.85495051 74.7083438 -152.5234375 74.68359375 C-155.07077364 74.66301608 -157.61810642 74.6420194 -160.16543579 74.62062073 C-166.1788457 74.57111586 -172.19227299 74.5258289 -178.20573008 74.48259836 C-185.05462083 74.43312558 -191.90346494 74.37824486 -198.75231051 74.32291877 C-212.8348301 74.20927859 -226.91739452 74.10240081 -241 74 C-240.69059939 72.40370531 -240.3784653 70.80794027 -240.06518555 69.21240234 C-239.89166061 68.32370453 -239.71813568 67.43500671 -239.53935242 66.51937866 C-235.25700883 46.5160474 -221.45007096 28.53955489 -205.00390625 16.875 C-181.73106226 1.83453289 -157.94163532 1.55220903 -131.22016668 1.72874975 C-127.22656589 1.75155701 -123.23294325 1.75596192 -119.23928833 1.76223755 C-111.6869462 1.77663037 -104.13474018 1.80547086 -96.58246815 1.84048474 C-83.07242648 1.90266883 -69.56230499 1.94026696 -56.05216134 1.97207749 C-51.32817951 1.98377615 -46.60428035 2.00185075 -41.88034415 2.02559257 C-38.92525511 2.03959634 -35.97016121 2.04934639 -33.0150528 2.05822754 C-31.02872581 2.06556476 -29.04242048 2.07819601 -27.05612183 2.09109497 C-17.99885047 2.11299619 -9.02825982 1.65680814 0 1 C0 0.67 0 0.34 0 0 Z " fill="#47A547" transform="translate(314,169)"/>
<path d="M0 0 C11.55 0 23.1 0 35 0 C42.81886704 14.25793402 50.50908959 28.56727451 58 43 C60.28529621 40.09891299 62.09061025 37.14726953 63.8203125 33.88671875 C65.50200892 30.72418666 67.19017284 27.57078615 68.93652344 24.44335938 C71.91202268 19.09743808 74.64349845 14.04373346 76.21923828 8.10864258 C77.86033399 4.75143186 79.97567066 2.20944688 83 0 C85.90858983 -0.64189438 87.99318072 -0.91064015 90.89453125 -0.90234375 C91.99612831 -0.93141563 91.99612831 -0.93141563 93.11997986 -0.96107483 C100.76237067 -1.09766172 108.38706462 -0.62781121 116 0 C112.71009447 6.7987177 109.13624124 13.33849226 105.25 19.8125 C104.11428101 21.72377872 102.9788823 23.63524778 101.84375 25.546875 C100.19660902 28.31358432 98.54903551 31.08003074 96.89892578 33.8449707 C94.5597891 37.76464557 92.22763563 41.6883351 89.90368652 45.61703491 C89.13827779 46.90774598 88.3701532 48.19685061 87.59924316 49.48428345 C86.51258396 51.29943799 85.43509326 53.11975243 84.359375 54.94140625 C83.73514648 55.99013916 83.11091797 57.03887207 82.46777344 58.11938477 C81.0336151 60.93402786 80.14106093 62.85047145 80 66 C81.08447658 68.74122381 81.08447658 68.74122381 82.875 71.48046875 C83.84783936 73.08438477 83.84783936 73.08438477 84.84033203 74.72070312 C85.56021413 75.87630659 86.28010363 77.03190543 87 78.1875 C87.73075443 79.38500123 88.45973508 80.58358655 89.18701172 81.78320312 C90.31501068 83.64373876 91.44385903 85.50367438 92.57785034 87.36056519 C96.53537651 93.84506887 100.33940382 100.41408008 104.125 107 C104.72699219 108.0418042 105.32898438 109.0836084 105.94921875 110.15698242 C109.73040034 116.71959527 113.40323369 123.33458354 117 130 C112.12570232 130.24810442 107.25510516 130.42902231 102.37597656 130.54931641 C100.71874984 130.59946677 99.0619627 130.6676137 97.40625 130.75439453 C83.76343063 131.45129336 83.76343063 131.45129336 79.77246094 128.16674805 C78.15241833 125.51458152 77.08706221 122.90995259 76 120 C74.94873064 117.96911611 73.87489969 115.94978544 72.78125 113.94140625 C71.6842468 111.81678073 70.59052885 109.69045593 69.5 107.5625 C65.43121979 99.65205676 61.29759395 91.78890508 57 84 C48.12539373 99.55854793 39.49202022 115.2291053 31 131 C19.78 131 8.56 131 -3 131 C3.7443533 118.63535229 3.7443533 118.63535229 6.48828125 114.22265625 C7.10461426 113.2277417 7.72094727 112.23282715 8.35595703 111.20776367 C9.3244458 109.65085815 9.3244458 109.65085815 10.3125 108.0625 C11.35254862 106.37337714 12.39258908 104.68424922 13.43225098 102.99488831 C16.48070693 98.04519797 19.55450333 93.1130286 22.66563416 88.20246887 C24.27500929 85.6557287 25.86978336 83.10003289 27.46224976 80.54269409 C28.23439598 79.31071748 29.01319589 78.08288498 29.79873657 76.85940552 C30.89548109 75.14990258 31.96786111 73.42484224 33.0390625 71.69921875 C33.65990723 70.71783936 34.28075195 69.73645996 34.92041016 68.7253418 C36.27295759 66.08010174 36.27295759 66.08010174 35.3918457 63.52905273 C34.93253662 62.69446533 34.47322754 61.85987793 34 61 C33.49799072 60.03368652 32.99598145 59.06737305 32.47875977 58.07177734 C31.59401978 56.47003662 31.59401978 56.47003662 30.69140625 54.8359375 C30.20744888 53.95779137 30.20744888 53.95779137 29.7137146 53.06190491 C28.66652706 51.16447047 27.61478392 49.26961216 26.5625 47.375 C25.83600474 46.06258921 25.10952372 44.75017053 24.38305664 43.43774414 C18.35308808 32.56271992 12.16701299 21.78392209 5.86230469 11.06591797 C4.84479253 9.3361473 3.82859651 7.60560262 2.8125 5.875 C2.26207031 4.94429688 1.71164063 4.01359375 1.14453125 3.0546875 C0 1 0 1 0 0 Z " fill="#FCFDFD" transform="translate(57,292)"/>
<path d="M0 0 C0.66 0.33 1.32 0.66 2 1 C-3.61 6.61 -9.22 12.22 -15 18 C-15 13.78193333 -13.14807199 12.61332709 -10.3125 9.5625 C-9.44238281 8.61503906 -8.57226562 7.66757812 -7.67578125 6.69140625 C-5.23784139 4.23923024 -2.74711696 2.0937486 0 0 Z " fill="#A7E279" transform="translate(104,17)"/>
</svg>
