<?xml version="1.0" encoding="UTF-8"?>
<!DOCTYPE svg PUBLIC "-//W3C//DTD SVG 1.1//EN" "http://www.w3.org/Graphics/SVG/1.1/DTD/svg11.dtd">
<svg xmlns="http://www.w3.org/2000/svg" version="1.1" width="1280px" height="789px" style="shape-rendering:geometricPrecision; text-rendering:geometricPrecision; image-rendering:optimizeQuality; fill-rule:evenodd; clip-rule:evenodd" xmlns:xlink="http://www.w3.org/1999/xlink">
<g><path style="opacity:1" fill="#f3a700" d="M 394.5,310.5 C 368.11,285.111 342.443,259.111 317.5,232.5C 351.179,198.489 391.846,177.322 439.5,169C 504.716,158.888 563.716,173.388 616.5,212.5C 617.614,213.723 617.781,215.056 617,216.5C 598.825,248.193 580.158,279.526 561,310.5C 523.707,276.697 481.207,268.197 433.5,285C 419.104,291.52 406.104,300.02 394.5,310.5 Z"/></g>
<g><path style="opacity:1" fill="#f3a800" d="M 961.5,232.5 C 935.833,258.5 910.167,284.5 884.5,310.5C 849.639,278.537 809.306,269.037 763.5,282C 722.966,297.199 697.133,325.699 686,367.5C 677.85,409.576 688.35,446.243 717.5,477.5C 691.167,503.167 665.167,529.167 639.5,555.5C 585.358,498.89 564.191,431.557 576,353.5C 592.696,273.484 638.196,216.651 712.5,183C 790.027,153.569 863.36,161.569 932.5,207C 942.953,214.621 952.62,223.121 961.5,232.5 Z"/></g>
<g><path style="opacity:1" fill="#e66f05" d="M 317.5,232.5 C 342.443,259.111 368.11,285.111 394.5,310.5C 361.094,347.696 352.594,390.029 369,437.5C 375.277,452.595 384.11,465.928 395.5,477.5C 369.057,502.11 343.39,527.61 318.5,554C 317.906,554.464 317.239,554.631 316.5,554.5C 272.933,510.159 250.933,456.659 250.5,394C 250.748,330.695 273.082,276.862 317.5,232.5 Z"/></g>
<g><path style="opacity:1" fill="#e66f05" d="M 961.5,232.5 C 994.9,264.949 1016.07,304.282 1025,350.5C 1038.56,435.505 1014.06,507.339 951.5,566C 887.748,618.554 815.748,634.221 735.5,613C 698.513,601.782 666.513,582.615 639.5,555.5C 665.167,529.167 691.167,503.167 717.5,477.5C 761.399,515.745 809.399,521.578 861.5,495C 904.418,466.319 922.918,426.152 917,374.5C 912.224,349.947 901.391,328.613 884.5,310.5C 910.167,284.5 935.833,258.5 961.5,232.5 Z"/></g>
<g><path style="opacity:1" fill="#f3a700" d="M 395.5,477.5 C 433.29,512.023 476.29,520.19 524.5,502C 537.804,495.438 549.971,487.272 561,477.5C 562.221,478.272 563.221,479.272 564,480.5C 582.041,511.416 600.207,542.249 618.5,573C 559.781,617.007 494.448,631.007 422.5,615C 381.159,604.844 345.825,584.678 316.5,554.5C 317.239,554.631 317.906,554.464 318.5,554C 343.39,527.61 369.057,502.11 395.5,477.5 Z"/></g>
</svg>
