<?xml version="1.0" encoding="UTF-8"?>
<!DOCTYPE svg PUBLIC "-//W3C//DTD SVG 1.1//EN" "http://www.w3.org/Graphics/SVG/1.1/DTD/svg11.dtd">
<svg xmlns="http://www.w3.org/2000/svg" version="1.1" width="630px" height="630px" style="shape-rendering:geometricPrecision; text-rendering:geometricPrecision; image-rendering:optimizeQuality; fill-rule:evenodd; clip-rule:evenodd" xmlns:xlink="http://www.w3.org/1999/xlink">
<g><path style="opacity:1" fill="#320000" d="M -0.5,-0.5 C 209.5,-0.5 419.5,-0.5 629.5,-0.5C 629.5,209.5 629.5,419.5 629.5,629.5C 419.5,629.5 209.5,629.5 -0.5,629.5C -0.5,419.5 -0.5,209.5 -0.5,-0.5 Z"/></g>
<g><path style="opacity:1" fill="#f79400" d="M 436.5,158.5 C 453.501,156.25 466.001,162.583 474,177.5C 480.004,209.488 466.838,224.655 434.5,223C 415.757,215.537 408.257,201.704 412,181.5C 416.517,169.813 424.683,162.146 436.5,158.5 Z"/></g>
<g><path style="opacity:1" fill="#f89400" d="M 220.5,179.5 C 244.169,179.333 267.836,179.5 291.5,180C 324.159,269.468 356.159,359.302 387.5,449.5C 387.182,450.647 386.516,451.481 385.5,452C 366.5,452.667 347.5,452.667 328.5,452C 319.758,430.943 312.091,409.443 305.5,387.5C 273.16,387.167 240.826,387.5 208.5,388.5C 201.796,409.445 194.796,430.278 187.5,451C 169.17,451.5 150.836,451.667 132.5,451.5C 132.731,446.302 133.897,441.302 136,436.5C 163.011,358.8 190.011,281.134 217,203.5C 218.848,195.557 220.015,187.557 220.5,179.5 Z"/></g>
<g><path style="opacity:1" fill="#320100" d="M 288.5,332.5 C 278.188,333.832 267.522,334.499 256.5,334.5C 245.661,334.5 234.995,334.167 224.5,333.5C 236.088,298.491 246.755,263.157 256.5,227.5C 267.163,262.491 277.83,297.491 288.5,332.5 Z"/></g>
<g><path style="opacity:1" fill="#f89400" d="M 415.5,245.5 C 434.41,245.174 453.243,245.507 472,246.5C 472.667,314.5 472.667,382.5 472,450.5C 471.5,451 471,451.5 470.5,452C 452.5,452.667 434.5,452.667 416.5,452C 416,451.5 415.5,451 415,450.5C 414.17,382.096 414.337,313.763 415.5,245.5 Z"/></g>
<g><path style="opacity:1" fill="#a15600" d="M 288.5,332.5 C 289.404,333.209 289.737,334.209 289.5,335.5C 267.49,335.833 245.49,335.5 223.5,334.5C 223.624,333.893 223.957,333.56 224.5,333.5C 234.995,334.167 245.661,334.5 256.5,334.5C 267.522,334.499 278.188,333.832 288.5,332.5 Z"/></g>
</svg>
