<?xml version="1.0" encoding="UTF-8"?>
<svg version="1.1" xmlns="http://www.w3.org/2000/svg" width="280" height="280">
<path d="M0 0 C2.18074088 34.91795333 2.18074088 34.91795333 2.375 49.1875 C2.41367187 50.50826538 2.41367187 50.50826538 2.453125 51.85571289 C2.47337962 58.33655709 1.10855096 64.77615258 -3.53369141 69.59057617 C-4.01757324 70.05568604 -4.50145508 70.5207959 -5 71 C-6.02304948 72.65261839 -7.02616054 74.31791365 -8 76 C-8.33 76.33 -8.66 76.66 -9 77 C-3.75990728 76.41790956 -3.75990728 76.41790956 1.41796875 75.453125 C12.13610689 73.05329982 22.86067038 74.17858525 33.5 76.5234375 C40.96451042 77.9463598 48.49275976 78.09370558 56.05859375 77.77734375 C57.12899902 77.74366699 58.1994043 77.70999023 59.30224609 77.67529297 C61.44858913 77.60103728 63.59406921 77.49284012 65.73681641 77.34814453 C73.02194123 77.12059491 73.02194123 77.12059491 75.85888672 79.67138672 C77.7934279 82.54356438 79.14771394 84.6130688 78.77172852 88.14331055 C77.47890057 91.25370488 74.84953985 92.23255689 72 93.875 C70.80778525 94.5754486 69.61638138 95.27727917 68.42578125 95.98046875 C67.29527344 96.64691406 66.16476563 97.31335938 65 98 C63.38600485 99.04750971 61.7802683 100.10798803 60.1875 101.1875 C57.44960962 103.0394551 54.68972937 104.82953086 51.875 106.5625 C49.20251514 108.20875067 46.65341783 109.95275465 44.125 111.8125 C41 114 41 114 39 114 C39 114.66 39 115.32 39 116 C29.83837806 120.26653496 20.21354136 121.80338534 10.265625 119.31640625 C8.0625 118.5 8.0625 118.5 5 117 C8.6574284 114.5617144 11.63094774 114.59426229 15.875 114.4375 C20.32671281 114.24694399 24.64688767 114.03279724 29 113 C29 112.34 29 111.68 29 111 C30.65770921 109.66380379 32.37852016 108.40537861 34.125 107.1875 C41.50821105 102.49831243 41.50821105 102.49831243 47 96 C47.99 95.67 48.98 95.34 50 95 C15.85887918 85.20638312 15.85887918 85.20638312 -17.625 92.875 C-25.0243594 97.89774396 -28.09507393 102.64225182 -31 111 C-30.29101562 110.67773438 -29.58203125 110.35546875 -28.8515625 110.0234375 C-20.02440588 106.85533471 -11.22668314 109.26173517 -3 113 C-1.5459375 113.64195312 -1.5459375 113.64195312 -0.0625 114.296875 C3.45660569 116.25392867 6.23484024 118.67669521 9.125 121.4375 C9.63675781 121.91509766 10.14851562 122.39269531 10.67578125 122.88476562 C12.12776935 124.2453046 13.56429808 125.62228604 15 127 C15.78117188 127.73347656 16.56234375 128.46695313 17.3671875 129.22265625 C19 131 19 131 19 133 C19.66 133 20.32 133 21 133 C22.47080327 135.99403836 23.92427105 138.99619006 25.375 142 C25.99375 143.25876953 25.99375 143.25876953 26.625 144.54296875 C28.46803834 148.37767755 30.12641718 152.01630223 31.0703125 156.17578125 C32.0886682 160.36473181 33.5030423 163.37551083 35.5 167.1875 C38.85256759 173.62982797 38.85256759 173.62982797 40.0859375 176.7265625 C41.01164782 179.25259738 41.01164782 179.25259738 43.125 182.1875 C45 185 45 185 45 187 C45.99 187.33 46.98 187.66 48 188 C48.63019694 196.03501094 48.63019694 196.03501094 46 200.0625 C45.34 200.701875 44.68 201.34125 44 202 C41.03 201.01 41.03 201.01 38 200 C38 199.34 38 198.68 38 198 C37.46632812 197.85304687 36.93265625 197.70609375 36.3828125 197.5546875 C30.82097356 195.88036228 26.30777257 193.49009431 21.40234375 190.40625 C19.26770547 189.15670564 17.33246729 188.28843965 15 187.5 C10.75333628 186.05870807 7.17883264 183.77678484 3.390625 181.40625 C1.3299041 180.19406123 -0.57752293 179.31625249 -2.8125 178.5 C-6.71569409 176.66320278 -8.42094946 174.41549936 -11 171 C-11.66128906 170.4121875 -12.32257813 169.824375 -13.00390625 169.21875 C-15.50175921 166.44227156 -16.2248111 164.01345651 -17.25 160.4375 C-17.58515625 159.30183594 -17.9203125 158.16617188 -18.265625 156.99609375 C-19 154 -19 154 -19 151 C-16 152 -16 152 -14.9375 153.7421875 C-14.628125 154.44601563 -14.31875 155.14984375 -14 155.875 C-12.67362311 158.87040115 -11.30955062 160.70357182 -9 163 C-9 163.66 -9 164.32 -9 165 C-8.01 165.33 -7.02 165.66 -6 166 C-5.67 166.66 -5.34 167.32 -5 168 C-3.00186559 169.09189912 -3.00186559 169.09189912 -0.5546875 170.09375 C0.35796875 170.48433594 1.270625 170.87492188 2.2109375 171.27734375 C3.65339844 171.88255859 3.65339844 171.88255859 5.125 172.5 C6.0634375 172.90347656 7.001875 173.30695313 7.96875 173.72265625 C12.92490258 175.82589747 17.7814858 177.67007394 23 179 C22.54109375 177.98421875 22.0821875 176.9684375 21.609375 175.921875 C20.1125316 172.4269034 19.13788965 168.95233231 18.25 165.25 C14.20325437 149.59527417 9.92645832 133.23700486 -4.30859375 123.80859375 C-5.19675781 123.21175781 -6.08492187 122.61492187 -7 122 C-7 121.34 -7 120.68 -7 120 C-14.90766604 116.62321288 -22.54315342 115.40436857 -31 117 C-30.236875 117.721875 -29.47375 118.44375 -28.6875 119.1875 C-21.82635496 126.36776806 -19.41930758 135.17371689 -19.5 144.9375 C-19.50499512 145.74944824 -19.50999023 146.56139648 -19.51513672 147.39794922 C-19.86435513 159.86625076 -23.00296265 172.23951338 -31 182 C-31.93905107 183.29053946 -32.87653023 184.58222407 -33.8125 185.875 C-38.58527166 192.15496271 -43.59248004 198.27469961 -48.8125 204.1875 C-50.5343648 206.40132617 -51.66795147 208.15534841 -52.875 210.625 C-53.36419922 211.61886719 -53.36419922 211.61886719 -53.86328125 212.6328125 C-54.74445862 214.46784167 -55.58888909 216.32053917 -56.41796875 218.1796875 C-57.23201172 219.82324219 -57.23201172 219.82324219 -58.0625 221.5 C-58.79146484 223.06234375 -58.79146484 223.06234375 -59.53515625 224.65625 C-62 227 -62 227 -64.6469574 227.22888184 C-65.63929886 227.20169067 -66.63164032 227.17449951 -67.65405273 227.14648438 C-68.65274887 227.12533569 -69.65144501 227.10418701 -70.68040466 227.08239746 C-71.44587112 227.0552063 -72.21133759 227.02801514 -73 227 C-73.50864012 219.67331312 -73.98751128 212.34509805 -74.4465332 205.01513672 C-74.60583084 202.5260909 -74.77173319 200.03745804 -74.94458008 197.54931641 C-75.1930394 193.95565841 -75.41705432 190.36114455 -75.63671875 186.765625 C-75.71782394 185.66825012 -75.79892914 184.57087524 -75.88249207 183.44024658 C-76.67028638 169.58669958 -72.82866209 159.46359951 -64 149 C-65.175625 149.48726562 -66.35125 149.97453125 -67.5625 150.4765625 C-74.25620127 152.69646577 -81.02189338 152.45242929 -88 152.375 C-88.69274017 152.37234131 -89.38548035 152.36968262 -90.09921265 152.36694336 C-99.19193418 152.32599757 -107.71633655 151.6517645 -116.59765625 149.64453125 C-123.6446648 148.33373666 -131.06287116 148.98611212 -138.18286133 149.375 C-146.08901944 149.63244029 -146.08901944 149.63244029 -148.83569336 147.72558594 C-150.96727231 145.21730717 -153.11193072 142.35792168 -153 139 C-150.24617735 135.81508829 -147.41550876 133.96605186 -143.6875 132.0625 C-140.33497636 130.30153346 -137.20740531 128.53515156 -134.1875 126.25 C-131.12419177 124.08766478 -128.59805207 122.96533104 -125 122 C-125 121.34 -125 120.68 -125 120 C-122.37008325 117.92813772 -119.42535996 116.29284956 -116.5625 114.5625 C-115.77939453 114.07201172 -114.99628906 113.58152344 -114.18945312 113.07617188 C-106.82267478 108.58334656 -100.05448826 105.26217937 -91.25 106.25 C-90.18265625 106.35828125 -89.1153125 106.4665625 -88.015625 106.578125 C-85.3143716 106.95602055 -82.66600629 107.42730235 -80 108 C-80.81791016 107.34257812 -80.81791016 107.34257812 -81.65234375 106.671875 C-92.66216385 97.41233399 -98.78276701 87.42985213 -103.29833984 74.0390625 C-106.3949298 65.04020399 -110.05007421 56.37679749 -114.8984375 48.171875 C-116 46 -116 46 -116 43 C-116.66 43 -117.32 43 -118 43 C-120.55571905 39.93313714 -122 38.05604684 -122 34 C-120.84276295 30.52828886 -119.16610166 27.93471837 -117 25 C-113.91244583 26.06134674 -111.44934257 27.35325194 -108.6875 29.125 C-104.76262148 31.6360386 -100.67000572 33.7447451 -96.5 35.8125 C-95.81574951 36.15216797 -95.13149902 36.49183594 -94.42651367 36.84179688 C-90.855556 38.60686199 -87.27507635 40.35102566 -83.6875 42.08203125 C-69.48434479 48.97691013 -60.01300938 55.16575753 -54.6640625 70.58203125 C-54 73 -54 73 -54 76 C-58.4532767 74.51557443 -59.69733101 70.75690671 -61.86328125 66.8359375 C-64.10575334 62.96178338 -66.00692496 60.98138928 -70 59 C-70.86238281 58.49339844 -71.72476563 57.98679688 -72.61328125 57.46484375 C-78.11013174 54.35446959 -82.84240892 52.31227351 -89 51 C-90.42140486 50.50734006 -91.83449219 49.99003468 -93.23828125 49.44921875 C-93.94637939 49.17811279 -94.65447754 48.90700684 -95.3840332 48.62768555 C-96.18393677 48.3169812 -96.18393677 48.3169812 -97 48 C-96.60167969 49.05058594 -96.20335937 50.10117188 -95.79296875 51.18359375 C-88.34465986 70.8868598 -88.34465986 70.8868598 -87.25 77.375 C-86.21636065 82.52506272 -83.43169631 86.36112079 -80.4609375 90.6171875 C-79 93 -79 93 -79 96 C-78.443125 96.226875 -77.88625 96.45375 -77.3125 96.6875 C-74.33840412 98.37550036 -72.27991135 100.46676517 -70 103 C-70 103.66 -70 104.32 -70 105 C-69.43539062 105.11214844 -68.87078125 105.22429687 -68.2890625 105.33984375 C-65.70882735 106.083973 -63.7042414 107.23096298 -61.375 108.5625 C-56.25501296 111.18696743 -51.6981203 111.99325033 -46 111 C-45.01 110.34 -44.02 109.68 -43 109 C-44.0828125 108.319375 -44.0828125 108.319375 -45.1875 107.625 C-50.92307043 102.27180093 -53.2616733 96.07027447 -53.62890625 88.28515625 C-53.63284676 85.87750564 -53.61025639 83.46968016 -53.5625 81.0625 C-53.57345703 79.86431641 -53.58441406 78.66613281 -53.59570312 77.43164062 C-53.50794893 66.69637765 -50.47228788 58.22371128 -45.4375 48.875 C-44.85871094 47.77929688 -44.27992188 46.68359375 -43.68359375 45.5546875 C-42 43 -42 43 -39 42 C-37.93283296 40.20067421 -37.93283296 40.20067421 -37 38 C-35.47026613 35.15906568 -34.06505485 33.06281158 -31.734375 30.8125 C-28.58805586 27.57628603 -26.09803632 24.15803689 -23.5625 20.4375 C-22.83909424 19.38937134 -22.83909424 19.38937134 -22.10107422 18.32006836 C-18.59269777 13.13672891 -15.82763789 7.94495146 -13.4140625 2.16015625 C-12 0 -12 0 -9.7734375 -0.87890625 C-6.41805739 -1.02540876 -3.31403348 -0.50564183 0 0 Z M-10 28 C-10.59167969 28.74765625 -11.18335938 29.4953125 -11.79296875 30.265625 C-12.58316406 31.25046875 -13.37335938 32.2353125 -14.1875 33.25 C-14.96480469 34.22453125 -15.74210937 35.1990625 -16.54296875 36.203125 C-18.86572673 38.84715475 -21.23852083 40.83884239 -24 43 C-25.242638 44.34407784 -26.45367488 45.71834016 -27.625 47.125 C-29.71630566 49.6326742 -31.23998794 51.15999196 -34 53 C-35.44524462 55.31239139 -36.73558627 57.5913809 -38 60 C-38.42796875 60.76957031 -38.8559375 61.53914063 -39.296875 62.33203125 C-44.92194579 72.83767817 -46.86800792 84.6745542 -44.5 96.49609375 C-43.00140488 101.00039385 -40.63994392 104.01337935 -37 107 C-36.34 107 -35.68 107 -35 107 C-34.9484375 106.38253906 -34.896875 105.76507813 -34.84375 105.12890625 C-33.81461676 97.44549105 -30.88028418 92.98798005 -25 88 C-20.83752577 85.04761914 -16.45187349 82.49060606 -12 80 C-12.33 79.34 -12.66 78.68 -13 78 C-11.62315857 75.46515287 -10.03304901 73.11057664 -8.4453125 70.703125 C-2.82764877 60.19657554 -5.70916125 43.38348883 -8 32 C-8.96860279 29.67594263 -8.96860279 29.67594263 -10 28 Z M-79 109 C-79 109.66 -79 110.32 -79 111 C-79.76183594 110.96519531 -80.52367187 110.93039063 -81.30859375 110.89453125 C-88.15636738 110.7150016 -93.72257378 111.20620042 -100 114 C-100.928125 114.40734375 -101.85625 114.8146875 -102.8125 115.234375 C-106.69660625 117.38586523 -109.80819894 120.00944229 -113.125 122.9375 C-113.73214844 123.46279297 -114.33929688 123.98808594 -114.96484375 124.52929688 C-118.09056117 127.2498287 -121.11475015 130.02144605 -124 133 C-123.17242187 133.14695313 -122.34484375 133.29390625 -121.4921875 133.4453125 C-112.42563798 135.14896219 -103.61264946 137.38989227 -94.76708984 140.01806641 C-80.46930737 144.12050372 -66.99474523 140.85716149 -54.0859375 133.953125 C-49.17399516 130.84430074 -44.96698951 127.49190656 -43.3671875 121.71484375 C-42.98964193 119.29457479 -42.98964193 119.29457479 -43 116 C-43.71929687 116.15984375 -44.43859375 116.3196875 -45.1796875 116.484375 C-57.55582046 118.74704751 -68.5056507 115.55572932 -79 109 Z M-38 113 C-38 113.66 -38 114.32 -38 115 C-37.01 115 -36.02 115 -35 115 C-35 114.34 -35 113.68 -35 113 C-35.99 113 -36.98 113 -38 113 Z M-38 120 C-38.11214844 120.60585937 -38.22429687 121.21171875 -38.33984375 121.8359375 C-40.53839304 131.17617957 -46.21295093 137.87148991 -54.3125 142.9375 C-55.5398048 143.62831827 -56.76873176 144.31627091 -58 145 C-59.34935074 145.97827929 -60.69325696 146.96549509 -62 148 C-61.34 148 -60.68 148 -60 148 C-60.56589844 149.05058594 -61.13179688 150.10117188 -61.71484375 151.18359375 C-62.45648751 152.60116601 -63.19733022 154.01915756 -63.9375 155.4375 C-64.49727539 156.46907227 -64.49727539 156.46907227 -65.06835938 157.52148438 C-69.88931089 166.85936343 -69.09570235 174.7582933 -67.1875 184.875 C-67.00896484 185.90625 -66.83042969 186.9375 -66.64648438 188 C-65.65701287 193.80990304 -65.65701287 193.80990304 -63 199 C-62.63390625 198.48953125 -62.2678125 197.9790625 -61.890625 197.453125 C-58.25237371 192.56747327 -54.33360842 188.19898272 -50 183.9375 C-37.47975451 171.57789455 -28.03212051 158.63077826 -27.5625 140.1875 C-27.86348033 131.86037764 -30.1550867 125.99478287 -36 120 C-36.66 120 -37.32 120 -38 120 Z " fill="#C94775" transform="translate(174,34)"/>
<path d="M0 0 C0.66837891 0.16564453 1.33675781 0.33128906 2.02539062 0.50195312 C6.55653719 1.66886648 10.66119271 3.29487596 14.9375 5.1875 C16.32619495 5.6471556 17.72138159 6.08815987 19.125 6.5 C24.14615961 8.09607307 28.63062631 10.54843209 33.23828125 13.078125 C36.26339425 14.32144206 36.96786242 14.30392119 39.9375 13.1875 C41.64105465 11.81490461 41.64105465 11.81490461 43.1796875 10.0625 C43.77136719 9.43859375 44.36304688 8.8146875 44.97265625 8.171875 C46.19561354 6.85284675 47.41440085 5.5299395 48.62890625 4.203125 C51.41111443 1.28210817 53.28696159 -0.58056201 57.13671875 -1.953125 C60.59457702 -1.77950869 61.50491661 -1.02778758 63.875 1.4375 C69.24496456 6.95568014 76.48220162 8.8221122 83.625 11.1875 C84.41447021 11.45095215 85.20394043 11.7144043 86.01733398 11.98583984 C90.47816038 13.4517282 94.92448867 14.74213617 99.5 15.8125 C104.65450496 17.03161528 109.22960893 18.77247404 113.9375 21.1875 C114.989375 21.6825 116.04125 22.1775 117.125 22.6875 C121.62152772 26.68441352 123.60792604 31.71663084 125.9375 37.1875 C126.32035156 38.06019531 126.70320312 38.93289062 127.09765625 39.83203125 C132.26752668 53.25796852 133.25036177 68.91926495 132.9375 83.1875 C133.80375 83.31125 134.67 83.435 135.5625 83.5625 C138.9375 84.1875 138.9375 84.1875 141.6875 85.125 C145.34679175 86.32130692 148.9837655 87.02931534 152.765625 87.72265625 C154.9375 88.1875 154.9375 88.1875 156.9375 89.1875 C157.66542872 93.33669371 158.01360275 97.11538588 157.71484375 101.32421875 C157.05611515 112.40283617 159.75041313 121.91038868 163.09204102 132.45605469 C166.06907995 142.19330081 168.21231609 152.58172559 164.125 162.3125 C157.98689463 172.84237654 148.41979228 180.8017261 138.9375 188.1875 C137.59945312 189.30705078 137.59945312 189.30705078 136.234375 190.44921875 C135.37328125 191.16722656 134.5121875 191.88523438 133.625 192.625 C132.86574219 193.26308594 132.10648438 193.90117187 131.32421875 194.55859375 C128.62736005 196.39916671 126.06323369 197.28992279 122.9375 198.1875 C123.58188933 200.79203175 124.2279504 203.3961291 124.875 206 C125.05740234 206.73798828 125.23980469 207.47597656 125.42773438 208.23632812 C126.1797615 211.25810984 126.95235573 214.23206718 127.9375 217.1875 C128.39661721 223.61514091 128.39661721 223.61514091 126.66162109 225.77807617 C124.87164855 227.24133183 123.17881024 228.22836117 121.1015625 229.23828125 C119.99941406 229.79225586 119.99941406 229.79225586 118.875 230.35742188 C117.34425378 231.11374496 115.81041754 231.86384877 114.2734375 232.60742188 C109.20033374 235.17501547 106.35785134 237.65523232 102.9375 242.1875 C101.63738675 243.41128085 100.30687702 244.60425108 98.9375 245.75 C94.93801816 249.16419182 91.21652653 252.7257554 87.75 256.6875 C80.13353366 263.4576923 72.5780813 265.16260539 62.57421875 264.66796875 C48.67499432 263.49417762 36.27430615 258.34078444 23.9375 252.1875 C18.91445388 249.68122893 18.91445388 249.68122893 13.5 249.8125 C11.65153618 251.20659063 11.65153618 251.20659063 10.9375 254.1875 C10.2775 254.1875 9.6175 254.1875 8.9375 254.1875 C8.69 254.80625 8.4425 255.425 8.1875 256.0625 C6.70979238 258.57460296 5.49794823 258.94857344 2.9375 260.1875 C2.6075 261.1775 2.2775 262.1675 1.9375 263.1875 C-1.01914519 264.6658226 -3.80479737 264.24782783 -7.0625 264.1875 C-7.0625 263.5275 -7.0625 262.8675 -7.0625 262.1875 C-8.4546875 261.754375 -8.4546875 261.754375 -9.875 261.3125 C-13.0625 260.1875 -13.0625 260.1875 -16.0625 258.1875 C-16.0625 257.5275 -16.0625 256.8675 -16.0625 256.1875 C-22.12746084 254.07641667 -28.21104612 252.31314516 -34.4375 250.75 C-40.72787449 249.1356236 -46.85661904 247.38241471 -52.91015625 245.00390625 C-55.20842977 244.07661704 -55.20842977 244.07661704 -58.3125 243.4375 C-63.94756809 240.87610542 -68.83162053 234.45605389 -70.9921875 228.71875 C-75.96015352 212.78841268 -78.64928272 196.792803 -80.0625 180.1875 C-81.79886719 179.82398438 -81.79886719 179.82398438 -83.5703125 179.453125 C-85.10952146 179.11524986 -86.64857601 178.77667075 -88.1875 178.4375 C-88.94804688 178.28023437 -89.70859375 178.12296875 -90.4921875 177.9609375 C-95.82985411 176.76456395 -100.10442806 175.14557194 -104.0625 171.1875 C-104.01969134 169.04064571 -103.97124221 166.89377352 -103.89624023 164.74780273 C-103.48559378 151.2730918 -106.0117366 139.12007299 -109.61767578 126.19799805 C-111.46401117 117.85300798 -112.08585871 105.27713156 -107.875 97.6875 C-106.21875 95.5078125 -106.21875 95.5078125 -104.0625 93.1875 C-103.37800781 92.43098145 -103.37800781 92.43098145 -102.6796875 91.65917969 C-96.46964357 84.86395854 -89.92541922 78.95191692 -82.3046875 73.7734375 C-80.08323547 72.29689747 -80.08323547 72.29689747 -78.48828125 70.61328125 C-76.05854784 68.18354784 -73.06316072 66.82937096 -70.0625 65.1875 C-70.17764149 63.14525363 -70.30507326 61.10369841 -70.4375 59.0625 C-70.54191406 57.35707031 -70.54191406 57.35707031 -70.6484375 55.6171875 C-71.05811906 52.22378742 -71.93182726 49.40004635 -73.0625 46.1875 C-73.6843035 40.17673284 -73.6843035 40.17673284 -71.6875 37 C-69.22993162 35.30310755 -67.47566204 34.61841594 -64.6875 33.6875 C-53.79029395 29.65569568 -43.88272802 18.95231633 -36.6875 10.125 C-33.4465304 6.3767482 -30.48003512 4.39626756 -26.0625 2.1875 C-25.19625 1.630625 -24.33 1.07375 -23.4375 0.5 C-16.17392596 -3.51408039 -7.66014695 -2.04320117 0 0 Z M-22.0625 12.1875 C-23.25482613 14.23753955 -23.25482613 14.23753955 -24.0625 16.1875 C-24.660625 16.45433594 -25.25875 16.72117187 -25.875 16.99609375 C-28.73392982 18.55318945 -29.96317875 20.49671714 -31.875 23.125 C-35.68056484 27.90715847 -39.7038053 31.57169119 -44.625 35.1875 C-45.54406128 35.87187134 -45.54406128 35.87187134 -46.48168945 36.57006836 C-50.21723817 39.22695564 -53.83426419 41.05886685 -58.18334961 42.51171875 C-60.23734088 43.25037639 -62.12789171 44.18042162 -64.0625 45.1875 C-63.92175049 45.77088135 -63.78100098 46.3542627 -63.63598633 46.95532227 C-62.12543689 53.73448705 -61.7279099 60.19312797 -61.75 67.125 C-61.73388672 68.13240234 -61.71777344 69.13980469 -61.70117188 70.17773438 C-61.6958866 78.39633684 -63.4799372 85.43981161 -66.0625 93.1875 C-66.092229 92.21139771 -66.092229 92.21139771 -66.12255859 91.21557617 C-66.21779299 88.26830849 -66.32747818 85.32175115 -66.4375 82.375 C-66.4684375 81.35083984 -66.499375 80.32667969 -66.53125 79.27148438 C-66.58925781 77.79711914 -66.58925781 77.79711914 -66.6484375 76.29296875 C-66.6798584 75.38699951 -66.7112793 74.48103027 -66.74365234 73.54760742 C-66.92277919 70.92224608 -66.92277919 70.92224608 -69.0625 68.1875 C-69.0625 68.8475 -69.0625 69.5075 -69.0625 70.1875 C-69.619375 70.414375 -70.17625 70.64125 -70.75 70.875 C-73.72409588 72.56300036 -75.78258865 74.65426517 -78.0625 77.1875 C-78.0625 77.8475 -78.0625 78.5075 -78.0625 79.1875 C-78.61164063 79.4040625 -79.16078125 79.620625 -79.7265625 79.84375 C-82.83676013 81.63289379 -85.05445229 84.05418913 -87.4375 86.6875 C-87.92210693 87.21923828 -88.40671387 87.75097656 -88.90600586 88.29882812 C-92.98408672 92.88453406 -96.22893424 97.73757561 -99.0625 103.1875 C-99.62130859 104.22197266 -99.62130859 104.22197266 -100.19140625 105.27734375 C-101.89599447 109.0152076 -101.5935213 112.59991054 -100.3046875 116.453125 C-99.97726563 117.29359375 -99.64984375 118.1340625 -99.3125 119 C-93.24729897 134.986137 -92.5001963 150.20160282 -93.0625 167.1875 C-91.88429688 167.61546875 -90.70609375 168.0434375 -89.4921875 168.484375 C-74.82901451 173.99354778 -61.71848053 181.6704882 -52.0625 194.1875 C-52.64515625 193.82398438 -53.2278125 193.46046875 -53.828125 193.0859375 C-60.33586866 189.09533997 -66.9775282 185.06857239 -74.0625 182.1875 C-74.7225 182.5175 -75.3825 182.8475 -76.0625 183.1875 C-74.3277538 189.31560394 -72.57761056 195.43909173 -70.81445312 201.55908203 C-70.19252221 203.73301327 -69.58453612 205.90984676 -68.984375 208.08984375 C-66.90467393 215.3599852 -64.08052438 221.76937573 -60.0625 228.1875 C-59.68351562 228.8990625 -59.30453125 229.610625 -58.9140625 230.34375 C-55.97665714 233.26876125 -52.46071464 233.71695099 -48.5 234.625 C-46.77593506 235.05556292 -45.05197928 235.48656317 -43.328125 235.91796875 C-40.76609428 236.54059304 -38.20275421 237.1548624 -35.63476562 237.75244141 C-25.50560234 240.12818292 -17.4000687 243.13542329 -8.8828125 249.19921875 C-6.63749525 250.78213631 -4.55467024 252.06180958 -2.0625 253.1875 C-1.24910156 252.48625 -0.43570313 251.785 0.40234375 251.0625 C12.41890032 240.99947898 25.39618071 234.0621949 40.9375 231.1875 C40.9375 231.8475 40.9375 232.5075 40.9375 233.1875 C40.23625 233.455625 39.535 233.72375 38.8125 234 C35.7725176 235.2556449 32.8647226 236.68985123 29.9375 238.1875 C29.9375 238.8475 29.9375 239.5075 29.9375 240.1875 C28.844375 240.435 27.75125 240.6825 26.625 240.9375 C22.87841591 242.20752851 21.83154734 242.84506352 19.9375 246.1875 C26.85962573 248.61024401 33.80148306 250.50488416 40.9375 252.1875 C42.05511719 252.46980469 43.17273438 252.75210938 44.32421875 253.04296875 C53.16613277 255.15195832 63.29505687 257.39603203 72.03125 253.9765625 C77.15073475 250.82505173 80.80620365 246.24638213 84.79516602 241.81982422 C94.65245707 230.97258281 103.83658325 223.85044227 117.9375 219.1875 C117.87691406 218.62804687 117.81632813 218.06859375 117.75390625 217.4921875 C117.57247718 215.75605086 117.40033356 214.01893371 117.234375 212.28125 C117.03230007 210.17541652 116.81286378 208.07119301 116.578125 205.96875 C115.46134016 194.37545973 116.52653764 183.34149084 119.9375 172.1875 C119.95731934 172.81317871 119.97713867 173.43885742 119.99755859 174.08349609 C120.09264226 176.91026519 120.20238746 179.73627815 120.3125 182.5625 C120.3434375 183.54734375 120.374375 184.5321875 120.40625 185.546875 C120.44492188 186.48789063 120.48359375 187.42890625 120.5234375 188.3984375 C120.5548584 189.26774902 120.5862793 190.13706055 120.61865234 191.03271484 C120.74979433 193.39711794 120.74979433 193.39711794 122.9375 195.1875 C125.44554718 192.73726242 127.9425076 190.27602402 130.4375 187.8125 C131.51064453 186.76449219 131.51064453 186.76449219 132.60546875 185.6953125 C133.62060547 184.68984375 133.62060547 184.68984375 134.65625 183.6640625 C135.59887695 182.737146 135.59887695 182.737146 136.56054688 181.79150391 C138.15462061 180.28690431 138.15462061 180.28690431 137.9375 178.1875 C138.53949219 177.91808594 139.14148438 177.64867187 139.76171875 177.37109375 C146.4588024 173.72797643 151.7283476 164.84450209 154.9375 158.1875 C156.68884437 151.11447403 155.03883279 146.15762447 152.5625 139.4375 C151.90793551 137.58886669 151.25425489 135.73992012 150.6015625 133.890625 C150.30717285 133.08270508 150.0127832 132.27478516 149.70947266 131.44238281 C148.19490656 127.01843199 147.76533275 123.15119543 147.62109375 118.453125 C147.55825195 116.50986328 147.55825195 116.50986328 147.49414062 114.52734375 C147.45433329 113.16406524 147.41462094 111.80078394 147.375 110.4375 C147.33177726 109.05858125 147.28816179 107.67967474 147.24414062 106.30078125 C147.13806042 102.9297881 147.0360015 99.55872174 146.9375 96.1875 C145.88691406 95.74019531 144.83632812 95.29289062 143.75390625 94.83203125 C131.07772074 89.39247678 120.6763035 84.1825878 110.9375 74.1875 C110.174375 73.424375 109.41125 72.66125 108.625 71.875 C108.068125 71.318125 107.51125 70.76125 106.9375 70.1875 C110.14070069 70.8123396 112.3569845 71.94460848 115.0625 73.75 C117.77325542 75.69409703 117.77325542 75.69409703 120.9375 76.1875 C120.9375 76.8475 120.9375 77.5075 120.9375 78.1875 C124.8975 79.1775 124.8975 79.1775 128.9375 80.1875 C129.54648413 73.28240581 127.33427763 67.58266548 125.0625 61.125 C124.51529297 59.53075195 124.51529297 59.53075195 123.95703125 57.90429688 C123.25754604 55.86815902 122.5526575 53.8338668 121.84155273 51.80175781 C121.14564457 49.78939362 120.49149937 47.76255213 119.85546875 45.73046875 C117.64617262 39.61024842 113.53891981 33.574405 107.9375 30.1875 C102.79861162 28.15726518 97.6344579 26.8503087 92.2019043 25.90844727 C79.19426576 23.62518431 67.89598357 18.95645567 57.9375 10.1875 C54.56891397 11.62520918 51.8839153 13.72425615 49.01342773 15.97094727 C41.07844395 22.13325465 33.46019138 25.99099424 23.9375 29.1875 C22.88691406 29.56777344 21.83632812 29.94804688 20.75390625 30.33984375 C17.9375 31.1875 17.9375 31.1875 13.9375 31.1875 C18.8226416 27.8330361 23.63282856 24.83983572 28.9375 22.1875 C31.76615928 20.2429473 31.76615928 20.2429473 33.9375 18.1875 C33.9375 17.5275 33.9375 16.8675 33.9375 16.1875 C33.14730469 16.02894531 32.35710937 15.87039062 31.54296875 15.70703125 C26.08598825 14.57821586 20.68922522 13.43705979 15.33984375 11.875 C-4.02382304 6.00843946 -4.02382304 6.00843946 -22.0625 12.1875 Z " fill="#7C02A6" transform="translate(110.0625,15.8125)"/>
<path d="M0 0 C3.08755417 1.06134674 5.55065743 2.35325194 8.3125 4.125 C12.23737852 6.6360386 16.32999428 8.7447451 20.5 10.8125 C21.18425049 11.15216797 21.86850098 11.49183594 22.57348633 11.84179688 C26.144444 13.60686199 29.72492365 15.35102566 33.3125 17.08203125 C47.51565521 23.97691013 56.98699062 30.16575753 62.3359375 45.58203125 C63 48 63 48 63 51 C58.5467233 49.51557443 57.30266899 45.75690671 55.13671875 41.8359375 C52.89424666 37.96178338 50.99307504 35.98138928 47 34 C46.13761719 33.49339844 45.27523437 32.98679688 44.38671875 32.46484375 C38.88986826 29.35446959 34.15759108 27.31227351 28 26 C26.57859514 25.50734006 25.16550781 24.99003468 23.76171875 24.44921875 C23.05362061 24.17811279 22.34552246 23.90700684 21.6159668 23.62768555 C21.08269775 23.42054932 20.54942871 23.21341309 20 23 C20.39832031 24.05058594 20.79664063 25.10117188 21.20703125 26.18359375 C28.65534014 45.8868598 28.65534014 45.8868598 29.75 52.375 C30.78363935 57.52506272 33.56830369 61.36112079 36.5390625 65.6171875 C38 68 38 68 38 71 C38.556875 71.226875 39.11375 71.45375 39.6875 71.6875 C42.66159588 73.37550036 44.72008865 75.46676517 47 78 C47 78.66 47 79.32 47 80 C47.56460938 80.11214844 48.12921875 80.22429687 48.7109375 80.33984375 C51.29117265 81.083973 53.2957586 82.23096298 55.625 83.5625 C62.29521291 86.98135359 68.80753118 86.91799169 76 85 C76.33 86.32 76.66 87.64 77 89 C78.65 89.33 80.3 89.66 82 90 C82.33 89.34 82.66 88.68 83 88 C83.350625 88.70125 83.70125 89.4025 84.0625 90.125 C85.85154607 92.77971353 86.94143065 93.75740263 89.4375 95.5625 C94.88427801 100.155334 96.45697584 106.19589849 97.23925781 113.11669922 C98.43226021 128.50243129 96.00797503 144.78513817 86 157 C85.06094893 158.29053946 84.12346977 159.58222407 83.1875 160.875 C78.41472834 167.15496271 73.40751996 173.27469961 68.1875 179.1875 C66.4656352 181.40132617 65.33204853 183.15534841 64.125 185.625 C63.63580078 186.61886719 63.63580078 186.61886719 63.13671875 187.6328125 C62.25554138 189.46784167 61.41111091 191.32053917 60.58203125 193.1796875 C59.76798828 194.82324219 59.76798828 194.82324219 58.9375 196.5 C58.20853516 198.06234375 58.20853516 198.06234375 57.46484375 199.65625 C55 202 55 202 52.3530426 202.22888184 C51.36070114 202.20169067 50.36835968 202.17449951 49.34594727 202.14648438 C48.34725113 202.12533569 47.34855499 202.10418701 46.31959534 202.08239746 C45.55412888 202.0552063 44.78866241 202.02801514 44 202 C43.49135988 194.67331312 43.01248872 187.34509805 42.5534668 180.01513672 C42.39416916 177.5260909 42.22826681 175.03745804 42.05541992 172.54931641 C41.8069606 168.95565841 41.58294568 165.36114455 41.36328125 161.765625 C41.28217606 160.66825012 41.20107086 159.57087524 41.11750793 158.44024658 C40.32971362 144.58669958 44.17133791 134.46359951 53 124 C51.824375 124.48726563 50.64875 124.97453125 49.4375 125.4765625 C42.74379873 127.69646577 35.97810662 127.45242929 29 127.375 C28.30725983 127.37234131 27.61451965 127.36968262 26.90078735 127.36694336 C17.80806582 127.32599757 9.28366345 126.6517645 0.40234375 124.64453125 C-6.6446648 123.33373666 -14.06287116 123.98611212 -21.18286133 124.375 C-29.08901944 124.63244029 -29.08901944 124.63244029 -31.83569336 122.72558594 C-33.96727231 120.21730717 -36.11193072 117.35792168 -36 114 C-33.24617735 110.81508829 -30.41550876 108.96605186 -26.6875 107.0625 C-23.33497636 105.30153346 -20.20740531 103.53515156 -17.1875 101.25 C-14.12419177 99.08766478 -11.59805207 97.96533104 -8 97 C-8 96.34 -8 95.68 -8 95 C-5.37008325 92.92813772 -2.42535996 91.29284956 0.4375 89.5625 C1.22060547 89.07201172 2.00371094 88.58152344 2.81054688 88.07617188 C10.17732522 83.58334656 16.94551174 80.26217937 25.75 81.25 C26.81734375 81.35828125 27.8846875 81.4665625 28.984375 81.578125 C31.6856284 81.95602055 34.33399371 82.42730235 37 83 C36.18208984 82.34257812 36.18208984 82.34257812 35.34765625 81.671875 C24.33783615 72.41233399 18.21723299 62.42985213 13.70166016 49.0390625 C10.6050702 40.04020399 6.94992579 31.37679749 2.1015625 23.171875 C1 21 1 21 1 18 C0.34 18 -0.32 18 -1 18 C-3.55571905 14.93313714 -5 13.05604684 -5 9 C-3.84276295 5.52828886 -2.16610166 2.93471837 0 0 Z M38 84 C38 84.66 38 85.32 38 86 C37.23816406 85.96519531 36.47632813 85.93039063 35.69140625 85.89453125 C28.84363262 85.7150016 23.27742622 86.20620042 17 89 C16.071875 89.40734375 15.14375 89.8146875 14.1875 90.234375 C10.30339375 92.38586523 7.19180106 95.00944229 3.875 97.9375 C3.26785156 98.46279297 2.66070312 98.98808594 2.03515625 99.52929688 C-1.09056117 102.2498287 -4.11475015 105.02144605 -7 108 C-6.17242187 108.14695312 -5.34484375 108.29390625 -4.4921875 108.4453125 C4.57436202 110.14896219 13.38735054 112.38989227 22.23291016 115.01806641 C36.53069263 119.12050372 50.00525477 115.85716149 62.9140625 108.953125 C67.82600484 105.84430074 72.03301049 102.49190656 73.6328125 96.71484375 C74.01035807 94.29457479 74.01035807 94.29457479 74 91 C73.28070313 91.15984375 72.56140625 91.3196875 71.8203125 91.484375 C59.44417954 93.74704751 48.4943493 90.55572932 38 84 Z M79 95 C78.88785156 95.60585937 78.77570313 96.21171875 78.66015625 96.8359375 C76.46160696 106.17617957 70.78704907 112.87148991 62.6875 117.9375 C61.4601952 118.62831827 60.23126824 119.31627091 59 120 C57.65064926 120.97827929 56.30674304 121.96549509 55 123 C55.66 123 56.32 123 57 123 C56.43410156 124.05058594 55.86820312 125.10117188 55.28515625 126.18359375 C54.54351249 127.60116601 53.80266978 129.01915756 53.0625 130.4375 C52.50272461 131.46907227 52.50272461 131.46907227 51.93164062 132.52148438 C47.11068911 141.85936343 47.90429765 149.7582933 49.8125 159.875 C49.99103516 160.90625 50.16957031 161.9375 50.35351562 163 C51.34298713 168.80990304 51.34298713 168.80990304 54 174 C54.36609375 173.48953125 54.7321875 172.9790625 55.109375 172.453125 C58.74762629 167.56747327 62.66639158 163.19898272 67 158.9375 C79.52024549 146.57789455 88.96787949 133.63077826 89.4375 115.1875 C89.13651967 106.86037764 86.8449133 100.99478287 81 95 C80.34 95 79.68 95 79 95 Z " fill="#F6943F" transform="translate(57,59)"/>
<path d="M0 0 C2.18074088 34.91795333 2.18074088 34.91795333 2.375 49.1875 C2.40078125 50.06801025 2.4265625 50.94852051 2.453125 51.85571289 C2.47339913 58.34279971 1.10494978 64.78047099 -3.54150391 69.59838867 C-4.02280762 70.06092041 -4.50411133 70.52345215 -5 71 C-5.495 71.825 -5.99 72.65 -6.5 73.5 C-7.83312742 75.72187904 -9.09367418 77.27522902 -11 79 C-11.99 78.67 -12.98 78.34 -14 78 C-13.36771484 77.02160156 -13.36771484 77.02160156 -12.72265625 76.0234375 C-12.17480469 75.14945312 -11.62695312 74.27546875 -11.0625 73.375 C-10.51722656 72.51648438 -9.97195312 71.65796875 -9.41015625 70.7734375 C-3.84217013 59.82255067 -6.93897651 43.7342943 -9 32 C-9.33 31.01 -9.66 30.02 -10 29 C-10.53109375 29.67546875 -11.0621875 30.3509375 -11.609375 31.046875 C-12.31578125 31.93890625 -13.0221875 32.8309375 -13.75 33.75 C-14.44609375 34.63171875 -15.1421875 35.5134375 -15.859375 36.421875 C-17.80839472 38.76923452 -19.73125314 40.96003434 -22 43 C-22.66 43 -23.32 43 -24 43 C-24.26039063 43.60199219 -24.52078125 44.20398438 -24.7890625 44.82421875 C-26.0873062 47.15686953 -27.26540475 48.2141822 -29.375 49.8125 C-32.91414365 52.74472439 -34.98731005 55.90157894 -37 60 C-37.4228125 60.76441406 -37.845625 61.52882812 -38.28125 62.31640625 C-43.91620531 72.78366336 -45.89525069 84.67181303 -43.5 96.4609375 C-41.921302 101.14321224 -39.2950811 104.43775016 -36 108 C-37.485 108.495 -37.485 108.495 -39 109 C-38.67 110.98 -38.34 112.96 -38 115 C-38.99 114.67 -39.98 114.34 -41 114 C-41.433125 112.8553125 -41.433125 112.8553125 -41.875 111.6875 C-42.79199068 108.84611398 -42.79199068 108.84611398 -45.3125 107.3125 C-50.08004744 103.21019174 -52.57737635 97.95659629 -53.46655273 91.73608398 C-53.63454029 88.16540117 -53.63339926 84.63620594 -53.5625 81.0625 C-53.57345703 79.86431641 -53.58441406 78.66613281 -53.59570312 77.43164062 C-53.50794893 66.69637765 -50.47228788 58.22371128 -45.4375 48.875 C-44.85871094 47.77929688 -44.27992188 46.68359375 -43.68359375 45.5546875 C-42 43 -42 43 -39 42 C-37.93283296 40.20067421 -37.93283296 40.20067421 -37 38 C-35.47026613 35.15906568 -34.06505485 33.06281158 -31.734375 30.8125 C-28.58805586 27.57628603 -26.09803632 24.15803689 -23.5625 20.4375 C-23.08022949 19.73874756 -22.59795898 19.03999512 -22.10107422 18.32006836 C-18.59269777 13.13672891 -15.82763789 7.94495146 -13.4140625 2.16015625 C-12 0 -12 0 -9.7734375 -0.87890625 C-6.41805739 -1.02540876 -3.31403348 -0.50564183 0 0 Z " fill="#C94776" transform="translate(174,34)"/>
<path d="M0 0 C7.46451042 1.4229223 14.99275976 1.57026808 22.55859375 1.25390625 C23.62899902 1.22022949 24.6994043 1.18655273 25.80224609 1.15185547 C27.94858913 1.07759978 30.09406921 0.96940262 32.23681641 0.82470703 C39.52194123 0.59715741 39.52194123 0.59715741 42.35888672 3.14794922 C44.2934279 6.02012688 45.64771394 8.0896313 45.27172852 11.61987305 C43.97890057 14.73026738 41.34953985 15.70911939 38.5 17.3515625 C37.30778525 18.0520111 36.11638138 18.75384167 34.92578125 19.45703125 C33.79527344 20.12347656 32.66476563 20.78992188 31.5 21.4765625 C29.88600485 22.52407221 28.2802683 23.58455053 26.6875 24.6640625 C23.94960962 26.5160176 21.18972937 28.30609336 18.375 30.0390625 C15.70251514 31.68531317 13.15341783 33.42931715 10.625 35.2890625 C7.5 37.4765625 7.5 37.4765625 5.5 37.4765625 C5.5 38.1365625 5.5 38.7965625 5.5 39.4765625 C-3.66162194 43.74309746 -13.28645864 45.27994784 -23.234375 42.79296875 C-25.4375 41.9765625 -25.4375 41.9765625 -28.5 40.4765625 C-24.8425716 38.0382769 -21.86905226 38.07082479 -17.625 37.9140625 C-13.17328719 37.72350649 -8.85311233 37.50935974 -4.5 36.4765625 C-4.5 35.8165625 -4.5 35.1565625 -4.5 34.4765625 C-2.84229079 33.14036629 -1.12147984 31.88194111 0.625 30.6640625 C8.00821105 25.97487493 8.00821105 25.97487493 13.5 19.4765625 C14.49 19.1465625 15.48 18.8165625 16.5 18.4765625 C-17.64112082 8.68294562 -17.64112082 8.68294562 -51.125 16.3515625 C-58.5243594 21.37430646 -61.59507393 26.11881432 -64.5 34.4765625 C-65.82 34.4765625 -67.14 34.4765625 -68.5 34.4765625 C-68.83 35.1365625 -69.16 35.7965625 -69.5 36.4765625 C-70.49 36.4765625 -71.48 36.4765625 -72.5 36.4765625 C-72.5 35.1565625 -72.5 33.8365625 -72.5 32.4765625 C-71.51 31.8165625 -70.52 31.1565625 -69.5 30.4765625 C-69.03286771 28.3849259 -69.03286771 28.3849259 -68.875 25.9765625 C-67.4079943 17.83174683 -61.89351653 13.04606588 -55.5078125 8.2109375 C-38.48193379 -3.02864014 -19.45936327 -4.28874125 0 0 Z " fill="#F5933E" transform="translate(207.5,110.5234375)"/>
<path d="M0 0 C1.05574219 0.09667969 2.11148438 0.19335938 3.19921875 0.29296875 C6.3947926 0.82623264 9.27251061 1.70497763 12.3125 2.8125 C12.3125 3.4725 12.3125 4.1325 12.3125 4.8125 C10.64574219 4.94205078 10.64574219 4.94205078 8.9453125 5.07421875 C-6.90957048 6.48425562 -15.57937402 11.99471764 -27.22045898 22.56323242 C-28.6875 23.8125 -28.6875 23.8125 -31.6875 25.8125 C-31.1298999 25.94301758 -30.5722998 26.07353516 -29.99780273 26.20800781 C-27.37298024 26.82383674 -24.74891134 27.44280028 -22.125 28.0625 C-21.17149658 28.28703857 -20.21799316 28.51157715 -19.2355957 28.74291992 C-14.21189007 29.93630839 -9.22009579 31.18981486 -4.25195312 32.59643555 C10.58117893 36.77355975 23.83304242 33.89904851 37.296875 26.69921875 C42.89109678 23.19920694 45.99553022 19.78192555 47.6875 13.375 C47.89375 12.199375 48.1 11.02375 48.3125 9.8125 C50.1875 10.125 50.1875 10.125 52.3125 10.8125 C54.3125 13.8125 54.3125 13.8125 54.16796875 15.94140625 C52.06475358 23.60399719 47.89683613 28.29897973 42.3125 33.8125 C41.87550781 34.328125 41.43851562 34.84375 40.98828125 35.375 C38.32664469 37.65817542 35.16916594 38.94286962 32 40.375 C31.34837891 40.67857422 30.69675781 40.98214844 30.02539062 41.29492188 C21.00455284 45.43963113 13.39079681 46.17132488 3.5 46.125 C2.79976715 46.12483887 2.0995343 46.12467773 1.37808228 46.12451172 C-7.79453309 46.10981138 -16.30288685 45.48707975 -25.28515625 43.45703125 C-32.3321648 42.14623666 -39.75037116 42.79861212 -46.87036133 43.1875 C-54.77651944 43.44494029 -54.77651944 43.44494029 -57.52319336 41.53808594 C-59.65477231 39.02980717 -61.79943072 36.17042168 -61.6875 32.8125 C-58.93367735 29.62758829 -56.10300876 27.77855186 -52.375 25.875 C-49.02247636 24.11403346 -45.89490531 22.34765156 -42.875 20.0625 C-39.81169177 17.90016478 -37.28555207 16.77783104 -33.6875 15.8125 C-33.6875 15.1525 -33.6875 14.4925 -33.6875 13.8125 C-31.05758325 11.74063772 -28.11285996 10.10534956 -25.25 8.375 C-24.0753418 7.63926758 -24.0753418 7.63926758 -22.87695312 6.88867188 C-15.55705927 2.42444031 -8.75256943 -0.91509029 0 0 Z " fill="#C94776" transform="translate(82.6875,140.1875)"/>
</svg>
