<?xml version="1.0" encoding="UTF-8"?>
<!DOCTYPE svg PUBLIC "-//W3C//DTD SVG 1.1//EN" "http://www.w3.org/Graphics/SVG/1.1/DTD/svg11.dtd">
<svg xmlns="http://www.w3.org/2000/svg" version="1.1" width="3840px" height="3840px" style="shape-rendering:geometricPrecision; text-rendering:geometricPrecision; image-rendering:optimizeQuality; fill-rule:evenodd; clip-rule:evenodd" xmlns:xlink="http://www.w3.org/1999/xlink">
<g><path style="opacity:1" fill="#7d7d7d" d="M 1869.5,20.5 C 2283.58,12.9465 2660.92,125.446 3001.5,358C 3319.14,581.349 3549.31,873.849 3692,1235.5C 3816.52,1564.88 3849.19,1903.22 3790,2250.5C 3721.14,2625.58 3557.14,2950.91 3298,3226.5C 3064.29,3470.7 2784.79,3642.2 2459.5,3741C 2146.7,3831.48 1831.03,3842.81 1512.5,3775C 1197.59,3704.55 918.92,3564.88 676.5,3356C 398.682,3113.07 205.849,2814.24 98,2459.5C 4.84271,2137.27 -4.49063,1812.6 70,1485.5C 150.101,1151.86 306.768,861.198 540,613.5C 806.511,334.749 1129.01,151.916 1507.5,65C 1626.95,38.9857 1747.61,24.1524 1869.5,20.5 Z"/></g>
<g><path style="opacity:1" fill="#f9f9f9" d="M 1619.5,521.5 C 1608.5,471.5 1597.5,421.5 1586.5,371.5C 1350.48,421.932 1137.15,520.099 946.5,666C 931.609,677.939 916.942,690.105 902.5,702.5C 935.747,742.68 968.747,783.014 1001.5,823.5C 975.264,846.228 949.431,869.561 924,893.5C 823.5,793 723,692.5 622.5,592C 869.478,351.952 1161.81,191.618 1499.5,111C 1630.73,80.8051 1763.73,64.9718 1898.5,63.5C 1898.5,205.833 1898.5,348.167 1898.5,490.5C 1804.48,491.802 1711.48,502.136 1619.5,521.5 Z"/></g>
<g><path style="opacity:1" fill="#d3d3d3" d="M 1970.5,64.5 C 1960.83,64.5 1951.17,64.5 1941.5,64.5C 1941.5,206.5 1941.5,348.5 1941.5,490.5C 1940.5,348.334 1940.17,206.001 1940.5,63.5C 1950.68,63.1726 1960.68,63.506 1970.5,64.5 Z"/></g>
<g><path style="opacity:1" fill="#f9f9f9" d="M 1970.5,64.5 C 2361.62,77.36 2713.95,199.193 3027.5,430C 3093.74,479.882 3156.74,533.882 3216.5,592C 3116,692.5 3015.5,793 2915,893.5C 2676.41,665.389 2391.91,533.222 2061.5,497C 2021.6,493.105 1981.6,490.938 1941.5,490.5C 1941.5,348.5 1941.5,206.5 1941.5,64.5C 1951.17,64.5 1960.83,64.5 1970.5,64.5 Z"/></g>
<g><path style="opacity:1" fill="#969696" d="M 1619.5,521.5 C 1612.97,523.428 1606.3,524.761 1599.5,525.5C 1599.17,525.5 1598.83,525.5 1598.5,525.5C 1589.27,482.48 1579.94,439.48 1570.5,396.5C 1335.37,450.243 1124.04,551.743 936.5,701C 934.981,702.351 933.648,703.851 932.5,705.5C 960.842,740.502 989.509,775.169 1018.5,809.5C 1018.5,809.833 1018.5,810.167 1018.5,810.5C 1012.57,814.426 1006.9,818.759 1001.5,823.5C 968.747,783.014 935.747,742.68 902.5,702.5C 916.942,690.105 931.609,677.939 946.5,666C 1137.15,520.099 1350.48,421.932 1586.5,371.5C 1597.5,421.5 1608.5,471.5 1619.5,521.5 Z"/></g>
<g><path style="opacity:1" fill="#e0a757" d="M 1598.5,525.5 C 1383.48,577.013 1190.15,671.679 1018.5,809.5C 989.509,775.169 960.842,740.502 932.5,705.5C 933.648,703.851 934.981,702.351 936.5,701C 1124.04,551.743 1335.37,450.243 1570.5,396.5C 1579.94,439.48 1589.27,482.48 1598.5,525.5 Z"/></g>
<g><path style="opacity:1" fill="#c88f3e" d="M 1598.5,525.5 C 1598.83,525.5 1599.17,525.5 1599.5,525.5C 1602.13,539.695 1605.13,553.695 1608.5,567.5C 1608.5,567.833 1608.5,568.167 1608.5,568.5C 1400.56,616.644 1213.9,707.144 1048.5,840C 1047.18,840.816 1046.51,841.983 1046.5,843.5C 1046.17,843.5 1045.83,843.5 1045.5,843.5C 1036.85,832.185 1027.85,821.185 1018.5,810.5C 1018.5,810.167 1018.5,809.833 1018.5,809.5C 1190.15,671.679 1383.48,577.013 1598.5,525.5 Z"/></g>
<g><path style="opacity:1" fill="#f9f9f9" d="M 1887.5,533.5 C 1890.83,533.5 1894.17,533.5 1897.5,533.5C 1897.5,675.5 1897.5,817.5 1897.5,959.5C 1890.98,959.177 1884.64,959.51 1878.5,960.5C 1826.24,962.381 1774.58,968.714 1723.5,979.5C 1721.17,978.345 1720.01,976.345 1720,973.5C 1689.51,836.884 1659.35,700.218 1629.5,563.5C 1714.29,544.684 1800.29,534.684 1887.5,533.5 Z"/></g>
<g><path style="opacity:1" fill="#d1d1d1" d="M 1887.5,533.5 C 1890.96,532.518 1894.63,532.185 1898.5,532.5C 1898.5,675.167 1898.5,817.833 1898.5,960.5C 1891.83,960.5 1885.17,960.5 1878.5,960.5C 1884.64,959.51 1890.98,959.177 1897.5,959.5C 1897.5,817.5 1897.5,675.5 1897.5,533.5C 1894.17,533.5 1890.83,533.5 1887.5,533.5 Z"/></g>
<g><path style="opacity:1" fill="#d2d2d2" d="M 1941.5,533.5 C 1941.5,675.5 1941.5,817.5 1941.5,959.5C 1946.03,959.182 1950.37,959.515 1954.5,960.5C 1949.83,960.5 1945.17,960.5 1940.5,960.5C 1940.17,817.999 1940.5,675.666 1941.5,533.5 Z"/></g>
<g><path style="opacity:1" fill="#f9f9f9" d="M 1941.5,533.5 C 2281.76,541.914 2579.76,656.748 2835.5,878C 2852.14,892.967 2868.47,908.3 2884.5,924C 2784,1024.5 2683.5,1125 2583,1225.5C 2563.59,1207.59 2543.76,1190.25 2523.5,1173.5C 2568.81,1115.85 2614.14,1058.19 2659.5,1000.5C 2556.83,921.146 2443.49,860.48 2319.5,818.5C 2318.2,819.09 2317.37,820.09 2317,821.5C 2293.17,885.667 2269.33,949.833 2245.5,1014C 2245.16,1015.03 2244.5,1015.53 2243.5,1015.5C 2150,982.416 2053.67,964.083 1954.5,960.5C 1950.37,959.515 1946.03,959.182 1941.5,959.5C 1941.5,817.5 1941.5,675.5 1941.5,533.5 Z"/></g>
<g><path style="opacity:1" fill="#969695" d="M 1629.5,563.5 C 1659.35,700.218 1689.51,836.884 1720,973.5C 1720.01,976.345 1721.17,978.345 1723.5,979.5C 1716.18,980.792 1708.85,982.458 1701.5,984.5C 1701.17,984.5 1700.83,984.5 1700.5,984.5C 1670.05,845.79 1639.38,707.124 1608.5,568.5C 1608.5,568.167 1608.5,567.833 1608.5,567.5C 1615.53,566.325 1622.53,564.992 1629.5,563.5 Z"/></g>
<g><path style="opacity:1" fill="#e0a757" d="M 1608.5,568.5 C 1639.38,707.124 1670.05,845.79 1700.5,984.5C 1582.77,1012.87 1474.1,1061.03 1374.5,1129C 1354.99,1143.02 1335.66,1157.19 1316.5,1171.5C 1226.12,1062.46 1136.12,953.124 1046.5,843.5C 1046.51,841.983 1047.18,840.816 1048.5,840C 1213.9,707.144 1400.56,616.644 1608.5,568.5 Z"/></g>
<g><path style="opacity:1" fill="#f9f9f9" d="M 490.5,1897.5 C 348.5,1897.5 206.5,1897.5 64.5,1897.5C 64.5,1887.17 64.5,1876.83 64.5,1866.5C 77.0904,1482.88 195.257,1136.21 419,826.5C 471.788,754.684 529.455,686.684 592,622.5C 692.5,723 793,823.5 893.5,924C 667.837,1159.89 536.004,1441.05 498,1767.5C 493.175,1810.7 490.675,1854.03 490.5,1897.5 Z"/></g>
<g><path style="opacity:1" fill="#f9f9f9" d="M 3774.5,1861.5 C 3774.5,1873.5 3774.5,1885.5 3774.5,1897.5C 3632.5,1897.5 3490.5,1897.5 3348.5,1897.5C 3340.12,1551.05 3224.29,1246.72 3001,984.5C 2982.87,964.033 2964.37,943.867 2945.5,924C 3046,823.5 3146.5,723 3247,622.5C 3474.52,856.722 3630.85,1132.72 3716,1450.5C 3751.13,1585.25 3770.63,1722.25 3774.5,1861.5 Z"/></g>
<g><path style="opacity:1" fill="#969696" d="M 2523.5,1173.5 C 2518.12,1168.79 2512.46,1164.46 2506.5,1160.5C 2506.5,1160.17 2506.5,1159.83 2506.5,1159.5C 2547.72,1108.08 2588.72,1056.42 2629.5,1004.5C 2538.6,937.119 2439.44,884.119 2332,845.5C 2308.97,903.744 2286.8,962.41 2265.5,1021.5C 2264.66,1021.84 2264.33,1022.51 2264.5,1023.5C 2257.54,1020.51 2250.54,1017.84 2243.5,1015.5C 2244.5,1015.53 2245.16,1015.03 2245.5,1014C 2269.33,949.833 2293.17,885.667 2317,821.5C 2317.37,820.09 2318.2,819.09 2319.5,818.5C 2443.49,860.48 2556.83,921.146 2659.5,1000.5C 2614.14,1058.19 2568.81,1115.85 2523.5,1173.5 Z"/></g>
<g><path style="opacity:1" fill="#969696" d="M 1045.5,843.5 C 1045.83,843.5 1046.17,843.5 1046.5,843.5C 1136.12,953.124 1226.12,1062.46 1316.5,1171.5C 1316.5,1171.83 1316.5,1172.17 1316.5,1172.5C 1311.17,1176.83 1305.83,1181.17 1300.5,1185.5C 1209.93,1076.02 1119.59,966.351 1029.5,856.5C 1034.43,851.698 1039.76,847.365 1045.5,843.5 Z"/></g>
<g><path style="opacity:1" fill="#c7d357" d="M 2506.5,1159.5 C 2433.08,1102.94 2352.75,1057.94 2265.5,1024.5C 2265.5,1023.5 2265.5,1022.5 2265.5,1021.5C 2286.8,962.41 2308.97,903.744 2332,845.5C 2439.44,884.119 2538.6,937.119 2629.5,1004.5C 2588.72,1056.42 2547.72,1108.08 2506.5,1159.5 Z"/></g>
<g><path style="opacity:1" fill="#f9f9f9" d="M 1029.5,856.5 C 1119.59,966.351 1209.93,1076.02 1300.5,1185.5C 1285.56,1198.6 1270.73,1211.93 1256,1225.5C 1155.5,1125 1055,1024.5 954.5,924C 978.476,900.182 1003.48,877.682 1029.5,856.5 Z"/></g>
<g><path style="opacity:1" fill="#f9f9f9" d="M 1059.5,1492.5 C 932.738,1431.62 806.071,1370.45 679.5,1309C 678.365,1308.25 677.365,1308.42 676.5,1309.5C 588.922,1495.92 544.255,1692.25 542.5,1898.5C 539.5,1898.5 536.5,1898.5 533.5,1898.5C 539.849,1588.7 637.016,1311.7 825,1067.5C 855.765,1028.06 888.765,990.389 924,954.5C 1024.5,1055 1125,1155.5 1225.5,1256C 1158.27,1326.41 1102.94,1405.24 1059.5,1492.5 Z"/></g>
<g><path style="opacity:1" fill="#f9f9f9" d="M 3305.5,1879.5 C 3305.5,1885.5 3305.5,1891.5 3305.5,1897.5C 3163.5,1897.5 3021.5,1897.5 2879.5,1897.5C 2879.82,1891.31 2879.49,1885.31 2878.5,1879.5C 2865.98,1638.59 2777.65,1430.76 2613.5,1256C 2714,1155.5 2814.5,1055 2915,954.5C 3118.9,1166.55 3244.23,1418.88 3291,1711.5C 3299.27,1767.2 3304.11,1823.2 3305.5,1879.5 Z"/></g>
<g><path style="opacity:1" fill="#c88f3e" d="M 1700.5,984.5 C 1700.83,984.5 1701.17,984.5 1701.5,984.5C 1703.96,997.877 1706.63,1011.21 1709.5,1024.5C 1709.5,1025.17 1709.5,1025.83 1709.5,1026.5C 1573.99,1058.42 1452.33,1117.76 1344.5,1204.5C 1344.17,1204.5 1343.83,1204.5 1343.5,1204.5C 1334.96,1193.42 1325.96,1182.76 1316.5,1172.5C 1316.5,1172.17 1316.5,1171.83 1316.5,1171.5C 1335.66,1157.19 1354.99,1143.02 1374.5,1129C 1474.1,1061.03 1582.77,1012.87 1700.5,984.5 Z"/></g>
<g><path style="opacity:1" fill="#f9f9f9" d="M 1827.5,1437.5 C 1823.62,1438.13 1821.79,1436.46 1822,1432.5C 1791.35,1295.58 1761.19,1158.58 1731.5,1021.5C 1786.55,1010.16 1842.22,1003.83 1898.5,1002.5C 1898.5,1144.83 1898.5,1287.17 1898.5,1429.5C 1874.6,1430.46 1850.94,1433.13 1827.5,1437.5 Z"/></g>
<g><path style="opacity:1" fill="#f9f9f9" d="M 2229.5,1055.5 C 2180.28,1188.34 2130.94,1321.17 2081.5,1454C 2081.16,1455.03 2080.5,1455.53 2079.5,1455.5C 2034.43,1440.16 1988.1,1431.49 1940.5,1429.5C 1940.5,1287.17 1940.5,1144.83 1940.5,1002.5C 2039.64,1005.13 2135.97,1022.8 2229.5,1055.5 Z"/></g>
<g><path style="opacity:1" fill="#969695" d="M 1731.5,1021.5 C 1761.19,1158.58 1791.35,1295.58 1822,1432.5C 1821.79,1436.46 1823.62,1438.13 1827.5,1437.5C 1819.28,1439.25 1810.95,1440.92 1802.5,1442.5C 1772.13,1303.58 1741.13,1164.91 1709.5,1026.5C 1709.5,1025.83 1709.5,1025.17 1709.5,1024.5C 1710.42,1024.98 1711.42,1025.31 1712.5,1025.5C 1718.85,1024.16 1725.18,1022.83 1731.5,1021.5 Z"/></g>
<g><path style="opacity:1" fill="#afbb3e" d="M 2265.5,1021.5 C 2265.5,1022.5 2265.5,1023.5 2265.5,1024.5C 2352.75,1057.94 2433.08,1102.94 2506.5,1159.5C 2506.5,1159.83 2506.5,1160.17 2506.5,1160.5C 2497.6,1171.28 2488.94,1182.28 2480.5,1193.5C 2480.17,1193.5 2479.83,1193.5 2479.5,1193.5C 2415.9,1143.64 2346.57,1103.14 2271.5,1072C 2264.23,1069.19 2256.89,1066.69 2249.5,1064.5C 2249.5,1064.17 2249.5,1063.83 2249.5,1063.5C 2254.5,1050.17 2259.5,1036.83 2264.5,1023.5C 2264.33,1022.51 2264.66,1021.84 2265.5,1021.5 Z"/></g>
<g><path style="opacity:1" fill="#e0a757" d="M 1709.5,1026.5 C 1741.13,1164.91 1772.13,1303.58 1802.5,1442.5C 1802.5,1442.83 1802.5,1443.17 1802.5,1443.5C 1733.44,1460.03 1671.44,1490.37 1616.5,1534.5C 1616.17,1534.5 1615.83,1534.5 1615.5,1534.5C 1525.14,1424.48 1434.81,1314.48 1344.5,1204.5C 1452.33,1117.76 1573.99,1058.42 1709.5,1026.5 Z"/></g>
<g><path style="opacity:1" fill="#969696" d="M 2229.5,1055.5 C 2236.17,1058.17 2242.83,1060.83 2249.5,1063.5C 2249.5,1063.83 2249.5,1064.17 2249.5,1064.5C 2199.65,1196.89 2150.31,1329.56 2101.5,1462.5C 2101.17,1462.5 2100.83,1462.5 2100.5,1462.5C 2093.26,1460.61 2086.26,1458.28 2079.5,1455.5C 2080.5,1455.53 2081.16,1455.03 2081.5,1454C 2130.94,1321.17 2180.28,1188.34 2229.5,1055.5 Z"/></g>
<g><path style="opacity:1" fill="#c7d357" d="M 2249.5,1064.5 C 2256.89,1066.69 2264.23,1069.19 2271.5,1072C 2346.57,1103.14 2415.9,1143.64 2479.5,1193.5C 2391.85,1305.15 2303.85,1416.48 2215.5,1527.5C 2198.27,1515.46 2180.61,1503.96 2162.5,1493C 2142.32,1482.24 2121.99,1472.08 2101.5,1462.5C 2150.31,1329.56 2199.65,1196.89 2249.5,1064.5 Z"/></g>
<g><path style="opacity:1" fill="#969696" d="M 2479.5,1193.5 C 2479.83,1193.5 2480.17,1193.5 2480.5,1193.5C 2485.81,1197.8 2491.14,1202.14 2496.5,1206.5C 2408.5,1318.17 2320.5,1429.83 2232.5,1541.5C 2227.12,1536.78 2221.45,1532.45 2215.5,1528.5C 2215.5,1528.17 2215.5,1527.83 2215.5,1527.5C 2303.85,1416.48 2391.85,1305.15 2479.5,1193.5 Z"/></g>
<g><path style="opacity:1" fill="#969696" d="M 1343.5,1204.5 C 1343.83,1204.5 1344.17,1204.5 1344.5,1204.5C 1434.81,1314.48 1525.14,1424.48 1615.5,1534.5C 1609.61,1538.94 1603.94,1543.6 1598.5,1548.5C 1509.35,1438.42 1419.35,1328.92 1328.5,1220C 1327.91,1219.54 1327.24,1219.37 1326.5,1219.5C 1332.51,1214.82 1338.18,1209.82 1343.5,1204.5 Z"/></g>
<g><path style="opacity:1" fill="#f9f9f9" d="M 2496.5,1206.5 C 2515.89,1222.05 2534.56,1238.55 2552.5,1256C 2452,1356.5 2351.5,1457 2251,1557.5C 2244.94,1551.93 2238.77,1546.59 2232.5,1541.5C 2320.5,1429.83 2408.5,1318.17 2496.5,1206.5 Z"/></g>
<g><path style="opacity:1" fill="#f9f9f9" d="M 1326.5,1219.5 C 1327.24,1219.37 1327.91,1219.54 1328.5,1220C 1419.35,1328.92 1509.35,1438.42 1598.5,1548.5C 1595.17,1551.66 1591.67,1554.66 1588,1557.5C 1487.5,1457 1387,1356.5 1286.5,1256C 1299.43,1243.23 1312.76,1231.06 1326.5,1219.5 Z"/></g>
<g><path style="opacity:1" fill="#f9f9f9" d="M 1481.5,1696.5 C 1353.62,1634.72 1225.95,1572.72 1098.5,1510.5C 1139.42,1427.66 1191.92,1352.99 1256,1286.5C 1356.5,1387 1457,1487.5 1557.5,1588C 1527.84,1621.17 1502.5,1657.34 1481.5,1696.5 Z"/></g>
<g><path style="opacity:1" fill="#f9f9f9" d="M 2582.5,1286.5 C 2719.09,1429.71 2801.26,1600.04 2829,1797.5C 2833.45,1831.02 2835.95,1864.69 2836.5,1898.5C 2694.17,1898.5 2551.83,1898.5 2409.5,1898.5C 2403.53,1779.46 2360.87,1675.96 2281.5,1588C 2382.03,1487.63 2482.37,1387.13 2582.5,1286.5 Z"/></g>
<g><path style="opacity:1" fill="#969696" d="M 1059.5,1492.5 C 1056.23,1498.71 1053.23,1505.04 1050.5,1511.5C 1050.17,1511.5 1049.83,1511.5 1049.5,1511.5C 928.86,1453.18 808.193,1394.85 687.5,1336.5C 610.016,1507 569.016,1686 564.5,1873.5C 563.507,1881.65 563.174,1889.98 563.5,1898.5C 556.5,1898.5 549.5,1898.5 542.5,1898.5C 544.255,1692.25 588.922,1495.92 676.5,1309.5C 677.365,1308.42 678.365,1308.25 679.5,1309C 806.071,1370.45 932.738,1431.62 1059.5,1492.5 Z"/></g>
<g><path style="opacity:1" fill="#e0c757" d="M 1049.5,1511.5 C 993.238,1634.23 963.238,1763.23 959.5,1898.5C 827.833,1898.5 696.167,1898.5 564.5,1898.5C 564.5,1890.17 564.5,1881.83 564.5,1873.5C 569.016,1686 610.016,1507 687.5,1336.5C 808.193,1394.85 928.86,1453.18 1049.5,1511.5 Z"/></g>
<g><path style="opacity:1" fill="#c78f3e" d="M 1802.5,1443.5 C 1805.9,1456.71 1808.9,1470.05 1811.5,1483.5C 1774.41,1493.81 1738.74,1507.98 1704.5,1526C 1682.92,1538.28 1662.26,1551.78 1642.5,1566.5C 1633.48,1556.15 1624.82,1545.48 1616.5,1534.5C 1671.44,1490.37 1733.44,1460.03 1802.5,1443.5 Z"/></g>
<g><path style="opacity:1" fill="#aeba3e" d="M 2100.5,1462.5 C 2100.83,1462.5 2101.17,1462.5 2101.5,1462.5C 2121.99,1472.08 2142.32,1482.24 2162.5,1493C 2180.61,1503.96 2198.27,1515.46 2215.5,1527.5C 2215.5,1527.83 2215.5,1528.17 2215.5,1528.5C 2206.6,1539.28 2197.94,1550.28 2189.5,1561.5C 2189.17,1561.5 2188.83,1561.5 2188.5,1561.5C 2157.08,1537.45 2122.74,1518.45 2085.5,1504.5C 2085.5,1503.83 2085.5,1503.17 2085.5,1502.5C 2090.87,1489.39 2095.87,1476.05 2100.5,1462.5 Z"/></g>
<g><path style="opacity:1" fill="#f9f9f9" d="M 1897.5,1472.5 C 1897.83,1571 1897.5,1669.33 1896.5,1767.5C 1874.86,1671.63 1853.86,1575.63 1833.5,1479.5C 1854.59,1475.19 1875.92,1472.86 1897.5,1472.5 Z"/></g>
<g><path style="opacity:1" fill="#d3d3d3" d="M 1897.5,1472.5 C 1898.5,1572.33 1898.83,1672.33 1898.5,1772.5C 1897.46,1771.07 1896.8,1769.4 1896.5,1767.5C 1897.5,1669.33 1897.83,1571 1897.5,1472.5 Z"/></g>
<g><path style="opacity:1" fill="#d3d3d3" d="M 1941.5,1472.5 C 1941.17,1591 1941.5,1709.33 1942.5,1827.5C 1942.57,1829.03 1941.91,1830.03 1940.5,1830.5C 1940.17,1711 1940.5,1591.67 1941.5,1472.5 Z"/></g>
<g><path style="opacity:1" fill="#f9f9f9" d="M 1941.5,1472.5 C 1983.91,1474.52 2025.24,1482.18 2065.5,1495.5C 2024.51,1606.16 1983.51,1716.82 1942.5,1827.5C 1941.5,1709.33 1941.17,1591 1941.5,1472.5 Z"/></g>
<g><path style="opacity:1" fill="#969695" d="M 1833.5,1479.5 C 1853.86,1575.63 1874.86,1671.63 1896.5,1767.5C 1896.8,1769.4 1897.46,1771.07 1898.5,1772.5C 1898.83,1804.34 1898.5,1836 1897.5,1867.5C 1897.17,1866.83 1896.83,1866.17 1896.5,1865.5C 1868.39,1738.52 1840.39,1611.52 1812.5,1484.5C 1819.47,1482.68 1826.47,1481.01 1833.5,1479.5 Z"/></g>
<g><path style="opacity:1" fill="#e0a757" d="M 1811.5,1483.5 C 1812.17,1483.5 1812.5,1483.83 1812.5,1484.5C 1840.39,1611.52 1868.39,1738.52 1896.5,1865.5C 1886.03,1855.54 1875.7,1845.37 1865.5,1835C 1864.91,1834.54 1864.24,1834.37 1863.5,1834.5C 1858.54,1828.2 1853.2,1822.2 1847.5,1816.5C 1779.54,1733.2 1711.2,1650.2 1642.5,1567.5C 1642.5,1567.17 1642.5,1566.83 1642.5,1566.5C 1662.26,1551.78 1682.92,1538.28 1704.5,1526C 1738.74,1507.98 1774.41,1493.81 1811.5,1483.5 Z"/></g>
<g><path style="opacity:1" fill="#969696" d="M 2065.5,1495.5 C 2071.97,1498.4 2078.64,1500.74 2085.5,1502.5C 2085.5,1503.17 2085.5,1503.83 2085.5,1504.5C 2041.81,1621.24 1998.15,1737.9 1954.5,1854.5C 1949.87,1858.63 1945.37,1862.96 1941,1867.5C 1940.5,1855.17 1940.33,1842.84 1940.5,1830.5C 1941.91,1830.03 1942.57,1829.03 1942.5,1827.5C 1983.51,1716.82 2024.51,1606.16 2065.5,1495.5 Z"/></g>
<g><path style="opacity:1" fill="#c7d357" d="M 2085.5,1504.5 C 2122.74,1518.45 2157.08,1537.45 2188.5,1561.5C 2117.5,1651.5 2046.5,1741.5 1975.5,1831.5C 1968.34,1840.47 1961.18,1849.47 1954,1858.5C 1953.81,1857.18 1953.97,1855.85 1954.5,1854.5C 1998.15,1737.9 2041.81,1621.24 2085.5,1504.5 Z"/></g>
<g><path style="opacity:1" fill="#969696" d="M 1098.5,1510.5 C 1225.95,1572.72 1353.62,1634.72 1481.5,1696.5C 1478.56,1702.72 1475.89,1709.05 1473.5,1715.5C 1473.17,1715.5 1472.83,1715.5 1472.5,1715.5C 1344.5,1653.84 1216.5,1592.17 1088.5,1530.5C 1088.5,1530.17 1088.5,1529.83 1088.5,1529.5C 1092.09,1523.32 1095.42,1516.99 1098.5,1510.5 Z"/></g>
<g><path style="opacity:1" fill="#c8af3e" d="M 1049.5,1511.5 C 1049.83,1511.5 1050.17,1511.5 1050.5,1511.5C 1062.9,1518.03 1075.57,1524.03 1088.5,1529.5C 1088.5,1529.83 1088.5,1530.17 1088.5,1530.5C 1034.39,1646.59 1005.72,1768.92 1002.5,1897.5C 1144.67,1898.5 1287,1898.83 1429.5,1898.5C 1429.5,1897.5 1429.5,1896.5 1429.5,1895.5C 1432.83,1832.87 1447.16,1772.87 1472.5,1715.5C 1472.83,1715.5 1473.17,1715.5 1473.5,1715.5C 1485.41,1722.25 1497.74,1728.25 1510.5,1733.5C 1510.5,1734.17 1510.83,1734.5 1511.5,1734.5C 1488.16,1785.19 1475.16,1838.53 1472.5,1894.5C 1471.57,1895.57 1471.23,1896.9 1471.5,1898.5C 1597.83,1898.5 1724.17,1898.5 1850.5,1898.5C 1851.61,1898.56 1852.61,1898.89 1853.5,1899.5C 1863.35,1904.59 1873.35,1909.43 1883.5,1914C 1882.83,1914.33 1882.17,1914.67 1881.5,1915C 1834.66,1923.34 1787.99,1931.84 1741.5,1940.5C 1739.17,1940.5 1736.83,1940.5 1734.5,1940.5C 1646.83,1940.5 1559.17,1940.5 1471.5,1940.5C 1471.23,1942.1 1471.57,1943.43 1472.5,1944.5C 1473.09,1958.26 1474.42,1971.92 1476.5,1985.5C 1476.5,1985.83 1476.5,1986.17 1476.5,1986.5C 1462.42,1988.42 1448.42,1990.75 1434.5,1993.5C 1434.17,1993.5 1433.83,1993.5 1433.5,1993.5C 1431.73,1976.87 1430.4,1960.21 1429.5,1943.5C 1429.5,1942.5 1429.5,1941.5 1429.5,1940.5C 1287,1940.17 1144.67,1940.5 1002.5,1941.5C 1003.37,1983.42 1007.03,2025.09 1013.5,2066.5C 1013.5,2066.83 1013.5,2067.17 1013.5,2067.5C 1000.73,2069.12 988.068,2071.12 975.5,2073.5C 974.167,2073.5 972.833,2073.5 971.5,2073.5C 964.616,2029.44 960.616,1985.11 959.5,1940.5C 827.833,1940.5 696.167,1940.5 564.5,1940.5C 564.167,1940.5 563.833,1940.5 563.5,1940.5C 563.5,1926.5 563.5,1912.5 563.5,1898.5C 563.174,1889.98 563.507,1881.65 564.5,1873.5C 564.5,1881.83 564.5,1890.17 564.5,1898.5C 696.167,1898.5 827.833,1898.5 959.5,1898.5C 963.238,1763.23 993.238,1634.23 1049.5,1511.5 Z"/></g>
<g><path style="opacity:1" fill="#e0c757" d="M 1088.5,1530.5 C 1216.5,1592.17 1344.5,1653.84 1472.5,1715.5C 1447.16,1772.87 1432.83,1832.87 1429.5,1895.5C 1287.38,1897.5 1145.04,1898.16 1002.5,1897.5C 1005.72,1768.92 1034.39,1646.59 1088.5,1530.5 Z"/></g>
<g><path style="opacity:1" fill="#969695" d="M 2188.5,1561.5 C 2188.83,1561.5 2189.17,1561.5 2189.5,1561.5C 2195.17,1566.17 2200.83,1570.83 2206.5,1575.5C 2205.5,1575.41 2204.67,1575.75 2204,1576.5C 2171.17,1618.17 2138.33,1659.83 2105.5,1701.5C 2105.62,1702.11 2105.96,1702.44 2106.5,1702.5C 2063.39,1745.1 2020.39,1787.94 1977.5,1831C 1976.91,1831.46 1976.24,1831.63 1975.5,1831.5C 2046.5,1741.5 2117.5,1651.5 2188.5,1561.5 Z"/></g>
<g><path style="opacity:1" fill="#969695" d="M 1642.5,1567.5 C 1711.2,1650.2 1779.54,1733.2 1847.5,1816.5C 1794.76,1764.42 1742.42,1712.09 1690.5,1659.5C 1670.24,1634.06 1649.74,1608.73 1629,1583.5C 1628.18,1582.18 1627.02,1581.51 1625.5,1581.5C 1631.14,1576.86 1636.81,1572.2 1642.5,1567.5 Z"/></g>
<g><path style="opacity:1" fill="#f8f8f8" d="M 2206.5,1575.5 C 2211.59,1579.09 2216.26,1583.25 2220.5,1588C 2182.3,1626.03 2144.3,1664.2 2106.5,1702.5C 2105.96,1702.44 2105.62,1702.11 2105.5,1701.5C 2138.33,1659.83 2171.17,1618.17 2204,1576.5C 2204.67,1575.75 2205.5,1575.41 2206.5,1575.5 Z"/></g>
<g><path style="opacity:1" fill="#f7f7f7" d="M 1625.5,1581.5 C 1627.02,1581.51 1628.18,1582.18 1629,1583.5C 1649.74,1608.73 1670.24,1634.06 1690.5,1659.5C 1666.37,1635.87 1642.37,1612.03 1618.5,1588C 1620.7,1585.63 1623.04,1583.46 1625.5,1581.5 Z"/></g>
<g><path style="opacity:1" fill="#f9f9f9" d="M 1835.5,1866.5 C 1730.38,1816.44 1625.38,1766.11 1520.5,1715.5C 1538.55,1680.05 1561.05,1647.72 1588,1618.5C 1670.7,1701.03 1753.2,1783.7 1835.5,1866.5 Z"/></g>
<g><path style="opacity:1" fill="#f9f9f9" d="M 2316.5,1898.5 C 2318.86,1865.33 2317.52,1832.33 2312.5,1799.5C 2200.98,1829.88 2089.64,1860.88 1978.5,1892.5C 1977.89,1892.38 1977.56,1892.04 1977.5,1891.5C 2068.8,1800.7 2159.97,1709.7 2251,1618.5C 2322.76,1697.74 2361.26,1791.08 2366.5,1898.5C 2349.83,1898.5 2333.17,1898.5 2316.5,1898.5 Z"/></g>
<g><path style="opacity:1" fill="#969695" d="M 1520.5,1715.5 C 1625.38,1766.11 1730.38,1816.44 1835.5,1866.5C 1846.22,1876.72 1856.89,1887.22 1867.5,1898C 1862.65,1898.17 1857.98,1898.67 1853.5,1899.5C 1852.61,1898.89 1851.61,1898.56 1850.5,1898.5C 1849.71,1897.6 1848.71,1896.93 1847.5,1896.5C 1735.5,1842.5 1623.5,1788.5 1511.5,1734.5C 1510.83,1734.5 1510.5,1734.17 1510.5,1733.5C 1511.38,1733.63 1512.04,1733.3 1512.5,1732.5C 1514.91,1726.69 1517.57,1721.02 1520.5,1715.5 Z"/></g>
<g><path style="opacity:1" fill="#e0c757" d="M 1511.5,1734.5 C 1623.5,1788.5 1735.5,1842.5 1847.5,1896.5C 1722.67,1897.5 1597.67,1897.83 1472.5,1897.5C 1472.5,1896.5 1472.5,1895.5 1472.5,1894.5C 1475.16,1838.53 1488.16,1785.19 1511.5,1734.5 Z"/></g>
<g><path style="opacity:1" fill="#969696" d="M 2316.5,1898.5 C 2309.5,1898.5 2302.5,1898.5 2295.5,1898.5C 2295.5,1897.5 2295.5,1896.5 2295.5,1895.5C 2297,1872.47 2296.66,1849.47 2294.5,1826.5C 2210.38,1849.53 2126.38,1872.86 2042.5,1896.5C 2040.21,1896.59 2038.21,1897.26 2036.5,1898.5C 2035.17,1898.5 2033.83,1898.5 2032.5,1898.5C 2012.16,1898.67 1991.83,1898.5 1971.5,1898C 1973.73,1895.94 1975.73,1893.77 1977.5,1891.5C 1977.56,1892.04 1977.89,1892.38 1978.5,1892.5C 2089.64,1860.88 2200.98,1829.88 2312.5,1799.5C 2317.52,1832.33 2318.86,1865.33 2316.5,1898.5 Z"/></g>
<g><path style="opacity:1" fill="#6464d3" d="M 2295.5,1895.5 C 2253.38,1896.83 2211.04,1897.49 2168.5,1897.5C 2126.33,1897.5 2084.33,1897.17 2042.5,1896.5C 2126.38,1872.86 2210.38,1849.53 2294.5,1826.5C 2296.66,1849.47 2297,1872.47 2295.5,1895.5 Z"/></g>
<g><path style="opacity:1" fill="#c58f43" d="M 1863.5,1834.5 C 1864.24,1834.37 1864.91,1834.54 1865.5,1835C 1875.7,1845.37 1886.03,1855.54 1896.5,1865.5C 1896.83,1866.17 1897.17,1866.83 1897.5,1867.5C 1898.33,1870.47 1898.5,1873.47 1898,1876.5C 1886.25,1862.65 1874.75,1848.65 1863.5,1834.5 Z"/></g>
<g><path style="opacity:1" fill="#d3d3d3" d="M 64.5,1866.5 C 64.5,1876.83 64.5,1887.17 64.5,1897.5C 206.5,1897.5 348.5,1897.5 490.5,1897.5C 348.334,1898.5 206.001,1898.83 63.5,1898.5C 63.1722,1887.65 63.5056,1876.99 64.5,1866.5 Z"/></g>
<g><path style="opacity:1" fill="#dabb51" d="M 1429.5,1895.5 C 1429.5,1896.5 1429.5,1897.5 1429.5,1898.5C 1287,1898.83 1144.67,1898.5 1002.5,1897.5C 1145.04,1898.16 1287.38,1897.5 1429.5,1895.5 Z"/></g>
<g><path style="opacity:1" fill="#d9ba51" d="M 1472.5,1894.5 C 1472.5,1895.5 1472.5,1896.5 1472.5,1897.5C 1597.67,1897.83 1722.67,1897.5 1847.5,1896.5C 1848.71,1896.93 1849.71,1897.6 1850.5,1898.5C 1724.17,1898.5 1597.83,1898.5 1471.5,1898.5C 1471.23,1896.9 1471.57,1895.57 1472.5,1894.5 Z"/></g>
<g><path style="opacity:1" fill="#5d5dc7" d="M 2295.5,1895.5 C 2295.5,1896.5 2295.5,1897.5 2295.5,1898.5C 2295.74,1899.79 2295.4,1900.79 2294.5,1901.5C 2294.5,1900.5 2294.5,1899.5 2294.5,1898.5C 2208.5,1898.5 2122.5,1898.5 2036.5,1898.5C 2038.21,1897.26 2040.21,1896.59 2042.5,1896.5C 2084.33,1897.17 2126.33,1897.5 2168.5,1897.5C 2211.04,1897.49 2253.38,1896.83 2295.5,1895.5 Z"/></g>
<g><path style="opacity:1" fill="#d0d0d0" d="M 2878.5,1879.5 C 2879.49,1885.31 2879.82,1891.31 2879.5,1897.5C 3021.5,1897.5 3163.5,1897.5 3305.5,1897.5C 3305.5,1891.5 3305.5,1885.5 3305.5,1879.5C 3306.49,1885.64 3306.82,1891.98 3306.5,1898.5C 3163.83,1898.5 3021.17,1898.5 2878.5,1898.5C 2878.5,1892.17 2878.5,1885.83 2878.5,1879.5 Z"/></g>
<g><path style="opacity:1" fill="#d2d2d2" d="M 3774.5,1861.5 C 3775.5,1873.66 3775.83,1885.99 3775.5,1898.5C 3633,1898.83 3490.67,1898.5 3348.5,1897.5C 3490.5,1897.5 3632.5,1897.5 3774.5,1897.5C 3774.5,1885.5 3774.5,1873.5 3774.5,1861.5 Z"/></g>
<g><path style="opacity:1" fill="#4b4bba" d="M 2032.5,1898.5 C 2033.83,1898.5 2035.17,1898.5 2036.5,1898.5C 2122.5,1898.5 2208.5,1898.5 2294.5,1898.5C 2294.5,1899.5 2294.5,1900.5 2294.5,1901.5C 2294.8,1904.06 2294.47,1906.39 2293.5,1908.5C 2196,1908.83 2098.67,1908.5 2001.5,1907.5C 2012.15,1905.12 2022.48,1902.12 2032.5,1898.5 Z"/></g>
<g><path style="opacity:1" fill="#6a6a8f" d="M 2001.5,1907.5 C 2098.67,1908.5 2196,1908.83 2293.5,1908.5C 2195.33,1909.67 2097,1909.83 1998.5,1909C 1999.24,1907.96 2000.24,1907.46 2001.5,1907.5 Z"/></g>
<g><path style="opacity:1" fill="#d3d3d3" d="M 490.5,1941.5 C 348.5,1941.5 206.5,1941.5 64.5,1941.5C 64.5,1950.5 64.5,1959.5 64.5,1968.5C 63.5064,1959.35 63.1731,1950.01 63.5,1940.5C 206.001,1940.17 348.334,1940.5 490.5,1941.5 Z"/></g>
<g><path style="opacity:1" fill="#dabb51" d="M 1002.5,1941.5 C 1144.67,1940.5 1287,1940.17 1429.5,1940.5C 1429.5,1941.5 1429.5,1942.5 1429.5,1943.5C 1287.38,1941.5 1145.04,1940.84 1002.5,1941.5 Z"/></g>
<g><path style="opacity:1" fill="#d9ba51" d="M 1734.5,1940.5 C 1731.69,1941.47 1728.69,1942.14 1725.5,1942.5C 1641.33,1941.5 1557,1941.17 1472.5,1941.5C 1472.5,1942.5 1472.5,1943.5 1472.5,1944.5C 1471.57,1943.43 1471.23,1942.1 1471.5,1940.5C 1559.17,1940.5 1646.83,1940.5 1734.5,1940.5 Z"/></g>
<g><path style="opacity:1" fill="#d3d3d3" d="M 2366.5,1941.5 C 2235,1941.17 2103.67,1941.5 1972.5,1942.5C 1971.96,1942.44 1971.62,1942.11 1971.5,1941.5C 2103.33,1940.17 2235,1940.17 2366.5,1941.5 Z"/></g>
<g><path style="opacity:1" fill="#d3d3d3" d="M 3305.5,1941.5 C 3163.5,1941.5 3021.5,1941.5 2879.5,1941.5C 2879.82,1947.69 2879.49,1953.69 2878.5,1959.5C 2878.5,1953.17 2878.5,1946.83 2878.5,1940.5C 3021,1940.17 3163.33,1940.5 3305.5,1941.5 Z"/></g>
<g><path style="opacity:1" fill="#d3d3d3" d="M 3348.5,1941.5 C 3490.67,1940.5 3633,1940.17 3775.5,1940.5C 3775.83,1950.01 3775.49,1959.35 3774.5,1968.5C 3774.5,1959.5 3774.5,1950.5 3774.5,1941.5C 3632.5,1941.5 3490.5,1941.5 3348.5,1941.5 Z"/></g>
<g><path style="opacity:1" fill="#f9f9f9" d="M 490.5,1941.5 C 499.293,2287.86 615.127,2592.2 838,2854.5C 856.132,2874.97 874.632,2895.13 893.5,2915C 793,3015.5 692.5,3116 592,3216.5C 347.277,2964.82 185.61,2666.49 107,2321.5C 81.6352,2205.19 67.4686,2087.52 64.5,1968.5C 64.5,1959.5 64.5,1950.5 64.5,1941.5C 206.5,1941.5 348.5,1941.5 490.5,1941.5 Z"/></g>
<g><path style="opacity:1" fill="#f9f9f9" d="M 543.5,1940.5 C 544.204,1977.92 546.371,2015.25 550,2052.5C 554.742,2090.62 560.242,2128.62 566.5,2166.5C 702.802,2142.47 839.135,2118.8 975.5,2095.5C 1011.82,2282.99 1095.15,2445.49 1225.5,2583C 1125,2683.5 1024.5,2784 924,2884.5C 738.388,2691.67 617.388,2463.33 561,2199.5C 543.787,2114.03 534.62,2027.7 533.5,1940.5C 536.833,1940.5 540.167,1940.5 543.5,1940.5 Z"/></g>
<g><path style="opacity:1" fill="#969695" d="M 543.5,1940.5 C 550.167,1940.5 556.833,1940.5 563.5,1940.5C 563.833,1940.5 564.167,1940.5 564.5,1940.5C 566.197,2007.97 572.53,2074.97 583.5,2141.5C 713.063,2119.46 842.397,2096.8 971.5,2073.5C 972.833,2073.5 974.167,2073.5 975.5,2073.5C 974.791,2074.4 973.791,2074.74 972.5,2074.5C 973.392,2081.52 974.392,2088.52 975.5,2095.5C 839.135,2118.8 702.802,2142.47 566.5,2166.5C 560.242,2128.62 554.742,2090.62 550,2052.5C 546.371,2015.25 544.204,1977.92 543.5,1940.5 Z"/></g>
<g><path style="opacity:1" fill="#e0c757" d="M 564.5,1940.5 C 696.167,1940.5 827.833,1940.5 959.5,1940.5C 960.616,1985.11 964.616,2029.44 971.5,2073.5C 842.397,2096.8 713.063,2119.46 583.5,2141.5C 572.53,2074.97 566.197,2007.97 564.5,1940.5 Z"/></g>
<g><path style="opacity:1" fill="#e0c757" d="M 1002.5,1941.5 C 1145.04,1940.84 1287.38,1941.5 1429.5,1943.5C 1430.4,1960.21 1431.73,1976.87 1433.5,1993.5C 1293.54,2018.05 1153.54,2042.38 1013.5,2066.5C 1007.03,2025.09 1003.37,1983.42 1002.5,1941.5 Z"/></g>
<g><path style="opacity:1" fill="#e0c757" d="M 1725.5,1942.5 C 1642.57,1957.16 1559.57,1971.49 1476.5,1985.5C 1474.42,1971.92 1473.09,1958.26 1472.5,1944.5C 1472.5,1943.5 1472.5,1942.5 1472.5,1941.5C 1557,1941.17 1641.33,1941.5 1725.5,1942.5 Z"/></g>
<g><path style="opacity:1" fill="#969696" d="M 1734.5,1940.5 C 1736.83,1940.5 1739.17,1940.5 1741.5,1940.5C 1783.5,1940.33 1825.5,1940.5 1867.5,1941C 1838.6,1969.73 1809.94,1998.56 1781.5,2027.5C 1781.1,2026.47 1780.44,2026.31 1779.5,2027C 1705.34,2077.58 1631.01,2127.91 1556.5,2178C 1555.75,2178.67 1555.41,2179.5 1555.5,2180.5C 1551.17,2174.5 1546.83,2168.5 1542.5,2162.5C 1542.5,2162.17 1542.5,2161.83 1542.5,2161.5C 1624.93,2106.25 1707.27,2050.75 1789.5,1995C 1699.82,2037.34 1610.49,2080.5 1521.5,2124.5C 1521.17,2124.5 1520.83,2124.5 1520.5,2124.5C 1517.56,2118.28 1514.89,2111.95 1512.5,2105.5C 1622.95,2051.44 1733.62,1997.61 1844.5,1944C 1724.46,1964.14 1604.46,1984.81 1484.5,2006C 1482.56,2006.12 1481.23,2006.95 1480.5,2008.5C 1478.75,2001.37 1477.42,1994.04 1476.5,1986.5C 1476.5,1986.17 1476.5,1985.83 1476.5,1985.5C 1559.57,1971.49 1642.57,1957.16 1725.5,1942.5C 1728.69,1942.14 1731.69,1941.47 1734.5,1940.5 Z"/></g>
<g><path style="opacity:1" fill="#f9f9f9" d="M 1972.5,1942.5 C 2103.67,1941.5 2235,1941.17 2366.5,1941.5C 2361.98,2033.77 2331.98,2116.43 2276.5,2189.5C 2187.21,2118.51 2097.87,2047.51 2008.5,1976.5C 1996.2,1965.53 1984.2,1954.2 1972.5,1942.5 Z"/></g>
<g><path style="opacity:1" fill="#f9f9f9" d="M 2645.5,2480.5 C 2640.73,2477.58 2636.07,2474.41 2631.5,2471C 2524.63,2385.95 2417.63,2301.12 2310.5,2216.5C 2371.2,2134.74 2404.2,2042.74 2409.5,1940.5C 2551.83,1940.5 2694.17,1940.5 2836.5,1940.5C 2830.3,2141.48 2766.63,2321.48 2645.5,2480.5 Z"/></g>
<g><path style="opacity:1" fill="#f9f9f9" d="M 3305.5,1941.5 C 3299.29,2232.28 3212.13,2495.62 3044,2731.5C 3033.64,2745.35 3023.14,2759.02 3012.5,2772.5C 2901.13,2684.16 2789.79,2595.82 2678.5,2507.5C 2801.84,2346.22 2868.5,2163.55 2878.5,1959.5C 2879.49,1953.69 2879.82,1947.69 2879.5,1941.5C 3021.5,1941.5 3163.5,1941.5 3305.5,1941.5 Z"/></g>
<g><path style="opacity:1" fill="#f9f9f9" d="M 3348.5,1941.5 C 3490.5,1941.5 3632.5,1941.5 3774.5,1941.5C 3774.5,1950.5 3774.5,1959.5 3774.5,1968.5C 3763.33,2329.34 3657.83,2659.34 3458,2958.5C 3395.61,3050.6 3325.28,3136.6 3247,3216.5C 3184.63,3153.97 3122.13,3091.63 3059.5,3029.5C 3061.09,3026.73 3062.92,3024.07 3065,3021.5C 3102.55,2982.46 3138.05,2941.79 3171.5,2899.5C 3131.96,2867.13 3091.96,2835.29 3051.5,2804C 3049.58,2802.25 3047.91,2800.42 3046.5,2798.5C 3228.46,2562.89 3328.63,2295.56 3347,1996.5C 3347.94,1978.18 3348.44,1959.84 3348.5,1941.5 Z"/></g>
<g><path style="opacity:1" fill="#f9f9f9" d="M 1512.5,2105.5 C 1497.86,2074.58 1487.19,2042.25 1480.5,2008.5C 1481.23,2006.95 1482.56,2006.12 1484.5,2006C 1604.46,1984.81 1724.46,1964.14 1844.5,1944C 1733.62,1997.61 1622.95,2051.44 1512.5,2105.5 Z"/></g>
<g><path style="opacity:1" fill="#f9f9f9" d="M 1976.5,2008.5 C 2047.51,2097.87 2118.51,2187.21 2189.5,2276.5C 2135.7,2317.55 2075.37,2344.89 2008.5,2358.5C 1986.25,2231.64 1963.58,2104.97 1940.5,1978.5C 1940.19,1976.08 1940.53,1973.74 1941.5,1971.5C 1953.55,1983.55 1965.22,1995.88 1976.5,2008.5 Z"/></g>
<g><path style="opacity:1" fill="#969696" d="M 1898.5,2059.5 C 1898.5,2061.5 1898.5,2063.5 1898.5,2065.5C 1897.08,2067.51 1896.41,2069.85 1896.5,2072.5C 1874.99,2167.03 1853.99,2261.7 1833.5,2356.5C 1832.66,2356.84 1832.33,2357.51 1832.5,2358.5C 1825.68,2357.8 1819.02,2356.47 1812.5,2354.5C 1839.88,2227.7 1867.88,2101.03 1896.5,1974.5C 1896.38,1973.89 1896.04,1973.56 1895.5,1973.5C 1895.81,1972.52 1896.48,1971.86 1897.5,1971.5C 1898.5,2000.83 1898.83,2030.16 1898.5,2059.5 Z"/></g>
<g><path style="opacity:1" fill="#f9f9f9" d="M 1895.5,1973.5 C 1896.04,1973.56 1896.38,1973.89 1896.5,1974.5C 1867.88,2101.03 1839.88,2227.7 1812.5,2354.5C 1738.71,2336.42 1674.05,2301.92 1618.5,2251C 1711.03,2158.63 1803.37,2066.13 1895.5,1973.5 Z"/></g>
<g><path style="opacity:1" fill="#3eba8f" d="M 1940.5,2094.5 C 1940.5,2096.17 1940.5,2097.83 1940.5,2099.5C 1940.17,2188.67 1940.5,2277.67 1941.5,2366.5C 1956.62,2366.26 1971.95,2364.93 1987.5,2362.5C 1990.04,2376.55 1992.71,2390.55 1995.5,2404.5C 1995.5,2405.5 1995.5,2406.5 1995.5,2407.5C 1994.84,2406.6 1994.18,2405.6 1993.5,2404.5C 1976.93,2406.96 1960.26,2408.62 1943.5,2409.5C 1942.5,2409.5 1941.5,2409.5 1940.5,2409.5C 1940.17,2552 1940.5,2694.33 1941.5,2836.5C 1984.45,2835.4 2027.12,2831.4 2069.5,2824.5C 2072.34,2838.38 2074.68,2852.38 2076.5,2866.5C 2031.52,2874.01 1986.19,2878.34 1940.5,2879.5C 1940.5,2881.83 1940.5,2884.17 1940.5,2886.5C 1940.5,2886.83 1940.5,2887.17 1940.5,2887.5C 1933.83,2887.5 1927.17,2887.5 1920.5,2887.5C 1913.17,2887.5 1905.83,2887.5 1898.5,2887.5C 1898.5,2884.5 1898.5,2881.5 1898.5,2878.5C 1838.89,2877.77 1779.89,2871.44 1721.5,2859.5C 1721.5,2859.17 1721.5,2858.83 1721.5,2858.5C 1724.63,2844.87 1727.63,2831.2 1730.5,2817.5C 1730.33,2816.51 1730.66,2815.84 1731.5,2815.5C 1731.58,2816.75 1732.24,2817.58 1733.5,2818C 1787.59,2829.25 1842.26,2835.42 1897.5,2836.5C 1898.5,2694.33 1898.83,2552 1898.5,2409.5C 1897.5,2409.5 1896.5,2409.5 1895.5,2409.5C 1871.24,2408.4 1847.24,2405.4 1823.5,2400.5C 1826.5,2386.5 1829.5,2372.5 1832.5,2358.5C 1832.33,2357.51 1832.66,2356.84 1833.5,2356.5C 1833.5,2357.5 1833.5,2358.5 1833.5,2359.5C 1854.64,2363.51 1875.97,2365.85 1897.5,2366.5C 1898.5,2266.33 1898.83,2166 1898.5,2065.5C 1898.5,2063.5 1898.5,2061.5 1898.5,2059.5C 1905.3,2031.37 1911.8,2003.03 1918,1974.5C 1925.46,2014.62 1932.96,2054.62 1940.5,2094.5 Z"/></g>
<g><path style="opacity:1" fill="#969696" d="M 2008.5,1976.5 C 2097.87,2047.51 2187.21,2118.51 2276.5,2189.5C 2272.89,2195.44 2268.56,2200.77 2263.5,2205.5C 2221.5,2172.5 2179.5,2139.5 2137.5,2106.5C 2133.82,2102.82 2129.82,2099.49 2125.5,2096.5C 2087.25,2056.75 2048.42,2017.42 2009,1978.5C 2008.54,1977.91 2008.37,1977.24 2008.5,1976.5 Z"/></g>
<g><path style="opacity:1" fill="#7d7d7d" d="M 1476.5,1986.5 C 1477.42,1994.04 1478.75,2001.37 1480.5,2008.5C 1487.19,2042.25 1497.86,2074.58 1512.5,2105.5C 1514.89,2111.95 1517.56,2118.28 1520.5,2124.5C 1508.1,2131.03 1495.44,2137.03 1482.5,2142.5C 1478.62,2136.08 1475.29,2129.41 1472.5,2122.5C 1457.19,2087.57 1445.52,2051.57 1437.5,2014.5C 1436.39,2007.52 1435.39,2000.52 1434.5,1993.5C 1448.42,1990.75 1462.42,1988.42 1476.5,1986.5 Z"/></g>
<g><path style="opacity:1" fill="#969796" d="M 1940.5,1978.5 C 1963.58,2104.97 1986.25,2231.64 2008.5,2358.5C 2001.59,2360.15 1994.59,2361.49 1987.5,2362.5C 1972.83,2278.12 1957.83,2193.79 1942.5,2109.5C 1942.25,2105.96 1941.58,2102.63 1940.5,2099.5C 1940.5,2097.83 1940.5,2096.17 1940.5,2094.5C 1940.5,2055.83 1940.5,2017.17 1940.5,1978.5 Z"/></g>
<g><path style="opacity:1" fill="#c8763e" d="M 2125.5,2096.5 C 2129.82,2099.49 2133.82,2102.82 2137.5,2106.5C 2175.06,2144.56 2212.89,2182.56 2251,2220.5C 2255.75,2216.26 2259.91,2211.59 2263.5,2206.5C 2274.72,2214.94 2285.72,2223.6 2296.5,2232.5C 2292.12,2239.06 2287.12,2245.23 2281.5,2251C 2382,2351.5 2482.5,2452 2583,2552.5C 2599.77,2534.9 2615.94,2516.9 2631.5,2498.5C 2643.08,2506.45 2654.08,2515.12 2664.5,2524.5C 2648.08,2544.42 2631.08,2563.92 2613.5,2583C 2714,2683.5 2814.5,2784 2915,2884.5C 2944.93,2854.42 2972.76,2822.76 2998.5,2789.5C 2998.83,2789.5 2999.17,2789.5 2999.5,2789.5C 3010.48,2798.14 3021.48,2806.8 3032.5,2815.5C 3032.5,2815.83 3032.5,2816.17 3032.5,2816.5C 3004.85,2850.33 2975.85,2883.16 2945.5,2915C 2978.37,2947.7 3011.03,2980.53 3043.5,3013.5C 3033.83,3023.83 3023.83,3033.83 3013.5,3043.5C 2980.53,3011.03 2947.7,2978.37 2915,2945.5C 2883.16,2975.85 2850.33,3004.85 2816.5,3032.5C 2816.17,3032.5 2815.83,3032.5 2815.5,3032.5C 2806.8,3021.48 2798.14,3010.48 2789.5,2999.5C 2789.5,2999.17 2789.5,2998.83 2789.5,2998.5C 2822.76,2972.76 2854.42,2944.93 2884.5,2915C 2784,2814.5 2683.5,2714 2583,2613.5C 2563.92,2631.08 2544.42,2648.08 2524.5,2664.5C 2515.12,2654.08 2506.45,2643.08 2498.5,2631.5C 2516.9,2615.94 2534.9,2599.77 2552.5,2583C 2452,2482.5 2351.5,2382 2251,2281.5C 2245.23,2287.12 2239.06,2292.12 2232.5,2296.5C 2223.6,2285.72 2214.94,2274.72 2206.5,2263.5C 2211.59,2259.91 2216.26,2255.75 2220.5,2251C 2182.56,2212.89 2144.56,2175.06 2106.5,2137.5C 2102.82,2133.82 2099.49,2129.82 2096.5,2125.5C 2060.05,2079.21 2023.38,2033.04 1986.5,1987C 2032.87,2023.18 2079.2,2059.68 2125.5,2096.5 Z"/></g>
<g><path style="opacity:1" fill="#969695" d="M 1433.5,1993.5 C 1433.83,1993.5 1434.17,1993.5 1434.5,1993.5C 1435.39,2000.52 1436.39,2007.52 1437.5,2014.5C 1297.41,2038.63 1157.41,2062.96 1017.5,2087.5C 1016.37,2080.68 1015.03,2074.01 1013.5,2067.5C 1013.5,2067.17 1013.5,2066.83 1013.5,2066.5C 1153.54,2042.38 1293.54,2018.05 1433.5,1993.5 Z"/></g>
<g><path style="opacity:1" fill="#58c7c7" d="M 1542.5,2161.5 C 1534.74,2149.65 1527.74,2137.32 1521.5,2124.5C 1610.49,2080.5 1699.82,2037.34 1789.5,1995C 1707.27,2050.75 1624.93,2106.25 1542.5,2161.5 Z"/></g>
<g><path style="opacity:1" fill="#969696" d="M 1976.5,2008.5 C 2016.25,2046.75 2055.58,2085.58 2094.5,2125C 2095.09,2125.46 2095.76,2125.63 2096.5,2125.5C 2099.49,2129.82 2102.82,2133.82 2106.5,2137.5C 2139.5,2179.5 2172.5,2221.5 2205.5,2263.5C 2200.77,2268.56 2195.44,2272.89 2189.5,2276.5C 2118.51,2187.21 2047.51,2097.87 1976.5,2008.5 Z"/></g>
<g><path style="opacity:1" fill="#f9f9f9" d="M 1437.5,2014.5 C 1445.52,2051.57 1457.19,2087.57 1472.5,2122.5C 1472.59,2123.5 1472.25,2124.33 1471.5,2125C 1382.04,2168.73 1292.38,2211.9 1202.5,2254.5C 1215.75,2298.92 1233.08,2341.59 1254.5,2382.5C 1342.91,2323.31 1430.91,2263.64 1518.5,2203.5C 1531.26,2219.43 1544.26,2235.27 1557.5,2251C 1457,2351.5 1356.5,2452 1256,2552.5C 1131.18,2421.55 1051.68,2266.55 1017.5,2087.5C 1157.41,2062.96 1297.41,2038.63 1437.5,2014.5 Z"/></g>
<g><path style="opacity:1" fill="#f9f9f9" d="M 1781.5,2027.5 C 1716.87,2091.63 1652.37,2155.97 1588,2220.5C 1575.96,2208.05 1565.13,2194.72 1555.5,2180.5C 1555.41,2179.5 1555.75,2178.67 1556.5,2178C 1631.01,2127.91 1705.34,2077.58 1779.5,2027C 1780.44,2026.31 1781.1,2026.47 1781.5,2027.5 Z"/></g>
<g><path style="opacity:1" fill="#51c7a2" d="M 1898.5,2065.5 C 1898.83,2166 1898.5,2266.33 1897.5,2366.5C 1897.83,2268.33 1897.5,2170.33 1896.5,2072.5C 1896.41,2069.85 1897.08,2067.51 1898.5,2065.5 Z"/></g>
<g><path style="opacity:1" fill="#57d3a7" d="M 1896.5,2072.5 C 1897.5,2170.33 1897.83,2268.33 1897.5,2366.5C 1875.97,2365.85 1854.64,2363.51 1833.5,2359.5C 1833.5,2358.5 1833.5,2357.5 1833.5,2356.5C 1853.99,2261.7 1874.99,2167.03 1896.5,2072.5 Z"/></g>
<g><path style="opacity:1" fill="#51c7a1" d="M 1940.5,2099.5 C 1941.58,2102.63 1942.25,2105.96 1942.5,2109.5C 1941.5,2195 1941.17,2280.67 1941.5,2366.5C 1940.5,2277.67 1940.17,2188.67 1940.5,2099.5 Z"/></g>
<g><path style="opacity:1" fill="#57d3a7" d="M 1942.5,2109.5 C 1957.83,2193.79 1972.83,2278.12 1987.5,2362.5C 1971.95,2364.93 1956.62,2366.26 1941.5,2366.5C 1941.17,2280.67 1941.5,2195 1942.5,2109.5 Z"/></g>
<g><path style="opacity:1" fill="#e08e57" d="M 2137.5,2106.5 C 2179.5,2139.5 2221.5,2172.5 2263.5,2205.5C 2263.5,2205.83 2263.5,2206.17 2263.5,2206.5C 2259.91,2211.59 2255.75,2216.26 2251,2220.5C 2212.89,2182.56 2175.06,2144.56 2137.5,2106.5 Z"/></g>
<g><path style="opacity:1" fill="#969696" d="M 1472.5,2122.5 C 1475.29,2129.41 1478.62,2136.08 1482.5,2142.5C 1482.5,2142.83 1482.5,2143.17 1482.5,2143.5C 1398.05,2184.62 1313.38,2225.29 1228.5,2265.5C 1238.05,2294.8 1249.38,2323.46 1262.5,2351.5C 1343.86,2296.49 1425.2,2241.49 1506.5,2186.5C 1506.83,2186.5 1507.17,2186.5 1507.5,2186.5C 1511.55,2191.89 1515.22,2197.56 1518.5,2203.5C 1430.91,2263.64 1342.91,2323.31 1254.5,2382.5C 1233.08,2341.59 1215.75,2298.92 1202.5,2254.5C 1292.38,2211.9 1382.04,2168.73 1471.5,2125C 1472.25,2124.33 1472.59,2123.5 1472.5,2122.5 Z"/></g>
<g><path style="opacity:1" fill="#3eaeae" d="M 1520.5,2124.5 C 1520.83,2124.5 1521.17,2124.5 1521.5,2124.5C 1527.74,2137.32 1534.74,2149.65 1542.5,2161.5C 1542.5,2161.83 1542.5,2162.17 1542.5,2162.5C 1530.28,2169.77 1518.61,2177.77 1507.5,2186.5C 1507.17,2186.5 1506.83,2186.5 1506.5,2186.5C 1498.26,2172.36 1490.26,2158.02 1482.5,2143.5C 1482.5,2143.17 1482.5,2142.83 1482.5,2142.5C 1495.44,2137.03 1508.1,2131.03 1520.5,2124.5 Z"/></g>
<g><path style="opacity:1" fill="#e08e57" d="M 2106.5,2137.5 C 2144.56,2175.06 2182.56,2212.89 2220.5,2251C 2216.26,2255.75 2211.59,2259.91 2206.5,2263.5C 2206.17,2263.5 2205.83,2263.5 2205.5,2263.5C 2172.5,2221.5 2139.5,2179.5 2106.5,2137.5 Z"/></g>
<g><path style="opacity:1" fill="#57c7c7" d="M 1482.5,2143.5 C 1490.26,2158.02 1498.26,2172.36 1506.5,2186.5C 1425.2,2241.49 1343.86,2296.49 1262.5,2351.5C 1249.38,2323.46 1238.05,2294.8 1228.5,2265.5C 1313.38,2225.29 1398.05,2184.62 1482.5,2143.5 Z"/></g>
<g><path style="opacity:1" fill="#969696" d="M 2310.5,2216.5 C 2417.63,2301.12 2524.63,2385.95 2631.5,2471C 2636.07,2474.41 2640.73,2477.58 2645.5,2480.5C 2640.83,2486.17 2636.17,2491.83 2631.5,2497.5C 2520.13,2409.16 2408.79,2320.82 2297.5,2232.5C 2301.86,2227.14 2306.2,2221.81 2310.5,2216.5 Z"/></g>
<g><path style="opacity:1" fill="#e08e57" d="M 2296.5,2232.5 C 2296.83,2232.5 2297.17,2232.5 2297.5,2232.5C 2408.79,2320.82 2520.13,2409.16 2631.5,2497.5C 2631.5,2497.83 2631.5,2498.17 2631.5,2498.5C 2615.94,2516.9 2599.77,2534.9 2583,2552.5C 2482.5,2452 2382,2351.5 2281.5,2251C 2287.12,2245.23 2292.12,2239.06 2296.5,2232.5 Z"/></g>
<g><path style="opacity:1" fill="#7d7d7d" d="M 2205.5,2263.5 C 2205.83,2263.5 2206.17,2263.5 2206.5,2263.5C 2214.94,2274.72 2223.6,2285.72 2232.5,2296.5C 2232.5,2296.83 2232.5,2297.17 2232.5,2297.5C 2227.14,2301.86 2221.81,2306.2 2216.5,2310.5C 2156.66,2355.08 2089.99,2385.08 2016.5,2400.5C 2009.45,2401.73 2002.45,2403.06 1995.5,2404.5C 1992.71,2390.55 1990.04,2376.55 1987.5,2362.5C 1994.59,2361.49 2001.59,2360.15 2008.5,2358.5C 2075.37,2344.89 2135.7,2317.55 2189.5,2276.5C 2195.44,2272.89 2200.77,2268.56 2205.5,2263.5 Z"/></g>
<g><path style="opacity:1" fill="#f9f9f9" d="M 1802.5,2396.5 C 1771.87,2535.37 1740.87,2674.03 1709.5,2812.5C 1547.15,2774.01 1406.15,2697.51 1286.5,2583C 1387,2482.5 1487.5,2382 1588,2281.5C 1649.74,2337.46 1721.24,2375.8 1802.5,2396.5 Z"/></g>
<g><path style="opacity:1" fill="#e08e57" d="M 2498.5,2631.5 C 2498.17,2631.5 2497.83,2631.5 2497.5,2631.5C 2409.16,2520.13 2320.82,2408.79 2232.5,2297.5C 2232.5,2297.17 2232.5,2296.83 2232.5,2296.5C 2239.06,2292.12 2245.23,2287.12 2251,2281.5C 2351.5,2382 2452,2482.5 2552.5,2583C 2534.9,2599.77 2516.9,2615.94 2498.5,2631.5 Z"/></g>
<g><path style="opacity:1" fill="#969696" d="M 2232.5,2297.5 C 2320.82,2408.79 2409.16,2520.13 2497.5,2631.5C 2491.86,2636.14 2486.19,2640.8 2480.5,2645.5C 2477.58,2640.73 2474.41,2636.07 2471,2631.5C 2385.95,2524.63 2301.12,2417.63 2216.5,2310.5C 2221.81,2306.2 2227.14,2301.86 2232.5,2297.5 Z"/></g>
<g><path style="opacity:1" fill="#f9f9f9" d="M 2216.5,2310.5 C 2301.12,2417.63 2385.95,2524.63 2471,2631.5C 2474.41,2636.07 2477.58,2640.73 2480.5,2645.5C 2365.12,2734.34 2235.45,2792.67 2091.5,2820.5C 2065.87,2680.74 2040.87,2540.74 2016.5,2400.5C 2089.99,2385.08 2156.66,2355.08 2216.5,2310.5 Z"/></g>
<g><path style="opacity:1" fill="#969696" d="M 1802.5,2396.5 C 1809.53,2397.67 1816.53,2399.01 1823.5,2400.5C 1792.37,2538.7 1761.7,2677.04 1731.5,2815.5C 1730.66,2815.84 1730.33,2816.51 1730.5,2817.5C 1723.36,2815.94 1716.36,2814.28 1709.5,2812.5C 1740.87,2674.03 1771.87,2535.37 1802.5,2396.5 Z"/></g>
<g><path style="opacity:1" fill="#57d3a7" d="M 1823.5,2400.5 C 1847.24,2405.4 1871.24,2408.4 1895.5,2409.5C 1897.5,2551.62 1898.16,2693.96 1897.5,2836.5C 1842.26,2835.42 1787.59,2829.25 1733.5,2818C 1732.24,2817.58 1731.58,2816.75 1731.5,2815.5C 1761.7,2677.04 1792.37,2538.7 1823.5,2400.5 Z"/></g>
<g><path style="opacity:1" fill="#969796" d="M 2016.5,2400.5 C 2040.87,2540.74 2065.87,2680.74 2091.5,2820.5C 2084.37,2822.25 2077.04,2823.58 2069.5,2824.5C 2045.02,2685.47 2020.35,2546.47 1995.5,2407.5C 1995.5,2406.5 1995.5,2405.5 1995.5,2404.5C 2002.45,2403.06 2009.45,2401.73 2016.5,2400.5 Z"/></g>
<g><path style="opacity:1" fill="#57d3a7" d="M 1995.5,2407.5 C 2020.35,2546.47 2045.02,2685.47 2069.5,2824.5C 2027.12,2831.4 1984.45,2835.4 1941.5,2836.5C 1940.84,2693.96 1941.5,2551.62 1943.5,2409.5C 1960.26,2408.62 1976.93,2406.96 1993.5,2404.5C 1994.18,2405.6 1994.84,2406.6 1995.5,2407.5 Z"/></g>
<g><path style="opacity:1" fill="#51c8a2" d="M 1895.5,2409.5 C 1896.5,2409.5 1897.5,2409.5 1898.5,2409.5C 1898.83,2552 1898.5,2694.33 1897.5,2836.5C 1898.16,2693.96 1897.5,2551.62 1895.5,2409.5 Z"/></g>
<g><path style="opacity:1" fill="#51c8a2" d="M 1943.5,2409.5 C 1941.5,2551.62 1940.84,2693.96 1941.5,2836.5C 1940.5,2694.33 1940.17,2552 1940.5,2409.5C 1941.5,2409.5 1942.5,2409.5 1943.5,2409.5 Z"/></g>
<g><path style="opacity:1" fill="#969696" d="M 2678.5,2507.5 C 2789.79,2595.82 2901.13,2684.16 3012.5,2772.5C 3007.92,2777.99 3003.59,2783.65 2999.5,2789.5C 2999.17,2789.5 2998.83,2789.5 2998.5,2789.5C 2887.68,2700.93 2776.68,2612.59 2665.5,2524.5C 2669.6,2518.61 2673.94,2512.95 2678.5,2507.5 Z"/></g>
<g><path style="opacity:1" fill="#e08e57" d="M 2664.5,2524.5 C 2664.83,2524.5 2665.17,2524.5 2665.5,2524.5C 2776.68,2612.59 2887.68,2700.93 2998.5,2789.5C 2972.76,2822.76 2944.93,2854.42 2915,2884.5C 2814.5,2784 2714,2683.5 2613.5,2583C 2631.08,2563.92 2648.08,2544.42 2664.5,2524.5 Z"/></g>
<g><path style="opacity:1" fill="#e08e57" d="M 2789.5,2998.5 C 2700.93,2887.68 2612.59,2776.68 2524.5,2665.5C 2524.5,2665.17 2524.5,2664.83 2524.5,2664.5C 2544.42,2648.08 2563.92,2631.08 2583,2613.5C 2683.5,2714 2784,2814.5 2884.5,2915C 2854.42,2944.93 2822.76,2972.76 2789.5,2998.5 Z"/></g>
<g><path style="opacity:1" fill="#f9f9f9" d="M 1700.5,2854.5 C 1698.38,2865.88 1696.05,2877.21 1693.5,2888.5C 1752.59,2900.11 1812.26,2906.78 1872.5,2908.5C 1880.65,2909.49 1888.98,2909.83 1897.5,2909.5C 1897.5,3041.5 1897.5,3173.5 1897.5,3305.5C 1561.2,3297.4 1265.87,3184.9 1011.5,2968C 991.898,2951.07 972.898,2933.4 954.5,2915C 1055,2814.5 1155.5,2714 1256,2613.5C 1381.96,2733.26 1530.13,2813.59 1700.5,2854.5 Z"/></g>
<g><path style="opacity:1" fill="#7d7d7d" d="M 2497.5,2631.5 C 2497.83,2631.5 2498.17,2631.5 2498.5,2631.5C 2506.45,2643.08 2515.12,2654.08 2524.5,2664.5C 2524.5,2664.83 2524.5,2665.17 2524.5,2665.5C 2518.61,2669.6 2512.95,2673.94 2507.5,2678.5C 2386.2,2771.96 2249.87,2833.29 2098.5,2862.5C 2091.54,2863.94 2084.54,2865.27 2077.5,2866.5C 2077.17,2866.5 2076.83,2866.5 2076.5,2866.5C 2074.68,2852.38 2072.34,2838.38 2069.5,2824.5C 2077.04,2823.58 2084.37,2822.25 2091.5,2820.5C 2235.45,2792.67 2365.12,2734.34 2480.5,2645.5C 2486.19,2640.8 2491.86,2636.14 2497.5,2631.5 Z"/></g>
<g><path style="opacity:1" fill="#969696" d="M 2524.5,2665.5 C 2612.59,2776.68 2700.93,2887.68 2789.5,2998.5C 2789.5,2998.83 2789.5,2999.17 2789.5,2999.5C 2784.01,3004.08 2778.35,3008.41 2772.5,3012.5C 2684.16,2901.13 2595.82,2789.79 2507.5,2678.5C 2512.95,2673.94 2518.61,2669.6 2524.5,2665.5 Z"/></g>
<g><path style="opacity:1" fill="#f9f9f9" d="M 2507.5,2678.5 C 2595.82,2789.79 2684.16,2901.13 2772.5,3012.5C 2554.21,3181.81 2306.54,3278.31 2029.5,3302C 1999.88,3304.26 1970.21,3305.43 1940.5,3305.5C 1940.5,3173.17 1940.5,3040.83 1940.5,2908.5C 1994.91,2905.35 2048.91,2898.69 2102.5,2888.5C 2101.29,2879.81 2099.96,2871.14 2098.5,2862.5C 2249.87,2833.29 2386.2,2771.96 2507.5,2678.5 Z"/></g>
<g><path style="opacity:1" fill="#979696" d="M 3046.5,2798.5 C 3047.91,2800.42 3049.58,2802.25 3051.5,2804C 3091.96,2835.29 3131.96,2867.13 3171.5,2899.5C 3138.05,2941.79 3102.55,2982.46 3065,3021.5C 3062.92,3024.07 3061.09,3026.73 3059.5,3029.5C 3054.53,3024.19 3049.53,3018.86 3044.5,3013.5C 3078.48,2977.84 3110.81,2940.84 3141.5,2902.5C 3105.32,2873.58 3068.98,2844.92 3032.5,2816.5C 3032.5,2816.17 3032.5,2815.83 3032.5,2815.5C 3037.88,2810.39 3042.55,2804.72 3046.5,2798.5 Z"/></g>
<g><path style="opacity:1" fill="#e08e57" d="M 3032.5,2816.5 C 3068.98,2844.92 3105.32,2873.58 3141.5,2902.5C 3110.81,2940.84 3078.48,2977.84 3044.5,3013.5C 3044.17,3013.5 3043.83,3013.5 3043.5,3013.5C 3011.03,2980.53 2978.37,2947.7 2945.5,2915C 2975.85,2883.16 3004.85,2850.33 3032.5,2816.5 Z"/></g>
<g><path style="opacity:1" fill="#969696" d="M 1700.5,2854.5 C 1707.33,2856.57 1714.33,2857.91 1721.5,2858.5C 1721.5,2858.83 1721.5,2859.17 1721.5,2859.5C 1720.2,2863.36 1719.53,2867.36 1719.5,2871.5C 1778.63,2882.71 1838.3,2888.05 1898.5,2887.5C 1905.83,2887.5 1913.17,2887.5 1920.5,2887.5C 1913.35,2888.49 1906.02,2888.82 1898.5,2888.5C 1898.5,2895.17 1898.5,2901.83 1898.5,2908.5C 1889.83,2908.5 1881.17,2908.5 1872.5,2908.5C 1812.26,2906.78 1752.59,2900.11 1693.5,2888.5C 1696.05,2877.21 1698.38,2865.88 1700.5,2854.5 Z"/></g>
<g><path style="opacity:1" fill="#58d2a7" d="M 1721.5,2859.5 C 1779.89,2871.44 1838.89,2877.77 1898.5,2878.5C 1898.5,2881.5 1898.5,2884.5 1898.5,2887.5C 1838.3,2888.05 1778.63,2882.71 1719.5,2871.5C 1719.53,2867.36 1720.2,2863.36 1721.5,2859.5 Z"/></g>
<g><path style="opacity:1" fill="#969696" d="M 2098.5,2862.5 C 2099.96,2871.14 2101.29,2879.81 2102.5,2888.5C 2048.91,2898.69 1994.91,2905.35 1940.5,2908.5C 1940.5,2901.5 1940.5,2894.5 1940.5,2887.5C 1940.5,2887.17 1940.5,2886.83 1940.5,2886.5C 1986.54,2884.79 2032.21,2879.79 2077.5,2871.5C 2077.5,2869.83 2077.5,2868.17 2077.5,2866.5C 2084.54,2865.27 2091.54,2863.94 2098.5,2862.5 Z"/></g>
<g><path style="opacity:1" fill="#58d1a7" d="M 2076.5,2866.5 C 2076.83,2866.5 2077.17,2866.5 2077.5,2866.5C 2077.5,2868.17 2077.5,2869.83 2077.5,2871.5C 2032.21,2879.79 1986.54,2884.79 1940.5,2886.5C 1940.5,2884.17 1940.5,2881.83 1940.5,2879.5C 1986.19,2878.34 2031.52,2874.01 2076.5,2866.5 Z"/></g>
<g><path style="opacity:1" fill="#d3d3d3" d="M 1872.5,2908.5 C 1881.17,2908.5 1889.83,2908.5 1898.5,2908.5C 1898.83,3041 1898.5,3173.33 1897.5,3305.5C 1897.5,3173.5 1897.5,3041.5 1897.5,2909.5C 1888.98,2909.83 1880.65,2909.49 1872.5,2908.5 Z"/></g>
<g><path style="opacity:1" fill="#f9f9f9" d="M 1897.5,3348.5 C 1897.5,3490.5 1897.5,3632.5 1897.5,3774.5C 1885.83,3774.5 1874.17,3774.5 1862.5,3774.5C 1480.5,3760.68 1135.17,3642.51 826.5,3420C 754.684,3367.21 686.684,3309.55 622.5,3247C 723,3146.5 823.5,3046 924,2945.5C 1140.88,3153.69 1398.71,3282.52 1697.5,3332C 1763.77,3342.24 1830.44,3347.74 1897.5,3348.5 Z"/></g>
<g><path style="opacity:1" fill="#e08e57" d="M 3013.5,3043.5 C 3013.5,3043.83 3013.5,3044.17 3013.5,3044.5C 2992.69,3063.81 2971.69,3082.97 2950.5,3102C 2934.65,3115.36 2918.65,3128.52 2902.5,3141.5C 2873.58,3105.32 2844.92,3068.98 2816.5,3032.5C 2850.33,3004.85 2883.16,2975.85 2915,2945.5C 2947.7,2978.37 2980.53,3011.03 3013.5,3043.5 Z"/></g>
<g><path style="opacity:1" fill="#969696" d="M 2815.5,3032.5 C 2815.83,3032.5 2816.17,3032.5 2816.5,3032.5C 2844.92,3068.98 2873.58,3105.32 2902.5,3141.5C 2918.65,3128.52 2934.65,3115.36 2950.5,3102C 2971.69,3082.97 2992.69,3063.81 3013.5,3044.5C 3018.86,3049.53 3024.19,3054.53 3029.5,3059.5C 3027.07,3060.75 3024.73,3062.25 3022.5,3064C 2983.37,3102.19 2942.37,3138.02 2899.5,3171.5C 2867.13,3131.96 2835.29,3091.96 2804,3051.5C 2802.25,3049.58 2800.42,3047.91 2798.5,3046.5C 2804.72,3042.55 2810.39,3037.88 2815.5,3032.5 Z"/></g>
<g><path style="opacity:1" fill="#f9f9f9" d="M 2798.5,3046.5 C 2800.42,3047.91 2802.25,3049.58 2804,3051.5C 2835.29,3091.96 2867.13,3131.96 2899.5,3171.5C 2942.37,3138.02 2983.37,3102.19 3022.5,3064C 3024.73,3062.25 3027.07,3060.75 3029.5,3059.5C 3091.63,3122.13 3153.97,3184.63 3216.5,3247C 2944.57,3510.82 2620.91,3677.48 2245.5,3747C 2153.92,3763.6 2061.58,3772.77 1968.5,3774.5C 1959.5,3774.5 1950.5,3774.5 1941.5,3774.5C 1941.5,3632.5 1941.5,3490.5 1941.5,3348.5C 2240.71,3341.93 2511.71,3252.43 2754.5,3080C 2769.41,3069.06 2784.08,3057.89 2798.5,3046.5 Z"/></g>
<g><path style="opacity:1" fill="#d2d2d2" d="M 1897.5,3348.5 C 1898.5,3490.67 1898.83,3633 1898.5,3775.5C 1886.32,3775.83 1874.32,3775.5 1862.5,3774.5C 1874.17,3774.5 1885.83,3774.5 1897.5,3774.5C 1897.5,3632.5 1897.5,3490.5 1897.5,3348.5 Z"/></g>
<g><path style="opacity:1" fill="#d3d3d3" d="M 1941.5,3348.5 C 1941.5,3490.5 1941.5,3632.5 1941.5,3774.5C 1950.5,3774.5 1959.5,3774.5 1968.5,3774.5C 1959.35,3775.49 1950.01,3775.83 1940.5,3775.5C 1940.17,3633 1940.5,3490.67 1941.5,3348.5 Z"/></g>
</svg>
