<?xml version="1.0" encoding="UTF-8"?>
<svg version="1.1" xmlns="http://www.w3.org/2000/svg" width="960" height="930">
<path d="M0 0 C1.20817383 0.17160645 2.41634766 0.34321289 3.66113281 0.52001953 C79.87480658 11.52429062 153.36838908 40.59776195 215 87 C215.59844727 87.44682129 216.19689453 87.89364258 216.81347656 88.35400391 C225.14766521 94.58695823 233.12295152 101.20473285 241 108 C241.73992188 108.63808594 242.47984375 109.27617188 243.2421875 109.93359375 C245.17165467 111.61122283 247.08627357 113.304442 249 115 C250.05501709 115.92776245 250.05501709 115.92776245 251.13134766 116.87426758 C257.51235771 122.54118376 263.60411319 128.44917589 269.6237793 134.4934082 C271.1927236 136.06774155 272.76698558 137.63661589 274.34179688 139.20507812 C279.77137405 144.63081127 285.03804649 150.13860376 290 156 C290.845625 156.96421875 291.69125 157.9284375 292.5625 158.921875 C351.25309519 227.01801429 387.42654273 311.31017617 400 400 C400.24991699 401.73080811 400.24991699 401.73080811 400.50488281 403.49658203 C405.82098295 442.3217233 405.68427041 484.22643219 400 523 C399.90289734 523.67498535 399.80579468 524.3499707 399.70574951 525.04541016 C390.93359832 585.75989858 371.09980571 644.04471684 340 697 C339.5241748 697.81098145 339.04834961 698.62196289 338.55810547 699.45751953 C325.0128347 722.39546119 309.46120462 743.89145145 292 764 C291.36578125 764.73476563 290.7315625 765.46953125 290.078125 766.2265625 C288.39725668 768.16187418 286.69996097 770.08144344 285 772 C284.3814917 772.70334473 283.7629834 773.40668945 283.12573242 774.13134766 C277.45881624 780.51235771 271.55082411 786.60411319 265.5065918 792.6237793 C263.93225845 794.1927236 262.36338411 795.76698558 260.79492188 797.34179688 C255.36918873 802.77137405 249.86139624 808.03804649 244 813 C243.03578125 813.845625 242.0715625 814.69125 241.078125 815.5625 C172.50714404 874.66235099 85.71670281 912.85306372 -8 924 C-8.77323608 924.08613556 -9.54647217 924.17227112 -10.34313965 924.26101685 C-27.22804648 926.08769344 -44.0280288 926.36017518 -61 926.3125 C-62.360443 926.31057648 -63.72088612 926.30873598 -65.08132935 926.30697632 C-84.5476981 926.27037357 -103.71687417 925.88206532 -123 923 C-124.81226074 922.74259033 -124.81226074 922.74259033 -126.66113281 922.47998047 C-202.20848385 911.57191778 -275.31229038 883.03998909 -336.50146484 837.06884766 C-339.59628049 834.86143434 -341.73524909 834.86946851 -345.49920654 834.85523987 C-347.25257576 834.84489212 -347.25257576 834.84489212 -349.04136658 834.83433533 C-350.33063553 834.83172195 -351.61990448 834.82910858 -352.94824219 834.82641602 C-354.31496899 834.82011164 -355.68169373 834.81334597 -357.04841614 834.80615234 C-359.9976636 834.79146393 -362.94690303 834.77974595 -365.89617157 834.77020454 C-370.57130124 834.75474345 -375.24636336 834.73078842 -379.92144775 834.70530701 C-393.21825881 834.63414661 -406.51511014 834.57458177 -419.81201172 834.52319336 C-427.15153777 834.49475277 -434.49099813 834.45928878 -441.83045506 834.41653961 C-446.46462604 834.38996546 -451.09872271 834.37193802 -455.7329545 834.36050236 C-458.6388421 834.35127751 -461.54464094 834.33386944 -464.45047569 834.31432343 C-466.4110555 834.30346568 -468.37168099 834.30210636 -470.33229065 834.30119324 C-495.60552234 834.09698349 -516.50727701 826.84744414 -535 809.4375 C-549.31248862 794.76886858 -557.51412311 775.20806712 -557.38768005 754.71134949 C-557.39306559 753.64178916 -557.39845113 752.57222883 -557.40399987 751.47025758 C-557.41819418 747.92170166 -557.41119672 744.37352328 -557.40405273 740.82495117 C-557.40976079 738.26626793 -557.41672673 735.70758723 -557.42485046 733.14891052 C-557.4408943 726.94111674 -557.44289199 720.73346008 -557.43763756 714.52565189 C-557.43358202 709.4750459 -557.43505577 704.42446971 -557.44038582 699.37386513 C-557.44113424 698.65267721 -557.44188266 697.93148928 -557.44265376 697.18844718 C-557.44418538 695.72293755 -557.44572373 694.25742793 -557.44726873 692.79191831 C-557.46097054 679.07404092 -557.4555727 665.35622069 -557.44408352 651.63834462 C-557.43415616 639.11705583 -557.44708731 626.59591492 -557.47101771 614.07464894 C-557.49546197 601.18638984 -557.50500337 588.29819945 -557.49836498 575.40991765 C-557.49488423 568.18673452 -557.49702861 560.96366498 -557.51461601 553.7404995 C-557.53095829 546.94498464 -557.52607388 540.14979567 -557.50731087 533.35427284 C-557.50363871 530.86916277 -557.50669305 528.38403163 -557.51719666 525.89894104 C-557.58038926 509.70368972 -556.96562398 495.22168542 -549.1875 480.625 C-548.84493164 479.96072998 -548.50236328 479.29645996 -548.14941406 478.61206055 C-545.31595906 473.26701536 -541.96112578 468.57367101 -538 464 C-537.34 463.113125 -536.68 462.22625 -536 461.3125 C-534 459 -534 459 -532.31518555 458.01977539 C-529.971996 456.54788569 -528.59639606 455.28045901 -527 453 C-526.03824676 448.48640189 -525.91057109 444.01672474 -525.8470459 439.42050171 C-525.78765677 435.47421995 -525.60698419 431.53285181 -525.44140625 427.58984375 C-525.41021698 426.78466812 -525.37902771 425.97949249 -525.34689331 425.1499176 C-523.26139374 374.67632319 -509.30729539 323.12955698 -489 277 C-488.55430664 275.98518555 -488.10861328 274.97037109 -487.64941406 273.92480469 C-473.68259478 242.37723964 -456.78711297 212.56867526 -436 185 C-435.54254395 184.39091797 -435.08508789 183.78183594 -434.61376953 183.15429688 C-426.92808339 172.95190866 -418.95657823 163.01188922 -410.3359375 153.58203125 C-409.0856925 152.20007148 -407.84083893 150.81251897 -406.63476562 149.3918457 C-401.24700763 143.07421661 -395.40831901 137.22221313 -389.54052734 131.35522461 C-387.76238228 129.57489748 -385.99240439 127.78671623 -384.22265625 125.99804688 C-378.18089469 119.92716192 -372.0820473 114.18535905 -365.35009766 108.87646484 C-363.02379397 107.01899859 -360.81972419 105.07276013 -358.625 103.0625 C-353.01250178 98.03401835 -347.03795906 93.49859761 -341 89 C-340.32791504 88.49807129 -339.65583008 87.99614258 -338.96337891 87.47900391 C-321.14726344 74.23426286 -302.41534067 62.7416341 -283 52 C-282.17870605 51.54270508 -281.35741211 51.08541016 -280.51123047 50.61425781 C-231.85633094 23.70537649 -177.85299475 7.89365508 -123 0 C-121.33372559 -0.24991699 -121.33372559 -0.24991699 -119.63378906 -0.50488281 C-81.12816542 -6.03841932 -38.4534872 -5.74727681 0 0 Z " fill="#E04846" transform="translate(557,3)"/>
<path d="M0 0 C1.2522084 -0.00701431 2.50441681 -0.01402863 3.79457092 -0.02125549 C7.81360808 -0.03866591 11.83249573 -0.04568928 15.8515625 -0.046875 C16.53588978 -0.04731686 17.22021706 -0.04775871 17.92528152 -0.04821396 C38.25585234 -0.05510097 58.32192868 0.19080367 78.4765625 3.203125 C79.68473633 3.37473145 80.89291016 3.54633789 82.13769531 3.72314453 C158.35136908 14.72741562 231.84495158 43.80088695 293.4765625 90.203125 C294.3742334 90.87335693 294.3742334 90.87335693 295.29003906 91.55712891 C303.62422771 97.79008323 311.59951402 104.40785785 319.4765625 111.203125 C320.21648438 111.84121094 320.95640625 112.47929688 321.71875 113.13671875 C323.64821717 114.81434783 325.56283607 116.507567 327.4765625 118.203125 C328.53157959 119.13088745 328.53157959 119.13088745 329.60791016 120.07739258 C335.98892021 125.74430876 342.08067569 131.65230089 348.1003418 137.6965332 C349.6692861 139.27086655 351.24354808 140.83974089 352.81835938 142.40820312 C358.24793655 147.83393627 363.51460899 153.34172876 368.4765625 159.203125 C369.3221875 160.16734375 370.1678125 161.1315625 371.0390625 162.125 C429.72965769 230.22113929 465.90310523 314.51330117 478.4765625 403.203125 C478.72647949 404.93393311 478.72647949 404.93393311 478.98144531 406.69970703 C484.29754545 445.5248483 484.16083291 487.42955719 478.4765625 526.203125 C478.37945984 526.87811035 478.28235718 527.5530957 478.18231201 528.24853516 C469.53674044 588.08693095 450.30223923 646.07404817 419.4765625 698.203125 C419.1465625 697.543125 418.8165625 696.883125 418.4765625 696.203125 C419.18579102 694.27392578 419.18579102 694.27392578 420.35546875 691.8984375 C420.77948975 691.01494629 421.20351074 690.13145508 421.64038086 689.22119141 C422.1019458 688.26647949 422.56351074 687.31176758 423.0390625 686.328125 C440.74882238 648.50644238 443.52764028 606.76612284 429.96069336 567.10864258 C424.19648717 551.33545368 416.37013476 536.04588159 405.4765625 523.203125 C404.53046067 522.04621797 403.58519643 520.88862563 402.640625 519.73046875 C377.34240041 489.08077569 341.27620069 470.13505818 301.76544666 465.91345024 C291.8622909 465.05750175 282.00883132 465.09046198 272.07885742 465.13720703 C270.15218732 465.14241054 268.22551582 465.14711657 266.29884338 465.15136719 C262.17332361 465.1612508 258.04782747 465.17407834 253.92232323 465.18909073 C247.38493619 465.2123143 240.84755208 465.22550505 234.31013489 465.23678589 C215.72811946 465.27008699 197.14614992 465.31176019 178.56420898 465.37451172 C168.28340858 465.40914598 158.00264176 465.43288138 147.72178918 465.44472015 C141.23736707 465.45276943 134.75316702 465.47389231 128.26881635 465.50492501 C124.2178524 465.52105183 120.16695022 465.52434373 116.11595726 465.52415466 C114.25369856 465.52655459 112.39143749 465.53403064 110.5292244 465.54728317 C83.281086 465.73293221 59.90253077 458.95687491 39.84375 439.671875 C20.23922204 419.28796214 15.99755729 393.76785417 16.09179688 366.57275391 C16.08768079 364.56168817 16.08221385 362.55062483 16.07551575 360.53956604 C16.06387987 356.24330496 16.06127426 351.94717202 16.06587219 347.65089798 C16.07274291 340.839252 16.05670988 334.02777137 16.03747559 327.21615601 C15.99978439 312.75348779 15.98684737 298.29083478 15.9765625 283.828125 C15.96545575 268.21511733 15.94991281 252.60218732 15.90584993 236.98923242 C15.88763449 230.23639691 15.8835503 223.4837541 15.89078522 216.73090005 C15.89232093 212.50932083 15.88143703 208.28783568 15.86740685 204.06628227 C15.86344816 202.12950816 15.8644526 200.1927155 15.87117958 198.25594902 C15.92252731 182.22386846 14.63940304 166.37585407 9.7265625 151.015625 C9.46907227 150.1915918 9.21158203 149.36755859 8.94628906 148.51855469 C-0.25654557 119.89365127 -18.39854499 93.32993297 -42.5234375 75.203125 C-43.461875 74.48769531 -44.4003125 73.77226563 -45.3671875 73.03515625 C-79.104433 48.47131127 -120.39950373 38.78586021 -161.55322266 44.79663086 C-178.55233565 47.54474484 -195.57568987 52.83149215 -210.60791016 61.38989258 C-212.5234375 62.203125 -212.5234375 62.203125 -215.5234375 61.203125 C-190.91462242 47.57782074 -165.99422024 35.83260204 -139.5234375 26.203125 C-138.56598633 25.8515332 -137.60853516 25.49994141 -136.62207031 25.13769531 C-93.4382135 9.45221378 -45.93838528 0.17276691 0 0 Z " fill="#FE9A5C" transform="translate(478.5234375,-0.203125)"/>
<path d="M0 0 C1.02515825 -0.00297112 2.05031649 -0.00594224 3.10654014 -0.0090034 C6.53465305 -0.01766068 9.96273092 -0.01919614 13.39085388 -0.02069092 C15.85189895 -0.02532123 18.3129433 -0.03034618 20.77398682 -0.03573608 C27.45611872 -0.04884243 34.13823698 -0.05533891 40.82037854 -0.05974674 C44.99838655 -0.06251532 49.17639227 -0.06675381 53.35439873 -0.07125092 C64.93801128 -0.0834397 76.521622 -0.09373939 88.10524082 -0.09712601 C89.2160963 -0.09745536 89.2160963 -0.09745536 90.3493933 -0.09779136 C91.09166707 -0.09800964 91.83394083 -0.09822791 92.59870774 -0.09845281 C94.10266531 -0.09889626 95.60662288 -0.09934282 97.11058044 -0.09979248 C98.22958654 -0.10012463 98.22958654 -0.10012463 99.37119883 -0.10046348 C111.44726177 -0.10440781 123.52326424 -0.12185244 135.59930385 -0.145152 C148.01843174 -0.16891868 160.43752935 -0.18133029 172.85668033 -0.18249393 C179.82111879 -0.18340777 186.78547846 -0.18908632 193.7498951 -0.20731354 C200.30560054 -0.22441144 206.8611835 -0.22592758 213.41691399 -0.21717453 C215.81536637 -0.21640657 218.21382691 -0.22071492 220.61225891 -0.23063278 C248.25451332 -0.33818119 271.39922994 5.18961408 291.68553162 25.14044189 C297.08577642 31.112185 301.25423394 37.73235347 304.99803162 44.82794189 C305.46849915 45.68875366 305.46849915 45.68875366 305.94847107 46.56695557 C313.56135127 61.87212286 313.25965178 78.69636229 313.1872406 95.34820557 C313.19103091 97.85013634 313.19653678 100.35206501 313.20361328 102.85398865 C313.21605457 108.90374354 313.21007019 114.95321451 313.1949377 121.00294157 C313.17795123 128.06654835 313.18130352 135.13010446 313.18503178 142.19372538 C313.19089047 154.80548238 313.17681569 167.41713907 313.15208435 180.02886963 C313.12815413 192.23366044 313.12108862 204.43831738 313.13157654 216.64312744 C313.14301365 229.97615981 313.14488259 243.30913049 313.13047844 256.64216214 C313.1289528 258.0666153 313.12743244 259.49106846 313.12591743 260.91552162 C313.12515962 261.61614909 313.12440181 262.31677656 313.12362103 263.03863516 C313.11890094 267.94899095 313.12071327 272.85931896 313.12498283 277.7696743 C313.13045467 284.38956064 313.11956004 291.00929004 313.09802818 297.6291523 C313.09249071 300.05017858 313.09196686 302.47122264 313.09698105 304.89225006 C313.14504721 331.44021659 308.26106496 353.07197542 289.68553162 373.14044189 C270.6091054 391.88365543 247.74881377 396.39752918 221.94334412 396.55450439 C219.92278908 396.57352119 217.90224056 396.59324206 215.88169861 396.61360168 C210.35227175 396.66627835 204.82282325 396.70579094 199.2932663 396.74193954 C195.80198882 396.76549954 192.31075013 396.79226533 188.81950378 396.82003784 C147.35585126 397.1472796 105.89063846 397.27121085 64.42580569 397.31837988 C58.90024876 397.32498946 53.37471244 397.33615009 47.84916687 397.34899902 C41.05623386 397.36452671 34.26334131 397.37217489 27.47039008 397.37029237 C23.97687258 397.36943455 20.48343204 397.37157314 16.9899292 397.38229561 C13.16134581 397.39214397 9.33296639 397.38929892 5.50437927 397.38336182 C4.40570086 397.38898447 3.30702244 397.39460712 2.17505074 397.40040016 C-22.57807688 397.30138046 -43.279979 389.55648275 -61.31446838 372.57794189 C-75.62695701 357.90931048 -83.82859149 338.34850902 -83.70214844 317.85179138 C-83.70753398 316.78223105 -83.71291951 315.71267072 -83.71846825 314.61069947 C-83.73266256 311.06214355 -83.72566511 307.51396517 -83.71852112 303.96539307 C-83.72422917 301.40670983 -83.73119511 298.84802913 -83.73931885 296.28935242 C-83.75536268 290.08155863 -83.75736037 283.87390197 -83.75210594 277.66609379 C-83.74805041 272.6154878 -83.74952415 267.56491161 -83.7548542 262.51430702 C-83.75560262 261.7931191 -83.75635105 261.07193118 -83.75712215 260.32888908 C-83.75865377 258.86337945 -83.76019211 257.39786982 -83.76173712 255.93236021 C-83.77543893 242.21448282 -83.77004108 228.49666258 -83.7585519 214.77878652 C-83.74862454 202.25749773 -83.76155569 189.73635682 -83.78548609 177.21509083 C-83.80993035 164.32683173 -83.81947176 151.43864135 -83.81283337 138.55035955 C-83.80935261 131.32717641 -83.811497 124.10410687 -83.8290844 116.88094139 C-83.84542667 110.08542653 -83.84054226 103.29023757 -83.82177925 96.49471474 C-83.81810709 94.00960466 -83.82116144 91.52447352 -83.83166504 89.03938293 C-83.89485764 72.84413161 -83.28009236 58.36212732 -75.50196838 43.76544189 C-74.98811584 42.76903687 -74.98811584 42.76903687 -74.46388245 41.75250244 C-71.63054449 36.40767806 -68.27625388 31.71329971 -64.31446838 27.14044189 C-63.29353088 25.77919189 -63.29353088 25.77919189 -62.25196838 24.39044189 C-57.42437003 18.78419865 -51.79759827 15.50373459 -45.31446838 12.14044189 C-44.72810608 11.82639404 -44.14174377 11.51234619 -43.53761292 11.18878174 C-29.32721805 3.58770633 -16.15620624 -0.01472688 0 0 Z " fill="#BE172B" transform="translate(83.31446838378906,439.85955810546875)"/>
<path d="M0 0 C104.58288885 0 104.58288885 0 121.3125 5.75 C122.06394287 6.00604004 122.81538574 6.26208008 123.58959961 6.52587891 C130.02447196 8.82241612 135.56507117 11.83232879 141 16 C141.77472656 16.57105469 142.54945313 17.14210938 143.34765625 17.73046875 C155.53889942 27.53783247 162.64466462 42.5777534 164.68359375 57.87890625 C165.18652306 63.42832282 165.25511502 68.9936977 165.3125 74.5625 C165.33908691 76.12315186 165.33908691 76.12315186 165.36621094 77.71533203 C165.35101768 93.79739594 159.98265985 109.40749443 150 122 C149.50113281 122.67417969 149.00226563 123.34835937 148.48828125 124.04296875 C141.20292162 133.23683569 130.82756603 139.5016825 120.3125 144.375 C119.66821045 144.684375 119.0239209 144.99375 118.36010742 145.3125 C103.04892979 151.992421 86.73094552 152.55388344 70.3125 152.25 C63.939375 152.1675 57.56625 152.085 51 152 C51 176.42 51 200.84 51 226 C34.17 226 17.34 226 0 226 C0 151.42 0 76.84 0 0 Z " fill="#FEFEFE" transform="translate(128,525)"/>
<path d="M0 0 C40.96621622 0 40.96621622 0 51 9 C58.25668824 16.84679256 60.55237762 24.18068524 60.4375 34.6875 C60.42847656 35.66485107 60.41945312 36.64220215 60.41015625 37.64916992 C60.14806785 48.59591093 58.0924859 57.07123194 50.2734375 65.09375 C35.93910145 77.11291837 18.01428554 74 0 74 C0 49.58 0 25.16 0 0 Z " fill="#C5102A" transform="translate(179,564)"/>
<path d="M0 0 C0.66 0.33 1.32 0.66 2 1 C1.34 1.66 0.68 2.32 0 3 C0.33 3.66 0.66 4.32 1 5 C-0.39798828 5.54527344 -0.39798828 5.54527344 -1.82421875 6.1015625 C-3.11233145 6.60848073 -4.40006387 7.11636591 -5.6875 7.625 C-6.36071289 7.89062744 -7.03392578 8.15625488 -7.72753906 8.42993164 C-13.41464029 10.70303744 -18.90326117 13.27288707 -24.390625 15.99609375 C-27 17 -27 17 -30 16 C-26.37085892 14.04203339 -22.74128958 12.08486326 -19.11132812 10.12841797 C-17.87748723 9.46327026 -16.64376189 8.79790815 -15.41015625 8.13232422 C-13.63311957 7.17358427 -11.85562737 6.21568878 -10.078125 5.2578125 C-8.47565918 4.39373779 -8.47565918 4.39373779 -6.84082031 3.51220703 C-5.43461426 2.76366455 -5.43461426 2.76366455 -4 2 C-2.88383301 1.37327393 -2.88383301 1.37327393 -1.74511719 0.73388672 C-1.16922852 0.4917041 -0.59333984 0.24952148 0 0 Z " fill="#FA8B2F" transform="translate(293,45)"/>
<path d="M0 0 C0.99 0 1.98 0 3 0 C2.41279381 3.88529692 1.25117945 6.69534474 -0.72265625 10.08203125 C-1.26083984 11.01337891 -1.79902344 11.94472656 -2.35351562 12.90429688 C-2.91748047 13.86400391 -3.48144531 14.82371094 -4.0625 15.8125 C-4.63033203 16.79154297 -5.19816406 17.77058594 -5.78320312 18.77929688 C-7.18254827 21.18993348 -8.58829929 23.5965851 -10 26 C-10.33 25.34 -10.66 24.68 -11 24 C-10.10375977 21.56982422 -10.10375977 21.56982422 -8.69140625 18.5546875 C-8.19189453 17.47832031 -7.69238281 16.40195312 -7.17773438 15.29296875 C-6.64470703 14.16503906 -6.11167969 13.03710938 -5.5625 11.875 C-5.03333984 10.73933594 -4.50417969 9.60367188 -3.95898438 8.43359375 C-2.6463123 5.6190356 -1.32638724 2.80811429 0 0 Z " fill="#FAA360" transform="translate(908,672)"/>
<path d="M0 0 C0 0.66 0 1.32 0 2 C0.66 2.33 1.32 2.66 2 3 C-4.625 4.125 -4.625 4.125 -8 3 C-2.25 0 -2.25 0 0 0 Z " fill="#F3822A" transform="translate(287,49)"/>
</svg>
