<?xml version="1.0" encoding="UTF-8"?>
<svg version="1.1" xmlns="http://www.w3.org/2000/svg" width="3840" height="3443">
<path d="M0 0 C4.4763654 0.0112425 8.95268233 -0.00108497 13.42904409 -0.01021742 C21.28548252 -0.02306694 29.14180841 -0.02119703 36.99824706 -0.00950564 C48.75953517 0.00792036 60.5207356 0.00209229 72.28202814 -0.00812014 C92.33096781 -0.02485502 112.37986531 -0.02268272 132.42880624 -0.01013323 C152.73900282 0.00250968 173.0491733 0.00642792 193.35937303 -0.00024744 C195.28536796 -0.00087175 195.28536796 -0.00087175 197.25027188 -0.00150868 C202.47999245 -0.00323344 207.70971299 -0.0050213 212.93943351 -0.00688887 C227.67871995 -0.01215073 242.41800655 -0.01606447 257.15729361 -0.01903876 C258.17022715 -0.01924419 258.17022715 -0.01924419 259.20362399 -0.01945378 C292.46533905 -0.0260708 325.72704828 -0.01750373 358.98876184 -0.00755258 C370.69358316 -0.00405685 382.39840449 -0.00058431 394.10322588 0.00269298 C394.83089934 0.00289723 395.5585728 0.00310148 396.30829698 0.00331192 C430.04611877 0.01271922 463.78393858 0.01285862 497.52176138 0.01086758 C500.46635938 0.01069583 503.41095739 0.01053484 506.35555539 0.01037386 C518.19019061 0.00972592 530.02482584 0.00903397 541.85946106 0.00827103 C575.69885934 0.00608954 609.53825757 0.00525149 643.37765592 0.00554422 C644.50778361 0.00555327 644.50778361 0.00555327 645.66074216 0.00556249 C694.44442872 0.00597361 743.22811251 0.0123212 792.01179784 0.02310137 C793.17976391 0.02335883 793.17976391 0.02335883 794.37132525 0.0236215 C820.45130164 0.02937383 846.53127795 0.03548912 872.61125425 0.04163115 C951.48269334 0.060196 1030.3541256 0.07297949 1171.21788125 0.06126514 C1175.18260339 0.06085419 1179.14732553 0.06044681 1183.11204768 0.06003946 C1183.89666584 0.05995884 1184.68128401 0.05987822 1185.48967848 0.05979515 C1187.86635127 0.05955101 1190.24302405 0.059307 1192.61969683 0.059063 C1193.79563525 0.05894219 1193.79563525 0.05894219 1194.99533 0.05881893 C1212.36239734 0.05703539 1229.72946468 0.05529774 1247.09653204 0.05364538 C1248.66968458 0.05349554 1250.24283713 0.05334515 1251.81598968 0.05319423 C1300.5789873 0.04851629 1349.34198363 0.04752857 1398.10498136 0.05103067 C1399.23468112 0.05111139 1399.23468112 0.05111139 1400.3872031 0.05119373 C1434.94638699 0.05367558 1469.50557071 0.0572931 1504.06475438 0.06182568 C1507.76844951 0.06231017 1511.47214464 0.06278857 1515.17583976 0.06326651 C1515.9082005 0.06336104 1516.64056123 0.06345558 1517.39511471 0.06355298 C1523.30109785 0.06431473 1529.20708099 0.06507142 1535.11306413 0.0658259 C1538.79220339 0.06629669 1542.47134264 0.06677263 1546.15048189 0.06725906 C1579.88934611 0.07171719 1613.62820878 0.07439435 1647.36707323 0.07115535 C1648.09447986 0.07108616 1648.82188648 0.07101697 1649.57133573 0.07094569 C1657.62863501 0.07017632 1665.68593428 0.06935563 1673.74323355 0.06851796 C1676.65928448 0.06821533 1679.57533542 0.06791341 1682.49138635 0.06761221 C1683.21152983 0.0675377 1683.93167331 0.06746319 1684.67363931 0.06738643 C1717.89175882 0.06396943 1751.109875 0.06248753 1784.32799369 0.07190363 C1785.00215794 0.07209435 1785.67632219 0.07228508 1786.37091567 0.07248158 C1801.73556572 0.07686637 1817.10021521 0.08230289 1832.46486464 0.08850651 C1837.67534437 0.09056882 1842.88582412 0.09258556 1848.09630388 0.09456686 C1849.37505342 0.09505781 1850.65380296 0.09554875 1851.97130248 0.09605458 C1872.23006436 0.10356734 1892.48881204 0.10105238 1912.74757369 0.09439302 C1932.66126345 0.08806273 1952.57492695 0.09244389 1972.4886117 0.10827132 C1984.16686804 0.11723691 1995.84505568 0.11802252 2007.5233104 0.10673012 C2015.27939933 0.10005108 2023.03543325 0.10424811 2030.79151398 0.11728161 C2035.18802014 0.12436689 2039.58438838 0.1268608 2043.98088986 0.11594971 C2077.05719646 0.03965467 2077.05719646 0.03965467 2091.8993358 3.50706343 C2092.8627819 3.71044647 2093.82622801 3.91382951 2094.81886946 4.12337567 C2096.99192971 4.58726883 2099.12919001 5.11615157 2101.2743358 5.69456343 C2102.0470482 5.90250532 2102.8197606 6.11044722 2103.61588853 6.32469038 C2128.47815084 13.31212358 2151.75710322 25.78207234 2170.66886705 43.42893843 C2172.71716201 45.33733234 2174.81969177 47.14331069 2176.9618358 48.94456343 C2207.33193776 75.68477272 2224.3707633 116.79055421 2227.8993358 156.50706343 C2228.14710137 161.95024106 2228.15466981 167.38066905 2228.12638658 172.82737593 C2228.12582052 174.38636633 2228.12614281 175.94535727 2228.12727159 177.50434736 C2228.12783852 181.68100099 2228.1161929 185.85753653 2228.10212367 190.03416304 C2228.08950456 194.41965477 2228.0884371 198.80515009 2228.08607286 203.19065718 C2228.0798906 211.47040321 2228.06352448 219.75009556 2228.04337388 228.0298181 C2228.02091275 237.46651956 2228.00999593 246.90322376 2227.99998301 256.33994536 C2227.97915485 275.72901499 2227.94404312 295.11803487 2227.8993358 314.50706343 C2229.09030336 314.50535469 2229.09030336 314.50535469 2230.30533087 314.50361142 C2277.4282243 314.43638607 2324.55111249 314.38495778 2371.67404432 314.35386744 C2377.34004325 314.3501156 2383.00604209 314.34623261 2388.67204088 314.34226851 C2389.79997535 314.34148157 2390.92790983 314.34069464 2392.09002415 314.33988387 C2410.32115682 314.32685216 2428.55226094 314.30321069 2446.78337671 314.27560504 C2465.50891182 314.24748853 2484.23443204 314.230874 2502.9599874 314.22479794 C2514.50211416 314.22069443 2526.04416018 314.20776325 2537.58626208 314.18331403 C2545.51556948 314.16737963 2553.44483552 314.16268039 2561.37415774 314.1665593 C2565.93974034 314.16846893 2570.50518246 314.16567199 2575.07073968 314.149447 C2619.1302346 314.00061017 2619.1302346 314.00061017 2638.1493358 320.25706343 C2638.96031724 320.51310347 2639.77129869 320.76914351 2640.60685533 321.03294233 C2658.6759345 326.87975379 2674.83630029 334.81368475 2689.8993358 346.50706343 C2690.77976548 347.18253218 2691.66019517 347.85800093 2692.56730455 348.55393843 C2718.30246255 368.90439526 2736.51226949 396.21044829 2746.2118358 427.50706343 C2746.44233629 428.24037886 2746.67283677 428.97369429 2746.91032213 429.7292314 C2751.16194323 444.29684981 2752.3444367 458.87533272 2752.27538329 473.95718245 C2752.2783654 475.75421467 2752.28266105 477.5512451 2752.28813163 479.34827147 C2752.29932666 484.26237794 2752.29202556 489.1763045 2752.28156177 494.09040604 C2752.27347164 499.46556422 2752.28292479 504.84069767 2752.29007232 510.21585325 C2752.30023507 519.66470557 2752.29926964 529.11350594 2752.29102169 538.56235937 C2752.27872998 552.70764999 2752.28377603 566.85289857 2752.29216961 580.99819015 C2752.30625074 605.10715099 2752.30554134 629.21609403 2752.29732698 653.32505659 C2752.28904728 677.75743352 2752.28730725 702.18979805 2752.29353898 726.62217573 C2752.29373252 727.39305055 2752.29392607 728.16392537 2752.29412547 728.95816004 C2752.29590011 736.02286142 2752.29774183 743.08756279 2752.29966411 750.15226413 C2752.30447642 767.86703714 2752.30824449 785.5818103 2752.31130522 803.29658369 C2752.31144592 804.10830433 2752.31158663 804.92002496 2752.3117316 805.75634319 C2752.31856682 845.76293171 2752.31395994 885.76951802 2752.30822175 925.7761064 C2752.30797084 927.52846135 2752.30771995 929.2808163 2752.30746907 931.03317125 C2752.30728252 932.33588195 2752.30728252 932.33588195 2752.3070922 933.66491005 C2752.30545263 945.11788939 2752.3038428 956.57086874 2752.30231231 968.0238481 C2752.30219483 968.89930876 2752.30207734 969.77476943 2752.3019563 970.67675921 C2752.29655254 1011.24668195 2752.29783804 1051.81660359 2752.30060368 1092.38652649 C2752.30090307 1096.8124167 2752.30118957 1101.23830691 2752.3014775 1105.66419713 C2752.30234928 1119.00436824 2752.3032401 1132.34453935 2752.3041703 1145.68471045 C2752.30700389 1186.36450842 2752.30880461 1227.04430639 2752.30971521 1267.72410444 C2752.30973581 1268.62987225 2752.30975642 1269.53564005 2752.30977765 1270.46885536 C2752.31109387 1329.12864596 2752.30779155 1387.78843532 2752.30116647 1446.44822554 C2752.30106112 1447.38468093 2752.30095576 1448.32113632 2752.30084721 1449.28596914 C2752.29731816 1480.65263542 2752.29354996 1512.01930167 2752.28975732 1543.38596792 C2752.27829606 1638.23963011 2752.27201512 1733.09328786 2752.29010332 1902.48967095 C2752.29389295 1933.8484144 2752.29763849 1965.20715784 2752.30116647 1996.56590132 C2752.3012722 1997.50209312 2752.30137794 1998.43828491 2752.30148688 1999.40284616 C2752.30810282 2058.03190508 2752.31104896 2116.66096313 2752.30971521 2175.29002241 C2752.3096848 2176.64822314 2752.3096848 2176.64822314 2752.30965379 2178.03386227 C2752.30873362 2218.6910736 2752.30681871 2259.34828484 2752.3039837 2300.00549609 C2752.30305505 2313.33978308 2752.30217205 2326.67407007 2752.30130455 2340.00835706 C2752.30101658 2344.4316945 2752.30072451 2348.85503193 2752.30042298 2353.27836936 C2752.29766574 2393.84900639 2752.29686791 2434.41964192 2752.30231231 2474.99027876 C2752.30242923 2475.86518439 2752.30254614 2476.74009003 2752.3026666 2477.64150795 C2752.30420197 2489.08799051 2752.3058299 2500.53447306 2752.30746907 2511.98095561 C2752.30759331 2512.84874407 2752.30771755 2513.71653253 2752.30784555 2514.61061761 C2752.30809623 2516.36138111 2752.30834713 2518.11214461 2752.30859824 2519.86290811 C2752.3143136 2559.81445398 2752.31823044 2599.76599721 2752.31130522 2639.71754316 C2752.31116516 2640.52819492 2752.31102509 2641.33884667 2752.31088079 2642.17406363 C2752.30779032 2659.85983051 2752.30383161 2677.54559709 2752.29901937 2695.23136358 C2752.2971117 2702.28489274 2752.2953099 2709.33842193 2752.29353898 2716.39195112 C2752.29324461 2717.54607691 2752.29324461 2717.54607691 2752.29294429 2718.72351837 C2752.28676967 2743.12450212 2752.28977543 2767.52547308 2752.2980893 2791.92645588 C2752.3064605 2816.61865487 2752.30445567 2841.31083097 2752.28980374 2866.00302742 C2752.28178604 2880.0515171 2752.28198552 2894.09994899 2752.29424853 2908.14843594 C2752.30157066 2917.47414617 2752.29804868 2926.79981132 2752.28564797 2936.12551609 C2752.27891898 2941.41475027 2752.27683496 2946.70386921 2752.28809752 2951.9930983 C2752.2982432 2956.79929056 2752.29440454 2961.60526822 2752.2797734 2966.41144708 C2752.27692465 2968.12811707 2752.27899057 2969.84480493 2752.2868504 2971.56145929 C2752.35059723 2986.52794009 2750.71895259 3001.16279769 2746.2118358 3015.50706343 C2745.83055528 3016.74105879 2745.83055528 3016.74105879 2745.44157213 3017.99998335 C2737.49395958 3042.84667986 2723.81580092 3063.70682649 2705.8993358 3082.50706343 C2705.23289048 3083.2263603 2704.56644517 3083.94565718 2703.87980455 3084.68675093 C2678.87013843 3110.9074114 2639.98426355 3126.98869395 2604.02219778 3128.69054298 C2599.903168 3128.75662182 2595.78855624 3128.76479635 2591.66924852 3128.74757246 C2590.08887785 3128.7484469 2588.50850747 3128.75020225 2586.92813861 3128.75275079 C2582.62939278 3128.75718152 2578.33074832 3128.74928021 2574.03201538 3128.73919467 C2569.37988406 3128.73050014 2564.72775775 3128.73348455 2560.07562059 3128.73499922 C2552.03004487 3128.7360443 2543.98450177 3128.72980728 2535.93893426 3128.71852354 C2524.30661825 3128.70222014 2512.6743179 3128.6970556 2501.0419917 3128.69454756 C2482.16606167 3128.69017803 2463.29014899 3128.67688911 2444.41422838 3128.65794233 C2426.08577873 3128.63956429 2407.75733382 3128.62541722 2389.42887681 3128.61692671 C2388.29775935 3128.61640126 2387.16664188 3128.61587582 2386.00124812 3128.61533445 C2380.32636059 3128.61272424 2374.65147303 3128.61019685 2368.97658544 3128.60771064 C2321.95082354 3128.58700126 2274.92508057 3128.551796 2227.8993358 3128.50706343 C2227.90117938 3129.31506832 2227.90302297 3130.12307322 2227.90492242 3130.95556311 C2227.94924753 3150.68992276 2227.98226303 3170.42427375 2228.00296014 3190.15867285 C2228.01323721 3199.70239294 2228.02722861 3209.24607963 2228.0502147 3218.78977827 C2228.0702586 3227.11591833 2228.08307811 3235.44203418 2228.08751279 3243.76819769 C2228.0901017 3248.16968723 2228.09611073 3252.57110757 2228.11079591 3256.97257475 C2228.12455444 3261.13070654 2228.12852231 3265.28874182 2228.12555116 3269.44689421 C2228.12609328 3270.95836783 2228.12996041 3272.4698453 2228.13774675 3273.98129896 C2228.20869627 3288.48764788 2227.20655548 3303.01998032 2223.6493358 3317.13206343 C2223.43317613 3318.00757856 2223.21701646 3318.8830937 2222.9943065 3319.7851396 C2212.11359368 3362.34986752 2184.10384101 3398.03695062 2146.68668931 3420.60447554 C2119.80815756 3436.42983624 2090.22834561 3443.68577235 2059.17136919 3443.63471393 C2057.68315627 3443.63595836 2056.19494366 3443.6376401 2054.70673167 3443.63971629 C2050.61423777 3443.64415787 2046.52176657 3443.64239117 2042.42927208 3443.6396145 C2037.96144862 3443.63768981 2033.49362953 3443.6415757 2029.02580729 3443.6447113 C2021.1641839 3443.64942421 2013.30256681 3443.65040972 2005.44094225 3443.64898295 C1993.67161727 3443.6468627 1981.90229882 3443.65047392 1970.13297485 3443.65519773 C1950.07528687 3443.66307397 1930.01760068 3443.66615991 1909.95991128 3443.66664366 C1889.62813283 3443.66714583 1869.29635636 3443.66979052 1848.96457856 3443.67505125 C1847.68125638 3443.67538138 1846.3979342 3443.67571152 1845.07572347 3443.67605166 C1839.8490844 3443.67740163 1834.62244534 3443.6787643 1829.39580628 3443.68014376 C1771.90797221 3443.69528953 1714.4201387 3443.70208628 1656.93230295 3443.70656573 C1656.20519394 3443.70662242 1655.47808493 3443.70667911 1654.72894231 3443.70673751 C1651.05104577 3443.70702404 1647.37314922 3443.70730907 1643.69525268 3443.70759163 C1612.87704309 3443.70996706 1582.05883373 3443.71367679 1551.24062431 3443.71762873 C1536.48044666 3443.71952132 1521.72026901 3443.72134983 1506.96009135 3443.72316293 C1506.22599514 3443.72325312 1505.49189892 3443.72334331 1504.73555737 3443.72343623 C1469.40463597 3443.72777243 1434.07371452 3443.73170077 1398.74279302 3443.73516325 C1397.61229673 3443.73527406 1397.61229673 3443.73527406 1396.45896214 3443.73538711 C1348.42971192 3443.74008194 1300.40046177 3443.74290505 1252.37121135 3443.74455003 C1248.43354415 3443.74468561 1244.49587694 3443.74482464 1240.55820974 3443.74496357 C1234.24519593 3443.74518605 1227.93218212 3443.74540741 1221.6191683 3443.74562745 C1220.44573632 3443.74566836 1220.44573632 3443.74566836 1219.24859865 3443.74571009 C1217.66753319 3443.7457652 1216.08646772 3443.74582031 1214.50540226 3443.74587542 C1203.41471956 3443.74626203 1192.32403685 3443.74664998 1181.23335415 3443.74704455 C1177.2648849 3443.74718566 1173.29641565 3443.74732573 1169.3279464 3443.74746345 C1094.37981784 3443.75006755 1019.43169136 3443.75539702 944.48356431 3443.77134565 C943.69461312 3443.77151345 942.90566193 3443.77168124 942.09280313 3443.77185412 C917.44245784 3443.77710482 892.79211263 3443.78267917 868.14176744 3443.78831343 C842.84852247 3443.79409446 817.55527749 3443.79982504 792.26203244 3443.80526976 C791.48322643 3443.80543756 790.70442041 3443.80560537 789.9020142 3443.80577826 C741.12154398 3443.81627245 692.34107434 3443.82313333 643.56060308 3443.82613615 C642.80711423 3443.82618296 642.05362539 3443.82622977 641.27730355 3443.826278 C608.18468263 3443.82832873 575.09206172 3443.82957276 541.99944074 3443.82992406 C528.68587722 3443.83006733 515.3723137 3443.83030599 502.05875019 3443.83058812 C499.85131638 3443.83063365 497.64388258 3443.8306753 495.43644878 3443.83071623 C461.67892814 3443.83136219 427.92140986 3443.83431717 394.16389054 3443.84417681 C393.07224006 3443.84449537 393.07224006 3443.84449537 391.95853604 3443.84482036 C380.25183742 3443.84824905 368.54513885 3443.85186204 356.83844029 3443.85549676 C323.59714355 3443.86581255 290.35584973 3443.87459072 257.11455112 3443.87265209 C256.43974018 3443.87261335 255.76492924 3443.87257462 255.06966949 3443.8725347 C241.00335814 3443.87169719 226.93704696 3443.87015897 212.87073579 3443.86775417 C206.34032544 3443.86663879 199.80991508 3443.86562813 193.27950471 3443.86467985 C191.99936129 3443.86448988 190.71921786 3443.86429992 189.40028222 3443.86410419 C169.12758476 3443.86137017 148.85490399 3443.86871371 128.58221016 3443.88025322 C108.64938887 3443.89138975 88.71659116 3443.89182952 68.7837695 3443.88088304 C57.09731361 3443.87478597 45.41092887 3443.87688307 33.72447968 3443.89113501 C25.95902339 3443.89978381 18.19361936 3443.89751185 10.42816629 3443.8864363 C6.02874911 3443.88046504 1.62947124 3443.8790455 -2.76993658 3443.89112116 C-46.10888685 3444.00216641 -87.13282487 3437.17392532 -122.1006642 3409.50706343 C-122.95273452 3408.85737593 -123.80480483 3408.20768843 -124.68269545 3407.53831343 C-158.83546841 3380.73613728 -180.01067137 3342.29812418 -186.1006642 3299.50706343 C-186.88973833 3292.34344655 -187.24462718 3285.26810951 -187.22371203 3278.06422762 C-187.22486588 3277.06890185 -187.22601972 3276.07357608 -187.22720853 3275.04808892 C-187.22984556 3271.72847313 -187.22537717 3268.4089063 -187.22091872 3265.08929304 C-187.22135502 3262.67916551 -187.222231 3260.26903802 -187.22350789 3257.85891078 C-187.22527545 3252.627041 -187.22395033 3247.39518152 -187.21986968 3242.16331343 C-187.21381887 3234.38379398 -187.21353534 3226.60428168 -187.21441167 3218.8247603 C-187.21572373 3205.73650659 -187.21239113 3192.64825794 -187.20639426 3179.5600057 C-187.20047345 3166.60449881 -187.19662755 3153.64899402 -187.19554145 3140.69348578 C-187.19547271 3139.88738809 -187.19540397 3139.0812904 -187.19533314 3138.2507655 C-187.1949948 3134.15685791 -187.19469342 3130.06295032 -187.19440627 3125.96904272 C-187.1923069 3096.98602801 -187.18557246 3068.00301605 -187.17610366 3039.02000288 C-187.16691654 3010.86668272 -187.15983424 2982.71336331 -187.15559584 2954.56004194 C-187.15539855 2953.25790131 -187.15539855 2953.25790131 -187.15519728 2951.92945481 C-187.15387874 2943.21155188 -187.15260293 2934.49364894 -187.15135842 2925.775746 C-187.14882233 2908.01701091 -187.14600108 2890.25827587 -187.14300734 2872.49954084 C-187.14287005 2871.68305648 -187.14273276 2870.86657212 -187.14259131 2870.0253458 C-187.13339356 2815.51925052 -187.11752787 2761.01315681 -187.1006642 2706.50706343 C-187.74138113 2706.50737539 -188.38209806 2706.50768735 -189.04223065 2706.50800877 C-258.82451339 2706.54191415 -328.60679708 2706.57332323 -398.38908583 2706.59174971 C-399.43207383 2706.59202582 -400.47506184 2706.59230194 -401.54965553 2706.59258642 C-424.21859409 2706.59857274 -446.88753273 2706.60411303 -469.55647151 2706.60919409 C-480.67390425 2706.61168868 -491.79133697 2706.6142818 -502.90876967 2706.61692671 C-504.01506625 2706.61718823 -505.12136283 2706.61744975 -506.26118355 2706.61771919 C-542.09575437 2706.6262363 -577.93031887 2706.64125475 -613.76488586 2706.65965787 C-650.60083046 2706.67854082 -687.43677156 2706.69083844 -724.27272091 2706.69489341 C-729.47991921 2706.69546969 -734.6871175 2706.69612096 -739.89431578 2706.69681791 C-740.91913013 2706.69695276 -741.94394448 2706.69708761 -742.99981382 2706.69722654 C-759.47211712 2706.6995866 -775.94440959 2706.7088536 -792.41670848 2706.7207275 C-808.99168087 2706.73252713 -825.56664255 2706.7369931 -842.14161899 2706.73406618 C-851.97951592 2706.73254929 -861.81737357 2706.73656233 -871.65526338 2706.74865851 C-878.24100705 2706.75620001 -884.82672522 2706.75636164 -891.41247071 2706.75072706 C-895.15592586 2706.74772948 -898.89930711 2706.7477456 -902.6427541 2706.75682979 C-943.92439773 2706.85111828 -943.92439773 2706.85111828 -962.4756642 2702.25706343 C-963.38010268 2702.04090376 -964.28454116 2701.82474409 -965.21638686 2701.60203413 C-1006.08005001 2691.46023842 -1042.48134029 2664.53413199 -1064.56550795 2628.80393843 C-1068.50184403 2622.23893046 -1071.94081824 2615.47574729 -1075.1006642 2608.50706343 C-1075.91664077 2606.70882124 -1075.91664077 2606.70882124 -1076.7491017 2604.87425093 C-1084.34201663 2587.02897372 -1088.43616687 2567.57125481 -1088.35366387 2548.1904727 C-1088.35671696 2547.01481375 -1088.35977006 2545.8391548 -1088.36291567 2544.62786981 C-1088.36933342 2541.38561007 -1088.36690387 2538.14350142 -1088.36062394 2534.90124609 C-1088.35598937 2531.35282617 -1088.363047 2527.8044252 -1088.36855758 2524.25600917 C-1088.37664356 2518.02002715 -1088.37732649 2511.78407849 -1088.37314569 2505.54809313 C-1088.36692119 2496.21245503 -1088.37222925 2486.87684745 -1088.3797431 2477.54121157 C-1088.39220719 2461.62894198 -1088.39515583 2445.71668328 -1088.39290816 2429.80440954 C-1088.39065914 2413.67943715 -1088.39272784 2397.55447399 -1088.40005309 2381.429503 C-1088.40051239 2380.41090955 -1088.4009717 2379.3923161 -1088.40144493 2378.34285617 C-1088.40332821 2374.19424376 -1088.40523959 2370.04563136 -1088.40718731 2365.89701897 C-1088.42747623 2322.61853343 -1088.43359929 2279.34005306 -1088.43477153 2236.0615633 C-1088.43490102 2231.4030639 -1088.4350369 2226.7445645 -1088.43517834 2222.08606509 C-1088.43521235 2220.93004722 -1088.43524636 2219.77402935 -1088.4352814 2218.58298063 C-1088.43609831 2192.9657889 -1088.44047815 2167.34859816 -1088.44549003 2141.73140696 C-1088.44754675 2131.18311344 -1088.44952681 2120.63481991 -1088.45152253 2110.08652637 C-1088.45174371 2108.92102794 -1088.45196489 2107.7555295 -1088.45219277 2106.55471293 C-1088.46484128 2039.76410341 -1088.47309097 1972.97349455 -1088.47217566 1906.18288378 C-1088.47214411 1903.6832755 -1088.47211263 1901.18366721 -1088.47208125 1898.68405893 C-1088.47193448 1887.39853401 -1088.47175814 1876.11300909 -1088.47157348 1864.82748417 C-1088.47149123 1859.79498309 -1088.47141094 1854.762482 -1088.47133085 1849.72998092 C-1088.47129006 1847.2111231 -1088.47124802 1844.69226528 -1088.47120473 1842.17340747 C-1088.46984429 1762.52737569 -1088.48447784 1682.8813617 -1088.5122853 1603.23533491 C-1088.51928736 1583.16913503 -1088.52622628 1563.10293512 -1088.53281409 1543.0367351 C-1088.53321984 1541.80117404 -1088.53362559 1540.56561298 -1088.53404363 1539.29261067 C-1088.54647415 1501.20973177 -1088.55400486 1463.12685433 -1088.55653006 1425.04397349 C-1088.55660996 1423.84826681 -1088.55668987 1422.65256013 -1088.55677219 1421.42061992 C-1088.55847877 1395.17153248 -1088.55900112 1368.92244512 -1088.55843144 1342.67335763 C-1088.55823847 1333.2808453 -1088.55813438 1323.88833297 -1088.55807398 1314.49582063 C-1088.55805815 1312.15920756 -1088.55803774 1309.8225945 -1088.55801273 1307.48598143 C-1088.55766014 1270.2597466 -1088.56905401 1233.033527 -1088.58632036 1195.80729654 C-1088.60362361 1158.31088904 -1088.60799985 1120.81450262 -1088.59479772 1083.31809281 C-1088.59297317 1078.13447305 -1088.59128661 1072.95085325 -1088.58968169 1067.76723341 C-1088.58936152 1066.75112251 -1088.58904134 1065.73501162 -1088.58871146 1064.68810948 C-1088.58400906 1048.61173282 -1088.59271226 1032.53539266 -1088.60702406 1016.45902286 C-1088.62082237 1000.64334403 -1088.62029825 984.827719 -1088.60463979 969.01204133 C-1088.59589052 959.74540746 -1088.59798774 950.47893226 -1088.61637336 941.21231162 C-1088.62750215 935.04802147 -1088.62396525 928.88384904 -1088.60880779 922.71956784 C-1088.60063249 919.23159064 -1088.59837559 915.74392429 -1088.61430917 912.25596678 C-1088.68789047 892.12139491 -1087.24353961 872.73211326 -1080.6006642 853.56956343 C-1080.26663588 852.59068159 -1079.93260756 851.61179976 -1079.58845717 850.60325483 C-1072.26972227 830.09045818 -1061.16482286 811.6729025 -1046.27644545 795.83518843 C-1044.5813261 794.02138028 -1043.00819885 792.20476633 -1041.4756642 790.25706343 C-1017.81051206 762.85530832 -978.34860845 746.46899451 -943.1006642 742.50706343 C-933.40200935 741.86918243 -923.67663365 741.9718077 -913.96182816 742.01799866 C-910.07188672 742.03193874 -906.18198524 742.02221429 -902.29203409 742.0156887 C-895.49628915 742.00745338 -888.7006853 742.01386567 -881.90495688 742.03024153 C-871.80021097 742.05452301 -861.69555277 742.05557172 -851.590783 742.05207357 C-834.58759157 742.04683475 -817.58446262 742.06011957 -800.58128936 742.0841432 C-783.75805164 742.10785141 -766.93483998 742.12321507 -750.11158568 742.12755446 C-749.06363344 742.12782941 -748.0156812 742.12810437 -746.93597283 742.12838766 C-741.61345595 742.12974109 -736.29093904 742.13094659 -730.9684221 742.13209517 C-693.31749814 742.14048577 -655.66660812 742.16740431 -618.01570327 742.20530562 C-581.44962437 742.24207226 -544.88355477 742.27039253 -508.31746108 742.28733687 C-507.18935433 742.28786297 -506.06124758 742.28838907 -504.89895578 742.28893112 C-493.56953374 742.29420543 -482.24011163 742.29930865 -470.91068945 742.30428656 C-447.83354146 742.31443007 -424.75639408 742.32571507 -401.67924697 742.33769087 C-400.08784486 742.33851461 -400.08784486 742.33851461 -398.46429322 742.33935499 C-327.67640277 742.37612693 -256.88853114 742.43950412 -186.1006642 742.50706343 C-186.10180336 741.26336033 -186.10294253 740.01965722 -186.10411621 738.73826615 C-186.15414293 683.90448078 -186.20042348 629.07069324 -186.22769362 574.23689131 C-186.22810779 573.40622145 -186.22852196 572.57555159 -186.22894869 571.71970991 C-186.23792823 553.66531277 -186.24623866 535.61091538 -186.25386019 517.55651762 C-186.25760207 508.70214221 -186.26149175 499.84776686 -186.26545912 490.99339155 C-186.2658514 490.11229318 -186.26624368 489.23119482 -186.26664784 488.3233965 C-186.27942293 459.7846336 -186.30195016 431.24588857 -186.32955587 402.70713649 C-186.35788194 373.37025816 -186.3763271 344.0333897 -186.38240917 314.69649792 C-186.38327359 310.54913853 -186.3842505 306.40177918 -186.38529593 302.25441984 C-186.3854982 301.43819152 -186.38570047 300.6219632 -186.38590887 299.78100069 C-186.38944861 286.66273607 -186.40334815 273.54450207 -186.4211603 260.42624991 C-186.43886212 247.22540755 -186.44555813 234.02459542 -186.44116834 220.82374161 C-186.43889342 212.98902539 -186.44490852 205.15442019 -186.46305683 197.3197241 C-186.47570754 191.45556485 -186.47250685 185.59148132 -186.46336089 179.72731336 C-186.46209901 177.36495997 -186.46585495 175.00259704 -186.47531375 172.64026224 C-186.53979302 155.5332193 -185.27031845 139.42007793 -180.3506642 122.94456343 C-180.09244887 122.06945112 -179.83423354 121.19433882 -179.5681935 120.29270796 C-171.81568957 94.72964469 -158.47060217 72.86431076 -140.1006642 53.50706343 C-139.43212416 52.79767622 -139.43212416 52.79767622 -138.75007827 52.07395796 C-101.60543867 12.90255182 -52.49083009 -0.1850342 0 0 Z " fill="#038185" transform="translate(1088.1006642030552,-0.507063427940011)"/>
<path d="M0 0 C393.77047488 0 393.77047488 0 411.25 5.75 C412.06098145 6.00604004 412.87196289 6.26208008 413.70751953 6.52587891 C431.77659871 12.37269037 447.93696449 20.30662132 463 32 C463.88042969 32.67546875 464.76085938 33.3509375 465.66796875 34.046875 C491.40312676 54.39733184 509.61293369 81.70338486 519.3125 113 C519.54300049 113.73331543 519.77350098 114.46663086 520.01098633 115.22216797 C524.26260744 129.78978638 525.4451009 144.36826929 525.37604749 159.45011902 C525.3790296 161.24715124 525.38332526 163.04418167 525.38879583 164.84120804 C525.39999086 169.75531451 525.39268976 174.66924107 525.38222598 179.58334261 C525.37413585 184.95850079 525.38358899 190.33363424 525.39073652 195.70878983 C525.40089928 205.15764214 525.39993385 214.60644252 525.39168589 224.05529594 C525.37939419 238.20058656 525.38444023 252.34583514 525.39283381 266.49112672 C525.40691494 290.60008756 525.40620555 314.7090306 525.39799118 338.81799316 C525.38971148 363.25037009 525.38797146 387.68273462 525.39420319 412.1151123 C525.39439673 412.88598713 525.39459027 413.65686195 525.39478968 414.45109661 C525.39656432 421.515798 525.39840603 428.58049936 525.40032831 435.64520071 C525.40514063 453.35997371 525.40890869 471.07474687 525.41196942 488.78952026 C525.41211013 489.6012409 525.41225083 490.41296153 525.4123958 491.24927977 C525.41923102 531.25586829 525.41462414 571.26245459 525.40888596 611.26904297 C525.40863505 613.02139792 525.40838415 614.77375287 525.40813327 616.52610782 C525.40794672 617.82881853 525.40794672 617.82881853 525.4077564 619.15784662 C525.40611683 630.61082597 525.40450701 642.06380531 525.40297651 653.51678467 C525.40285903 654.39224534 525.40274155 655.26770601 525.4026205 656.16969579 C525.39721674 696.73961853 525.39850224 737.30954016 525.40126788 777.87946306 C525.40156727 782.30535327 525.40185377 786.73124349 525.40214171 791.1571337 C525.40301348 804.49730481 525.4039043 817.83747592 525.4048345 831.17764702 C525.40766809 871.85744499 525.40946882 912.53724296 525.41037941 953.21704102 C525.41040002 954.12280882 525.41042062 955.02857662 525.41044185 955.96179193 C525.41175807 1014.62158253 525.40845575 1073.28137189 525.40183067 1131.94116211 C525.40172532 1132.8776175 525.40161996 1133.81407289 525.40151142 1134.77890571 C525.39798236 1166.14557199 525.39421416 1197.51223824 525.39042152 1228.87890449 C525.37896026 1323.73256669 525.37267932 1418.58622443 525.39076752 1587.98260752 C525.39455715 1619.34135097 525.3983027 1650.70009442 525.40183067 1682.05883789 C525.40193641 1682.99502969 525.40204214 1683.93122149 525.40215108 1684.89578273 C525.40876702 1743.52484165 525.41171316 1802.1538997 525.41037941 1860.78295898 C525.41034901 1862.14115971 525.41034901 1862.14115971 525.41031799 1863.52679884 C525.40939782 1904.18401017 525.40748291 1944.84122142 525.4046479 1985.49843266 C525.40371926 1998.83271965 525.40283625 2012.16700664 525.40196876 2025.50129363 C525.40168078 2029.92463107 525.40138872 2034.3479685 525.40108718 2038.77130593 C525.39832994 2079.34194296 525.39753211 2119.91257849 525.40297651 2160.48321533 C525.40309343 2161.35812097 525.40321034 2162.2330266 525.4033308 2163.13444453 C525.40486618 2174.58092709 525.40649411 2186.02740964 525.40813327 2197.47389218 C525.40825751 2198.34168064 525.40838175 2199.2094691 525.40850975 2200.10355419 C525.40876043 2201.85431768 525.40901133 2203.60508118 525.40926245 2205.35584468 C525.4149778 2245.30739055 525.41889465 2285.25893378 525.41196942 2325.21047974 C525.41182936 2326.02113149 525.4116893 2326.83178324 525.41154499 2327.6670002 C525.40845453 2345.35276708 525.40449581 2363.03853366 525.39968358 2380.72430016 C525.3977759 2387.77782932 525.3959741 2394.8313585 525.39420319 2401.8848877 C525.39390881 2403.03901348 525.39390881 2403.03901348 525.3936085 2404.21645494 C525.38743388 2428.61743869 525.39043964 2453.01840965 525.3987535 2477.41939245 C525.4071247 2502.11159145 525.40511988 2526.80376755 525.39046794 2551.49596399 C525.38245024 2565.54445368 525.38264973 2579.59288556 525.39491273 2593.64137251 C525.40223486 2602.96708274 525.39871288 2612.29274789 525.38631217 2621.61845266 C525.37958319 2626.90768685 525.37749916 2632.19680578 525.38876172 2637.48603487 C525.3989074 2642.29222714 525.39506874 2647.09820479 525.3804376 2651.90438365 C525.37758885 2653.62105365 525.37965477 2655.3377415 525.38751461 2657.05439586 C525.45126143 2672.02087666 523.8196168 2686.65573427 519.3125 2701 C518.93121948 2702.23399536 518.93121948 2702.23399536 518.54223633 2703.49291992 C510.59462378 2728.33961643 496.91646512 2749.19976306 479 2768 C478.33355469 2768.71929688 477.66710938 2769.43859375 476.98046875 2770.1796875 C451.97080263 2796.40034798 413.08492775 2812.48163052 377.12286198 2814.18347955 C373.0038322 2814.24955839 368.88922044 2814.25773292 364.76991272 2814.24050903 C363.18954205 2814.24138347 361.60917167 2814.24313882 360.02880281 2814.24568737 C355.73005698 2814.25011809 351.43141252 2814.24221679 347.13267958 2814.23213124 C342.48054826 2814.22343671 337.82842196 2814.22642112 333.17628479 2814.22793579 C325.13070907 2814.22898087 317.08516598 2814.22274385 309.03959846 2814.21146011 C297.40728245 2814.19515672 285.7749821 2814.18999217 274.1426559 2814.18748413 C255.26672587 2814.1831146 236.39081319 2814.16982569 217.51489258 2814.15087891 C199.18644294 2814.13250086 180.85799802 2814.11835379 162.52954102 2814.10986328 C161.39842355 2814.10933783 160.26730608 2814.10881239 159.10191233 2814.10827102 C153.4270248 2814.10566081 147.75213723 2814.10313342 142.07724965 2814.10064721 C95.05148775 2814.07993783 48.02574477 2814.04473257 1 2814 C1.00184359 2814.80800489 1.00368717 2815.61600979 1.00558662 2816.44849968 C1.04991173 2836.18285934 1.08292724 2855.91721032 1.10362434 2875.65160942 C1.11390141 2885.19532951 1.12789281 2894.7390162 1.15087891 2904.28271484 C1.1709228 2912.6088549 1.18374231 2920.93497075 1.18817699 2929.26113427 C1.1907659 2933.66262381 1.19677493 2938.06404414 1.21146011 2942.46551132 C1.22521864 2946.62364311 1.22918651 2950.78167839 1.22621536 2954.93983078 C1.22675748 2956.4513044 1.23062461 2957.96278187 1.23841095 2959.47423553 C1.30936047 2973.98058445 0.30721968 2988.51291689 -3.25 3002.625 C-3.46615967 3003.50051514 -3.68231934 3004.37603027 -3.9050293 3005.27807617 C-14.78574212 3047.84280409 -42.79549478 3083.52988719 -80.21264648 3106.09741211 C-107.09117823 3121.92277281 -136.67099018 3129.17870892 -167.72796661 3129.1276505 C-169.21617953 3129.12889493 -170.70439214 3129.13057667 -172.19260413 3129.13265286 C-176.28509802 3129.13709444 -180.37756923 3129.13532774 -184.47006372 3129.13255108 C-188.93788717 3129.13062638 -193.40570626 3129.13451227 -197.87352851 3129.13764787 C-205.73515189 3129.14236079 -213.59676898 3129.14334629 -221.45839355 3129.14191952 C-233.22771853 3129.13979927 -244.99703698 3129.14341049 -256.76636095 3129.1481343 C-276.82404892 3129.15601054 -296.88173512 3129.15909649 -316.93942451 3129.15958023 C-337.27120297 3129.1600824 -357.60297943 3129.16272709 -377.93475723 3129.16798782 C-379.21807941 3129.16831796 -380.5014016 3129.16864809 -381.82361233 3129.16898823 C-387.0502514 3129.17033821 -392.27689046 3129.17170087 -397.50352952 3129.17308033 C-454.99136359 3129.1882261 -512.4791971 3129.19502285 -569.96703284 3129.1995023 C-570.69414186 3129.19955899 -571.42125087 3129.19961568 -572.17039349 3129.19967409 C-575.84829003 3129.19996061 -579.52618657 3129.20024564 -583.20408312 3129.2005282 C-614.0222927 3129.20290363 -644.84050207 3129.20661336 -675.65871149 3129.2105653 C-690.41888913 3129.21245789 -705.17906679 3129.2142864 -719.93924445 3129.2160995 C-720.67334066 3129.21618969 -721.40743687 3129.21627988 -722.16377843 3129.2163728 C-757.49469983 3129.22070901 -792.82562128 3129.22463734 -828.15654278 3129.22809982 C-829.28703906 3129.22821063 -829.28703906 3129.22821063 -830.44037366 3129.22832368 C-878.46962388 3129.23301852 -926.49887403 3129.23584162 -974.52812445 3129.2374866 C-978.46579165 3129.23762218 -982.40345885 3129.23776121 -986.34112606 3129.23790014 C-992.65413987 3129.23812262 -998.96715368 3129.23834399 -1005.28016749 3129.23856402 C-1006.45359947 3129.23860493 -1006.45359947 3129.23860493 -1007.65073715 3129.23864666 C-1009.23180261 3129.23870177 -1010.81286807 3129.23875688 -1012.39393354 3129.23881199 C-1023.48461624 3129.23919861 -1034.57529894 3129.23958655 -1045.66598165 3129.23998112 C-1049.6344509 3129.24012223 -1053.60292015 3129.2402623 -1057.5713894 3129.24040002 C-1132.51951796 3129.24300412 -1207.46764444 3129.24833359 -1282.41577148 3129.26428223 C-1283.20472268 3129.26445002 -1283.99367387 3129.26461781 -1284.80653267 3129.26479069 C-1309.45687795 3129.2700414 -1334.10722316 3129.27561575 -1358.75756836 3129.28125 C-1384.05081333 3129.28703104 -1409.34405831 3129.29276162 -1434.63730335 3129.29820633 C-1435.41610937 3129.29837414 -1436.19491539 3129.29854194 -1436.99732159 3129.29871484 C-1485.77779181 3129.30920902 -1534.55826146 3129.3160699 -1583.33873272 3129.31907272 C-1584.09222156 3129.31911953 -1584.84571041 3129.31916635 -1585.62203224 3129.31921458 C-1618.71465317 3129.3212653 -1651.80727407 3129.32250933 -1684.89989506 3129.32286063 C-1698.21345858 3129.3230039 -1711.52702209 3129.32324256 -1724.84058561 3129.32352469 C-1727.04801941 3129.32357022 -1729.25545322 3129.32361187 -1731.46288702 3129.3236528 C-1765.22040766 3129.32429876 -1798.97792593 3129.32725375 -1832.73544526 3129.33711338 C-1833.82709574 3129.33743194 -1833.82709574 3129.33743194 -1834.94079976 3129.33775693 C-1846.64749838 3129.34118562 -1858.35419695 3129.34479862 -1870.06089551 3129.34843333 C-1903.30219224 3129.35874912 -1936.54348606 3129.36752729 -1969.78478467 3129.36558867 C-1970.45959561 3129.36554993 -1971.13440655 3129.36551119 -1971.82966631 3129.36547127 C-1985.89597766 3129.36463377 -1999.96228883 3129.36309554 -2014.02860001 3129.36069075 C-2020.55901036 3129.35957536 -2027.08942071 3129.3585647 -2033.61983109 3129.35761642 C-2034.89997451 3129.35742646 -2036.18011793 3129.35723649 -2037.49905358 3129.35704076 C-2057.77175103 3129.35430674 -2078.04443181 3129.36165028 -2098.31712563 3129.37318979 C-2118.24994693 3129.38432632 -2138.18274464 3129.38476609 -2158.11556629 3129.37381961 C-2169.80202219 3129.36772254 -2181.48840693 3129.36981964 -2193.17485612 3129.38407158 C-2200.94031241 3129.39272039 -2208.70571643 3129.39044842 -2216.47116951 3129.37937287 C-2220.87058669 3129.37340161 -2225.26986456 3129.37198207 -2229.66927238 3129.38405773 C-2273.00822265 3129.49510299 -2314.03216067 3122.66686189 -2349 3095 C-2349.85207031 3094.3503125 -2350.70414063 3093.700625 -2351.58203125 3093.03125 C-2385.73480421 3066.22907386 -2406.91000717 3027.79106075 -2413 2985 C-2414.03082542 2976.2958743 -2414.13927732 2967.65165958 -2414.12025452 2958.89631653 C-2414.12069133 2957.3895202 -2414.12156825 2955.88272395 -2414.12284368 2954.3759281 C-2414.12506708 2950.26199982 -2414.12109704 2946.14809783 -2414.11606562 2942.03417289 C-2414.1117302 2937.58783528 -2414.11320973 2933.14149904 -2414.1139679 2928.69515991 C-2414.11449117 2921.00038619 -2414.11136486 2913.30562097 -2414.10573006 2905.61084938 C-2414.09758848 2894.48562525 -2414.09499711 2883.36040522 -2414.09374207 2872.23517843 C-2414.09155572 2854.18339462 -2414.08490695 2836.13161534 -2414.07543945 2818.07983398 C-2414.06625454 2800.54858421 -2414.05917898 2783.01733568 -2414.05493164 2765.48608398 C-2414.05466892 2764.40469455 -2414.05440619 2763.32330511 -2414.05413551 2762.2091463 C-2414.05283043 2756.78390542 -2414.05156673 2751.35866453 -2414.05032361 2745.93342364 C-2414.03996399 2700.95561262 -2414.02235703 2655.97780655 -2414 2611 C-2413.15843431 2610.99959982 -2412.31686863 2610.99919963 -2411.44980095 2610.99878732 C-2322.5730649 2610.95642183 -2233.69632956 2610.91149823 -2136.55841064 2610.84101868 C-2135.17566975 2610.84001305 -2133.79292885 2610.83900743 -2132.41018796 2610.83800181 C-2103.3840187 2610.81687878 -2074.35784993 2610.79514139 -2045.33168167 2610.77269462 C-2030.75017151 2610.76141898 -2016.16866125 2610.75026135 -2001.58715091 2610.73921531 C-1999.38762972 2610.73754841 -1997.18810854 2610.73587813 -1994.98858735 2610.73420772 C-1961.1321029 2610.70852529 -1927.27561905 2610.68536878 -1893.41912842 2610.66955566 C-1892.69157149 2610.6692158 -1891.96401457 2610.66887594 -1891.21441047 2610.66852577 C-1879.48456262 2610.6630618 -1867.75471468 2610.65781045 -1856.02486673 2610.65258733 C-1822.22587507 2610.63753392 -1788.4268875 2610.62089986 -1754.62790298 2610.59387684 C-1753.93237024 2610.59332151 -1753.2368375 2610.59276618 -1752.52022801 2610.59219403 C-1737.24899053 2610.57997292 -1721.97775384 2610.56694383 -1706.7065177 2610.55315043 C-1700.56122438 2610.54761406 -1694.41593097 2610.54219393 -1688.27063751 2610.53681374 C-1687.26179487 2610.53592629 -1687.26179487 2610.53592629 -1686.23257157 2610.53502092 C-1664.58801359 2610.51603867 -1642.9434642 2610.50650577 -1621.29889876 2610.50196405 C-1598.87485736 2610.49721408 -1576.4508461 2610.48188179 -1554.02682069 2610.45433434 C-1541.10466485 2610.4387889 -1528.18256674 2610.43153599 -1515.26040207 2610.43623071 C-1506.62131543 2610.43854736 -1497.98228322 2610.42997592 -1489.34321372 2610.41267589 C-1484.42534011 2610.40313569 -1479.50758679 2610.39821104 -1474.5897083 2610.40660437 C-1447.64101761 2610.62719592 -1447.64101761 2610.62719592 -1421 2607 C-1419.3905177 2606.65292804 -1419.3905177 2606.65292804 -1417.74852061 2606.29884452 C-1415.31930392 2605.7403425 -1412.94884822 2605.09335777 -1410.5625 2604.375 C-1409.28318604 2603.99758667 -1409.28318604 2603.99758667 -1407.97802734 2603.61254883 C-1381.68487094 2595.53991978 -1359.83217844 2581.89174041 -1340 2563 C-1339.23042969 2562.29488281 -1338.46085937 2561.58976562 -1337.66796875 2560.86328125 C-1314.44820054 2538.89863565 -1299.77430756 2506.5178266 -1294.7109375 2475.3359375 C-1293.87097818 2470.21310868 -1292.92863611 2465.10749858 -1292 2460 C-1291.67 2396.64 -1291.34 2333.28 -1291 2268 C-864.97 2268 -438.94 2268 0 2268 C0 1519.56 0 771.12 0 0 Z " fill="#038387" transform="translate(3315,314)"/>
<path d="M0 0 C4.4763654 0.0112425 8.95268233 -0.00108497 13.42904409 -0.01021742 C21.28548252 -0.02306694 29.14180841 -0.02119703 36.99824706 -0.00950564 C48.75953517 0.00792036 60.5207356 0.00209229 72.28202814 -0.00812014 C92.33096781 -0.02485502 112.37986531 -0.02268272 132.42880624 -0.01013323 C152.73900282 0.00250968 173.0491733 0.00642792 193.35937303 -0.00024744 C195.28536796 -0.00087175 195.28536796 -0.00087175 197.25027188 -0.00150868 C202.47999245 -0.00323344 207.70971299 -0.0050213 212.93943351 -0.00688887 C227.67871995 -0.01215073 242.41800655 -0.01606447 257.15729361 -0.01903876 C258.17022715 -0.01924419 258.17022715 -0.01924419 259.20362399 -0.01945378 C292.46533905 -0.0260708 325.72704828 -0.01750373 358.98876184 -0.00755258 C370.69358316 -0.00405685 382.39840449 -0.00058431 394.10322588 0.00269298 C394.83089934 0.00289723 395.5585728 0.00310148 396.30829698 0.00331192 C430.04611877 0.01271922 463.78393858 0.01285862 497.52176138 0.01086758 C500.46635938 0.01069583 503.41095739 0.01053484 506.35555539 0.01037386 C518.19019061 0.00972592 530.02482584 0.00903397 541.85946106 0.00827103 C575.69885934 0.00608954 609.53825757 0.00525149 643.37765592 0.00554422 C644.50778361 0.00555327 644.50778361 0.00555327 645.66074216 0.00556249 C694.44442872 0.00597361 743.22811251 0.0123212 792.01179784 0.02310137 C793.17976391 0.02335883 793.17976391 0.02335883 794.37132525 0.0236215 C820.45130164 0.02937383 846.53127795 0.03548912 872.61125425 0.04163115 C951.48269334 0.060196 1030.3541256 0.07297949 1171.21788125 0.06126514 C1175.18260339 0.06085419 1179.14732553 0.06044681 1183.11204768 0.06003946 C1183.89666584 0.05995884 1184.68128401 0.05987822 1185.48967848 0.05979515 C1187.86635127 0.05955101 1190.24302405 0.059307 1192.61969683 0.059063 C1193.79563525 0.05894219 1193.79563525 0.05894219 1194.99533 0.05881893 C1212.36239734 0.05703539 1229.72946468 0.05529774 1247.09653204 0.05364538 C1248.66968458 0.05349554 1250.24283713 0.05334515 1251.81598968 0.05319423 C1300.5789873 0.04851629 1349.34198363 0.04752857 1398.10498136 0.05103067 C1399.23468112 0.05111139 1399.23468112 0.05111139 1400.3872031 0.05119373 C1434.94638699 0.05367558 1469.50557071 0.0572931 1504.06475438 0.06182568 C1507.76844951 0.06231017 1511.47214464 0.06278857 1515.17583976 0.06326651 C1515.9082005 0.06336104 1516.64056123 0.06345558 1517.39511471 0.06355298 C1523.30109785 0.06431473 1529.20708099 0.06507142 1535.11306413 0.0658259 C1538.79220339 0.06629669 1542.47134264 0.06677263 1546.15048189 0.06725906 C1579.88934611 0.07171719 1613.62820878 0.07439435 1647.36707323 0.07115535 C1648.09447986 0.07108616 1648.82188648 0.07101697 1649.57133573 0.07094569 C1657.62863501 0.07017632 1665.68593428 0.06935563 1673.74323355 0.06851796 C1676.65928448 0.06821533 1679.57533542 0.06791341 1682.49138635 0.06761221 C1683.21152983 0.0675377 1683.93167331 0.06746319 1684.67363931 0.06738643 C1717.89175882 0.06396943 1751.109875 0.06248753 1784.32799369 0.07190363 C1785.00215794 0.07209435 1785.67632219 0.07228508 1786.37091567 0.07248158 C1801.73556572 0.07686637 1817.10021521 0.08230289 1832.46486464 0.08850651 C1837.67534437 0.09056882 1842.88582412 0.09258556 1848.09630388 0.09456686 C1849.37505342 0.09505781 1850.65380296 0.09554875 1851.97130248 0.09605458 C1872.23006436 0.10356734 1892.48881204 0.10105238 1912.74757369 0.09439302 C1932.66126345 0.08806273 1952.57492695 0.09244389 1972.4886117 0.10827132 C1984.16686804 0.11723691 1995.84505568 0.11802252 2007.5233104 0.10673012 C2015.27939933 0.10005108 2023.03543325 0.10424811 2030.79151398 0.11728161 C2035.18802014 0.12436689 2039.58438838 0.1268608 2043.98088986 0.11594971 C2077.05719646 0.03965467 2077.05719646 0.03965467 2091.8993358 3.50706343 C2092.8627819 3.71044647 2093.82622801 3.91382951 2094.81886946 4.12337567 C2096.99192971 4.58726883 2099.12919001 5.11615157 2101.2743358 5.69456343 C2102.0470482 5.90250532 2102.8197606 6.11044722 2103.61588853 6.32469038 C2128.47815084 13.31212358 2151.75710322 25.78207234 2170.66886705 43.42893843 C2172.71716201 45.33733234 2174.81969177 47.14331069 2176.9618358 48.94456343 C2202.98099024 71.85385877 2220.0609015 106.60867598 2225.8993358 140.50706343 C2226.15228585 141.92220263 2226.15228585 141.92220263 2226.410346 143.3659305 C2228.50844415 157.24212357 2228.15839816 171.20768279 2228.1051358 185.20518592 C2228.09269729 189.06948087 2228.09211439 192.9337806 2228.09007811 196.79809251 C2228.08501111 203.46895485 2228.07274878 210.1397716 2228.05549383 216.81061312 C2228.03031004 226.57394386 2228.01678401 236.33726546 2228.0061538 246.1006217 C2227.98998218 260.83480278 2227.96773966 275.56896476 2227.9404546 290.30312921 C2227.9027721 310.7010391 2227.88320667 331.0989099 2227.87554734 351.49685148 C2227.87496034 352.97954773 2227.87436917 354.46224397 2227.87377385 355.94494021 C2227.87141733 361.84576153 2227.86910944 367.74658287 2227.86694944 373.64740427 C2227.86102321 389.47649098 2227.84952632 405.30557306 2227.83761705 421.13465622 C2227.83470443 425.0138741 2227.83183891 428.89309201 2227.82896667 432.77230992 C2227.82545566 437.50822274 2227.82193619 442.24413554 2227.81839207 446.98004833 C2227.80964308 458.68166805 2227.8012054 470.38328798 2227.79293435 482.08490805 C2227.79232441 482.94762817 2227.79171447 483.8103483 2227.79108605 484.69921146 C2227.78797312 489.10382922 2227.78486417 493.50844698 2227.78175662 497.91306474 C2227.75967289 529.20306878 2227.73706249 560.49307242 2227.71413987 591.78307585 C2227.69154499 622.62796753 2227.66919582 653.47285937 2227.64715379 684.31775145 C2227.64646098 685.28709367 2227.64576818 686.25643589 2227.64505438 687.25515212 C2227.63872381 696.11274761 2227.63239613 704.97034311 2227.6260719 713.82793861 C2227.61037293 735.81555739 2227.59463798 757.80317615 2227.57887834 779.79079489 C2227.57816188 780.79042276 2227.57744543 781.79005064 2227.57670726 782.81997027 C2227.54212427 831.0672307 2227.50712605 879.31449083 2227.4720897 927.56175093 C2227.45998058 944.23710493 2227.44787332 960.91245893 2227.43577379 977.58781294 C2227.43502304 978.62247583 2227.43427229 979.65713872 2227.43349879 980.72315503 C2227.39839291 1029.1088609 2227.36358934 1077.49456699 2227.3288579 1125.88027313 C2227.32657658 1129.05840658 2227.32429506 1132.23654003 2227.32201348 1135.41467349 C2227.29822632 1168.54913615 2227.27445349 1201.68359883 2227.25068685 1234.81806151 C2227.2500076 1235.7650357 2227.24932836 1236.71200988 2227.24862853 1237.68768026 C2227.2473926 1239.41077171 2227.24615669 1241.13386316 2227.2449208 1242.85695461 C2227.1304804 1402.40699143 2227.01481728 1561.95702735 2226.8993358 1721.50706343 C1800.8693358 1721.50706343 1374.8393358 1721.50706343 935.8993358 1721.50706343 C935.5868358 1313.38206343 935.5868358 1313.38206343 935.51139634 1184.42063765 C935.47484069 1146.33886374 935.47484069 1146.33886374 935.4343242 1108.25709395 C935.41517296 1090.15008298 935.40588531 1072.04309298 935.40138562 1053.93607339 C935.39655182 1035.46314633 935.38053985 1016.99025372 935.35385196 998.51734518 C935.3383198 987.54054183 935.3307909 976.56380625 935.33553412 965.58699253 C935.33785404 958.32805243 935.3292673 951.0691769 935.31200032 943.81025714 C935.30248826 939.68297813 935.29752243 935.5558419 935.30594211 931.4285572 C935.39988881 880.39602984 923.33715964 835.08548905 886.4720897 798.04514937 C855.72301448 767.9738712 816.48988777 754.06748726 774.14982408 752.41599897 C768.09810228 752.12185553 762.64764311 751.62325402 756.88761705 749.69065718 C735.80056814 742.68944951 714.13173307 742.92142815 692.18771724 742.98305945 C687.49681764 742.99173561 682.80597738 742.97697982 678.11509215 742.96535043 C669.91465234 742.9481736 661.71431184 742.94559545 653.51385873 742.95286612 C641.32032171 742.96360954 629.1268818 742.95132867 616.93335551 742.9344944 C596.41678802 742.9068134 575.90025141 742.89756024 555.38366693 742.89894728 C535.08076099 742.90025915 514.7778854 742.89329606 494.47498697 742.87537245 C492.57875657 742.87370537 492.57875657 742.87370537 490.64421849 742.87200461 C484.22376342 742.86631722 477.8033085 742.86048288 471.38285362 742.85459197 C425.95141812 742.81317172 380.51999513 742.79016431 335.08854478 742.77805952 C324.08834129 742.77512045 313.08813783 742.77211636 302.08793443 742.76884321 C301.40565236 742.76864026 300.72337029 742.76843731 300.020413 742.76822821 C268.27180465 742.75869517 236.52320536 742.73871321 204.77460398 742.71605509 C202.7121373 742.71458335 200.64967062 742.7131161 198.58720394 742.71164977 C184.91853095 742.70192473 171.24985809 742.69202001 157.58118532 742.68199501 C129.73854129 742.66157604 101.89589651 742.64229733 74.0532512 742.62370161 C72.77319748 742.62284528 71.49314377 742.62198895 70.17430054 742.62110667 C-15.25067843 742.5640891 -100.67567097 742.53350284 -186.1006642 742.50706343 C-186.15203949 686.41701254 -186.19979871 630.32695935 -186.22769362 574.23689131 C-186.22831488 572.99088652 -186.22831488 572.99088652 -186.22894869 571.71970991 C-186.23792823 553.66531277 -186.24623866 535.61091538 -186.25386019 517.55651762 C-186.25760207 508.70214221 -186.26149175 499.84776686 -186.26545912 490.99339155 C-186.2658514 490.11229318 -186.26624368 489.23119482 -186.26664784 488.3233965 C-186.27942293 459.7846336 -186.30195016 431.24588857 -186.32955587 402.70713649 C-186.35788194 373.37025816 -186.3763271 344.0333897 -186.38240917 314.69649792 C-186.38327359 310.54913853 -186.3842505 306.40177918 -186.38529593 302.25441984 C-186.3854982 301.43819152 -186.38570047 300.6219632 -186.38590887 299.78100069 C-186.38944861 286.66273607 -186.40334815 273.54450207 -186.4211603 260.42624991 C-186.43886212 247.22540755 -186.44555813 234.02459542 -186.44116834 220.82374161 C-186.43889342 212.98902539 -186.44490852 205.15442019 -186.46305683 197.3197241 C-186.47570754 191.45556485 -186.47250685 185.59148132 -186.46336089 179.72731336 C-186.46209901 177.36495997 -186.46585495 175.00259704 -186.47531375 172.64026224 C-186.53979302 155.5332193 -185.27031845 139.42007793 -180.3506642 122.94456343 C-180.09244887 122.06945112 -179.83423354 121.19433882 -179.5681935 120.29270796 C-171.81568957 94.72964469 -158.47060217 72.86431076 -140.1006642 53.50706343 C-139.65497084 53.03413862 -139.20927748 52.56121382 -138.75007827 52.07395796 C-101.60543867 12.90255182 -52.49083009 -0.1850342 0 0 Z " fill="#36C5CF" transform="translate(1088.1006642030552,-0.507063427940011)"/>
<path d="M0 0 C426.03 0 852.06 0 1291 0 C1291 284.13 1291 568.26 1291 861 C864.97 861 438.94 861 0 861 C0 576.87 0 292.74 0 0 Z " fill="#1A9BA1" transform="translate(2024,1721)"/>
<path d="M0 0 C497.32355212 0 497.32355212 0 537 9 C538.80857285 9.39462705 540.61716623 9.78916 542.42578125 10.18359375 C573.10830379 17.03085533 602.73715235 28.35774084 631 42 C631.89332031 42.42812988 632.78664063 42.85625977 633.70703125 43.29736328 C653.34065944 52.74695581 671.45060525 63.96534931 689.43798828 76.25244141 C691.44862958 77.623908 693.46928464 78.97698313 695.49609375 80.32421875 C709.82565509 90.34474888 722.38487383 104.18412968 733 118 C733.90759221 119.09955679 734.81935954 120.19567535 735.734375 121.2890625 C783.69247806 178.9916093 803.25187653 250.94538265 803.1875 324.6875 C803.18659363 326.59426514 803.18659363 326.59426514 803.18566895 328.53955078 C803.14278261 361.70637464 800.89983009 393.68117837 793 426 C792.74379883 427.0832959 792.74379883 427.0832959 792.48242188 428.18847656 C786.04323247 455.26396114 775.84422563 481.39709461 763.00048828 506.05957031 C761.98640824 508.02636098 761.00536451 510.00725319 760.02734375 511.9921875 C751.50887025 529.00280541 740.40310469 544.77691248 728.29638672 559.42724609 C727.02757642 560.96654476 725.78107167 562.52414335 724.53515625 564.08203125 C717.68864336 572.48246311 710.07332076 580.13814279 702.4375 587.8125 C701.64143341 588.61646713 701.64143341 588.61646713 700.82928467 589.43667603 C693.89180152 596.42729792 686.7664271 602.91973968 679 609 C678.27031006 609.57838623 677.54062012 610.15677246 676.78881836 610.75268555 C657.22191389 626.16670928 636.41341836 639.28009772 613.94189453 650.06152344 C612.03366109 650.98373231 610.13963811 651.93087208 608.24609375 652.8828125 C586.85841053 663.47411412 563.84307407 671.2217473 541 678 C539.97938477 678.30389648 538.95876953 678.60779297 537.90722656 678.92089844 C489.85714059 693.0214091 442.10391832 695.62974074 392.31590271 695.40512085 C386.32053904 695.38191813 380.32524309 695.38124591 374.32983398 695.37841797 C356.92818242 695.35763384 339.52658691 695.30178976 322.125 695.25 C283.14375 695.1675 244.1625 695.085 204 695 C204 820.4 204 945.8 204 1075 C136.68 1075 69.36 1075 0 1075 C0 720.25 0 365.5 0 0 Z " fill="#FEFEFE" transform="translate(581,1189)"/>
<path d="M0 0 C46.86 0 93.72 0 142 0 C142 928.62 142 1857.24 142 2814 C95.14 2814 48.28 2814 0 2814 C0 1885.38 0 956.76 0 0 Z " fill="#03767A" transform="translate(3316,314)"/>
<path d="M0 0 C20.13 0 40.26 0 61 0 C61.04663134 91.21570413 61.0926074 182.43141074 61.12702942 300.36479187 C61.12744777 301.8615904 61.12786613 303.35838894 61.12828448 304.85518747 C61.13705299 336.27504178 61.14520309 367.69489623 61.15263903 399.11475089 C61.15637515 414.89854812 61.16023007 430.68234533 61.16419732 446.46614251 C61.16479507 448.84703305 61.16538943 451.22792359 61.16598364 453.60881413 C61.17516098 490.26073672 61.18688248 526.91265632 61.20599365 563.5645752 C61.20640435 564.35231382 61.20681505 565.14005244 61.20723819 565.95166194 C61.2138751 578.65192162 61.22072601 591.35218118 61.22760532 604.05244073 C61.24742242 640.64383969 61.2656509 677.23523634 61.27341938 713.82664013 C61.27357999 714.5795011 61.27374059 715.33236207 61.27390606 716.108037 C61.27740378 732.63725287 61.28008815 749.16646876 61.28200295 765.69568488 C61.28278779 772.34701633 61.28368965 778.99834776 61.28463173 785.64967918 C61.28473201 786.37762733 61.28483229 787.10557547 61.28493561 787.85558265 C61.28822205 811.28972625 61.30102541 834.72385274 61.31884663 858.15798944 C61.33726167 882.43208513 61.3450383 906.70616133 61.34050413 930.98026399 C61.33822243 944.97131676 61.34430548 958.96230755 61.36239263 972.95334913 C61.37365444 982.30363936 61.37398239 991.65388907 61.36549544 1001.00418212 C61.36097296 1006.32909429 61.36113261 1011.65388935 61.37464955 1016.97878889 C61.38687708 1021.83278024 61.38502584 1026.68656416 61.37241993 1031.54055269 C61.370295 1033.27635184 61.37309026 1035.01216669 61.38170573 1036.74794576 C61.4519518 1051.87187776 59.80437203 1066.80826629 55.8125 1081.4375 C55.6060083 1082.20352539 55.3995166 1082.96955078 55.18676758 1083.75878906 C43.42429745 1125.4963134 15.88596146 1161.67573856 -22 1183 C-55.51377914 1201.15081043 -87.95103081 1204.47003246 -125.4062332 1204.36679858 C-130.39938377 1204.35640666 -135.39251571 1204.36362521 -140.38567042 1204.36853105 C-149.12147318 1204.37472664 -157.85721438 1204.36986495 -166.59300995 1204.35761642 C-179.58265245 1204.33945437 -192.57225645 1204.33861429 -205.56190934 1204.34124239 C-227.4162969 1204.34517742 -249.2706587 1204.33520718 -271.12503815 1204.31719017 C-292.75617859 1204.29939995 -314.38730779 1204.28786034 -336.01845551 1204.28463173 C-337.0275356 1204.28447688 -337.0275356 1204.28447688 -338.05700114 1204.28431889 C-344.20160416 1204.28337925 -350.34620718 1204.28251618 -356.49081022 1204.28174497 C-371.76302217 1204.27982721 -387.03523386 1204.27694951 -402.30744553 1204.27341938 C-403.00277333 1204.27325943 -403.69810114 1204.27309948 -404.41449949 1204.27293468 C-438.20700128 1204.26507729 -471.99949566 1204.24615756 -505.79199219 1204.22631836 C-517.51318354 1204.21944314 -529.23437491 1204.21261694 -540.95556641 1204.20599365 C-541.68255339 1204.2055828 -542.40954038 1204.20517196 -543.15855727 1204.20474866 C-576.97844054 1204.185703 -610.79832509 1204.17453532 -644.61821232 1204.16538927 C-646.81485227 1204.16479508 -649.01149223 1204.1641975 -651.20813218 1204.16359923 C-665.76584448 1204.15963975 -680.32355681 1204.15581583 -694.88126917 1204.15208265 C-723.8454753 1204.14465388 -752.80968118 1204.13642887 -781.77388693 1204.12765651 C-783.15311947 1204.12723879 -784.53235202 1204.12682163 -785.91158456 1204.12640502 C-828.37979924 1204.1135741 -870.84801132 1204.09715003 -913.31622314 1204.07695007 C-914.50215039 1204.0763874 -915.68807763 1204.07582473 -916.90994206 1204.075245 C-964.93996252 1204.05240173 -1012.96998101 1204.02571821 -1061 1204 C-1061 1131.4 -1061 1058.8 -1061 984 C-1033.61854004 983.98018066 -1006.23708008 983.96036133 -978.02587891 983.93994141 C-959.74231959 983.92641595 -941.45876035 983.91285704 -923.17520142 983.89883423 C-922.01368369 983.89794436 -920.85216596 983.8970545 -919.65545072 983.89613767 C-880.55377602 983.86614554 -841.45210409 983.83343163 -802.35043335 983.79867554 C-801.07428643 983.79754191 -799.7981395 983.79640829 -798.48332146 983.79524031 C-771.4242984 983.77118893 -744.36527571 983.74674045 -717.30625344 983.72181495 C-703.71300198 983.70929391 -690.11975044 983.69685131 -676.52649884 983.68448287 C-674.47604666 983.68261672 -672.42559449 983.68074833 -670.37514232 983.67887984 C-638.81233229 983.65013779 -607.24952193 983.62307463 -575.68670654 983.60089111 C-575.00841278 983.60041435 -574.33011902 983.59993759 -573.63127091 983.59944638 C-562.69561969 983.5917701 -551.75996837 983.58423512 -540.82431704 983.57671889 C-495.0631462 983.54526347 -449.30198546 983.50746866 -403.54082677 983.46109388 C-397.17284143 983.45464353 -390.80485603 983.44826741 -384.43687057 983.44193649 C-383.1835667 983.44068819 -381.93026283 983.43943988 -380.63898005 983.43815375 C-360.46887724 983.41825495 -340.29877553 983.40519938 -320.12866588 983.39470672 C-299.84810885 983.38401043 -279.56756836 983.36609555 -259.28702416 983.34083296 C-247.23984197 983.32604512 -235.19268509 983.31677135 -223.14549374 983.31543317 C-215.0921955 983.31399264 -207.03892572 983.30532132 -198.98564042 983.29084408 C-194.4007184 983.28280666 -189.81585223 983.27784326 -185.23092349 983.28172119 C-181.04955581 983.28519552 -176.86830322 983.27933708 -172.68695499 983.26641935 C-171.19351754 983.26337289 -169.70006854 983.26355714 -168.20663348 983.26760875 C-153.81697124 983.30311066 -139.37016374 982.27774793 -125.375 978.75 C-124.49948486 978.53384033 -123.62396973 978.31768066 -122.72192383 978.0949707 C-87.01704011 968.96782235 -54.80378112 947.6663846 -33 918 C-32.06607422 916.77410156 -32.06607422 916.77410156 -31.11328125 915.5234375 C-5.72712131 881.08347226 -0.5149199 841.77725979 -0.59826221 800.24072342 C-0.60346761 795.9657972 -0.5911234 791.69091257 -0.58113068 787.41599977 C-0.56602249 779.94436409 -0.56182511 772.47278615 -0.56500816 765.00113678 C-0.56969054 753.89129213 -0.55713345 742.78151234 -0.54117843 731.67168052 C-0.5148139 712.97809806 -0.50223019 694.28453041 -0.49761391 675.59093094 C-0.4930005 657.09303445 -0.48219249 638.59515849 -0.46318626 620.09727097 C-0.46141607 618.36937859 -0.46141607 618.36937859 -0.45961012 616.6065793 C-0.45358435 610.75605893 -0.44744864 604.90553868 -0.44127061 599.05501847 C-0.39775644 557.66054508 -0.36801811 516.26607218 -0.34643555 474.87158203 C-0.32544214 434.66779849 -0.29817501 394.46402717 -0.26245117 354.26025391 C-0.26135169 353.02009296 -0.26025222 351.77993202 -0.25911942 350.50219044 C-0.24807069 338.04751324 -0.23689482 325.59283615 -0.2256258 313.13815914 C-0.20267424 287.76856954 -0.1805711 262.39897922 -0.15898132 237.02938843 C-0.1579877 235.86304202 -0.15699409 234.69669562 -0.15597036 233.49500538 C-0.08976222 155.6633468 -0.04355807 77.8316741 0 0 Z " fill="#025E60" transform="translate(1963,1721)"/>
<path d="M0 0 C23.43 0 46.86 0 71 0 C71 928.29 71 1856.58 71 2813 C47.57 2813 24.14 2813 0 2813 C0 1884.71 0 956.42 0 0 Z " fill="#02696C" transform="translate(3316,314)"/>
<path d="M0 0 C92.54416762 -0.06827042 185.08833678 -0.13218259 277.63252258 -0.16937256 C279.01685637 -0.16993036 280.40119016 -0.17048817 281.78552394 -0.17104598 C310.84711234 -0.18273832 339.90870099 -0.19360501 368.97029005 -0.20351871 C383.57026713 -0.20850005 398.17024416 -0.21363993 412.77022114 -0.21892977 C414.97248528 -0.21972677 417.17474942 -0.22051924 419.37701357 -0.22131152 C453.26326888 -0.23354227 487.14951843 -0.24916012 521.0357666 -0.2746582 C522.12750553 -0.2754796 522.12750553 -0.2754796 523.2412998 -0.27631758 C534.97498445 -0.28516637 546.70866888 -0.29430107 558.44235328 -0.30347376 C592.26520856 -0.32991007 626.08805938 -0.35420992 659.91092396 -0.36455917 C660.95564815 -0.36488038 660.95564815 -0.36488038 662.02147788 -0.36520808 C677.31604457 -0.36987263 692.61061131 -0.37345136 707.90517849 -0.37600393 C714.06048678 -0.37705032 720.21579504 -0.37825282 726.37110329 -0.37950897 C727.04474803 -0.37964268 727.71839277 -0.37977639 728.41245099 -0.37991415 C750.06775828 -0.38428991 771.72303253 -0.40133998 793.37832651 -0.42512883 C815.82689361 -0.44972888 838.27542598 -0.46003906 860.7240065 -0.45400551 C873.65096606 -0.45097178 886.57780601 -0.45899716 899.50474389 -0.48319017 C908.15849965 -0.49827373 916.81217777 -0.49859606 925.46593906 -0.48732725 C930.38485378 -0.48133233 935.30354354 -0.48136304 940.22243341 -0.49953273 C1000.303781 -0.70802988 1057.98600184 12.41954115 1105 52 C1105.8669751 52.71687988 1105.8669751 52.71687988 1106.75146484 53.44824219 C1119.05277099 63.62054059 1130.16285058 74.39452003 1140 87 C1141.20076172 88.49273438 1141.20076172 88.49273438 1142.42578125 90.015625 C1174.37159379 130.07277657 1192.22731831 182.04181802 1192.12304783 233.17538738 C1192.12378882 234.58836452 1192.12496883 236.00134148 1192.12654433 237.41431794 C1192.12959822 241.28622717 1192.12645087 245.15810993 1192.12226619 249.03001718 C1192.11881984 253.24634506 1192.1212051 257.46267036 1192.12284368 261.67899877 C1192.12491429 269.06482667 1192.12327898 276.4506465 1192.11920547 283.83647346 C1192.11316518 294.81889236 1192.11287016 305.80130618 1192.11374746 316.78372643 C1192.11506081 335.25878026 1192.11172206 353.7338305 1192.10573006 372.20888329 C1192.09981261 390.50094813 1192.09596402 408.79301149 1192.09487724 427.08507729 C1192.0948085 428.22251186 1192.09473976 429.35994643 1192.09466894 430.53184871 C1192.09433061 436.30832704 1192.09402922 442.08480537 1192.09374207 447.8612837 C1192.09164177 488.7738158 1192.08490474 529.68634595 1192.07543945 570.59887695 C1192.06625479 610.34431956 1192.05917129 650.08976163 1192.05493164 689.83520508 C1192.05480011 691.06037819 1192.05466859 692.28555131 1192.05453308 693.54785088 C1192.05321455 705.8515664 1192.05193874 718.15528192 1192.05069422 730.45899744 C1192.04815802 755.52298339 1192.04533677 780.5869693 1192.04234314 805.6509552 C1192.04220585 806.80335142 1192.04206856 807.95574763 1192.04192711 809.14306495 C1192.03479831 868.76886457 1192.02343744 928.39466329 1192.0111084 988.02046204 C1192.01084829 989.27860032 1192.01084829 989.27860032 1192.01058293 990.56215553 C1192.00716839 1007.04143704 1192.00356628 1023.52071852 1192 1040 C1168.9 1040 1145.8 1040 1122 1040 C1121.99413376 1029.78835907 1121.98826752 1019.57671814 1121.98222351 1009.05563354 C1121.97814104 1002.12694801 1121.97404484 995.1982625 1121.96986389 988.26957703 C1121.96904933 986.91944857 1121.96904933 986.91944857 1121.96821831 985.5420448 C1121.93219487 925.92427496 1121.89261577 866.30650984 1121.84101868 806.68875122 C1121.83952533 804.96144453 1121.83952533 804.96144453 1121.83800181 803.19924276 C1121.81634187 778.17154719 1121.79401907 753.14385225 1121.77101372 728.11615788 C1121.75973548 715.84208714 1121.74860367 703.56801626 1121.73754883 691.29394531 C1121.73589498 689.46184611 1121.73589498 689.46184611 1121.73420772 687.59273481 C1121.69855694 648.02353119 1121.67257035 608.45432841 1121.65161031 568.88511451 C1121.63001499 528.21315209 1121.59864007 487.5412086 1121.55500887 446.86926356 C1121.54884688 441.12096346 1121.54279636 435.37266324 1121.53681374 429.62436295 C1121.53563285 428.49304601 1121.53445197 427.36172907 1121.53323531 426.1961298 C1121.51453412 408.00549972 1121.50610265 389.81487877 1121.50153876 371.62424026 C1121.49672725 353.32413283 1121.48103183 335.0240601 1121.45433434 316.72397129 C1121.43881245 305.85960582 1121.43152794 294.99530887 1121.43623071 284.13093293 C1121.43855299 276.86095641 1121.42993703 269.59104434 1121.41267589 262.32108811 C1121.40316563 258.18682369 1121.39817419 254.0527017 1121.40660437 249.91843162 C1121.50054365 198.88713381 1109.43678905 153.57738591 1072.57275391 116.53808594 C1041.82367868 86.46680778 1002.59055197 72.56042383 960.25048828 70.90893555 C954.19876649 70.61479211 948.74830731 70.11619059 942.98828125 68.18359375 C921.90123234 61.18238608 900.23239727 61.41436472 878.28838145 61.47599602 C873.59748184 61.48467218 868.90664158 61.46991639 864.21575636 61.458287 C856.01531655 61.44111017 847.81497604 61.43853202 839.61452293 61.44580269 C827.42098592 61.45654611 815.22754601 61.44426524 803.03401972 61.42743097 C782.51745222 61.39974998 762.00091561 61.39049681 741.48433113 61.39188385 C721.18142519 61.39319572 700.8785496 61.38623263 680.57565117 61.36830902 C679.31149757 61.36719763 678.04734397 61.36608624 676.74488269 61.36494118 C670.32442762 61.3592538 663.9039727 61.35341945 657.48351782 61.34752855 C612.05208233 61.30610829 566.62065934 61.28310088 521.18920898 61.27099609 C510.18900549 61.26805702 499.18880203 61.26505293 488.18859863 61.26177979 C487.50631656 61.26157683 486.82403449 61.26137388 486.12107721 61.26116478 C454.37246886 61.25163175 422.62386956 61.23164978 390.87526819 61.20899166 C388.81280151 61.20751992 386.75033483 61.20605268 384.68786815 61.20458635 C371.01919515 61.1948613 357.35052229 61.18495658 343.68184952 61.17493158 C315.83920549 61.15451261 287.99656071 61.1352339 260.15391541 61.11663818 C258.87386169 61.11578185 257.59380797 61.11492553 256.27496475 61.11404325 C170.84998558 61.05702568 85.42499328 61.02674567 0 61 C0 40.87 0 20.74 0 0 Z " fill="#32B3BC" transform="translate(902,681)"/>
<path d="M0 0 C51.4490625 -0.0928125 51.4490625 -0.0928125 103.9375 -0.1875 C114.7255835 -0.21481201 125.51366699 -0.24212402 136.62866211 -0.27026367 C149.90930176 -0.28381348 149.90930176 -0.28381348 156.14723206 -0.28633118 C160.45868156 -0.28910063 164.7700177 -0.30023985 169.08143616 -0.31672668 C215.93388542 -0.48805964 215.93388542 -0.48805964 236 3 C237.36469809 3.22288603 238.72948745 3.4452144 240.09439087 3.6668396 C243.08092542 4.17178431 246.03714268 4.74722524 249 5.375 C250.54820435 5.69633911 250.54820435 5.69633911 252.12768555 6.02416992 C280.99439226 12.16989785 308.07649906 23.16822073 331 42 C331.55558594 42.45632813 332.11117188 42.91265625 332.68359375 43.3828125 C355.20769614 62.21714751 369.30942782 89.0369617 377 117 C377.28488281 118.02738281 377.56976562 119.05476563 377.86328125 120.11328125 C382.71388162 139.29180888 383.58538995 158.89064896 383.93261719 178.58154297 C383.99066833 181.52658667 384.08407208 184.46677957 384.1953125 187.41015625 C384.74824773 205.97537542 382.14588776 225.4432473 376 243 C375.77505859 243.68336426 375.55011719 244.36672852 375.31835938 245.07080078 C360.45956305 290.14705692 332.24856946 320.82076807 290.609375 342.28125 C251.24438306 362.02696598 211.9479846 364.62116771 168.79981995 364.40512085 C163.43367629 364.38203962 158.06761 364.38125225 152.70141602 364.37841797 C137.0925659 364.35757575 121.48377831 364.30173093 105.875 364.25 C70.93625 364.1675 35.9975 364.085 0 364 C0 243.88 0 123.76 0 0 Z " fill="#03858A" transform="translate(785,1356)"/>
<path d="M0 0 C21.45 0 42.9 0 65 0 C65.061875 9.03375 65.12375 18.0675 65.1875 27.375 C65.21481201 30.18692871 65.24212402 32.99885742 65.27026367 35.89599609 C65.34643358 49.2472858 64.9684073 61.95803951 62 75 C61.78077881 75.99531738 61.56155762 76.99063477 61.33569336 78.01611328 C60.74757373 80.49407569 60.09101548 82.93122466 59.375 85.375 C59.12339111 86.23947754 58.87178223 87.10395508 58.61254883 87.99462891 C45.87641098 129.84139701 16.16209838 163.4237107 -22 184 C-22.92683594 184.52207031 -23.85367187 185.04414063 -24.80859375 185.58203125 C-47.94860636 198.02183945 -74.35431022 202.16882885 -100.28751469 202.12304783 C-101.9556804 202.12378806 -103.62384598 202.12496727 -105.29201111 202.12654433 C-109.88178371 202.12961026 -114.47153413 202.12644077 -119.06130507 202.12226619 C-124.05233395 202.11882992 -129.04336059 202.12120319 -134.03438991 202.12284368 C-142.78351238 202.12491742 -151.53262805 202.12327363 -160.28174973 202.11920547 C-173.29139661 202.11317306 -186.30103921 202.11286943 -199.31068724 202.11374746 C-221.19446192 202.11506177 -243.07823374 202.11172568 -264.96200752 202.10573006 C-286.63294044 202.09980694 -308.30387211 202.09595484 -329.97480583 202.09487724 C-330.64790442 202.09484283 -331.32100301 202.09480842 -332.01449853 202.09477296 C-338.16224746 202.09445976 -344.3099964 202.09417207 -350.45774533 202.09391499 C-365.74013284 202.09327561 -381.02252032 202.09231629 -396.3049078 202.09113979 C-397.0008221 202.09108648 -397.6967364 202.09103316 -398.41373901 202.09097823 C-432.26321254 202.08835691 -466.11268525 202.08204944 -499.9621582 202.07543945 C-511.70819091 202.07314779 -523.45422362 202.07087242 -535.20025635 202.06866455 C-536.29299649 202.06845913 -536.29299649 202.06845913 -537.40781218 202.06824955 C-571.27580293 202.06190507 -605.14379382 202.05817975 -639.011785 202.05512976 C-641.21061278 202.05493169 -643.40944056 202.0547325 -645.60826834 202.05453308 C-660.18005648 202.05321329 -674.75184463 202.05193864 -689.32363278 202.05069422 C-718.3176929 202.04821774 -747.31175299 202.04547606 -776.30581306 202.04255217 C-777.6865752 202.04241293 -779.06733734 202.04227388 -780.44809948 202.04213501 C-851.77059629 202.03496007 -923.09309229 202.02355622 -994.41558838 202.0111084 C-995.40931111 202.01093499 -996.40303383 202.01076159 -997.42686937 202.01058293 C-1016.95124627 202.00716832 -1036.47562313 202.00356626 -1056 202 C-1056 175.93 -1056 149.86 -1056 123 C-1044.67700592 122.99191315 -1033.35401184 122.98382629 -1021.68789673 122.97549438 C-1014.00544737 122.96993963 -1006.32299802 122.96437575 -998.64054871 122.95875549 C-997.14356648 122.95766044 -997.14356648 122.95766044 -995.61634219 122.95654326 C-929.52770223 122.90816243 -863.43906501 122.85741939 -797.35043335 122.79867554 C-796.07428643 122.79754191 -794.7981395 122.79640829 -793.48332146 122.79524031 C-766.4242984 122.77118893 -739.36527571 122.74674045 -712.30625344 122.72181495 C-698.71300198 122.70929391 -685.11975044 122.69685131 -671.52649884 122.68448287 C-669.47604666 122.68261672 -667.42559449 122.68074833 -665.37514232 122.67887984 C-633.81233229 122.65013779 -602.24952193 122.62307463 -570.68670654 122.60089111 C-570.00841278 122.60041435 -569.33011902 122.59993759 -568.63127091 122.59944638 C-557.69561969 122.5917701 -546.75996837 122.58423512 -535.82431704 122.57671889 C-490.0631462 122.54526347 -444.30198546 122.50746866 -398.54082677 122.46109388 C-392.17284143 122.45464353 -385.80485603 122.44826741 -379.43687057 122.44193649 C-377.55691477 122.44006404 -377.55691477 122.44006404 -375.63898005 122.43815375 C-355.46887724 122.41825495 -335.29877553 122.40519938 -315.12866588 122.39470672 C-294.84810885 122.38401043 -274.56756836 122.36609555 -254.28702416 122.34083296 C-242.23984197 122.32604512 -230.19268509 122.31677135 -218.14549374 122.31543317 C-210.0921955 122.31399264 -202.03892572 122.30532132 -193.98564042 122.29084408 C-189.4007184 122.28280666 -184.81585223 122.27784326 -180.23092349 122.28172119 C-176.04955581 122.28519552 -171.86830322 122.27933708 -167.68695499 122.26641935 C-166.19351754 122.26337289 -164.70006854 122.26355714 -163.20663348 122.26760875 C-148.81697124 122.30311066 -134.37016374 121.27774793 -120.375 117.75 C-119.49948486 117.53384033 -118.62396973 117.31768066 -117.72192383 117.0949707 C-82.01704011 107.96782235 -49.80378112 86.6663846 -28 57 C-27.37738281 56.18273438 -26.75476562 55.36546875 -26.11328125 54.5234375 C-16.20549106 41.08209976 -9.45726178 26.21867598 -3.91625977 10.55029297 C-2.64790605 7.01999109 -1.317146 3.51238934 0 0 Z " fill="#024647" transform="translate(1958,2582)"/>
<path d="M0 0 C-2.37504787 23.41118614 -13.41140134 47.02060614 -27 66 C-27.59820557 66.83942139 -27.59820557 66.83942139 -28.20849609 67.69580078 C-53.57420147 102.74459715 -92.4777002 126.47875743 -135.13322067 133.62588978 C-151.04318211 136.09353719 -167.35196979 135.41104727 -183.4062332 135.36679858 C-188.39938377 135.35640666 -193.39251571 135.36362521 -198.38567042 135.36853105 C-207.12147318 135.37472664 -215.85721438 135.36986495 -224.59300995 135.35761642 C-237.58265245 135.33945437 -250.57225645 135.33861429 -263.56190934 135.34124239 C-285.4162969 135.34517742 -307.2706587 135.33520718 -329.12503815 135.31719017 C-350.75617859 135.29939995 -372.38730779 135.28786034 -394.01845551 135.28463173 C-395.0275356 135.28447688 -395.0275356 135.28447688 -396.05700114 135.28431889 C-402.20160416 135.28337925 -408.34620718 135.28251618 -414.49081022 135.28174497 C-429.76302217 135.27982721 -445.03523386 135.27694951 -460.30744553 135.27341938 C-461.00277333 135.27325943 -461.69810114 135.27309948 -462.41449949 135.27293468 C-496.20700128 135.26507729 -529.99949566 135.24615756 -563.79199219 135.22631836 C-575.51318354 135.21944314 -587.23437491 135.21261694 -598.95556641 135.20599365 C-599.68255339 135.2055828 -600.40954038 135.20517196 -601.15855727 135.20474866 C-634.97844054 135.185703 -668.79832509 135.17453532 -702.61821232 135.16538927 C-704.81485227 135.16479508 -707.01149223 135.1641975 -709.20813218 135.16359923 C-723.76584448 135.15963975 -738.32355681 135.15581583 -752.88126917 135.15208265 C-781.8454753 135.14465388 -810.80968118 135.13642887 -839.77388693 135.12765651 C-841.15311947 135.12723879 -842.53235202 135.12682163 -843.91158456 135.12640502 C-935.60772946 135.09870087 -1027.30386529 135.05080645 -1119 135 C-1119 111.57 -1119 88.14 -1119 64 C-1113.99723404 63.99761165 -1108.99446808 63.99522329 -1103.84010315 63.99276257 C-1016.27865072 63.9506187 -928.71720134 63.90466426 -841.15576172 63.84101868 C-839.77073067 63.84001305 -838.38569963 63.83900743 -837.00066859 63.83800181 C-807.92554908 63.81687815 -778.85043007 63.7951407 -749.77531156 63.77269462 C-735.16891335 63.7614191 -720.56251504 63.75026146 -705.95611665 63.73921531 C-703.75286011 63.73754841 -701.54960357 63.73587813 -699.34634703 63.73420772 C-665.4378701 63.70852945 -631.52939375 63.68537233 -597.62091064 63.66955566 C-596.52814497 63.66904587 -596.52814497 63.66904587 -595.41330322 63.66852577 C-583.66830372 63.6630619 -571.92330412 63.65781051 -560.17830451 63.65258733 C-526.32999163 63.63753125 -492.48168283 63.62089196 -458.63337708 63.59387684 C-457.93662661 63.59332151 -457.23987614 63.59276618 -456.52201202 63.59219403 C-441.22294616 63.57997208 -425.92388111 63.56694289 -410.62481659 63.55315043 C-404.46804797 63.54761417 -398.31127925 63.542194 -392.1545105 63.53681374 C-391.48069862 63.53622211 -390.80688674 63.53563048 -390.11265632 63.53502092 C-368.43852466 63.51604794 -346.76440156 63.50650758 -325.09026245 63.50196405 C-302.62965517 63.49721095 -280.16907795 63.48186278 -257.70848662 63.45433434 C-244.76939762 63.43880407 -231.83036619 63.43153081 -218.8912684 63.43623071 C-210.23578913 63.43855098 -201.58036407 63.42995086 -192.92490188 63.41267589 C-188.00094648 63.403155 -183.07711087 63.39818738 -178.15315068 63.40660437 C-154.23425153 63.44369409 -130.58621239 63.2327471 -107.25 57.25 C-106.22108643 56.99323486 -105.19217285 56.73646973 -104.13208008 56.47192383 C-67.76107245 47.12692728 -30.14530399 29.03330992 -3.76953125 1.6875 C-2 0 -2 0 0 0 Z " fill="#02696C" transform="translate(2021,2790)"/>
<path d="M0 0 C23.1 0 46.2 0 70 0 C70 283.8 70 567.6 70 860 C46.9 860 23.8 860 0 860 C0 576.2 0 292.4 0 0 Z " fill="#178C91" transform="translate(2024,1722)"/>
<path d="M0 0 C46.58257984 -1.84960244 87.12266352 16.34430923 121.203125 46.98046875 C127.53222518 53.01369636 132.80742173 59.99084588 138 67 C138.43103027 67.58136719 138.86206055 68.16273438 139.30615234 68.76171875 C159.80977245 96.86833699 169.19341539 130.52888995 169.12304783 165.02110481 C169.1237886 166.4295056 169.12496838 167.8379062 169.12654433 169.2463063 C169.12960167 173.11017121 169.12644796 176.97400964 169.12226619 180.83787257 C169.11882274 185.04374192 169.12120455 189.24960867 169.12284368 193.45547855 C169.12491519 200.82449443 169.12327744 208.19350223 169.11920547 215.56251717 C169.11316745 226.51995289 169.11286995 237.47738353 169.11374746 248.43482062 C169.11506108 266.86746908 169.11172101 285.30011396 169.10573006 303.73276138 C169.09981334 321.98378645 169.09596417 340.23481001 169.09487724 358.48583603 C169.0948085 359.62056665 169.09473976 360.75529726 169.09466894 361.92441365 C169.09433061 367.68712085 169.09402922 373.44982805 169.09374207 379.21253525 C169.09164157 420.03133962 169.08490398 460.85014204 169.07543945 501.66894531 C169.06625532 541.32421864 169.05917156 580.97949144 169.05493164 620.63476562 C169.05480011 621.85708216 169.05466859 623.07939869 169.05453308 624.33875511 C169.05321456 636.61374345 169.05193874 648.88873179 169.05069422 661.16372013 C169.04815799 686.16935796 169.04533674 711.17499576 169.04234314 736.18063354 C169.0421372 737.90521734 169.0421372 737.90521734 169.04192711 739.66464121 C169.03272622 816.44309496 169.01680415 893.22154758 169 970 C148.87 970 128.74 970 108 970 C107.99503478 963.61483961 107.99503478 963.61483961 107.98996925 957.10068607 C107.9318139 882.60609516 107.871126 808.11150664 107.79867554 733.6169281 C107.79754191 732.45060265 107.79640829 731.2842772 107.79524031 730.08260855 C107.77058842 704.73474143 107.74549553 679.38687476 107.71994839 654.03900853 C107.70742262 641.60828116 107.6949943 629.17755369 107.68261719 616.74682617 C107.68138386 615.50982448 107.68015054 614.27282279 107.67887984 612.99833621 C107.63895551 572.909166 107.60546475 532.81999357 107.57531309 492.73081492 C107.54429234 451.53131101 107.50677546 410.331818 107.46109388 369.13232761 C107.45464355 363.31215074 107.44826743 357.4919738 107.44193649 351.6717968 C107.44068819 350.52631124 107.43943988 349.38082568 107.43815375 348.20062844 C107.41825657 329.76725661 107.40520001 311.33388598 107.39470672 292.90050665 C107.38400927 274.36524923 107.3660928 255.83000989 107.34083296 237.29476649 C107.32604747 226.28494712 107.31677159 215.27515541 107.31543317 204.26532601 C107.31399227 196.90478009 107.3053179 189.5442653 107.29084408 182.18373354 C107.28280931 177.99365911 107.27784148 173.80364575 107.28172119 169.61356396 C107.57203426 141.7622555 107.57203426 141.7622555 102.75 114.4375 C102.53384033 113.65141357 102.31768066 112.86532715 102.0949707 112.05541992 C95.37240371 88.27359023 84.23215901 66.69672766 68 48 C67.29230469 47.16984375 66.58460937 46.3396875 65.85546875 45.484375 C47.81913052 24.81570633 25.41846362 10.84734668 0 1 C0 0.67 0 0.34 0 0 Z " fill="#1F7278" transform="translate(1855,751)"/>
<path d="M0 0 C20.13 0 40.26 0 61 0 C61 284.13 61 568.26 61 861 C39.22 861 17.44 861 -5 861 C-3.515 851.595 -3.515 851.595 -2 842 C-0.96215923 833.89935167 -0.85495544 825.93851931 -0.8613348 817.77586937 C-0.85888353 816.34529753 -0.85599853 814.91472638 -0.85272202 813.48415619 C-0.84498283 809.55873959 -0.8433816 805.63334103 -0.8427946 801.70791773 C-0.84106087 797.43531483 -0.8335729 793.16272134 -0.82681805 788.89012396 C-0.81577349 781.40395115 -0.80839414 773.91778169 -0.80341911 766.43160248 C-0.79600482 755.29994548 -0.78291974 744.16830018 -0.76867336 733.03665008 C-0.74486869 714.31100051 -0.72566204 695.58534886 -0.70907402 676.85969162 C-0.69263429 658.3183908 -0.67415207 639.77709388 -0.65294075 621.23579788 C-0.65162314 620.08304476 -0.65030554 618.93029163 -0.648948 617.7426066 C-0.64224594 611.88837878 -0.63550737 606.03415101 -0.62875474 600.17992325 C-0.58098905 558.71223776 -0.53780478 517.24454864 -0.49731445 475.77685547 C-0.45796767 435.49104549 -0.41654589 395.20523852 -0.37231445 354.91943359 C-0.37095192 353.67769434 -0.36958939 352.43595508 -0.36818558 351.15658736 C-0.35450023 338.68655478 -0.34077269 326.21652224 -0.32701423 313.74648974 C-0.29898753 288.34349546 -0.27124243 262.94050088 -0.2436676 237.5375061 C-0.2423994 236.36951222 -0.2411312 235.20151833 -0.23982458 233.9981307 C-0.15516572 155.99875867 -0.07714718 77.99937976 0 0 Z " fill="#0F5A5D" transform="translate(1963,1721)"/>
<path d="M0 0 C23.1 0 46.2 0 70 0 C70.66598874 77.03269738 57.4552931 142.14570108 4.3125 200.5 C3.5546521 201.33760864 3.5546521 201.33760864 2.78149414 202.19213867 C1.56397924 203.50271204 0.28704003 204.75763409 -1 206 C-1.66 206 -2.32 206 -3 206 C-2.85932413 205.21229155 -2.71864826 204.42458309 -2.57370949 203.61300468 C-0.89807611 193.28864197 -0.69303094 183.22119778 -0.68115234 172.78564453 C-0.67183422 170.89197369 -0.66166281 168.99830688 -0.65071106 167.10464478 C-0.6236092 162.00647137 -0.60832099 156.90832528 -0.59528303 151.81009912 C-0.579565 146.46629388 -0.5528028 141.12254372 -0.5272522 135.77877808 C-0.48061705 125.67863131 -0.44379944 115.57847401 -0.41057932 105.47827518 C-0.37224958 93.97148467 -0.32286812 82.4647497 -0.27259517 70.95800614 C-0.16950252 47.30537348 -0.08162746 23.65271715 0 0 Z " fill="#03767A" transform="translate(2024,2582)"/>
</svg>
