<?xml version="1.0" encoding="UTF-8"?>
<svg version="1.1" xmlns="http://www.w3.org/2000/svg" width="500" height="475">
<path d="M0 0 C3.96037056 1.32012352 4.21906837 2.75575384 6.1171875 6.4140625 C6.71740723 7.55584961 7.31762695 8.69763672 7.93603516 9.87402344 C8.25179504 10.48499878 8.56755493 11.09597412 8.8928833 11.72546387 C10.55992576 14.94973182 12.25841417 18.15740227 13.953125 21.3671875 C14.2953006 22.01723755 14.6374762 22.6672876 14.99002075 23.33703613 C18.08771652 29.20693547 21.33030241 34.9884616 24.625 40.75 C29.65137786 49.56292098 34.52568521 58.44876226 39.34082031 67.37866211 C43.69047906 75.44261404 48.11720433 83.46017841 52.58349609 91.45996094 C54.82045997 95.47122812 57.05043794 99.48634416 59.27563477 103.50415039 C60.55318478 105.79838943 61.84151129 108.08665972 63.14038086 110.36889648 C66.17234943 115.72568758 69.08635333 121.04621392 71.60124207 126.66731262 C72.44902689 128.54949545 73.33137969 130.41132526 74.22583008 132.27172852 C75.32827572 134.59250946 76.36553815 136.94596523 77.3190918 139.33178711 C79.45041017 143.67034282 81.51472189 147.06339283 86.13084507 148.80303478 C88.82530505 149.46098201 91.51554942 149.97069684 94.2487793 150.44287109 C95.29578821 150.64211811 96.34279713 150.84136513 97.42153358 151.04664993 C99.72217422 151.48275076 102.02459321 151.90954584 104.32845497 152.32829666 C108.08594244 153.01572303 111.83563519 153.73655208 115.58500671 154.46688843 C123.33243394 155.97505619 131.08555552 157.45237764 138.83959341 158.92612362 C142.72130264 159.66451502 146.60246977 160.40574437 150.4836731 161.14678955 C161.95496949 163.33652719 173.42699138 165.52245456 184.89935303 167.706604 C193.88475086 169.41729323 202.86990385 171.12924349 211.85426438 172.84537339 C216.45952517 173.72488904 221.06529799 174.60165636 225.67147708 175.47634935 C228.51808447 176.01753258 231.36421805 176.56117471 234.21022224 177.10552025 C236.16300413 177.47824882 238.11635452 177.84799501 240.06971741 178.21766663 C241.80140923 178.54966316 241.80140923 178.54966316 243.56808472 178.8883667 C244.57485197 179.0800581 245.58161922 179.2717495 246.61889458 179.46924973 C249 180 249 180 251 181 C249.68212697 183.89529722 248.24349036 186.03026052 246.05078125 188.328125 C245.4578125 188.95460937 244.86484375 189.58109375 244.25390625 190.2265625 C243.61324219 190.89429688 242.97257812 191.56203125 242.3125 192.25 C240.94388741 193.69259165 239.5754013 195.13530329 238.20703125 196.578125 C237.15636475 197.68124023 237.15636475 197.68124023 236.08447266 198.80664062 C232.87149611 202.18745362 229.68638094 205.59414465 226.5 209 C225.24884425 210.3347726 223.99754173 211.66940763 222.74609375 213.00390625 C220.25865964 215.65712612 217.77172001 218.31080819 215.28515625 220.96484375 C208.19386414 228.53286138 201.09282759 236.09156751 193.98291016 243.64208984 C187.59808647 250.42392953 181.22725827 257.21882747 174.85888672 264.01611328 C172.36487688 266.67783169 169.87013495 269.33886321 167.37524414 271.99975586 C166.13074586 273.32720989 164.88644067 274.65484497 163.64233398 275.98266602 C160.42189905 279.41940197 157.19804988 282.85284108 153.96875 286.28125 C153.30423828 286.98765625 152.63972656 287.6940625 151.95507812 288.421875 C150.69969424 289.75626906 149.44327239 291.0896878 148.18554688 292.421875 C147.02769176 293.65347061 145.88096114 294.89562777 144.74609375 296.1484375 C143 298 143 298 140.97265625 299.7890625 C138.03587191 302.56883064 136.07320516 304.56685717 135.86047268 308.73153687 C135.97132733 309.75002716 136.08218199 310.76851746 136.19639587 311.81787109 C136.31568388 312.97313293 136.43497189 314.12839478 136.55787468 315.31866455 C136.70377604 316.53350525 136.84967739 317.74834595 137 319 C137.13447603 320.18148621 137.26895206 321.36297241 137.40750313 322.58026123 C137.86677315 326.47600924 138.35855926 330.36703192 138.85766602 334.2578125 C139.04528438 335.73924767 139.23261305 337.22071955 139.41967773 338.70222473 C139.81946191 341.86379853 140.22118066 345.02511799 140.62445259 348.18624878 C141.2623164 353.18695823 141.89528852 358.1882797 142.52757263 363.18969727 C143.86881584 373.79360597 145.21540857 384.3968329 146.5625 395 C148.02066118 406.47776443 149.47785326 417.95564753 150.92904419 429.43429565 C151.55765129 434.40500944 152.18927878 439.37532718 152.8232404 444.34536076 C153.21632458 447.43188166 153.60684279 450.51872328 153.99666595 453.60565758 C154.17778779 455.03565878 154.35998007 456.46552487 154.54332542 457.89524269 C154.79355674 459.84768374 155.03959017 461.80066144 155.28541565 463.75366211 C155.42422936 464.84569443 155.56304308 465.93772675 155.70606327 467.06285095 C155.97347197 469.73491987 156.05679313 472.31735512 156 475 C151.4865831 474.35792848 147.68422417 472.60602303 143.62109375 470.640625 C142.9056691 470.30025208 142.19024445 469.95987915 141.45314026 469.60919189 C139.91478247 468.87658043 138.37762251 468.14144942 136.84155273 467.40405273 C133.57854157 465.83766157 130.30985773 464.28328363 127.04141235 462.72827148 C125.38338501 461.9393344 123.72565059 461.14978143 122.06820679 460.35961914 C115.06781267 457.02399502 108.04032522 453.75058533 101 450.5 C89.53242127 445.19604565 78.10557708 439.80892881 66.68508911 434.40454102 C55.31626518 429.02559363 43.93064821 423.68577373 32.50927734 418.41918945 C27.40166355 416.06098687 22.31130353 413.67957761 17.26171875 411.19921875 C16.38588135 410.77189453 15.51004395 410.34457031 14.60766602 409.90429688 C13.01848902 409.12541418 11.43383279 408.33719561 9.85522461 407.53710938 C9.16307861 407.19873047 8.47093262 406.86035156 7.7578125 406.51171875 C7.1714502 406.21740967 6.58508789 405.92310059 5.98095703 405.61987305 C0.72119487 403.97400959 -3.17022629 405.21256812 -7.9453125 407.60546875 C-9.6617395 408.45214111 -9.6617395 408.45214111 -11.4128418 409.31591797 C-12.01639496 409.62027771 -12.61994812 409.92463745 -13.24179077 410.23822021 C-15.8253827 411.54054582 -18.42181746 412.81624559 -21.01792908 414.09338379 C-22.36429139 414.7558044 -23.71004043 415.41947287 -25.05519104 416.08435059 C-31.54952682 419.28951961 -38.10936893 422.345823 -44.6875 425.375 C-55.10423687 430.18568149 -65.49654927 435.04490818 -75.875 439.9375 C-89.12562708 446.18189413 -102.38728188 452.40181234 -115.66796875 458.58203125 C-120.11134367 460.65009616 -124.5500929 462.72734081 -128.98327637 464.81715393 C-131.59189554 466.04608356 -134.20256372 467.27061989 -136.8135376 468.49453735 C-138.05208902 469.07645846 -139.28969885 469.66038833 -140.52630615 470.24642944 C-142.22732092 471.05230361 -143.93193679 471.85056353 -145.63671875 472.6484375 C-146.60311279 473.10395996 -147.56950684 473.55948242 -148.56518555 474.02880859 C-151 475 -151 475 -154 475 C-152.52703942 458.76251949 -150.49275262 442.6010598 -148.42444801 426.43114281 C-147.8198172 421.70243498 -147.22075684 416.97303101 -146.62272644 412.2434845 C-144.92382314 398.81239367 -143.22166479 385.38173059 -141.50512695 371.95288086 C-140.55226851 364.49810148 -139.60600865 357.04251591 -138.66716403 349.5859583 C-138.17201375 345.65565081 -137.67346043 341.72584249 -137.16666603 337.79701805 C-136.69170306 334.11487986 -136.22535579 330.43175238 -135.76553154 326.74769402 C-135.51514517 324.76006757 -135.25555791 322.7736069 -134.9956665 320.78720093 C-133.4361195 311.08964623 -133.4361195 311.08964623 -136.28759766 302.04711914 C-136.82433105 301.54817139 -137.36106445 301.04922363 -137.9140625 300.53515625 C-138.50687012 299.96684082 -139.09967773 299.39852539 -139.71044922 298.81298828 C-140.34225098 298.23532715 -140.97405273 297.65766602 -141.625 297.0625 C-142.91322255 295.83387839 -144.19970111 294.60342544 -145.484375 293.37109375 C-146.40573242 292.49686768 -146.40573242 292.49686768 -147.34570312 291.60498047 C-149.88303192 289.14329224 -152.14775572 286.48380606 -154.4296875 283.7890625 C-156.82826092 281.05635945 -159.44145935 278.54994772 -162.03125 276 C-164.55425459 273.43694772 -166.87562817 270.72654176 -169.21875 268 C-171.0742521 265.91662922 -173.01223101 263.95718793 -175 262 C-178.25029983 258.79970478 -181.24724245 255.45775424 -184.21875 252 C-186.0742521 249.91662922 -188.01223101 247.95718793 -190 246 C-192.59982183 243.44009866 -195.06268398 240.8322046 -197.4375 238.0625 C-200.00665271 235.07198284 -202.69317256 232.26883316 -205.5 229.5 C-208.9288279 226.11758601 -212.12048518 222.61929558 -215.25390625 218.96484375 C-217.72481389 216.18438168 -220.3816694 213.60881782 -223.03125 211 C-225.55425459 208.43694772 -227.87562817 205.72654176 -230.21875 203 C-232.0742521 200.91662922 -234.01223101 198.95718793 -236 197 C-246.08852334 187.02924153 -246.08852334 187.02924153 -249 181 C-240.53715724 178.78425615 -232.04992939 176.95702305 -223.45483398 175.33618164 C-222.14395013 175.08637498 -220.83312523 174.83625878 -219.52235413 174.58586121 C-216.72372258 174.05190448 -213.9246981 173.52007835 -211.12533379 172.98997688 C-206.67842452 172.1478554 -202.23247761 171.30072668 -197.78663635 170.45298767 C-190.7375938 169.10945349 -183.68795259 167.7690915 -176.63803393 166.43016285 C-164.05402893 164.04018673 -151.47069336 161.64669795 -138.88811928 159.24919981 C-135.20190048 158.54695282 -131.51551874 157.84558574 -127.82873344 157.14631844 C-126.41254853 156.87767236 -124.99636566 156.60901546 -123.58018494 156.34034729 C-122.89378996 156.21014938 -122.20739498 156.07995147 -121.50020015 155.94580817 C-115.7767061 154.85858557 -110.05785814 153.7479123 -104.33905602 152.63628197 C-101.23437143 152.04466122 -98.12571977 151.48751349 -95.01277161 150.94136047 C-93.29196488 150.62262429 -91.57122965 150.30350174 -89.85058594 149.98388672 C-88.73019251 149.80381372 -88.73019251 149.80381372 -87.58716488 149.62010288 C-82.35480062 148.61134168 -80.1749449 146.63024331 -77.20703125 142.28515625 C-75.99570897 139.88411832 -74.88733516 137.51926608 -73.8125 135.0625 C-73.1771488 133.7555765 -72.53438816 132.45223249 -71.88476562 131.15234375 C-70.54481808 128.45702427 -69.23758216 125.74931487 -67.95166016 123.02783203 C-65.21970238 117.30945012 -62.11026712 111.80700242 -59.00274658 106.28677368 C-57.31909488 103.28670906 -55.66294681 100.27153343 -54.00390625 97.2578125 C-53.33751317 96.04974355 -52.6710092 94.84173576 -52.00439453 93.63378906 C-50.32706715 90.59326889 -48.65055823 87.55229827 -46.97433472 84.51116943 C-39.56301032 71.06507909 -32.13511417 57.62861574 -24.6706543 44.21191406 C-21.30561144 38.16045498 -17.95069323 32.10364639 -14.609375 26.0390625 C-14.24400635 25.37602112 -13.8786377 24.71297974 -13.50219727 24.02984619 C-11.72986772 20.81299121 -9.95879769 17.59545084 -8.18945312 14.37695312 C-7.2371582 12.64735352 -7.2371582 12.64735352 -6.265625 10.8828125 C-5.70649414 9.86590332 -5.14736328 8.84899414 -4.57128906 7.80126953 C-3.09511809 5.16957505 -1.56701267 2.57842665 0 0 Z " fill="#848283" transform="translate(249,0)"/>
<path d="M0 0 C0.33 0 0.66 0 1 0 C1.22917673 33.26620165 1.40524183 66.53220597 1.51065329 99.79902247 C1.5231595 103.73157617 1.53610281 107.66412831 1.54931641 111.59667969 C1.55193951 112.37953903 1.55456261 113.16239837 1.55726521 113.96898071 C1.60071054 126.62445735 1.67951789 139.27947706 1.77152796 151.93468316 C1.86523407 164.93212487 1.92062777 177.92932824 1.94088495 190.92709386 C1.95456742 198.9397159 1.99768628 206.95104627 2.07916467 214.96327041 C2.13856335 221.1200597 2.14450458 227.27587619 2.13107681 233.43291283 C2.1338174 235.94915249 2.15356958 238.46544317 2.19205475 240.98139 C2.41233091 256.13088685 1.60963372 265.80382638 -9 277 C-10.21759132 278.61267215 -11.41728105 280.23938393 -12.58203125 281.890625 C-13.65801311 283.34437288 -14.7348371 284.79749783 -15.8125 286.25 C-20.41391949 292.47248851 -24.9794211 298.71854207 -29.5 305 C-33.96015531 311.19658273 -38.46259688 317.35976095 -43 323.5 C-49.73553059 332.61748366 -56.37863637 341.79940769 -63 351 C-70.20122344 361.0063257 -77.44255899 370.97939506 -84.76928711 380.89428711 C-88.71407041 386.23835616 -92.61962408 391.60901545 -96.5 397 C-101.54007819 404.00215242 -106.64213385 410.95613256 -111.76953125 417.89453125 C-116.25544814 423.97190424 -120.68552504 430.08770766 -125.09667969 436.21948242 C-129.10479416 441.78272094 -133.1697515 447.30202166 -137.25 452.8125 C-142.65025716 460.10992337 -147.9020899 467.48800019 -153 475 C-154.24531098 471.32821968 -153.84326803 468.30425554 -153.35424805 464.49186707 C-153.27272586 463.84001995 -153.19120367 463.18817283 -153.10721111 462.51657277 C-152.83237761 460.33325893 -152.54701176 458.15145225 -152.26171875 455.96948242 C-152.06254054 454.40399941 -151.86404042 452.83843 -151.66616821 451.27278137 C-151.23870713 447.90120137 -150.80669933 444.53024598 -150.37124634 441.15968895 C-149.6827068 435.82791782 -149.00582118 430.49470753 -148.33081055 425.16120911 C-146.65211177 411.91183715 -144.95797577 398.66444417 -143.26086426 385.41741943 C-141.94260935 375.12623544 -140.62859475 364.83454756 -139.32724094 354.54121095 C-138.65675156 349.2416968 -137.97755103 343.94339497 -137.29171753 338.64584577 C-136.86636879 335.34556535 -136.44874228 332.04434113 -136.03321457 328.7428112 C-135.83933445 327.21501255 -135.64227616 325.68761324 -135.44176102 324.16067123 C-135.16782012 322.07113022 -134.90543918 319.98043721 -134.64575195 317.88908386 C-134.49604446 316.72083667 -134.34633698 315.55258947 -134.1920929 314.34894085 C-133.94524768 310.04544997 -133.85708275 305.73344617 -136.28759766 302.04711914 C-136.82433105 301.54817139 -137.36106445 301.04922363 -137.9140625 300.53515625 C-138.50687012 299.96684082 -139.09967773 299.39852539 -139.71044922 298.81298828 C-140.34225098 298.23532715 -140.97405273 297.65766602 -141.625 297.0625 C-142.91322255 295.83387839 -144.19970111 294.60342544 -145.484375 293.37109375 C-146.40573242 292.49686768 -146.40573242 292.49686768 -147.34570312 291.60498047 C-149.88303192 289.14329224 -152.14775572 286.48380606 -154.4296875 283.7890625 C-156.82826092 281.05635945 -159.44145935 278.54994772 -162.03125 276 C-164.55425459 273.43694772 -166.87562817 270.72654176 -169.21875 268 C-171.0742521 265.91662922 -173.01223101 263.95718793 -175 262 C-178.25029983 258.79970478 -181.24724245 255.45775424 -184.21875 252 C-186.0742521 249.91662922 -188.01223101 247.95718793 -190 246 C-192.59982183 243.44009866 -195.06268398 240.8322046 -197.4375 238.0625 C-200.00665271 235.07198284 -202.69317256 232.26883316 -205.5 229.5 C-208.9288279 226.11758601 -212.12048518 222.61929558 -215.25390625 218.96484375 C-217.72481389 216.18438168 -220.3816694 213.60881782 -223.03125 211 C-225.55425459 208.43694772 -227.87562817 205.72654176 -230.21875 203 C-232.0742521 200.91662922 -234.01223101 198.95718793 -236 197 C-246.08852334 187.02924153 -246.08852334 187.02924153 -249 181 C-240.53715724 178.78425615 -232.04992939 176.95702305 -223.45483398 175.33618164 C-222.14395013 175.08637498 -220.83312523 174.83625878 -219.52235413 174.58586121 C-216.72372258 174.05190448 -213.9246981 173.52007835 -211.12533379 172.98997688 C-206.67842452 172.1478554 -202.23247761 171.30072668 -197.78663635 170.45298767 C-190.7375938 169.10945349 -183.68795259 167.7690915 -176.63803393 166.43016285 C-164.05402893 164.04018673 -151.47069336 161.64669795 -138.88811928 159.24919981 C-135.20190048 158.54695282 -131.51551874 157.84558574 -127.82873344 157.14631844 C-126.41254853 156.87767236 -124.99636566 156.60901546 -123.58018494 156.34034729 C-122.89378996 156.21014938 -122.20739498 156.07995147 -121.50020015 155.94580817 C-115.7767061 154.85858557 -110.05785814 153.7479123 -104.33905602 152.63628197 C-101.23437143 152.04466122 -98.12571977 151.48751349 -95.01277161 150.94136047 C-93.29196488 150.62262429 -91.57122965 150.30350174 -89.85058594 149.98388672 C-88.73019251 149.80381372 -88.73019251 149.80381372 -87.58716488 149.62010288 C-82.35480062 148.61134168 -80.1749449 146.63024331 -77.20703125 142.28515625 C-75.99570897 139.88411832 -74.88733516 137.51926608 -73.8125 135.0625 C-73.1771488 133.7555765 -72.53438816 132.45223249 -71.88476562 131.15234375 C-70.54481808 128.45702427 -69.23758216 125.74931487 -67.95166016 123.02783203 C-65.21970238 117.30945012 -62.11026712 111.80700242 -59.00274658 106.28677368 C-57.31909488 103.28670906 -55.66294681 100.27153343 -54.00390625 97.2578125 C-53.33751317 96.04974355 -52.6710092 94.84173576 -52.00439453 93.63378906 C-50.32706715 90.59326889 -48.65055823 87.55229827 -46.97433472 84.51116943 C-39.56301032 71.06507909 -32.13511417 57.62861574 -24.6706543 44.21191406 C-21.30561144 38.16045498 -17.95069323 32.10364639 -14.609375 26.0390625 C-14.24400635 25.37602112 -13.8786377 24.71297974 -13.50219727 24.02984619 C-11.72986772 20.81299121 -9.95879769 17.59545084 -8.18945312 14.37695312 C-7.2371582 12.64735352 -7.2371582 12.64735352 -6.265625 10.8828125 C-5.70649414 9.86590332 -5.14736328 8.84899414 -4.57128906 7.80126953 C-3.09348978 5.16667212 -1.62318466 2.54796816 0 0 Z " fill="#FFBA00" transform="translate(249,0)"/>
<path d="M0 0 C0.66 0 1.32 0 2 0 C3.21411133 1.36669922 3.21411133 1.36669922 4.58203125 3.3046875 C5.35148071 4.38351196 5.35148071 4.38351196 6.13647461 5.48413086 C6.68956299 6.27311768 7.24265137 7.06210449 7.8125 7.875 C8.99725813 9.54046255 10.18215778 11.20582443 11.3671875 12.87109375 C11.97272461 13.72687012 12.57826172 14.58264648 13.20214844 15.46435547 C15.92511998 19.30476591 18.67984891 23.12195141 21.4375 26.9375 C21.97028564 27.67597168 22.50307129 28.41444336 23.05200195 29.17529297 C27.58253587 35.44604544 32.17170399 41.6726095 36.76928711 47.89428711 C41.25816363 53.97544905 45.68990813 60.09595509 50.10546875 66.23046875 C54.03392016 71.68083838 58.00705268 77.09674016 62 82.5 C67.08205078 89.3770356 72.11002797 96.29033083 77.10546875 103.23046875 C81.03392016 108.68083838 85.00705268 114.09674016 89 119.5 C94.08205078 126.3770356 99.11002797 133.29033083 104.10546875 140.23046875 C108.03392016 145.68083838 112.00705268 151.09674016 116 156.5 C121.0764704 163.36948423 126.1015671 170.2733358 131.08789062 177.20849609 C133.94944538 181.18200421 136.83334721 185.13702355 139.75 189.0703125 C140.68875977 190.33681641 140.68875977 190.33681641 141.64648438 191.62890625 C142.84302928 193.2402702 144.04207088 194.84978459 145.24414062 196.45703125 C148.74275429 201.16844284 151.9742683 205.9713432 155 211 C150.20116685 210.43069345 146.26639479 208.95430411 141.9609375 206.859375 C141.29141052 206.54124344 140.62188354 206.22311188 139.93206787 205.89533997 C137.7431026 204.85361011 135.55917588 203.80172927 133.375 202.75 C131.83618922 202.01597616 130.29695823 201.28283264 128.75732422 200.55053711 C126.41302932 199.43543763 124.06898191 198.31985423 121.72622681 197.20152283 C114.88322337 193.93560739 108.00942886 190.74024109 101.125 187.5625 C89.61639027 182.23694726 78.14801228 176.82895179 66.68563843 171.40481567 C55.31663241 166.02577404 43.93083432 160.68585954 32.50927734 155.41918945 C27.40166355 153.06098687 22.31130353 150.67957761 17.26171875 148.19921875 C16.38588135 147.77189453 15.51004395 147.34457031 14.60766602 146.90429688 C13.01848902 146.12541418 11.43383279 145.33719561 9.85522461 144.53710938 C9.16307861 144.19873047 8.47093262 143.86035156 7.7578125 143.51171875 C7.1714502 143.21740967 6.58508789 142.92310059 5.98095703 142.61987305 C0.72119487 140.97400959 -3.17022629 142.21256812 -7.9453125 144.60546875 C-9.6617395 145.45214111 -9.6617395 145.45214111 -11.4128418 146.31591797 C-12.01639496 146.62027771 -12.61994812 146.92463745 -13.24179077 147.23822021 C-15.8253827 148.54054582 -18.42181746 149.81624559 -21.01792908 151.09338379 C-22.36429139 151.7558044 -23.71004043 152.41947287 -25.05519104 153.08435059 C-31.54952682 156.28951961 -38.10936893 159.345823 -44.6875 162.375 C-55.10423687 167.18568149 -65.49654927 172.04490818 -75.875 176.9375 C-90.3292826 183.74912007 -104.79982269 190.52484332 -119.28613281 197.26806641 C-122.52954652 198.77924895 -125.76965974 200.29739823 -129.00906372 201.81715393 C-131.62784557 203.04513318 -134.24803203 204.2700952 -136.86846924 205.49453735 C-138.11352304 206.0771605 -139.35795943 206.66110504 -140.60174561 207.24642944 C-142.31098766 208.05058198 -144.02262175 208.84964435 -145.734375 209.6484375 C-146.70600586 210.10395996 -147.67763672 210.55948242 -148.67871094 211.02880859 C-151 212 -151 212 -153 212 C-151.41533415 206.95254582 -148.35834381 203.33318985 -145.125 199.25 C-140.62420935 193.46995841 -136.25234427 187.6344257 -132.0625 181.625 C-127.24167688 174.7210953 -122.29159126 167.92431841 -117.28149414 161.15673828 C-113.31686214 155.79759694 -109.39336566 150.41110833 -105.5 145 C-100.46006391 137.99774659 -95.35786473 131.04386551 -90.23046875 124.10546875 C-86.28584596 118.76142324 -82.38030944 113.39089219 -78.5 108 C-73.45992181 100.99784758 -68.35786615 94.04386744 -63.23046875 87.10546875 C-59.28584596 81.76142324 -55.38030944 76.39089219 -51.5 71 C-46.45992181 63.99784758 -41.35786615 57.04386744 -36.23046875 50.10546875 C-31.74829361 44.03316496 -27.32192545 37.92245465 -22.91430664 31.79589844 C-18.21941846 25.27972361 -13.45625746 18.8149935 -8.66796875 12.3671875 C-6.25788207 9.11244428 -3.89218633 5.87396081 -1.72265625 2.453125 C-1.15417969 1.64359375 -0.58570313 0.8340625 0 0 Z " fill="#8F59E6" transform="translate(249,263)"/>
<path d="M0 0 C2.76921887 2.76921887 4.10608306 4.76705246 5.8984375 8.171875 C6.45345947 9.21682129 7.00848145 10.26176758 7.58032227 11.33837891 C8.17256592 12.46421387 8.76480957 13.59004883 9.375 14.75 C10.638153 17.12962314 11.90630726 19.50655635 13.17578125 21.8828125 C13.49665207 22.48406952 13.81752289 23.08532654 14.14811707 23.70480347 C17.1949398 29.39754235 20.36296245 35.01711357 23.5625 40.625 C28.60716902 49.48061667 33.50349546 58.4076787 38.34057617 67.37817383 C42.69028128 75.44230767 47.11711568 83.46001964 51.58349609 91.45996094 C53.82045997 95.47122812 56.05043794 99.48634416 58.27563477 103.50415039 C59.55318478 105.79838943 60.84151129 108.08665972 62.14038086 110.36889648 C65.17234943 115.72568758 68.08635333 121.04621392 70.60124207 126.66731262 C71.44902689 128.54949545 72.33137969 130.41132526 73.22583008 132.27172852 C74.32827572 134.59250946 75.36553815 136.94596523 76.3190918 139.33178711 C78.44991963 143.66934427 80.51435612 147.06341782 85.1297121 148.8024683 C87.82309563 149.45977633 90.51229354 149.96894163 93.24438477 150.44067383 C94.29125206 150.63985003 95.33811935 150.83902624 96.4167099 151.04423809 C98.71794633 151.48052997 101.02094213 151.90761614 103.32536507 152.32675171 C107.08864071 153.01624031 110.84384671 153.74004857 114.59873962 154.47375488 C122.36357357 155.99037833 130.13397192 157.4769388 137.90545654 158.95905519 C141.79336628 159.70097429 145.68083653 160.44518951 149.56835938 161.18913269 C156.88773984 162.58947328 164.20749768 163.98783048 171.52740288 165.38542527 C179.87876787 166.9800614 188.22969503 168.57698465 196.5805912 170.17407382 C213.71991771 173.45187782 230.85977554 176.72689486 248 180 C247 182 247 182 243.71875 183.18359375 C242.31482554 183.60930849 240.90842534 184.02692113 239.5 184.4375 C238.11429571 184.85190402 236.72888066 185.26727639 235.34375 185.68359375 C234.62703125 185.89806152 233.9103125 186.1125293 233.171875 186.33349609 C230.29007944 187.21786006 227.4368585 188.17926306 224.58007812 189.14086914 C217.84233426 191.38444604 211.06762863 193.51745087 204.3046875 195.68359375 C196.89159812 198.05894217 196.89159812 198.05894217 189.5 200.5 C182.12748908 202.97340246 174.71027509 205.31161379 167.3046875 207.68359375 C159.89159812 210.05894217 159.89159812 210.05894217 152.5 212.5 C145.12748908 214.97340246 137.71027509 217.31161379 130.3046875 219.68359375 C120.4106777 222.85694247 110.5721592 226.1429462 100.76147461 229.56518555 C90.89273404 233.00166203 81.04270679 236.41068842 70.97851562 239.23779297 C64.7005568 241.02408906 58.58391662 243.2197125 52.43920898 245.41479492 C46.49619459 247.5210565 40.52042841 249.36624206 34.45336914 251.07714844 C27.84351137 252.97212473 21.3908102 255.27604212 14.94921875 257.67773438 C14.1603125 257.96455078 13.37140625 258.25136719 12.55859375 258.546875 C11.87079834 258.80307617 11.18300293 259.05927734 10.47436523 259.32324219 C7.06372511 260.25607834 3.50860383 260.56142452 0 261 C0 174.87 0 88.74 0 0 Z " fill="#981039" transform="translate(250,0)"/>
<path d="M0 0 C3.21982799 3.14447838 5.87097644 6.43969498 8.4375 10.125 C9.32630756 11.38447843 10.21565724 12.64357441 11.10546875 13.90234375 C11.5751709 14.56862793 12.04487305 15.23491211 12.52880859 15.92138672 C15.08019779 19.52618718 17.6642267 23.10731863 20.25 26.6875 C20.79454834 27.4417627 21.33909668 28.19602539 21.90014648 28.97314453 C26.48324419 35.30932879 31.12117091 41.60420188 35.76855469 47.89331055 C40.25769203 53.97478595 44.68967036 60.09562476 49.10546875 66.23046875 C53.03392016 71.68083838 57.00705268 77.09674016 61 82.5 C66.08205078 89.3770356 71.11002797 96.29033083 76.10546875 103.23046875 C80.03392016 108.68083838 84.00705268 114.09674016 88 119.5 C93.08205078 126.3770356 98.11002797 133.29033083 103.10546875 140.23046875 C107.03392016 145.68083838 111.00705268 151.09674016 115 156.5 C120.0764704 163.36948423 125.1015671 170.2733358 130.08789062 177.20849609 C132.94944538 181.18200421 135.83334721 185.13702355 138.75 189.0703125 C139.37583984 189.91464844 140.00167969 190.75898438 140.64648438 191.62890625 C141.84302928 193.2402702 143.04207088 194.84978459 144.24414062 196.45703125 C147.74275429 201.16844284 150.9742683 205.9713432 154 211 C149.20116685 210.43069345 145.26639479 208.95430411 140.9609375 206.859375 C140.29141052 206.54124344 139.62188354 206.22311188 138.93206787 205.89533997 C136.7431026 204.85361011 134.55917588 203.80172927 132.375 202.75 C130.83618922 202.01597616 129.29695823 201.28283264 127.75732422 200.55053711 C125.41302932 199.43543763 123.06898191 198.31985423 120.72622681 197.20152283 C113.88322337 193.93560739 107.00942886 190.74024109 100.125 187.5625 C88.61639027 182.23694726 77.14801228 176.82895179 65.68563843 171.40481567 C55.45418375 166.56398609 45.20842472 161.75651508 34.9375 157 C26.92863172 153.28957676 18.9217756 149.57562186 10.9375 145.8125 C10.1633374 145.44962891 9.3891748 145.08675781 8.59155273 144.71289062 C5.57803053 143.28759944 2.77905889 141.85270593 0 140 C-0.36914349 137.56747246 -0.36914349 137.56747246 -0.36076355 134.44454956 C-0.36488754 133.26381866 -0.36901154 132.08308777 -0.3732605 130.86657715 C-0.36247467 129.56466431 -0.35168884 128.26275146 -0.34057617 126.92138672 C-0.3397303 125.5417991 -0.34020426 124.16221012 -0.34190369 122.78262329 C-0.34276663 119.03067769 -0.32509286 115.27901814 -0.30418181 111.52713919 C-0.28546459 107.60869377 -0.2836685 103.69024225 -0.28010559 99.77175903 C-0.27077051 92.34857545 -0.24613704 84.92552395 -0.21605712 77.50239861 C-0.18255852 69.05271301 -0.16603855 60.60302119 -0.15097082 52.15328574 C-0.11958868 34.76878068 -0.06679988 17.38440429 0 0 Z " fill="#2A0169" transform="translate(250,263)"/>
<path d="M0 0 C-1.66595791 3.68827045 -3.9456293 6.86520734 -6.3125 10.125 C-6.74981445 10.73190674 -7.18712891 11.33881348 -7.63769531 11.96411133 C-8.58940771 13.28410516 -9.54242238 14.60316081 -10.49658203 15.92138672 C-12.02124807 18.0293774 -13.54046434 20.14120418 -15.05859375 22.25390625 C-21.2375415 30.84347487 -27.48021065 39.38355949 -33.76855469 47.89331055 C-37.7135965 53.23769475 -41.61938631 58.60868512 -45.5 64 C-50.54007819 71.00215242 -55.64213385 77.95613256 -60.76953125 84.89453125 C-64.71415404 90.23857676 -68.61969056 95.60910781 -72.5 101 C-77.54007819 108.00215242 -82.64213385 114.95613256 -87.76953125 121.89453125 C-91.71415404 127.23857676 -95.61969056 132.60910781 -99.5 138 C-104.54007819 145.00215242 -109.64213385 151.95613256 -114.76953125 158.89453125 C-119.25327197 164.96895603 -123.681563 171.08153738 -128.09008789 177.21069336 C-132.72125408 183.63953436 -137.42213926 190.01574882 -142.15625 196.36914062 C-145.94044972 201.47288989 -149.52311214 206.68226833 -153 212 C-154.24480107 208.32783389 -153.84533541 205.29846903 -153.36097717 201.48513794 C-153.28016055 200.83258526 -153.19934393 200.18003258 -153.11607832 199.50770557 C-152.84358749 197.32206495 -152.56056344 195.13791927 -152.27758789 192.95361328 C-152.08004834 191.38650494 -151.88317033 189.8193131 -151.68690491 188.25204468 C-151.26284597 184.87717637 -150.83412995 181.50294383 -150.4018116 178.12912369 C-149.71813768 172.79330358 -149.04492874 167.45619527 -148.37315369 162.11886597 C-147.30915487 153.67518236 -146.23826067 145.23239014 -145.16436714 136.78995979 C-143.24198535 121.67669734 -141.32777533 106.56240331 -139.42132944 91.44712245 C-138.75199649 86.14287209 -138.07851825 80.83916926 -137.40169346 75.53586984 C-136.98097945 72.23409866 -136.56327972 68.93195097 -136.14632225 65.62970352 C-135.95252573 64.10012285 -135.75744221 62.5707046 -135.56096649 61.04146576 C-135.29254673 58.95100536 -135.02873588 56.8600114 -134.76600647 54.76882935 C-134.61722077 53.59966036 -134.46843508 52.43049137 -134.31514072 51.22589302 C-134.01231048 48.1260145 -133.94218063 45.1121932 -134 42 C-125.17469769 39.13878246 -116.34922504 36.27809107 -107.52355289 33.41801453 C-103.42244268 32.08897824 -99.32138457 30.75978168 -95.22045898 29.43017578 C-63.90522719 19.27736575 -63.90522719 19.27736575 -48.6015625 14.37890625 C-47.6078212 14.06078979 -46.6140799 13.74267334 -45.59022522 13.41491699 C-39.89335365 11.59492924 -34.18819002 9.80927983 -28.46484375 8.07421875 C-25.44955573 7.13937748 -22.44497849 6.17864325 -19.44140625 5.20703125 C-17.94516724 4.72472046 -17.94516724 4.72472046 -16.41870117 4.23266602 C-14.41898747 3.58705379 -12.4204102 2.9379089 -10.4230957 2.28491211 C-9.5074585 1.98979736 -8.59182129 1.69468262 -7.6484375 1.390625 C-6.82520996 1.12282227 -6.00198242 0.85501953 -5.15380859 0.57910156 C-3 0 -3 0 0 0 Z " fill="#FEE14E" transform="translate(249,263)"/>
<path d="M0 0 C9.50813794 2.7563525 18.90248636 5.86733504 28.3125 8.9375 C31.53736116 9.98951165 34.76269644 11.0400533 37.98828125 12.08984375 C38.69914383 12.3222728 39.41000641 12.55470184 40.14241028 12.79417419 C44.50202126 14.21304052 48.87528081 15.57903322 53.25976562 16.91918945 C59.81981599 18.93097627 66.340101 21.05163865 72.85546875 23.203125 C74.69622757 23.80886099 76.53698774 24.41459289 78.37780285 25.02015781 C80.31719343 25.65829057 82.25642189 26.29691398 84.19561768 26.93563843 C106.51717082 34.28655595 128.86348592 41.55175304 151.25579834 48.68481445 C164.13708681 52.78889502 177.0021751 56.92683842 189.80712891 61.2644043 C195.60726633 63.22653067 201.43381998 65.06907284 207.28979492 66.85742188 C214.12049663 68.96097415 220.92927323 71.13255673 227.73388672 73.31884766 C229.43182291 73.86285943 231.1307441 74.40380509 232.83056641 74.94189453 C235.31127531 75.72753896 237.78870354 76.52282005 240.265625 77.3203125 C241.02901184 77.55992706 241.79239868 77.79954163 242.57891846 78.04641724 C244.40557076 78.64033856 246.2062446 79.31309189 248 80 C248.33 80.66 248.66 81.32 249 82 C244.61295729 83.47916657 240.22445964 84.95391479 235.8347168 86.42504883 C234.349961 86.9232644 232.86556935 87.42256684 231.3815918 87.9230957 C223.73592448 90.50107453 216.08838268 93.01418808 208.33203125 95.2421875 C195.52480801 98.93294162 182.87606311 103.15286688 170.19934082 107.26483154 C166.75959889 108.38027307 163.31926169 109.49387433 159.87890625 110.60742188 C159.2064172 110.8251507 158.53392815 111.04287952 157.84106064 111.26720619 C154.52634608 112.34014861 151.21118299 113.41167033 147.89508057 114.48031616 C142.24488063 116.30154451 136.59757301 118.12879722 130.96386719 120.00048828 C129.24415273 120.56416454 127.5244272 121.127807 125.8046875 121.69140625 C125.05140167 121.94736069 124.29811584 122.20331512 123.52200317 122.46702576 C117.17476858 124.52787152 117.17476858 124.52787152 114 123 C112.37182617 121.72827148 112.37182617 121.72827148 110.79296875 120.12109375 C110.2098291 119.53344238 109.62668945 118.94579102 109.02587891 118.34033203 C108.41921387 117.71239746 107.81254883 117.08446289 107.1875 116.4375 C106.24656494 115.48012939 106.24656494 115.48012939 105.28662109 114.50341797 C101.58041271 110.70848433 97.99887798 106.83787098 94.5703125 102.7890625 C92.17173908 100.05635945 89.55854065 97.54994772 86.96875 95 C84.44574541 92.43694772 82.12437183 89.72654176 79.78125 87 C77.9257479 84.91662922 75.98776899 82.95718793 74 81 C70.74970017 77.79970478 67.75275755 74.45775424 64.78125 71 C62.9257479 68.91662922 60.98776899 66.95718793 59 65 C56.40017817 62.44009866 53.93731602 59.8322046 51.5625 57.0625 C48.99334729 54.07198284 46.30682744 51.26883316 43.5 48.5 C40.0711721 45.11758601 36.87951482 41.61929558 33.74609375 37.96484375 C31.27518611 35.18438168 28.6183306 32.60881782 25.96875 30 C23.44574541 27.43694772 21.12437183 24.72654176 18.78125 22 C16.9257479 19.91662922 14.98776899 17.95718793 13 16 C2.91147666 6.02924153 2.91147666 6.02924153 0 0 Z " fill="#FFBA00" transform="translate(0,181)"/>
<path d="M0 0 C1.44116211 1.36669922 1.44116211 1.36669922 2.77734375 3.3046875 C3.28386475 4.02390381 3.79038574 4.74312012 4.31225586 5.48413086 C4.84858643 6.27311768 5.38491699 7.06210449 5.9375 7.875 C7.10385416 9.54058346 8.27052956 11.20594201 9.4375 12.87109375 C10.03046875 13.72687012 10.6234375 14.58264648 11.234375 15.46435547 C13.92135436 19.3231729 16.67821645 23.13022137 19.4375 26.9375 C19.97044678 27.67597168 20.50339355 28.41444336 21.05249023 29.17529297 C25.58207722 35.44661157 30.17176332 41.67268979 34.76928711 47.89428711 C39.25816363 53.97544905 43.68990813 60.09595509 48.10546875 66.23046875 C52.03392331 71.68084276 56.00737754 77.09649644 60 82.5 C64.77118002 88.96381293 69.52839709 95.43735609 74.25 101.9375 C74.79914063 102.68902344 75.34828125 103.44054687 75.9140625 104.21484375 C76.42195312 104.91609375 76.92984375 105.61734375 77.453125 106.33984375 C77.89817383 106.95206787 78.34322266 107.56429199 78.80175781 108.19506836 C80.04390083 110.06612853 81.03768476 111.97282314 82 114 C77.07379678 112.36625723 72.14829312 110.73042718 67.22338867 109.09277344 C65.55267461 108.53753083 63.88178043 107.9828299 62.21069336 107.42871094 C46.49906532 102.21815007 46.49906532 102.21815007 40.39453125 99.921875 C36.17782771 98.36321631 31.90904739 97.07036579 27.58984375 95.83203125 C16.12630601 92.5340292 4.82599215 88.73070309 -6.49847412 84.98864746 C-13.25840088 82.75497467 -20.02149493 80.53092855 -26.78515625 78.30859375 C-27.46771484 78.08426289 -28.15027344 77.85993202 -28.85351562 77.62880325 C-44.6349912 72.44426834 -60.4564767 67.38615759 -76.29467773 62.37768555 C-87.01820256 58.9768085 -97.676775 55.43383755 -108.28207397 51.6786499 C-113.44535317 49.85601543 -118.60558442 48.17672235 -123.875 46.6875 C-138.07553941 42.65833706 -152.01579601 37.71501384 -166 33 C-166 32.34 -166 31.68 -166 31 C-144.94776571 26.95361607 -123.89472652 22.91144475 -102.84071732 18.87430573 C-93.06530031 16.99975216 -83.29015283 15.12381388 -73.515625 13.24462891 C-64.99750957 11.60699696 -56.47890285 9.97194957 -47.95969272 8.34002161 C-43.44764717 7.47560645 -38.93586061 6.60988707 -34.42465973 5.74107361 C-30.1802015 4.92367448 -25.93509591 4.10972789 -21.68946457 3.29844475 C-20.12994028 2.99980636 -18.57065848 2.69989849 -17.01163864 2.39863777 C-14.88545019 1.98797437 -12.75844183 1.58185921 -10.63116455 1.17687988 C-9.44020802 0.94827522 -8.24925148 0.71967056 -7.02220535 0.48413849 C-4 0 -4 0 0 0 Z " fill="#FEE14E" transform="translate(168,149)"/>
<path d="M0 0 C7.37895484 1.47830971 14.36950659 3.66468426 21.4921875 6.078125 C23.33630956 6.69637456 25.18043264 7.31462111 27.02459908 7.9327383 C28.97301598 8.58669077 30.92069358 9.24280145 32.86816406 9.89956665 C38.95397998 11.95172874 45.04420667 13.99073464 51.13437653 16.02993202 C52.4997827 16.48716455 53.86513393 16.94456119 55.2304306 17.40212059 C69.45516193 22.16884654 83.71519723 26.823788 97.99560547 31.42089844 C109.39598559 35.09975117 120.70649634 39.00593206 132 43 C134.66454204 59.86742191 136.81086788 76.79763248 138.93890548 93.73908114 C139.33324472 96.87622128 139.72906406 100.01317401 140.12485868 103.15013081 C141.05763071 110.5432593 141.98799174 117.93668831 142.91674805 125.33032227 C143.87288812 132.94162627 144.83306462 140.55241355 145.7951805 148.16296428 C146.62550805 154.73211101 147.45343611 161.30155707 148.27941781 167.87125164 C148.77098034 171.78088633 149.26342768 175.69040419 149.75816917 179.59963799 C150.2214368 183.26105504 150.68170163 186.92283727 151.13965416 190.58492279 C151.38804392 192.56524234 151.63948723 194.54517814 151.89102173 196.52510071 C152.03814102 197.70629486 152.18526031 198.88748901 152.33683777 200.10447693 C152.53010037 201.64039568 152.53010037 201.64039568 152.72726727 203.2073431 C152.98313356 205.82729544 153.05114349 208.36984103 153 211 C152.01 210.67 151.02 210.34 150 210 C150 209.34 150 208.68 150 208 C148.64944526 205.95130297 147.26309312 203.9763647 145.8125 202 C145.36616211 201.38406982 144.91982422 200.76813965 144.45996094 200.13354492 C143.48701084 198.79132058 142.51215258 197.45047789 141.53564453 196.11083984 C139.99414286 193.99194899 138.46245964 191.86630383 136.93359375 189.73828125 C130.75923634 181.14986778 124.51763347 172.61352304 118.23144531 164.10668945 C113.74230797 158.02521405 109.31032964 151.90437524 104.89453125 145.76953125 C100.96607984 140.31916162 96.99294732 134.90325984 93 129.5 C87.91794922 122.6229644 82.88997203 115.70966917 77.89453125 108.76953125 C73.96607984 103.31916162 69.99294732 97.90325984 66 92.5 C60.91794922 85.6229644 55.88997203 78.70966917 50.89453125 71.76953125 C46.96607984 66.31916162 42.99294732 60.90325984 39 55.5 C33.92387208 48.63097922 28.9013556 41.72602253 23.91210938 34.79370117 C19.24087293 28.31228931 14.50760152 21.87764562 9.75585938 15.45507812 C8.1669464 13.30603132 6.58335717 11.15314131 5 9 C4.49984375 8.32888184 3.9996875 7.65776367 3.484375 6.96630859 C0 2.22545427 0 2.22545427 0 0 Z " fill="#BFBFBF" transform="translate(252,264)"/>
<path d="M0 0 C0.76702744 0.15017075 1.53405487 0.30034149 2.32432556 0.45506287 C12.52812016 2.45226715 22.73258346 4.44603671 32.9375 6.4375 C33.77586269 6.60110645 34.61422539 6.76471291 35.47799301 6.93327713 C65.74279846 12.83819304 96.02321341 18.659548 126.3125 24.4375 C127.31083233 24.62794262 128.30916466 24.81838524 129.33774948 25.01459885 C141.55803272 27.34551851 153.77877798 29.67400761 166 32 C165 34 165 34 161.71875 35.18359375 C160.31482554 35.60930849 158.90842534 36.02692113 157.5 36.4375 C156.11429571 36.85190402 154.72888066 37.26727639 153.34375 37.68359375 C152.62703125 37.89806152 151.9103125 38.1125293 151.171875 38.33349609 C148.29007944 39.21786006 145.4368585 40.17926306 142.58007812 41.14086914 C135.84233426 43.38444604 129.06762863 45.51745087 122.3046875 47.68359375 C114.89159812 50.05894217 114.89159812 50.05894217 107.5 52.5 C100.12748908 54.97340246 92.71027509 57.31161379 85.3046875 59.68359375 C77.89159812 62.05894217 77.89159812 62.05894217 70.5 64.5 C63.12748908 66.97340246 55.71027509 69.31161379 48.3046875 71.68359375 C38.4106777 74.85694247 28.5721592 78.1429462 18.76147461 81.56518555 C8.89273404 85.00166203 -0.95729321 88.41068842 -11.02148438 91.23779297 C-17.2994432 93.02408906 -23.41608338 95.2197125 -29.56079102 97.41479492 C-35.50317591 99.5208334 -41.47854149 101.36473275 -47.54443359 103.07714844 C-54.18087679 104.98131518 -60.6628894 107.28768257 -67.13867188 109.67773438 C-71.79211379 111.36266656 -76.07173357 112.4979246 -81 113 C-77.11169724 107.08594591 -73.10340884 101.28392263 -68.9375 95.5625 C-67.78898435 93.97922335 -66.64054911 92.39588838 -65.4921875 90.8125 C-64.91178711 90.01328125 -64.33138672 89.2140625 -63.73339844 88.390625 C-62.07032418 86.09698793 -60.41282028 83.79946237 -58.7578125 81.5 C-52.63598233 72.99605465 -46.45886152 64.53591119 -40.23291016 56.10791016 C-34.64122246 48.53082433 -29.12759124 40.89882463 -23.62646484 33.25585938 C-21.95940318 30.9436934 -20.28707813 28.63541918 -18.61328125 26.328125 C-18.0500415 25.55090088 -17.48680176 24.77367676 -16.90649414 23.97290039 C-15.85590347 22.5234414 -14.80441612 21.07463157 -13.75170898 19.62670898 C-10.54264812 15.19454623 -7.40609895 10.71588244 -4.29589844 6.21411133 C-3.88137421 5.61470985 -3.46684998 5.01530838 -3.0397644 4.39774323 C-2.02620271 2.93204099 -1.01305858 1.46605002 0 0 Z " fill="#E43059" transform="translate(332,148)"/>
<path d="M0 0 C0.33 0 0.66 0 1 0 C1.24954005 1.43410368 1.47392642 2.87260072 1.6875 4.3125 C1.87892578 5.51326172 1.87892578 5.51326172 2.07421875 6.73828125 C2 9 2 9 -1 12 C-0.67 8.04 -0.34 4.08 0 0 Z " fill="#F9D142" transform="translate(96,463)"/>
</svg>
