<?xml version="1.0" encoding="UTF-8"?>
<svg version="1.1" xmlns="http://www.w3.org/2000/svg" width="960" height="821">
<path d="M0 0 C115.83 0 231.66 0 351 0 C359.02594372 26.37095795 359.02594372 26.37095795 361.8125 36.3984375 C362.1391011 37.56451538 362.46570221 38.73059326 362.80220032 39.93200684 C363.68518732 43.08517192 364.56608212 46.23891282 365.44632339 49.39284515 C367.0154122 55.01016211 368.59209695 60.62535654 370.16781044 66.24081802 C370.58634345 67.73238113 371.00479856 69.22396609 371.42317772 70.71557236 C376.43768358 88.59150573 381.50774917 106.45159996 386.58354187 124.31021118 C387.31518174 126.88443552 388.04670693 129.45869243 388.77819824 132.03295898 C390.73871283 138.93232203 392.69937788 145.83164228 394.66049194 152.73083496 C399.69546074 170.44410025 404.72332137 188.15938063 409.75 205.875 C410.18152818 207.39581314 410.61305691 208.91662613 411.04458618 210.43743896 C412.74997658 216.44768516 414.45533882 222.45793933 416.16056824 228.4682312 C418.55678919 236.91396249 420.95343655 245.35957259 423.35055923 253.80504799 C425.1070764 259.993647 426.86322411 266.18235079 428.61910629 272.37112999 C429.64780036 275.99681907 430.67664907 279.62246406 431.70593262 283.24798584 C433.84121179 290.76967542 435.97241821 298.2924982 438.09814453 305.81689453 C438.93893028 308.78445399 439.78680999 311.74988686 440.63671875 314.71484375 C441.10173668 316.35151302 441.56659537 317.98822755 442.03125 319.625 C442.23729858 320.33551514 442.44334717 321.04603027 442.65563965 321.77807617 C443.57480552 325.03773528 444 327.56964261 444 331 C405.39 331 366.78 331 327 331 C323.62554958 322.00146556 323.62554958 322.00146556 322.40380859 317.61328125 C322.12335693 316.6130896 321.84290527 315.61289795 321.55395508 314.58239746 C321.10572388 312.96379822 321.10572388 312.96379822 320.6484375 311.3125 C320.15790894 309.55903259 320.15790894 309.55903259 319.6574707 307.7701416 C318.94050592 305.20644681 318.22475387 302.64244739 317.51092529 300.07788086 C315.7293938 293.6788614 313.93577819 287.28322328 312.14290237 280.88737488 C311.71108217 279.34680884 311.27937968 277.8062098 310.84778976 276.26557922 C305.34132451 256.61068921 299.76430233 236.97588274 294.1828804 217.34217072 C293.37575405 214.50265281 292.56891967 211.6630521 291.76217651 208.82342529 C286.67351518 190.91264238 281.58050543 173.00314846 276.44882202 155.10463715 C275.85939576 153.0487591 275.27023935 150.9928039 274.68115234 148.93682861 C272.93034181 142.82724494 271.17666307 136.7185071 269.41748047 130.61132812 C268.81860164 128.52476348 268.21980045 126.43817654 267.62109375 124.3515625 C267.35055679 123.41659943 267.08001984 122.48163635 266.80128479 121.51834106 C266.5606279 120.67778168 266.31997101 119.83722229 266.07202148 118.97119141 C265.75877174 117.8837413 265.75877174 117.8837413 265.43919373 116.77432251 C265 115 265 115 265 113 C227.05 113 189.1 113 150 113 C168.43963393 178.2894974 168.43963393 178.2894974 186.9375 243.5625 C187.14979877 244.31024059 187.36209755 245.05798119 187.58082962 245.82838058 C189.48743218 252.54351069 191.39425269 259.2585789 193.30128479 265.97358704 C197.74667873 281.62704628 202.18611399 297.28219426 206.625 312.9375 C207.02158547 314.33618182 207.41817157 315.73486346 207.8147583 317.13354492 C208.0108733 317.82520374 208.2069883 318.51686256 208.40904617 319.22948074 C209.19757091 322.01044788 209.9860981 324.79141431 210.77462769 327.57238007 C211.16696505 328.95607153 211.55929904 330.33976395 211.95162964 331.72345734 C214.75195531 341.59976322 217.55338035 351.47575656 220.35546875 361.3515625 C221.8412709 366.58850619 223.32693113 371.82549013 224.8125 377.0625 C225.00003845 377.72361282 225.1875769 378.38472565 225.38079834 379.06587219 C230.92388065 398.60696716 236.45860692 418.15041919 241.98828125 437.6953125 C242.29538717 438.78077488 242.6024931 439.86623726 242.91890526 440.98459244 C244.18436405 445.45734907 245.44980754 449.93011003 246.71524715 454.40287209 C247.68516118 457.8310824 248.65508053 461.25929122 249.625 464.6875 C249.94704281 465.82578499 250.26908562 466.96406998 250.6008873 468.13684845 C259.0892275 498.13906434 267.58938094 528.13786372 276.11593628 558.12924194 C280.74695595 574.41864264 285.37452021 590.70902542 290 607 C290.3013662 608.06140953 290.60273239 609.12281906 290.9132309 610.21639252 C294.83856649 624.04219564 298.76118004 637.86876668 302.6784935 651.69684505 C304.27297499 657.32527867 305.8683059 662.95346788 307.46588135 668.58102417 C308.95458019 673.82522308 310.44080495 679.07011664 311.92508125 684.31556892 C312.47419999 686.25453205 313.02422093 688.19323992 313.57517815 690.13168144 C314.32801045 692.78095731 315.07763062 695.43112095 315.82641602 698.08154297 C316.04902414 698.86204734 316.27163227 699.64255171 316.5009861 700.44670773 C318 705.7717362 318 705.7717362 318 708 C349.68 708 381.36 708 414 708 C414.99 704.04 415.98 700.08 417 696 C417.58286924 693.86926447 418.17812156 691.7417984 418.7956543 689.62084961 C419.11936508 688.5048085 419.44307587 687.3887674 419.77659607 686.23890686 C420.12231155 685.05534103 420.46802704 683.87177521 420.82421875 682.65234375 C421.20207711 681.35243178 421.57972012 680.0524572 421.95716858 678.75242615 C422.76988129 675.95468311 423.58393193 673.15733433 424.39904785 670.36029053 C425.72120409 665.82307636 427.04010765 661.28492061 428.35839844 656.74658203 C428.81924342 655.16015597 429.28008938 653.57373019 429.74093628 651.98730469 C429.97260372 651.1897879 430.20427116 650.39227112 430.44295883 649.57058716 C431.15968541 647.10363649 431.87669956 644.63676956 432.59378052 642.16992188 C437.74760237 624.43834285 442.87590873 606.69940315 448.00283813 588.96003342 C449.25165182 584.63938315 450.50083507 580.31883974 451.75 575.99829102 C456.22221496 560.5296987 460.69347367 545.06083005 465.16423607 529.59181786 C467.37434248 521.94482513 469.5847168 514.29790986 471.79525185 506.65104103 C473.36332238 501.22655323 474.9310329 495.80196157 476.49845028 490.377285 C477.47191677 487.00852061 478.44571763 483.63985294 479.41960335 480.27120972 C479.86553808 478.72848497 480.3113398 477.18572176 480.75698662 475.64291382 C481.96217688 471.47074356 483.17051886 467.29950976 484.38256454 463.12932587 C485.05132445 460.82299936 485.71552637 458.51537931 486.3800354 456.20782471 C486.83431929 454.64061533 487.28877215 453.07345491 487.7434082 451.50634766 C487.95465175 450.76897558 488.16589529 450.03160351 488.38354015 449.27188683 C489.88635958 444.11364042 489.88635958 444.11364042 491 443 C493.4916007 442.90117868 495.9554828 442.86822089 498.44759464 442.87695217 C499.24059575 442.87579833 500.03359685 442.87464448 500.85062829 442.87345567 C503.54220868 442.87078165 506.23373079 442.87531758 508.92530823 442.87974548 C510.8607028 442.87930994 512.79609731 442.87843535 514.73149151 442.87715632 C520.07657773 442.87490801 525.42164411 442.8789372 530.76672781 442.88393438 C536.52068355 442.8882339 542.27463808 442.88679281 548.02859497 442.8860321 C558.00660532 442.88550655 567.98460916 442.88865661 577.96261787 442.89426994 C592.3893254 442.90238072 606.81602976 442.90499973 621.24273931 442.90625793 C644.64644714 442.90844912 668.05015149 442.91510244 691.45385742 442.92456055 C714.19474265 442.9337402 736.93562696 442.94082615 759.67651367 442.94506836 C760.37709437 442.94519989 761.07767506 442.94533141 761.79948548 442.94546692 C768.83480042 442.94678541 775.87011536 442.94806123 782.90543031 442.94930578 C797.23805528 442.95184221 811.57068018 442.95466347 825.90330505 442.95765686 C827.2197438 442.95793159 828.53618255 442.95820631 829.89251339 442.95848937 C873.26167696 442.96766505 916.63083872 442.98339921 960 443 C960.09175462 477.69291678 960.16213943 512.38580563 960.20426132 547.07881774 C960.20926355 551.18389301 960.2144409 555.28896805 960.21972656 559.39404297 C960.22130043 560.61980225 960.22130043 560.61980225 960.22290608 561.87032434 C960.2402642 575.06473067 960.27177627 588.25906658 960.30861118 601.45343128 C960.34614899 615.01367227 960.36826284 628.57387663 960.37635398 642.13416743 C960.38181528 650.48717075 960.3990009 658.83997495 960.43166587 667.1929169 C960.45297272 672.93752124 960.45916393 678.68202415 960.45400551 684.42666504 C960.45146848 687.73053999 960.4573362 691.03379389 960.4768219 694.33765221 C960.68121725 730.81042868 951.11235966 761.67481376 925.375 788.125 C899.52169566 813.77337176 867.71175442 821.34497153 832.40112305 821.22705078 C830.02485153 821.22648589 827.64857966 821.22680475 825.27230835 821.22793579 C818.85383044 821.22850726 812.43542798 821.21678634 806.01696754 821.20278788 C799.97901186 821.19055336 793.94104977 821.18953804 787.90308378 821.18748413 C775.95303456 821.18311958 764.00301283 821.16984435 752.05297852 821.15087891 C740.45271949 821.13248786 728.85246795 821.11834719 717.25219727 821.10986328 C716.17752147 821.10907511 716.17752147 821.10907511 715.08113506 821.10827102 C711.48649218 821.10566072 707.89184925 821.10313336 704.29720628 821.10064721 C674.53145197 821.07995338 644.76572853 821.04461197 615 821 C619.23760127 803.83287026 619.23760127 803.83287026 621.48608398 796.20141602 C621.70296875 795.45585449 621.91985352 794.71029297 622.14331055 793.94213867 C622.84134737 791.54520669 623.54364587 789.14954881 624.24609375 786.75390625 C624.74432685 785.04637683 625.24229158 783.33876908 625.74000549 781.63108826 C627.03899975 777.17688614 628.34166486 772.72376612 629.6451416 768.27087402 C630.95911213 763.77956852 632.26939283 759.28718695 633.58007812 754.79492188 C635.94668929 746.68628595 638.31374887 738.57778477 640.69161987 730.47244263 C641.60571232 727.35454035 642.51071315 724.23414261 643.41116333 721.11227417 C643.75417654 719.92947703 643.75417654 719.92947703 644.1041193 718.722785 C644.54141409 717.21478639 644.97622003 715.70606321 645.40820217 714.19653416 C646.88719542 709.11280458 646.88719542 709.11280458 648 708 C650.53940598 707.89207156 653.05211378 707.84949629 655.59240723 707.84851074 C656.3970159 707.84427833 657.20162457 707.84004592 658.03061533 707.83568525 C660.74762551 707.82258855 663.46460631 707.81661837 666.18164062 707.81054688 C668.12102948 707.80261012 670.06041654 707.79422262 671.99980164 707.78541565 C676.18611635 707.76731859 680.372427 707.75231743 684.5587616 707.73963928 C691.17091419 707.71947812 697.78302202 707.69181821 704.3951416 707.66296387 C719.62521755 707.59766133 734.8553267 707.54229687 750.08544159 707.48697662 C764.03934301 707.43619043 777.99322822 707.38334377 791.94708967 707.32245111 C798.52756125 707.29402259 805.1080274 707.27045521 811.68852997 707.25052643 C815.7737356 707.23718167 819.85891635 707.21976705 823.94410133 707.20121574 C825.84649339 707.19343039 827.74889338 707.18737375 829.65129662 707.18312263 C832.23677152 707.17711695 834.82214838 707.16508924 837.40759277 707.15148926 C838.17051463 707.15119327 838.93343648 707.15089728 839.71947718 707.15059233 C843.14880465 707.4333648 843.14880465 707.4333648 846 706 C846.1088746 704.0640635 846.14689834 702.12412793 846.15821838 700.18516541 C846.16799241 698.92430839 846.17776644 697.66345137 846.18783665 696.36438656 C846.19375179 694.94857252 846.1995769 693.5327581 846.20532227 692.11694336 C846.21503134 690.61497249 846.22517645 689.11300438 846.23572445 687.61103916 C846.26285562 683.57511413 846.28398898 679.53917815 846.30391693 675.50321198 C846.32348889 671.72123369 846.34842052 667.93929832 846.3729248 664.15734863 C846.44152632 653.08409795 846.50148037 642.01079506 846.5625 630.9375 C846.706875 606.208125 846.85125 581.47875 847 556 C757.57 556 668.14 556 576 556 C575.67 558.31 575.34 560.62 575 563 C574.39793349 565.37692127 573.74940165 567.74237515 573.06420898 570.09667969 C572.86798447 570.77580666 572.67175995 571.45493362 572.46958923 572.1546402 C571.81622897 574.4117094 571.15615777 576.66675801 570.49609375 578.921875 C570.02529739 580.54339507 569.55493605 582.16504149 569.0849762 583.7868042 C568.07330691 587.27460706 567.05868868 590.76153323 566.04174805 594.24780273 C564.41312523 599.83116313 562.79101881 605.41640371 561.16992188 611.00195312 C559.1914642 617.8173153 557.2115251 624.63224348 555.22963905 631.4466095 C550.53769223 647.57983668 545.87061548 663.72021774 541.20713615 679.86169243 C539.48970867 685.80604287 537.77108849 691.75004743 536.05175781 697.69384766 C531.35015844 713.9480563 526.65169524 730.20315905 521.96139526 746.46063232 C520.01099729 753.22100864 518.05940321 759.98103951 516.10754204 766.7409935 C514.5156089 772.25481649 512.92527692 777.76909794 511.33615398 783.28373146 C510.35540093 786.68572181 509.373106 790.08726553 508.3903904 793.48868942 C507.93680926 795.05983181 507.48386512 796.63115827 507.03162193 798.20268631 C506.4104138 800.36104772 505.78689336 802.51872881 505.1628418 804.67626953 C504.64188179 806.4825029 504.64188179 806.4825029 504.11039734 808.32522583 C502.82470797 812.58011544 501.42713063 816.79083057 500 821 C475.31176161 821.09374069 450.62355018 821.16412424 425.93516922 821.20724869 C414.47006505 821.22781075 403.00507192 821.25580885 391.54003906 821.30175781 C381.53872432 821.34182121 371.53749006 821.36747891 361.53609729 821.37635398 C356.24803617 821.38153591 350.96020516 821.3935805 345.67221832 821.42292023 C340.67847151 821.45039866 335.68504602 821.45838066 330.69123077 821.45243073 C328.87419885 821.45351666 327.05715433 821.46127496 325.2401886 821.4768219 C290.9804922 821.75518384 261.36891666 809.79316872 236.6875 786.0625 C218.17533111 766.82317554 209.8452702 743.93859782 202.75 718.8125 C202.11563648 716.58870598 201.48068192 714.36508049 200.84521484 712.14160156 C198.76992453 704.86701798 196.71043038 697.58802014 194.65272522 690.30844879 C193.73585932 687.06583165 192.81794742 683.82351091 191.90005779 680.58118343 C187.3453083 664.491966 182.7958751 648.40124872 178.25415039 632.30834961 C170.59122037 605.15649369 162.90194502 578.01226363 155.1875 550.875 C154.66487171 549.03638843 154.142248 547.19777556 153.61962891 545.35916138 C151.56338769 538.12524867 149.50704905 530.89136366 147.45046997 523.657547 C142.3364958 505.66908749 137.2298923 487.67853861 132.125 469.6875 C131.69162086 468.16020683 131.25824073 466.63291395 130.82485962 465.10562134 C121.35130632 431.71914945 111.88372333 398.33098437 102.41665649 364.94267273 C99.48619943 354.60758819 96.5556685 344.27252459 93.625 333.9375 C93.33346165 332.90938139 93.33346165 332.90938139 93.03603363 331.86049271 C86.52696159 308.90616079 80.01425085 285.9528627 73.5 263 C66.78926999 239.35484601 60.08036719 215.70917539 53.375 192.0625 C53.18047997 191.37652363 52.98595993 190.69054726 52.78554535 189.98378372 C49.66244278 178.97011964 46.53953651 167.95639991 43.41665649 156.94267273 C33.70080924 122.67699318 23.98324664 88.41180118 14.26067352 54.14802933 C13.57008914 51.71424592 12.87955069 49.28044948 12.18902588 46.84664917 C11.10149133 43.01358908 10.01382416 39.18056664 8.92605782 35.34757233 C8.52861901 33.94703615 8.13122095 32.54648841 7.73386955 31.14592743 C7.18280782 29.20361464 6.63156719 27.26135261 6.08032227 25.3190918 C5.73776398 24.10772552 5.39520569 22.89635925 5.04226685 21.64828491 C4.32095178 19.12343931 3.58967975 16.60366268 2.8432312 14.08633423 C2.47593903 12.83686005 2.10864685 11.58738586 1.73022461 10.30004883 C1.39792343 9.18422928 1.06562225 8.06840973 0.72325134 6.91877747 C-0 4 -0 4 0 0 Z " fill="#00748A" transform="translate(0,0)"/>
<path d="M0 0 C29.97932317 -0.09149418 59.95864151 -0.16216394 89.93807374 -0.20426132 C93.48736189 -0.2092634 97.03664976 -0.21444077 100.5859375 -0.21972656 C101.29245761 -0.2207758 101.99897771 -0.22182505 102.72690752 -0.22290608 C114.12685873 -0.24025274 125.52672824 -0.2717583 136.92663118 -0.30861118 C148.64721128 -0.34618124 160.36774895 -0.36826956 172.08838677 -0.37635398 C178.66192892 -0.38154566 185.23528652 -0.39365424 191.80876923 -0.42292023 C198.0106817 -0.45030519 204.21233563 -0.45839879 210.41430283 -0.45243073 C212.67639705 -0.45352072 214.93850097 -0.46133564 217.20054245 -0.4768219 C234.73206023 -0.59083989 252.05847521 0.69932547 268.375 7.6875 C269.19532715 8.0278125 270.0156543 8.368125 270.86083984 8.71875 C278.49516739 12.00104834 285.29420798 16.11991393 292 21 C292.86496094 21.62390625 293.72992187 22.2478125 294.62109375 22.890625 C313.55015323 37.3069967 327.6550799 56.45005066 335.3125 79 C335.65800903 80.01163208 335.65800903 80.01163208 336.01049805 81.04370117 C340.78244869 95.9724642 341.42307973 110.0859744 341.34057617 125.63256836 C341.33965552 127.91720089 341.34006044 130.20183426 341.34167194 132.48646641 C341.34234488 138.56450995 341.32504932 144.64237368 341.30384064 150.72037506 C341.2866636 156.43895489 341.28594629 162.15749259 341.28381348 167.87609863 C341.2681169 184.56325592 341.22623312 201.25038028 341.1875 217.9375 C341.125625 255.248125 341.06375 292.55875 341 331 C196.79 331 52.58 331 -96 331 C-87.93785105 302.20661088 -87.93785105 302.20661088 -83.9453125 288.42578125 C-83.48624408 286.83831018 -83.02725752 285.25081544 -82.56834412 283.66329956 C-81.34386595 279.42864487 -80.11797829 275.19439954 -78.89171219 270.9602623 C-78.11180852 268.26694457 -77.33231482 265.57350852 -76.552948 262.8800354 C-65.988059 226.36852736 -55.38060483 189.86940752 -44.76274109 153.37327576 C-40.95946596 140.30025719 -37.15878289 127.22648674 -33.359375 114.15234375 C-14.77722767 50.21035533 -14.77722767 50.21035533 -7.3999939 24.90032959 C-6.80836254 22.87047492 -6.21690635 20.84056918 -5.62564087 18.81060791 C-4.84477853 16.13007324 -4.06316145 13.44976005 -3.28125 10.76953125 C-3.05966721 10.00851608 -2.83808441 9.24750092 -2.60978699 8.46342468 C-1.78110132 5.62583937 -0.93491881 2.80475644 0 0 Z M86 113 C83.97044222 118.26482252 82.17165234 123.51740336 80.61157227 128.93798828 C80.39322723 129.68720047 80.1748822 130.43641266 79.94992065 131.20832825 C79.23579297 133.66147471 78.52605896 136.11586815 77.81640625 138.5703125 C77.31487278 140.29661544 76.8130726 142.02284092 76.3110199 143.74899292 C74.99299248 148.28342127 73.67873587 152.81893418 72.36523438 157.35467529 C71.03952074 161.92985901 69.70995281 166.50392223 68.38085938 171.078125 C64.79723997 183.41297628 64.79723997 183.41297628 61.22976685 195.75250244 C60.4247268 198.54254414 59.60778816 201.32865295 58.7807312 204.11224365 C58.41343903 205.36152649 58.04614685 206.61080933 57.66772461 207.89794922 C57.34444687 208.9851828 57.02116913 210.07241638 56.68809509 211.19259644 C55.84129733 214.1657513 55.84129733 214.1657513 56 218 C112.76 218 169.52 218 228 218 C228.04125 201.04625 228.0825 184.0925 228.125 166.625 C228.14320801 161.26588379 228.16141602 155.90676758 228.18017578 150.38525391 C228.18686341 145.59391913 228.18686341 145.59391913 228.19088745 140.80258179 C228.19396466 138.66349456 228.20101115 136.52441087 228.21115112 134.38534546 C228.22572119 131.15087834 228.22781434 127.91662376 228.22705078 124.68212891 C228.23784511 123.24551124 228.23784511 123.24551124 228.2488575 121.77987099 C228.24472501 120.47847459 228.24472501 120.47847459 228.24050903 119.15078735 C228.24235262 118.39307352 228.24419621 117.63535969 228.24609566 116.85468483 C228.1584859 114.75318378 228.1584859 114.75318378 226 113 C223.45711791 112.70078571 223.45711791 112.70078571 220.44454956 112.75949097 C219.26381866 112.75674164 218.08308777 112.75399231 216.86657715 112.75115967 C214.91370789 112.7619455 214.91370789 112.7619455 212.92138672 112.77294922 C211.54179899 112.77351313 210.16221067 112.77319716 208.78262329 112.77206421 C205.030743 112.77148892 201.27898985 112.78327153 197.52713919 112.79721212 C193.60868564 112.8096903 189.69022938 112.81088768 185.77175903 112.81326294 C178.34861069 112.8194863 170.92552106 112.83590865 163.50239861 112.85596192 C155.05270263 112.87829434 146.60300388 112.88930765 138.15328574 112.89935279 C120.76882317 112.92027416 103.38441779 112.95546671 86 113 Z " fill="#F29110" transform="translate(619,0)"/>
</svg>
