<?xml version="1.0" encoding="UTF-8"?>
<svg version="1.1" xmlns="http://www.w3.org/2000/svg" width="960" height="988">
<path d="M0 0 C2.46113139 -0.00461976 4.92226002 -0.01097983 7.38338298 -0.01890898 C12.69312838 -0.03203621 18.00265912 -0.03300194 23.3123951 -0.02272034 C31.208386 -0.00747293 39.10424138 -0.01538549 47.00023163 -0.02755357 C61.10809553 -0.04852823 75.21588662 -0.04682674 89.32375731 -0.03523792 C101.66715709 -0.02514903 114.01053028 -0.0225613 126.35393333 -0.02732849 C127.17483028 -0.02763403 127.99572722 -0.02793957 128.84149982 -0.02825437 C132.17429346 -0.02949985 135.50708709 -0.03077347 138.8398807 -0.03209343 C170.0556723 -0.044309 201.2714177 -0.03326703 232.48720217 -0.01170584 C260.18979098 0.00728323 287.89230624 0.00556826 315.59489441 -0.0135498 C346.76358422 -0.03498832 377.93223328 -0.0434513 409.10092944 -0.03110075 C412.42586465 -0.02981799 415.75079987 -0.02856662 419.07573509 -0.02732849 C419.89434043 -0.02701218 420.71294577 -0.02669587 421.55635732 -0.02636998 C433.8921646 -0.02182922 446.22794232 -0.02712393 458.5637455 -0.0372467 C472.59289089 -0.04870207 486.6219525 -0.04578499 500.6510875 -0.02412373 C508.49281046 -0.01241383 516.33435179 -0.01156064 524.17606989 -0.02670843 C530.04276977 -0.03678711 535.90931093 -0.02578759 541.77599271 -0.00681013 C544.14035663 -0.00236157 546.50474501 -0.00457073 548.86909304 -0.01431328 C578.54537364 -0.12716755 603.25034751 7.1986949 624.8802948 28.50793457 C646.06888284 49.66114935 652.34855007 74.99054949 652.41069759 103.91350182 C652.41057207 107.02723826 652.39948977 110.14089599 652.38796366 113.25460827 C652.37683267 117.46993513 652.38909775 121.68520843 652.39827114 125.90053111 C652.41113441 133.27571953 652.4092451 140.65078758 652.39749146 148.02597618 C652.3800614 158.99320055 652.38562575 169.96033082 652.39565837 180.92756015 C652.41282836 200.51729872 652.40732363 220.10698123 652.39230118 239.69671862 C652.37924099 256.83831728 652.37405506 273.97989652 652.37661934 291.12150002 C652.37685996 292.82814463 652.37685996 292.82814463 652.37710545 294.56926692 C652.37776905 299.18797484 652.37847146 303.80668275 652.37923079 308.42539065 C652.38625176 351.73454949 652.37077328 395.04367412 652.34460733 438.35282426 C652.32148832 476.82258856 652.31610615 515.29231528 652.32633972 553.76208496 C652.32894178 563.61514885 652.3315268 573.46821273 652.33393764 583.32127666 C652.33423509 584.53434249 652.33453254 585.74740832 652.334839 586.99723371 C652.34245472 619.15414704 652.33604108 651.31105729 652.32524163 683.46796924 C652.32409383 686.92822747 652.32295065 690.38848569 652.3218148 693.84874392 C652.32105955 696.14413013 652.32029391 698.43951633 652.31951779 700.73490253 C652.31386121 717.8669645 652.31518821 734.99901673 652.31974602 752.13107872 C652.32485463 771.61019358 652.31899711 791.08927203 652.29885172 810.56837782 C652.28786921 821.46784306 652.28506871 832.36723674 652.29414025 843.26670417 C652.29936337 850.54925745 652.29365232 857.83174955 652.27908691 865.11429 C652.27109053 869.26200458 652.26774772 873.40957462 652.27765947 877.55728837 C652.28658904 881.33707675 652.28151415 885.11658819 652.26568003 888.8963516 C652.26084805 890.88244212 652.2705641 892.86855219 652.28102866 894.85462102 C652.13485855 917.56665117 643.56502938 938.33905859 628.8802948 955.50793457 C628.1171698 956.51855957 627.3540448 957.52918457 626.5677948 958.57043457 C610.84918521 975.7512404 587.95206605 986.3745245 564.8802948 988.50793457 C561.53699147 988.64354049 558.19816531 988.64588214 554.85243797 988.63936234 C553.86547648 988.64141497 552.87851499 988.6434676 551.86164558 988.64558244 C548.55220607 988.65123992 545.24280835 988.64979672 541.93336487 988.64837646 C539.53738057 988.65096083 537.1413967 988.6539742 534.74541342 988.65737987 C528.84939793 988.66459944 522.95339085 988.6671521 517.05737198 988.66770892 C509.99304249 988.6686242 502.92872133 988.67529672 495.86439544 988.68205575 C478.78909245 988.69810335 461.71379037 988.70401815 444.63848119 988.70880449 C436.55498005 988.71114224 428.47147961 988.71474515 420.38797902 988.71849987 C392.69926314 988.73133588 365.01054764 988.74205376 337.32182884 988.74550247 C335.58415003 988.7457241 333.84647122 988.74594589 332.1087924 988.74616782 C330.36698455 988.74638846 328.6251767 988.74660894 326.88336885 988.74682927 C323.3891801 988.74727182 319.89499136 988.74771893 316.40080261 988.74816895 C315.53444911 988.74827834 314.66809561 988.74838773 313.77548897 988.74850043 C285.7061617 988.75212822 257.6368603 988.7680375 229.56754292 988.79135931 C199.86872448 988.81598973 170.16992082 988.82967685 140.47109187 988.83087039 C137.20679323 988.83104183 133.94249459 988.83125726 130.67819595 988.83150482 C129.87447453 988.83156059 129.07075311 988.83161636 128.2426765 988.83167382 C115.34136529 988.83282164 102.44008075 988.84382095 89.53877853 988.85839188 C76.55392005 988.87280277 63.56909553 988.8759681 50.58423124 988.8679519 C42.88362439 988.86351678 35.18312761 988.86727064 27.48253536 988.88319041 C21.71142333 988.89417973 15.94040801 988.88923289 10.16929968 988.87841853 C7.85018411 988.87647225 5.53105729 988.87948989 3.2119575 988.8882629 C-45.09295009 989.05927747 -88.23472904 974.62725968 -123.1197052 940.50793457 C-124.29726379 939.42318848 -124.29726379 939.42318848 -125.49861145 938.31652832 C-132.29896505 931.90546151 -141.62010912 922.47174861 -144.8367157 913.51036072 C-145.97545271 910.8623488 -146.90500971 909.38018097 -149.1197052 907.50793457 C-154.5032431 906.30665875 -159.86578453 906.51060669 -165.3462677 906.61340332 C-166.97512752 906.61350211 -168.60399191 906.60963416 -170.23283386 906.602005 C-174.53008082 906.59055544 -178.8257204 906.62418068 -183.12269592 906.66992188 C-190.75944781 906.74422906 -198.39672 906.74489259 -206.0337677 906.73840332 C-206.84655748 906.73865761 -207.65934727 906.7389119 -208.49676704 906.73917389 C-237.66290619 906.71309247 -261.96153797 900.63017962 -283.1197052 879.50793457 C-283.88927551 878.74996582 -284.65884583 877.99199707 -285.45173645 877.21105957 C-300.61690771 861.40001219 -308.62929796 839.8602192 -308.50738525 818.11869812 C-308.51277079 816.94281657 -308.51815633 815.76693502 -308.52370507 814.5554207 C-308.53543264 811.33191703 -308.53396301 808.108751 -308.52653825 804.8852452 C-308.52177097 801.39295055 -308.53434767 797.9007091 -308.54455566 794.40843201 C-308.56168037 787.58215772 -308.56259682 780.75597573 -308.55734276 773.92968556 C-308.55328765 768.37615718 -308.55476048 762.8226559 -308.56009102 757.2691288 C-308.56121365 756.07974415 -308.56121365 756.07974415 -308.56235896 754.86633152 C-308.56389058 753.25506716 -308.56542892 751.6438028 -308.56697393 750.03253845 C-308.58067631 734.94976033 -308.57527744 719.86703419 -308.56378872 704.78425727 C-308.55386074 691.01567317 -308.5667935 677.24722355 -308.59072291 663.47866019 C-308.61516407 649.30780191 -308.62470936 635.13700613 -308.61807019 620.96612722 C-308.61458882 613.02360931 -308.61673794 605.08119471 -308.63432121 597.13869286 C-308.64910622 590.37686387 -308.64959711 583.61521094 -308.6322503 576.85338517 C-308.62378895 573.41027439 -308.62146968 569.96747725 -308.63690186 566.52438354 C-308.74238792 536.7843058 -302.77089819 512.94720614 -281.62361145 490.90637207 C-258.72029327 468.92190916 -232.12943662 465.99931464 -201.73957825 466.30194092 C-198.279755 466.33304114 -194.81986333 466.34641818 -191.35993958 466.3614502 C-184.61303017 466.39329285 -177.86638753 466.44425893 -171.1197052 466.50793457 C-171.12198352 465.50854344 -171.12198352 465.50854344 -171.12430787 464.48896259 C-171.21401129 424.91476205 -171.28254766 385.34057472 -171.32396652 345.76629293 C-171.32896876 341.00414791 -171.3341461 336.24200311 -171.33943176 331.4798584 C-171.340481 330.53188543 -171.34153025 329.58391245 -171.34261128 328.60721303 C-171.35997002 313.3002844 -171.39148246 297.99341647 -171.42831638 282.68652373 C-171.46585241 266.95551382 -171.48796768 251.22453549 -171.49605918 235.49348265 C-171.50152083 225.80310282 -171.51870852 216.11289461 -171.55137107 206.42256767 C-171.57267568 199.75846075 -171.57886961 193.09444127 -171.57371071 186.43030285 C-171.57117343 182.59755685 -171.57478766 178.76510861 -171.5965271 174.93241692 C-171.71118989 153.66058852 -170.71670698 132.78345862 -163.6197052 112.50793457 C-163.28567688 111.53356445 -162.95164856 110.55919434 -162.60749817 109.55529785 C-147.80876746 68.26345622 -117.04894664 34.6792447 -77.6822052 15.63293457 C-52.59204001 3.87948673 -27.56563212 -0.11417523 0 0 Z " fill="#5189F5" transform="translate(308.1197052001953,-0.5079345703125)"/>
<path d="M0 0 C2.46113139 -0.00461976 4.92226002 -0.01097983 7.38338298 -0.01890898 C12.69312838 -0.03203621 18.00265912 -0.03300194 23.3123951 -0.02272034 C31.208386 -0.00747293 39.10424138 -0.01538549 47.00023163 -0.02755357 C61.10809553 -0.04852823 75.21588662 -0.04682674 89.32375731 -0.03523792 C101.66715709 -0.02514903 114.01053028 -0.0225613 126.35393333 -0.02732849 C127.17483028 -0.02763403 127.99572722 -0.02793957 128.84149982 -0.02825437 C132.17429346 -0.02949985 135.50708709 -0.03077347 138.8398807 -0.03209343 C170.0556723 -0.044309 201.2714177 -0.03326703 232.48720217 -0.01170584 C260.18979098 0.00728323 287.89230624 0.00556826 315.59489441 -0.0135498 C346.76358422 -0.03498832 377.93223328 -0.0434513 409.10092944 -0.03110075 C412.42586465 -0.02981799 415.75079987 -0.02856662 419.07573509 -0.02732849 C419.89434043 -0.02701218 420.71294577 -0.02669587 421.55635732 -0.02636998 C433.8921646 -0.02182922 446.22794232 -0.02712393 458.5637455 -0.0372467 C472.59289089 -0.04870207 486.6219525 -0.04578499 500.6510875 -0.02412373 C508.49281046 -0.01241383 516.33435179 -0.01156064 524.17606989 -0.02670843 C530.04276977 -0.03678711 535.90931093 -0.02578759 541.77599271 -0.00681013 C544.14035663 -0.00236157 546.50474501 -0.00457073 548.86909304 -0.01431328 C578.54537364 -0.12716755 603.25034751 7.1986949 624.8802948 28.50793457 C645.71791668 49.31076911 652.29472284 74.31768696 652.38601112 102.80773926 C652.38929156 106.7948797 652.37214992 110.7817953 652.35173368 114.76887512 C652.33394051 118.98625012 652.33769206 123.20361561 652.3384552 127.42102051 C652.33659171 134.49824512 652.31935884 141.57529653 652.29191589 148.65246582 C652.26047549 156.78965989 652.24992037 164.9266648 652.251387 173.06391525 C652.25274682 181.79274792 652.23881704 190.52150946 652.22049379 199.25032043 C652.2162681 201.73687011 652.21481653 204.22340802 652.21401596 206.70996094 C652.21197947 210.64346515 652.19955048 214.57681594 652.17968369 218.51026917 C652.17393364 219.9383093 652.17136209 221.36636711 652.17253876 222.79441833 C652.18113585 239.60663148 651.28662485 257.1931504 643.8802948 272.50793457 C642.95988552 274.52706604 642.04326704 276.54792949 641.1302948 278.57043457 C640.38067348 280.21644042 639.63081061 281.86233639 638.8802948 283.50793457 C638.2202948 283.50793457 637.5602948 283.50793457 636.8802948 283.50793457 C636.47617371 284.61781738 636.47617371 284.61781738 636.06388855 285.75012207 C628.56455557 303.22381541 608.66445412 316.06873598 591.8802948 323.50793457 C588.88203647 324.51893477 585.94297866 325.34795631 582.8568573 326.03527832 C580.89056345 326.32324491 580.89056345 326.32324491 579.8802948 327.50793457 C573.09288467 329.36952063 566.45764394 329.79563497 559.45740604 329.76126766 C558.45204271 329.76436493 557.44667938 329.76746221 556.4108505 329.77065334 C553.05083903 329.77859786 549.69100663 329.77237911 546.33099365 329.76622009 C543.89402129 329.76907567 541.45704983 329.77281419 539.02008003 329.77735859 C533.72593753 329.78525325 528.4318462 329.78701399 523.13770294 329.78334618 C515.26455919 329.77794495 507.39145366 329.78406084 499.51831421 329.79263496 C486.26812418 329.80680055 473.01794481 329.81214893 459.76774788 329.81289482 C441.66171357 329.81407456 423.55570958 329.82928748 405.44968628 329.84838999 C397.00828963 329.85728874 388.56689236 329.86555855 380.12549496 329.87371159 C379.28045533 329.87452934 378.4354157 329.87534709 377.56476881 329.87618962 C357.45648669 329.89552302 337.3482015 329.90906565 317.23991394 329.92126465 C316.36028035 329.92180144 315.48064676 329.92233823 314.57435761 329.92289129 C294.05982132 329.93538146 273.54528466 329.9461625 253.03074646 329.95495605 C245.9185028 329.958026 238.80625915 329.96111835 231.6940155 329.9642334 C230.81622787 329.96461521 229.93844023 329.96499703 229.03405297 329.96539041 C208.97810821 329.97415974 188.9221699 329.98533278 168.86623287 330.00536442 C168.02230514 330.00620708 167.17837741 330.00704975 166.30887611 330.00791795 C157.8812461 330.01640305 149.45361677 330.02539858 141.02598809 330.03510972 C136.87910062 330.03987083 132.73221299 330.04448638 128.58532524 330.04899788 C127.36120668 330.0503297 127.36120668 330.0503297 126.11235844 330.05168843 C113.00414879 330.06559259 99.89595985 330.06826297 86.78774393 330.06631822 C73.60153505 330.06451897 60.41536764 330.07321859 47.22917259 330.09262662 C39.4057355 330.10379358 31.58239919 330.10666437 23.75895903 330.09743027 C17.90181645 330.09143571 12.0447657 330.10116283 6.18763863 330.11674464 C3.8296098 330.1206065 1.471566 330.11948977 -0.88645618 330.11268776 C-18.03556645 330.06717054 -34.78845819 330.96654267 -51.2447052 336.25793457 C-52.06833557 336.5161499 -52.89196594 336.77436523 -53.74055481 337.04040527 C-80.23157069 345.54473198 -102.01975737 359.39698562 -122.1197052 378.50793457 C-122.81450989 379.13828613 -123.50931458 379.7686377 -124.22517395 380.41809082 C-148.26252239 402.96859297 -160.74777701 435.16694376 -168.1197052 466.50793457 C-169.4397052 466.83793457 -170.7597052 467.16793457 -172.1197052 467.50793457 C-172.08363686 427.13327645 -172.02658812 386.7586971 -171.94178425 346.38411066 C-171.93176796 341.60694484 -171.92192363 336.82977869 -171.91218567 332.0526123 C-171.9102443 331.10164872 -171.90830292 330.15068513 -171.90630272 329.17090447 C-171.87536413 313.81551254 -171.85832488 298.46013552 -171.84651098 283.10471832 C-171.83405708 267.32394183 -171.80646069 251.54324301 -171.76509213 235.7625156 C-171.74007748 226.04146903 -171.72657907 216.32055144 -171.72827563 206.59947223 C-171.72830561 199.91429872 -171.71349826 193.22925564 -171.68754092 186.54413306 C-171.67303395 182.69927113 -171.66457015 178.85467655 -171.67390251 175.00979233 C-171.71969164 153.72616319 -170.72034734 132.7938588 -163.6197052 112.50793457 C-163.28567688 111.53356445 -162.95164856 110.55919434 -162.60749817 109.55529785 C-147.80876746 68.26345622 -117.04894664 34.6792447 -77.6822052 15.63293457 C-52.59204001 3.87948673 -27.56563212 -0.11417523 0 0 Z " fill="#63CEFE" transform="translate(308.1197052001953,-0.5079345703125)"/>
<path d="M0 0 C0.33 0 0.66 0 1 0 C1.06871996 41.41954954 1.12155611 82.83909248 1.15319599 124.25868777 C1.15694795 129.15260184 1.16083093 134.04651579 1.16479492 138.94042969 C1.16558185 139.91468837 1.16636878 140.88894706 1.16717956 141.89272873 C1.18022081 157.65191307 1.20386759 173.41106446 1.23145839 189.17022927 C1.25954825 205.34981237 1.27618383 221.52937825 1.28226548 237.70898473 C1.2863745 247.68648997 1.29933585 257.66390207 1.3237494 267.64137863 C1.33965081 274.49043017 1.34439041 281.3394338 1.34050413 288.18850245 C1.33858942 292.13552001 1.34145056 296.0823752 1.35761642 300.02936363 C1.37234478 303.65207625 1.37286976 307.27451915 1.36269668 310.89724486 C1.36085288 312.80959757 1.37367518 314.72194768 1.38724393 316.63425314 C1.27168569 339.21031771 -7.42019739 359.9538068 -22 377 C-22.763125 378.010625 -23.52625 379.02125 -24.3125 380.0625 C-40.03110959 397.24330583 -62.92822875 407.86658993 -86 410 C-89.34330333 410.13560592 -92.68212949 410.13794757 -96.02785683 410.13142776 C-97.50829906 410.13450672 -97.50829906 410.13450672 -99.01864922 410.13764787 C-102.32808873 410.14330535 -105.63748645 410.14186215 -108.94692993 410.14044189 C-111.34291423 410.14302626 -113.7388981 410.14603963 -116.13488138 410.1494453 C-122.03089686 410.15666487 -127.92690395 410.15921753 -133.82292282 410.15977435 C-140.88725231 410.16068963 -147.95157347 410.16736215 -155.01589936 410.17412117 C-172.09120235 410.19016878 -189.16650443 410.19608358 -206.24181361 410.20086992 C-214.32531475 410.20320767 -222.40881519 410.20681058 -230.49231578 410.2105653 C-258.18103166 410.22340131 -285.86974716 410.23411919 -313.55846596 410.2375679 C-315.29614477 410.23778953 -317.03382358 410.23801132 -318.7715024 410.23823325 C-320.51331025 410.23845389 -322.2551181 410.23867437 -323.99692595 410.2388947 C-327.4911147 410.23933725 -330.98530344 410.23978436 -334.47949219 410.24023438 C-335.34584569 410.24034377 -336.21219919 410.24045316 -337.10480583 410.24056586 C-365.1741331 410.24419365 -393.2434345 410.26010293 -421.31275188 410.28342474 C-451.01157032 410.30805516 -480.71037398 410.32174228 -510.40920293 410.32293582 C-513.67350157 410.32310726 -516.93780021 410.32332269 -520.20209885 410.32357025 C-521.00582027 410.32362602 -521.80954169 410.32368179 -522.6376183 410.32373925 C-535.53892951 410.32488707 -548.44021405 410.33588638 -561.34151627 410.35045731 C-574.32637475 410.3648682 -587.31119927 410.36803353 -600.29606356 410.36001733 C-607.99667041 410.35558221 -615.69716719 410.35933607 -623.39775944 410.37525584 C-629.16887147 410.38624516 -634.93988679 410.38129832 -640.71099512 410.37048396 C-643.03011069 410.36853768 -645.34923751 410.37155532 -647.6683373 410.38032833 C-695.97324489 410.5513429 -739.11502384 396.11932511 -774 362 C-774.78503906 361.27683594 -775.57007813 360.55367187 -776.37890625 359.80859375 C-783.02990749 353.53832961 -788.38029317 346.24605372 -793.68603516 338.83447266 C-794.53407887 337.65048892 -795.39741656 336.47724321 -796.27880859 335.31787109 C-797.41796875 333.76171875 -797.41796875 333.76171875 -799 331 C-798.59887695 328.82739258 -798.59887695 328.82739258 -798 327 C-796.54696142 327.00276538 -796.54696142 327.00276538 -795.06456852 327.00558662 C-771.43334961 327.05009594 -747.80213618 327.08290367 -724.17088413 327.10362434 C-712.74273242 327.11391247 -701.31460849 327.12792541 -689.88647461 327.15087891 C-679.91924915 327.17088851 -669.95204383 327.18373432 -659.98479885 327.18817699 C-654.71311793 327.1907716 -649.44149459 327.19681809 -644.16983223 327.21146011 C-639.19503574 327.22516398 -634.22031986 327.22919711 -629.24550629 327.22621536 C-627.4320653 327.22675986 -625.61862126 327.23066028 -623.80519676 327.23841095 C-609.37951025 327.29697624 -594.33382557 327.26830676 -580.625 322.25 C-579.50460327 321.85639282 -579.50460327 321.85639282 -578.36157227 321.45483398 C-568.40345418 317.84379041 -560.12891667 312.75301054 -552 306 C-551.39929688 305.52175781 -550.79859375 305.04351563 -550.1796875 304.55078125 C-547.6214276 302.49305046 -545.83883643 300.75825465 -544 298 C-543.34 298 -542.68 298 -542 298 C-541.73703125 297.4328125 -541.4740625 296.865625 -541.203125 296.28125 C-539.90978636 293.82894556 -538.39876646 291.72806278 -536.75 289.5 C-527.19465002 275.900477 -520.92826031 259.55206634 -520.84178162 242.82461548 C-520.83437465 241.7756198 -520.83437465 241.7756198 -520.82681805 240.7054323 C-520.81152601 238.3747501 -520.80310508 236.04409526 -520.79467773 233.71337891 C-520.78509268 232.03763592 -520.77508223 230.36189533 -520.76467896 228.68615723 C-520.73769181 224.14535033 -520.7166488 219.60453311 -520.69667697 215.06369066 C-520.67477915 210.31509561 -520.64740906 205.56653217 -520.62062073 200.81796265 C-520.57074512 191.82960728 -520.52578728 182.84123431 -520.48259836 173.8528446 C-520.43318209 163.61829648 -520.37828026 153.38378008 -520.32291877 143.14926267 C-520.20917752 122.09953801 -520.10232141 101.04978306 -520 80 C-518.62616476 79.99796521 -518.62616476 79.99796521 -517.22457528 79.99588931 C-462.9375271 79.91523347 -408.6505045 79.82427649 -354.36349638 79.71994839 C-347.84470736 79.70742957 -341.32591819 79.69499679 -334.80712891 79.68261719 C-333.50935921 79.68015119 -332.21158951 79.6776852 -330.87449345 79.67514448 C-309.86316299 79.63542437 -288.85182716 79.60267371 -267.84048107 79.57250018 C-246.27977038 79.54138255 -224.71908249 79.50277178 -203.15839744 79.45720994 C-189.85509346 79.42933355 -176.55180615 79.40729679 -163.24848083 79.39273749 C-154.12502079 79.38219271 -145.00159305 79.36436736 -135.87815735 79.34083296 C-130.61501908 79.32747091 -125.35192605 79.31730346 -120.08876991 79.31578636 C-115.26589241 79.31432519 -110.44312378 79.30367746 -105.62027976 79.28586559 C-103.87984167 79.2810339 -102.13939042 79.27951142 -100.39894703 79.28172119 C-74.99228179 79.30867284 -53.02759164 72.92471697 -33 57 C-31.96875 56.236875 -30.9375 55.47375 -29.875 54.6875 C-15.08722757 40.86414751 -6.581057 23.3094396 -1.796875 3.95703125 C-1 1 -1 1 0 0 Z " fill="#0943D8" transform="translate(959,578)"/>
<path d="M0 0 C2.65116392 -0.00243153 5.30230282 -0.00603905 7.95346069 -0.01106262 C14.37675115 -0.0204949 20.79992833 -0.01399925 27.2232103 -0.00179968 C34.72487249 0.01190989 42.22650855 0.01017449 49.72818008 0.00806699 C63.12838008 0.00488499 76.52852675 0.01649748 89.92871094 0.03613281 C102.88901393 0.05511823 115.84925441 0.06222332 128.80957031 0.05664062 C142.96482097 0.05056113 157.12004422 0.05080063 171.27529263 0.06212646 C172.78945748 0.06333357 174.30362232 0.06453956 175.81778717 0.0657444 C176.56252682 0.06634794 177.30726646 0.06695148 178.07457398 0.06757331 C183.28511906 0.07142817 188.49565384 0.07106828 193.70619965 0.06915855 C200.07223553 0.06702011 206.43821712 0.07238343 212.80423781 0.08677211 C216.04310024 0.09393832 219.28186972 0.09706673 222.52074051 0.09352875 C260.63468011 0.05823906 260.63468011 0.05823906 274.00488281 5.05981445 C274.73908447 5.32109131 275.47328613 5.58236816 276.22973633 5.8515625 C287.81918566 10.12229037 297.44272744 16.13504268 306.62988281 24.37231445 C307.2525 24.91243164 307.87511719 25.45254883 308.51660156 26.0090332 C323.09335755 39.49847872 333.93334142 60.8593721 334.7250334 80.76465869 C334.76788558 83.76611967 334.77756785 86.76614241 334.77705383 89.76791382 C334.78073052 90.92148018 334.78440721 92.07504655 334.78819531 93.26356947 C334.79729253 96.45717699 334.80192534 99.65075429 334.80458462 102.84437251 C334.80850025 106.2924661 334.81807779 109.74054499 334.82679749 113.18862915 C334.84652816 121.5125635 334.85662455 129.836499 334.86552528 138.16045088 C334.86991442 142.08638521 334.87527966 146.01231821 334.88051414 149.9382515 C334.8975243 162.99986936 334.91201606 176.0614864 334.91926289 189.12311363 C334.92117259 192.51005428 334.92309295 195.89699492 334.92504883 199.28393555 C334.92553257 200.12568017 334.92601631 200.96742479 334.92651471 201.83467682 C334.93480604 215.45496626 334.96012874 229.07516762 334.99262951 242.69541864 C335.0257703 256.69880127 335.04371804 270.70213925 335.04690713 284.70556128 C335.04906592 292.55989078 335.05772146 300.41409191 335.0833683 308.26838303 C335.10517161 314.96082881 335.11307881 321.65311503 335.10340152 328.34559231 C335.09888414 331.75431311 335.10281381 335.16244081 335.12016296 338.57115936 C335.18660651 352.40656344 335.11884795 365.1732103 330.62988281 378.37231445 C330.23095983 379.56923605 329.83203684 380.76615765 329.42102528 381.99934959 C326.8247768 389.49295242 323.18134042 395.90339133 318.62988281 402.37231445 C318.10007812 403.12641602 317.57027344 403.88051758 317.02441406 404.6574707 C306.31069211 419.3922811 290.88758686 429.78490553 273.81738281 435.74731445 C273.15601318 435.98603271 272.49464355 436.22475098 271.81323242 436.47070312 C257.89818134 440.99133716 242.65952228 440.65855641 228.19848633 440.58349609 C226.31747519 440.58128857 224.43646281 440.57998807 222.55545044 440.57951355 C218.5439914 440.57660691 214.53261576 440.56745379 210.52118111 440.5532093 C204.18053947 440.5307588 197.83992774 440.5228242 191.49925232 440.51670837 C181.48300026 440.50538271 171.46679394 440.48468723 161.45056719 440.45981067 C143.4710502 440.41525016 125.49151613 440.38231793 107.51195854 440.35956663 C101.20435513 440.35115183 94.89679598 440.33712274 88.58921444 440.3185941 C84.68207498 440.30798457 80.77493596 440.30138019 76.86778641 440.29579353 C75.05125573 440.29231166 73.23472747 440.28708535 71.41820717 440.28002548 C68.94782001 440.27063141 66.47749792 440.26730504 64.00709534 440.26551819 C62.91847123 440.25910257 62.91847123 440.25910257 61.80785471 440.25255734 C58.0946041 440.20275253 58.0946041 440.20275253 54.62988281 441.37231445 C52.36102363 441.45086597 50.08971454 441.46119066 47.81958008 441.44165039 C47.11828979 441.43686172 46.41699951 441.43207306 45.69445801 441.42713928 C43.36164542 441.40937913 41.02901288 441.38361569 38.69628906 441.35668945 C37.06314645 441.3399787 35.43000333 441.32331687 33.79685974 441.30670166 C30.35759905 441.27014486 26.9184257 441.22894207 23.47924805 441.18530273 C19.12725607 441.1310007 14.77531457 441.09403552 10.42311192 441.06167221 C7.03804624 441.03339863 3.65321484 440.99232111 0.2683239 440.94806671 C-1.33196371 440.92918185 -2.93231138 440.91473194 -4.53268242 440.90526581 C-13.29419171 440.84836011 -21.82129151 440.34831609 -30.48754883 439.00219727 C-31.63703207 438.82407061 -31.63703207 438.82407061 -32.80973721 438.64234543 C-51.04407786 435.56509139 -66.36414787 426.35620233 -79.37011719 413.37231445 C-80.1396875 412.6143457 -80.90925781 411.85637695 -81.70214844 411.07543945 C-96.8673197 395.26439207 -104.87970994 373.72459909 -104.75779724 351.983078 C-104.76318278 350.80719645 -104.76856832 349.6313149 -104.77411705 348.41980058 C-104.78584462 345.19629691 -104.78437499 341.97313088 -104.77695024 338.74962509 C-104.77218296 335.25733043 -104.78475965 331.76508898 -104.79496765 328.27281189 C-104.81209235 321.4465376 -104.81300881 314.62035562 -104.80775475 307.79406544 C-104.80369963 302.24053706 -104.80517246 296.68703578 -104.81050301 291.13350868 C-104.81125143 290.34058558 -104.81199985 289.54766248 -104.81277095 288.7307114 C-104.81430256 287.11944704 -104.81584091 285.50818268 -104.81738592 283.89691833 C-104.8310883 268.81414021 -104.82568942 253.73141407 -104.81420071 238.64863715 C-104.80427273 224.88005306 -104.81720549 211.11160343 -104.8411349 197.34304007 C-104.86557606 183.17218179 -104.87512135 169.00138601 -104.86848217 154.8305071 C-104.86500081 146.88798919 -104.86714993 138.9455746 -104.8847332 131.00307274 C-104.89951821 124.24124375 -104.90000909 117.47959082 -104.88266229 110.71776506 C-104.87420094 107.27465427 -104.87188166 103.83185713 -104.88731384 100.38876343 C-104.99279991 70.64868568 -99.02131018 46.81158602 -77.87402344 24.77075195 C-55.62803894 3.41725123 -29.56563065 -0.09527484 0 0 Z " fill="#1844B7" transform="translate(104.3701171875,465.627685546875)"/>
<path d="M0 0 C17.16 0 34.32 0 52 0 C56.50411581 16.89043429 56.50411581 16.89043429 57.640625 22.609375 C57.76841843 23.2472142 57.89621185 23.88505341 58.02787781 24.54222107 C58.44043891 26.6104916 58.8455026 28.68013864 59.25 30.75 C59.54876698 32.2595497 59.847681 33.7690703 60.14672852 35.27856445 C62.68171285 48.13546704 65.0641026 61.02051244 67.43875122 73.9078064 C70.36844026 89.79824487 73.48862578 105.64503509 76.68470764 121.48377991 C76.84418381 122.2741716 77.00365997 123.06456329 77.16796875 123.87890625 C77.32458481 124.65483627 77.48120087 125.4307663 77.64256287 126.23020935 C79.83971977 137.13831041 81.92806377 148.06748943 84 159 C85.50798218 154.73204934 86.59436896 150.53114115 87.48046875 146.09375 C87.61387161 145.42927856 87.74727448 144.76480713 87.88471985 144.0802002 C88.3232565 141.88762743 88.7556273 139.69389438 89.1875 137.5 C89.4973747 135.94009997 89.80727097 134.38020422 90.1171875 132.8203125 C92.50079472 120.76794348 94.73688094 108.69018425 96.93612671 96.60302734 C99.13999036 84.49829738 101.48274501 72.4286925 103.9324646 60.37145996 C106.70126127 46.72895398 109.23727949 33.04814143 111.69140625 19.34570312 C111.83128464 18.57212463 111.97116302 17.79854614 112.11528015 17.00152588 C112.37482456 15.56599345 112.63158765 14.1299538 112.88484192 12.69329834 C113.67722661 8.32543499 114.76906479 4.30827323 116 0 C137.78 0 159.56 0 182 0 C188.95069285 32.43656662 188.95069285 32.43656662 192.10954285 48.26982117 C192.33811666 49.41444006 192.56669048 50.55905895 192.80219078 51.73836327 C193.03633501 52.91138308 193.27047924 54.08440289 193.51171875 55.29296875 C194.01151072 57.79057507 194.51141666 60.28815858 195.01142883 62.78572083 C196.17792996 68.61494536 197.34248643 74.44455598 198.50628835 80.27431995 C199.55969563 85.54998066 200.61594432 90.82506939 201.67288369 96.10002345 C202.83329183 101.89180814 203.99149795 107.68403128 205.14881325 113.47643471 C205.63420218 115.90469924 206.12014721 118.33285268 206.60669518 120.76088524 C211.29743499 144.17908295 211.29743499 144.17908295 213.106143 155.09644604 C213.69569856 158.65647367 213.69569856 158.65647367 215 162 C215.17015625 161.03328369 215.3403125 160.06656738 215.515625 159.07055664 C218.8722662 140.03617329 222.331669 121.02738944 226.0625 102.0625 C226.23210236 101.19988556 226.40170471 100.33727112 226.57644653 99.44851685 C226.74594818 98.58644623 226.91544983 97.72437561 227.09008789 96.83618164 C227.42727737 95.12126266 227.76443592 93.4063376 228.1015625 91.69140625 C228.26544968 90.85787125 228.42933685 90.02433624 228.59819031 89.1655426 C230.08000696 81.61691961 231.52125063 74.06123095 232.9375 66.5 C233.28022949 64.67082031 233.28022949 64.67082031 233.62988281 62.8046875 C235.0117342 55.39242916 236.37032179 47.97611741 237.71842957 40.55764771 C238.54256014 36.02333094 239.36919227 31.48947095 240.19558716 26.95556641 C240.80594786 23.59853728 241.41172104 20.24070088 242.01733398 16.8828125 C242.39287038 14.81897474 242.76859398 12.75517103 243.14453125 10.69140625 C243.31717499 9.72638687 243.48981873 8.76136749 243.66769409 7.7671051 C243.82867584 6.88820114 243.98965759 6.00929718 244.15551758 5.10375977 C244.29508377 4.3320192 244.43464996 3.56027863 244.57844543 2.76515198 C245 1 245 1 246 0 C247.65738443 -0.09346915 249.31874644 -0.11744977 250.97875977 -0.11352539 C252.03978409 -0.11344986 253.10080841 -0.11337433 254.19398499 -0.11329651 C255.348134 -0.10813522 256.50228302 -0.10297394 257.69140625 -0.09765625 C259.4538694 -0.09553383 259.4538694 -0.09553383 261.25193787 -0.09336853 C265.02215064 -0.08774992 268.79230504 -0.07519426 272.5625 -0.0625 C275.11132727 -0.0574874 277.66015547 -0.05292408 280.20898438 -0.04882812 C286.47267633 -0.03777444 292.73633399 -0.02101821 299 0 C299.12038856 4.65856147 298.79222163 8.7397977 297.71484375 13.26953125 C297.29525391 15.07067383 297.29525391 15.07067383 296.8671875 16.90820312 C296.71604492 17.54250244 296.56490234 18.17680176 296.40917969 18.83032227 C295.58707558 22.28511689 294.79185396 25.74608957 293.99609375 29.20703125 C293.82979462 29.92859406 293.66349548 30.65015686 293.49215698 31.39358521 C291.69643905 39.2356583 290.09453649 47.11504247 288.5 55 C286.03810136 67.14252636 283.39708733 79.22869925 280.62719727 91.30541992 C278.42908634 100.94896331 276.40427089 110.61959385 274.4375 120.3125 C272.21079605 131.28626724 269.8389616 142.20677231 267.26708984 153.10595703 C265.03462145 162.65325918 263.07150914 172.24788495 261.12265015 181.85601807 C258.71958915 193.68859915 256.12517212 205.46724915 253.42749023 217.23583984 C251.52620068 225.5623457 249.74860809 233.90177446 248.15356445 242.29248047 C247.09608166 247.80783667 247.09608166 247.80783667 246 250 C224.55 250 203.1 250 181 250 C179.80375 244.121875 178.6075 238.24375 177.375 232.1875 C175.00788229 220.60357949 172.61135838 209.03182438 170 197.5 C167.51648898 186.52930799 165.24069022 175.52220426 163 164.5 C160.02296903 149.8573645 156.89448559 135.26006822 153.60205078 120.68457031 C152.35695279 115.13262486 151.17319552 109.56753314 150 104 C149.67 104 149.34 104 149 104 C148.81526123 104.89452881 148.63052246 105.78905762 148.44018555 106.71069336 C140.79925825 143.60121108 132.52340605 180.34850556 123.99243164 217.04272461 C123.65246258 218.50633745 123.31253648 219.96996028 122.97265625 221.43359375 C122.72927269 222.48002296 122.72927269 222.48002296 122.48097229 223.54759216 C121.5963125 227.36701908 120.73385349 231.19046522 119.89404297 235.02001953 C119.62145912 236.26151512 119.62145912 236.26151512 119.34336853 237.52809143 C118.99417179 239.12434109 118.64735422 240.7211136 118.30323792 242.31846619 C117.10936381 247.78127239 117.10936381 247.78127239 116 250 C94.55 250 73.1 250 51 250 C46.41133764 231.64535054 46.41133764 231.64535054 45.03515625 224.49609375 C44.87687347 223.69355164 44.7185907 222.89100952 44.55551147 222.06414795 C44.22389594 220.38166372 43.89394131 218.69885127 43.56564331 217.01571655 C42.70133216 212.58679686 41.82339875 208.16058098 40.9453125 203.734375 C40.77456711 202.87277267 40.60382172 202.01117035 40.42790222 201.12345886 C39.16938288 194.79514862 37.84003872 188.48555826 36.4375 182.1875 C34.19117787 172.08900665 32.1834646 161.94675369 30.17749023 151.79855347 C27.92585354 140.42665559 25.51804296 129.0983758 22.99969482 117.78283691 C20.47228365 106.40506127 18.1920384 94.99079601 16.04077148 83.53613281 C14.75275102 76.71160876 13.31518306 69.9504222 11.72314453 63.19067383 C10.5205425 57.88452734 9.55210217 52.53667909 8.5625 47.1875 C6.92835283 38.48821577 5.11776182 29.90881193 2.796875 21.3671875 C2.17514777 18.74008517 1.75867057 16.30100693 1.453125 13.6328125 C1.40227525 10.19755874 1.40227525 10.19755874 0 9 C0 6.03 0 3.06 0 0 Z " fill="#FDFDFE" transform="translate(70,561)"/>
<path d="M0 0 C0.33 0 0.66 0 1 0 C1 3.96 1 7.92 1 12 C1.66 12 2.32 12 3 12 C2.67 12.99 2.34 13.98 2 15 C1.01 14.67 0.02 14.34 -1 14 C-0.67 9.38 -0.34 4.76 0 0 Z " fill="#89D7FC" transform="translate(137,452)"/>
</svg>
